<svg width="66" height="59" viewBox="0 0 66 59" fill="none" xmlns="http://www.w3.org/2000/svg">
<path d="M51.4959 12.59C51.9243 12.8097 52.0617 13.6494 51.9119 14.0597C51.375 15.5722 49.9864 16.8494 48.5293 17.5801C50.2953 19.4866 51.2559 22.0972 51.9571 24.6187C52.9665 28.2705 53.6995 32.2346 56.4526 35.0561C56.6246 35.2311 56.3335 36.0467 56.2863 36.0055C56.2475 35.9592 56.2038 35.9044 56.1651 35.8582C56.152 35.9924 56.1203 36.1146 56.0555 36.1413C52.8457 37.7651 49.3522 38.7504 45.7697 39.0172C44.1733 39.1396 42.5578 39.112 40.9689 38.9538C39.5228 38.8036 37.8369 38.6564 36.5018 38.0497C36.002 37.8259 35.7159 37.4765 35.5731 37.0773C35.563 37.0602 35.5479 37.0346 35.5449 36.9903C35.3875 36.5076 35.4332 35.94 35.5945 35.3733C35.8298 34.5215 36.248 33.7461 36.4783 32.8858C36.6718 32.1391 36.7838 31.3713 36.8602 30.6015C37.0586 28.4942 36.9754 26.1038 37.1487 23.7582C36.3021 25.8786 35.1217 27.8618 33.617 29.5871C30.535 33.1493 26.2775 35.5737 21.6195 36.3007C17.8761 36.8808 10.8467 35.6892 10.727 35.7596L8.50375 37.3784C8.43185 37.4322 8.23667 36.3964 8.27086 36.3763C8.26784 36.3321 8.37428 34.6356 8.51198 33.8527C8.45515 33.7365 8.55818 33.2272 8.62757 33.2669C9.61466 28.4519 12.4501 24.0797 16.4985 21.2606C16.5005 21.2249 16.499 21.2027 16.499 21.2027C16.5126 21.2063 16.5262 21.2098 16.5483 21.2083C16.5287 21.1163 17.3643 21.0503 17.4524 21.2977C21.847 21.7267 26.2862 21.3125 30.5288 20.036C30.5716 20.0108 35.4508 13.7343 38.3015 10.9525C38.295 10.9218 39.8325 10.1323 40.6606 10.1513C40.7184 10.1518 40.7501 10.2252 40.7838 10.2629C40.7888 10.2715 40.7853 10.285 40.7954 10.3021L41.1993 6.84276C41.0756 6.78897 40.969 6.72513 40.8644 6.62558C40.4159 6.17611 40.1518 5.23838 40.4087 4.63851C40.551 4.31317 40.8009 4.13164 41.087 4.08988C41.4414 3.8123 41.9945 3.77453 42.4229 3.99423C43.063 4.31949 43.4503 5.36882 43.2558 6.03556C43.1417 6.44788 42.8279 6.73602 42.4559 6.88589C42.7777 7.82411 43.0911 8.76735 43.418 9.71412C45.3337 10.2323 47.0751 11.2559 48.4831 12.6712C48.5354 12.721 48.5771 12.8115 48.6053 12.8985L50.1635 12.6721C50.5245 12.6207 51.1454 12.405 51.4959 12.59ZM51.4457 13.4825C51.1244 13.4644 50.7408 13.575 50.4853 13.6103C50.0409 13.6762 49.5914 13.7335 49.1469 13.7995C48.1694 13.9373 47.192 14.0752 46.2196 14.2216C44.3838 14.4847 42.5481 14.7478 40.7209 15.0059C40.7133 15.0909 40.472 15.0718 40.4655 15.0412L40.3513 15.0623C40.1487 15.0895 39.9324 14.1351 40.0294 14.1241C40.135 14.108 40.2406 14.0919 40.3598 14.0793C40.4738 13.0802 40.5844 12.0947 40.6984 11.0956C40.0297 11.1323 38.7812 11.7288 38.7606 11.7524C35.8003 14.6217 30.7557 21.1452 30.6853 21.0255C26.223 22.3392 21.5373 22.7258 16.9194 22.152C16.6867 22.3235 16.4403 22.4914 16.2075 22.6629C16.2206 22.7243 15.6354 23.1376 15.6253 23.1205C12.4101 25.7716 10.101 29.4544 9.12388 33.5042C11.18 34.5151 13.3868 35.1957 15.6721 35.462C20.1321 36.0022 24.7172 35.0534 28.5524 32.6934C32.5878 30.2041 35.6877 26.3207 37.1907 21.8349C37.2169 21.762 37.3757 21.0933 37.4014 21.0782C38.6891 21.6437 39.9692 20.7295 40.8475 19.856C41.4136 19.2928 41.9445 18.6698 42.6354 18.2404C43.2578 17.8511 43.9703 17.6736 44.6823 17.5538C46.159 17.3063 47.5332 17.1192 48.8243 16.302C49.4332 15.9092 49.9917 15.431 50.4694 14.8738C50.7529 14.5344 51.2099 14.0009 51.4457 13.4825ZM44.5677 13.4675C45.7257 13.304 46.8922 13.1354 48.0502 12.9719C46.7991 11.9016 45.3212 11.0911 43.7399 10.6523C43.9803 11.3738 44.2257 12.1039 44.4797 12.8289C44.4913 12.8682 44.6406 13.298 44.5451 13.3312C44.441 13.3695 44.3017 12.9567 44.2886 12.8953C43.6152 10.9098 42.9418 8.92424 42.2733 6.94725C42.0672 6.98799 41.8595 7.00662 41.6559 6.95384C41.3806 9.302 41.1188 11.6537 40.8435 14.0018C42.0849 13.8237 43.3263 13.6456 44.5763 13.4625L44.5677 13.4675ZM53.2564 30.7579C51.9885 27.097 51.5743 23.0489 49.3812 19.7713C48.9261 19.0956 48.372 18.4666 47.7303 17.9236C46.8193 18.2526 45.8559 18.3361 44.9071 18.5031C43.8135 18.6978 42.9205 19.0966 42.1096 19.8499C40.9316 20.9572 39.5108 22.8057 37.6604 22.0074C37.6418 21.9953 37.6182 21.9747 37.5895 21.9455L37.5096 22.3377C37.5543 22.4725 37.5906 22.6122 37.5574 22.7123C37.5172 22.8395 37.4548 22.9683 37.4146 23.0955C37.393 23.2347 37.3664 23.3655 37.3533 23.4997C37.0931 26.2647 37.3327 29.0578 36.9076 31.8163C36.704 33.1326 36.316 34.3505 35.8309 35.5794C35.7997 35.6438 35.7907 35.7066 35.7731 35.7745C35.7987 35.7594 35.8057 35.7323 35.8329 35.7393C35.8585 35.7242 35.8731 35.8077 35.8842 35.9047C38.2884 33.2245 41.7048 31.5021 45.311 31.2559C45.3281 31.2458 45.3351 31.2187 45.3487 31.2222L45.3638 31.2478C45.4352 31.2519 45.5051 31.2337 45.5714 31.2292C49.0187 31.065 52.4168 32.2644 55.0633 34.4353C54.2974 33.3096 53.7145 32.0647 53.2614 30.7664L53.2564 30.7579ZM55.1655 35.6063C52.5436 33.3404 49.0882 32.0827 45.6072 32.2092L45.9719 33.5135C46.0604 33.5074 46.1624 33.5049 46.2575 33.5295C46.7025 33.6014 47.1168 33.8754 47.3481 34.2686C47.6398 34.7643 47.5982 35.4562 47.4031 35.9851C47.2025 36.5634 46.6409 36.8018 46.0637 36.8767C45.8676 36.9346 45.6665 36.9839 45.4573 36.9804C45.2481 36.9769 45.0495 36.9326 44.865 36.8341C44.5628 36.7703 44.2661 36.6572 44.0589 36.4224C43.9192 36.263 43.8477 36.0634 43.8291 35.8557C43.7949 35.4847 43.8426 35.0769 43.9884 34.738C44.1518 34.3312 44.4871 34.0994 44.8843 33.9922C44.8879 33.9787 44.8964 33.9736 44.8999 33.96C45.0065 33.8283 45.1518 33.7428 45.3021 33.6659C45.2654 33.1927 45.2236 32.711 45.1869 32.2379C41.6999 32.4715 38.3966 34.0929 36.019 36.6423C36.6476 37.3196 38.2174 37.5236 38.9153 37.6537C41.0955 38.0739 43.3175 38.1933 45.5248 38.0338C48.8534 37.8243 52.1311 37.0004 55.1655 35.6063ZM8.70726 36.062C9.25328 35.6602 9.79075 35.2634 10.3368 34.8617C9.87919 34.6706 9.42012 34.4575 8.9731 34.2257C8.85398 34.8251 8.76704 35.44 8.70726 36.062Z" fill="#1D1D1C"/>
<path d="M49.3814 19.7713C51.5744 23.0489 51.9886 27.097 53.2565 30.7579C53.7097 32.0561 54.2925 33.301 55.0584 34.4267C52.4119 32.2558 49.0138 31.0564 45.5666 31.2206C45.5002 31.2252 45.4303 31.2433 45.3589 31.2393L45.3438 31.2136C45.3438 31.2136 45.3232 31.2373 45.3061 31.2473C41.7 31.4935 38.2835 33.2159 35.8793 35.8961C35.8682 35.7991 35.8587 35.7242 35.828 35.7307C35.8059 35.7322 35.7938 35.7508 35.7682 35.7659C35.7858 35.698 35.7948 35.6352 35.826 35.5708C36.3111 34.3419 36.6991 33.1241 36.9027 31.8077C37.3278 29.0492 37.0882 26.2561 37.3484 23.4912C37.3615 23.3569 37.3881 23.2262 37.4097 23.0869C37.4499 22.9597 37.5123 22.831 37.5525 22.7037C37.5857 22.6037 37.5495 22.4639 37.5047 22.3292L37.5846 21.937C37.5846 21.937 37.6369 21.9867 37.6555 21.9988C39.5059 22.7971 40.9267 20.9486 42.1047 19.8413C42.9157 19.0881 43.8086 18.6892 44.9022 18.4946C45.851 18.3275 46.8144 18.244 47.7254 17.9151C48.3671 18.458 48.9212 19.087 49.3763 19.7627L49.3814 19.7713Z" fill="#1D1D1C"/>
<path d="M10.3369 34.8616C9.79085 35.2634 9.25338 35.6601 8.70736 36.0619C8.76714 35.44 8.85408 34.825 8.97319 34.2256C9.42021 34.4574 9.87929 34.6706 10.3369 34.8616Z" fill="#1D1D1C"/>
<path d="M42.2266 6.457C42.1934 6.36146 42.1466 6.26241 42.0928 6.19051C42.0627 6.13923 41.9465 6.00046 41.9485 6.16036C41.9475 6.27601 41.9686 6.39014 41.9762 6.50076C41.946 6.44948 41.9023 6.39468 41.8666 6.39267C41.8334 6.29714 41.8002 6.20161 41.7549 6.12468C41.7499 6.11614 41.6141 5.88535 41.5945 5.98893C41.589 6.03821 41.5835 6.08748 41.5779 6.13676C41.5377 6.06838 41.4321 5.88889 41.417 6.05884C41.3718 6.76429 41.3845 7.47023 41.4499 8.16813C41.4348 8.14249 41.4077 8.13545 41.4006 8.1626C41.3408 8.58899 41.281 9.01538 41.2263 9.45031C41.1976 9.42115 41.1669 9.4277 41.1544 9.50413C41.0659 10.2925 40.9826 11.0895 40.8856 11.883C40.871 11.9951 40.9057 12.1127 40.954 12.2339C40.9384 12.2661 40.9228 12.2983 40.9123 12.339C40.8771 12.2792 40.8348 12.2465 40.8243 12.2872C40.778 12.5215 40.7283 12.7694 40.682 13.0037C40.6484 13.1616 40.7148 13.3527 40.7832 13.508C40.7746 13.5131 40.7761 13.5352 40.7726 13.5488C40.7359 13.6624 40.9633 14.5182 41.1151 14.4634C41.8029 14.1852 42.5189 13.9941 43.2444 13.8779C43.2998 13.9719 43.3621 14.0388 43.3712 13.9759C43.3817 13.9352 43.3702 13.896 43.3807 13.8553C43.522 13.8412 43.6618 13.8049 43.8081 13.7994C43.8232 13.825 43.8383 13.8507 43.8483 13.8678C43.8835 13.9276 43.9243 13.9382 43.9418 13.8703C43.9539 13.8517 43.9524 13.8296 43.9459 13.7989C44.1229 13.7868 44.2998 13.7747 44.4819 13.7712C44.502 13.8054 44.5221 13.8396 44.5593 13.8637C44.6101 13.8913 44.6191 13.8285 44.6211 13.7928C44.6211 13.7928 44.6111 13.7757 44.6061 13.7672C44.6282 13.7656 44.6589 13.7591 44.686 13.7661C44.7303 13.7631 44.6035 12.8827 44.3827 12.84C44.3827 12.84 44.3827 12.84 44.3777 12.8314L44.3319 12.6167C44.3058 12.4941 44.266 12.3679 44.2177 12.2467C44.181 12.1647 44.1378 12.0521 44.0754 11.9852C44.0654 11.9681 44.0468 11.9561 44.0196 11.949C43.9869 11.7957 43.9019 11.5926 43.8803 11.5362C43.3678 10.2154 42.9423 8.8664 42.6088 7.49778C42.5958 7.43644 42.5711 7.33587 42.5465 7.23531C42.5349 7.19609 42.5283 7.16542 42.5168 7.12621C42.469 6.94721 42.4182 6.72397 42.3005 6.56308C42.2854 6.53744 42.2467 6.49119 42.2145 6.4756L42.2266 6.457Z" fill="#1E1E1C"/>
</svg>
