<svg width="50" height="36" viewBox="0 0 50 36" fill="none" xmlns="http://www.w3.org/2000/svg">
<path d="M49.6389 12.6665C49.8967 13.0731 49.5893 13.8665 49.2521 14.1442C48.0224 15.1755 46.1778 15.5722 44.5515 15.4631C45.1068 18.0019 44.6109 20.739 43.9366 23.2678C42.9548 26.9272 41.5764 30.7155 42.5185 34.5434C42.578 34.7814 41.9135 35.3368 41.8937 35.2773C41.8838 35.2178 41.8739 35.1484 41.8639 35.0889C41.7846 35.1979 41.6954 35.2872 41.6259 35.2773C38.036 35.0492 34.5254 34.1269 31.3024 32.5402C29.8644 31.8361 28.4859 30.9931 27.1967 30.051C26.0265 29.1882 24.6481 28.2065 23.8051 27.0065C23.4878 26.5602 23.4184 26.114 23.4977 25.6975C23.4977 25.6776 23.4977 25.6479 23.5175 25.6082C23.6266 25.1124 23.9539 24.6463 24.3803 24.2397C25.015 23.6248 25.7687 23.1686 26.4034 22.5439C26.9488 21.9984 27.4347 21.3935 27.8909 20.7687C29.1305 19.0531 30.271 16.9507 31.6098 15.0169C29.8049 16.4152 27.7818 17.5259 25.61 18.2498C21.1474 19.7572 16.2484 19.6878 11.8651 17.9523C8.34454 16.554 2.89019 11.9624 2.75135 11.9624L0.0142707 12.2302C-0.0749822 12.2401 0.282027 11.2484 0.321695 11.2484C0.341529 11.2088 1.29356 9.80054 1.80924 9.1956C1.81916 9.06668 2.16625 8.67992 2.20592 8.74934C5.49836 5.09988 10.1593 2.7694 15.0782 2.39255C15.098 2.3628 15.1079 2.34296 15.1079 2.34296C15.1178 2.35288 15.1278 2.3628 15.1476 2.37271C15.1773 2.28346 15.931 2.65039 15.8814 2.90823C19.4516 5.50648 23.4878 7.40063 27.7917 8.45183C27.8413 8.45183 35.2295 5.5164 39.0971 4.56437C39.107 4.53462 40.8326 4.63379 41.5367 5.07013C41.5863 5.09989 41.5764 5.17923 41.5863 5.22881C41.5863 5.23873 41.5764 5.24865 41.5764 5.26848L43.6788 2.49172C43.5994 2.38263 43.5399 2.27355 43.5002 2.13471C43.3416 1.51985 43.5895 0.577742 44.1151 0.190979C44.4027 -0.0172772 44.7101 -0.0470255 44.9779 0.0620614C45.4241 0.00255945 45.92 0.250483 46.1778 0.657079C46.5646 1.26202 46.3663 2.3628 45.8605 2.83881C45.5531 3.13632 45.1365 3.22558 44.7399 3.16608C44.5415 4.13794 44.3333 5.1098 44.1349 6.09158C45.5233 7.50971 46.5051 9.27494 47.0009 11.2088C47.0208 11.2782 47.0109 11.3773 46.991 11.4666L48.4488 12.0616C48.786 12.2005 49.4306 12.3294 49.6389 12.6665ZM49.143 13.4103C48.8753 13.2318 48.4885 13.1326 48.2505 13.0335C47.834 12.8649 47.4175 12.6864 47.0009 12.5178C46.0886 12.1409 45.1762 11.7641 44.2639 11.3972C42.5482 10.6931 40.8326 9.98896 39.1269 9.28485C39.0773 9.35427 38.8789 9.21544 38.8889 9.18569L38.7798 9.14602C38.5913 9.06668 38.8888 8.13449 38.9781 8.17416C39.0773 8.21382 39.1764 8.25349 39.2855 8.30307C39.8905 7.4998 40.4855 6.70644 41.0904 5.90317C40.4954 5.59574 39.1169 5.47674 39.0872 5.48665C35.0807 6.45852 27.4248 9.52287 27.4248 9.38403C22.9126 8.25349 18.678 6.21059 14.9889 3.37433C14.7013 3.40408 14.4038 3.42392 14.1162 3.45367C14.0964 3.51317 13.3824 3.57267 13.3824 3.55284C9.26681 4.20736 5.40912 6.21059 2.51336 9.20552C3.77281 11.1195 5.32977 12.8252 7.16441 14.2136C10.7345 16.9408 15.1674 18.4481 19.6697 18.3589C24.41 18.2597 29.0512 16.4846 32.6213 13.3806C32.6808 13.331 33.1568 12.8351 33.1866 12.8351C34.0097 13.9756 35.5766 13.8367 36.7765 13.5293C37.5501 13.331 38.3236 13.0632 39.1368 13.0434C39.8706 13.0236 40.5747 13.2318 41.2491 13.4897C42.6474 14.0252 43.9267 14.5607 45.4539 14.5111C46.1778 14.4814 46.9018 14.3524 47.596 14.1144C48.0125 13.9657 48.6769 13.7376 49.143 13.4103ZM43.2226 9.90963C44.3035 10.3559 45.3944 10.8022 46.4753 11.2484C45.9398 9.69145 45.077 8.24357 43.9366 7.06345C43.7779 7.80722 43.6192 8.56091 43.4705 9.3146C43.4606 9.35427 43.3713 9.80054 43.2722 9.7807C43.1631 9.76087 43.2523 9.33444 43.2722 9.27494C43.6986 7.22213 44.125 5.16931 44.5515 3.12641C44.3531 3.05699 44.1647 2.96774 44.0159 2.81898C42.5879 4.70321 41.1698 6.59735 39.7417 8.48158C40.902 8.9576 42.0623 9.43361 43.2325 9.90963H43.2226ZM41.9433 29.218C42.7069 25.4198 44.4027 21.7208 44.1746 17.7837C44.125 16.9705 43.9663 16.1474 43.6887 15.3541C42.7366 15.1755 41.8639 14.759 40.9615 14.4219C39.9202 14.0351 38.9484 13.926 37.8674 14.164C36.2906 14.521 34.1287 15.3937 32.9387 13.7673C32.9287 13.7475 32.9188 13.7177 32.9089 13.6781L32.6411 13.9756C32.6114 14.1144 32.5717 14.2533 32.4924 14.3227C32.3932 14.4119 32.2742 14.4913 32.175 14.5805C32.0858 14.6896 31.9965 14.7888 31.9172 14.8979C30.2908 17.149 29.081 19.6779 27.3157 21.8398C26.4728 22.8711 25.5208 23.724 24.4795 24.5372C24.42 24.5768 24.3803 24.6264 24.3307 24.676C24.3605 24.676 24.3803 24.6562 24.4001 24.676C24.4299 24.676 24.4001 24.7554 24.3605 24.8446C27.7918 23.7537 31.6098 24.0017 34.8427 25.6181C34.8626 25.6181 34.8824 25.5983 34.8923 25.6082V25.638C34.9518 25.6776 35.0212 25.6975 35.0807 25.7272C38.1352 27.3338 40.4557 30.0907 41.6359 33.3038C41.5466 31.9452 41.6755 30.5766 41.9433 29.2279V29.218ZM41.1301 34.3649C40.0194 31.0824 37.679 28.2461 34.6146 26.59L34.2675 27.899C34.3469 27.9387 34.4361 27.9883 34.5055 28.0577C34.8526 28.3453 35.0708 28.7916 35.0708 29.2477C35.0708 29.8229 34.6841 30.3981 34.2477 30.7551C33.7816 31.1518 33.1767 31.0725 32.6411 30.8444C32.4428 30.7948 32.2445 30.7353 32.066 30.6262C31.8875 30.5171 31.7387 30.3783 31.6296 30.1998C31.4015 29.9915 31.2032 29.7436 31.1437 29.4362C31.104 29.2279 31.1437 29.0197 31.2329 28.8312C31.3916 28.4941 31.6395 28.1668 31.937 27.9486C32.2841 27.6809 32.6907 27.6511 33.0874 27.7602C33.0973 27.7503 33.1072 27.7503 33.1172 27.7404C33.2758 27.6809 33.4444 27.6809 33.613 27.6908C33.8213 27.2643 34.0295 26.828 34.2378 26.4016C31.1139 24.8347 27.4446 24.557 24.1026 25.5487C24.301 26.4512 25.5505 27.423 26.086 27.8891C27.7521 29.3568 29.6066 30.5865 31.59 31.5683C34.565 33.0757 37.8079 34.0277 41.1301 34.3649ZM0.857205 11.1988C1.53156 11.1294 2.196 11.06 2.87035 10.9906C2.57284 10.5939 2.28526 10.1774 2.01751 9.75095C1.61091 10.2071 1.22413 10.6931 0.857205 11.1988Z" fill="#1D1D1C"/>
<path d="M44.1747 17.7837C44.4028 21.7207 42.707 25.4198 41.9434 29.218C41.6756 30.5667 41.5467 31.9352 41.6359 33.2939C40.4558 30.0808 38.1353 27.3238 35.0808 25.7173C35.0213 25.6875 34.9519 25.6677 34.8924 25.628V25.5983C34.8924 25.5983 34.8626 25.6082 34.8428 25.6082C31.6099 23.9917 27.7918 23.7438 24.3606 24.8347C24.4002 24.7454 24.43 24.676 24.4002 24.6661C24.3804 24.6562 24.3606 24.6661 24.3308 24.6661C24.3804 24.6165 24.4201 24.5669 24.4796 24.5272C25.5208 23.7141 26.4729 22.8612 27.3158 21.8298C29.081 19.6679 30.2909 17.1391 31.9173 14.8879C31.9966 14.7789 32.0859 14.6797 32.1751 14.5706C32.2743 14.4813 32.3933 14.402 32.4925 14.3127C32.5718 14.2433 32.6115 14.1045 32.6412 13.9657L32.909 13.6682C32.909 13.6682 32.9288 13.7376 32.9387 13.7574C34.1288 15.3838 36.2907 14.5111 37.8675 14.1541C38.9484 13.9161 39.9203 14.0252 40.9616 14.4119C41.864 14.7491 42.7367 15.1656 43.6888 15.3441C43.9664 16.1375 44.1251 16.9606 44.1747 17.7738V17.7837Z" fill="#1D1D1C"/>
<path d="M2.87057 10.9906C2.19621 11.06 1.53178 11.1294 0.857422 11.1989C1.22435 10.6931 1.61113 10.2072 2.01772 9.75098C2.28548 10.1774 2.57306 10.5939 2.87057 10.9906Z" fill="#1D1D1C"/>
<path d="M44.7597 2.68014C44.7795 2.58097 44.7895 2.47188 44.7795 2.38263C44.7795 2.32313 44.7498 2.14462 44.6705 2.28346C44.611 2.38263 44.5713 2.49172 44.5217 2.59088C44.5217 2.53138 44.5118 2.46197 44.482 2.44214C44.5019 2.34297 44.5217 2.2438 44.5217 2.15454C44.5217 2.14463 44.5217 1.87686 44.4523 1.9562C44.4225 1.99587 44.3928 2.03554 44.363 2.07521C44.363 1.99587 44.363 1.78761 44.2639 1.92645C43.8672 2.51155 43.5201 3.1264 43.2226 3.76109C43.2226 3.73134 43.2027 3.71151 43.1829 3.73134C42.9152 4.06852 42.6474 4.40569 42.3796 4.75279C42.3697 4.71312 42.34 4.70321 42.2904 4.76271C41.8144 5.39739 41.3383 6.042 40.8524 6.67669C40.783 6.76594 40.7532 6.88494 40.7334 7.01386C40.7037 7.03369 40.6739 7.05353 40.6442 7.08328C40.6442 7.01386 40.6243 6.96428 40.5946 6.99403C40.4359 7.17253 40.2673 7.36096 40.1086 7.53947C39.9996 7.65847 39.9599 7.85681 39.9401 8.0254C39.9301 8.0254 39.9202 8.04523 39.9103 8.05515C39.821 8.13448 39.583 8.98734 39.7417 9.01709C40.4756 9.12618 41.1896 9.32452 41.8739 9.59228C41.8739 9.70137 41.8937 9.79062 41.9334 9.74103C41.9631 9.71128 41.973 9.67161 42.0028 9.64186C42.1317 9.70136 42.2705 9.74103 42.3995 9.81045C42.3995 9.8402 42.3995 9.86995 42.3995 9.88979C42.3995 9.95921 42.4292 9.98896 42.4788 9.93938C42.4986 9.92946 42.5086 9.90963 42.5185 9.87988C42.6771 9.95921 42.8358 10.0385 42.9945 10.1278C42.9945 10.1675 42.9945 10.2071 43.0143 10.2468C43.0441 10.2964 43.0837 10.2468 43.1036 10.217C43.1036 10.217 43.1036 10.1972 43.1036 10.1873C43.1234 10.1972 43.1532 10.2071 43.173 10.227C43.2127 10.2468 43.5498 9.42369 43.3812 9.27494C43.3812 9.27494 43.3812 9.27494 43.3812 9.26502L43.4507 9.05676C43.4903 8.93776 43.5201 8.80883 43.5399 8.67991C43.5498 8.59066 43.5697 8.47166 43.5498 8.38241C43.5498 8.36257 43.5399 8.34274 43.5201 8.3229C43.5697 8.17415 43.5994 7.95598 43.6093 7.89648C43.8374 6.49818 44.1548 5.11972 44.5614 3.77101C44.5812 3.71151 44.611 3.61233 44.6407 3.51316C44.6506 3.4735 44.6605 3.44375 44.6705 3.40408C44.72 3.22557 44.7895 3.0074 44.7696 2.80906C44.7696 2.77931 44.7597 2.71981 44.7399 2.69006L44.7597 2.68014Z" fill="#1E1E1C"/>
</svg>
