<svg width="24" height="42" viewBox="0 0 24 42" fill="none" xmlns="http://www.w3.org/2000/svg">
<path d="M23.6086 39.8464C23.8268 39.1621 23.688 38.4184 23.6086 37.7143C23.569 37.4267 23.5293 37.1391 23.4896 36.8515C23.4896 36.8515 23.4896 36.8416 23.4896 36.8317C23.4004 36.197 23.3111 35.5623 23.2219 34.9375C22.7161 31.6451 22.1013 28.3626 21.9327 25.0305C21.7641 21.7678 21.893 18.4951 21.6252 15.2424C21.1492 9.73845 19.1758 3.64943 13.771 1.1801L13.7909 1.16028C13.414 0.823098 12.8983 0.942095 12.462 1.09085C11.9562 1.26936 11.5496 1.54703 11.3116 2.02305C10.905 2.82632 9.60586 10.4921 9.41744 13.4474C9.39761 13.4573 9.38771 13.4672 9.37779 13.4871C9.37779 13.5168 9.35792 13.5466 9.33809 13.5863H9.2588C9.14971 13.616 9.0406 13.6557 8.92159 13.6854C8.88192 13.7053 8.42575 13.8838 8.49517 13.9532C8.66376 14.1416 8.83236 14.33 9.00094 14.5185C8.88194 14.8457 8.77287 15.1829 8.64395 15.5102C8.6142 15.4606 8.5745 15.411 8.55467 15.3515C8.52492 15.3019 8.43569 15.3317 8.39602 15.3317C8.27702 15.3515 8.16791 15.3912 8.05882 15.4209C7.93981 15.4606 7.83072 15.5102 7.74147 15.5697C7.74147 15.5697 7.60264 15.649 7.6324 15.6887C7.78115 15.9961 7.99933 16.2539 8.25717 16.4721C8.17783 16.6506 8.10844 16.839 8.0291 17.0076C8.0291 16.9878 8.01916 16.9779 8.00925 16.958C7.98941 16.9084 7.88029 16.9382 7.85054 16.9382C7.73154 16.958 7.62248 16.9977 7.5134 17.0275C7.39439 17.0671 7.2853 17.1167 7.19605 17.1762C7.17621 17.1861 7.06714 17.2456 7.08697 17.2952C7.16631 17.5828 7.33491 17.8307 7.53325 18.0588C7.40433 18.3266 7.27538 18.6043 7.13655 18.8621C7.04729 18.8819 6.96796 18.9117 6.88862 18.9315C6.76962 18.9712 6.66052 19.0307 6.57127 19.0803C6.57127 19.0902 6.43245 19.1596 6.4622 19.1993C6.53162 19.348 6.64067 19.4869 6.73984 19.6059C6.49192 20.0323 6.25391 20.4686 5.99607 20.8951C5.87706 20.8951 5.768 20.9546 5.649 20.9942C5.53991 21.0339 5.43082 21.0736 5.33165 21.143C5.33165 21.143 5.21266 21.2223 5.22258 21.262C5.31183 21.3909 5.42091 21.5099 5.53 21.6388C4.18129 23.6917 2.6045 25.6056 0.829358 27.3114C0.799607 27.3312 0.789702 27.3609 0.779785 27.3907C0.948374 27.5791 2.96148 29.027 3.9631 29.0865C4.06227 29.0865 4.17137 29.0865 4.29038 29.0964C5.0044 29.2055 5.79774 29.027 6.44235 28.67C8.1679 31.893 6.81921 39.4597 6.82912 39.4795C9.07036 40.4811 11.5 40.9075 13.9495 40.729C15.2883 40.6299 16.637 40.4018 17.9659 40.6795C19.0865 40.9076 20.108 41.3737 21.2683 41.1753H21.3178C22.2203 41.3737 23.3805 40.6894 23.6582 39.8464H23.6086ZM10.4191 12.3566C12.1843 13.2392 14.0883 13.7846 16.0519 13.9433C13.3942 20.5182 12.3628 27.6882 13.0867 34.7491C11.976 35.116 10.905 35.5722 9.87364 36.1375C10.5083 34.4813 10.4687 32.5971 9.56622 30.9509C8.78278 29.4832 7.37452 28.4816 6.61092 26.994C5.86714 25.5461 5.79778 23.8404 6.35313 22.3132C6.6308 22.4619 6.91839 22.581 7.2159 22.6305C7.41424 22.6603 7.64231 22.5611 7.82082 22.4917C7.91007 22.4619 8.01918 22.4124 8.0886 22.3429C8.0886 22.3429 8.16789 22.2735 8.10839 22.2636C7.46379 22.1545 6.86877 21.8174 6.43242 21.3413C6.69026 20.9447 6.92827 20.5281 7.17619 20.1116C7.40428 20.31 7.67207 20.4786 7.94975 20.5976C8.01917 20.6273 8.11833 20.5976 8.18774 20.5777C8.30675 20.548 8.42575 20.5083 8.55467 20.4488C8.5745 20.4488 8.96129 20.2703 8.83237 20.2207C8.6142 20.1216 8.40595 20.0025 8.21752 19.8637C8.00927 19.705 7.82079 19.5166 7.66212 19.3083C7.80095 19.0703 7.9299 18.8125 8.05882 18.5646C8.32658 18.7431 8.62411 18.8918 8.95137 18.9414C9.13979 18.9712 9.36786 18.8621 9.54637 18.8026C9.63562 18.7729 9.74473 18.7133 9.81414 18.6538C9.81414 18.6538 9.89344 18.5844 9.83394 18.5745C9.29842 18.4852 8.82241 18.1877 8.47532 17.7811C8.61415 17.5034 8.72325 17.196 8.86209 16.9184C9.07035 17.0175 9.27862 17.0969 9.49679 17.1365C9.57613 17.1365 9.65546 17.1365 9.73479 17.1068C9.86371 17.077 9.98271 17.0374 10.1017 16.9878C10.1811 16.9481 10.3001 16.8985 10.3695 16.839C10.3695 16.8291 10.4488 16.7696 10.3893 16.7597C10.0025 16.6903 9.65543 16.5316 9.33809 16.3134C9.27859 16.2738 9.24888 16.2242 9.1993 16.1845C9.33813 15.8572 9.46702 15.53 9.59594 15.2027C9.83395 15.4804 10.0819 15.7481 10.3199 16.0159C10.3596 16.0556 10.4389 16.0457 10.4885 16.0457C10.6075 16.0258 10.7165 15.9862 10.8256 15.9564C10.8653 15.9366 11.3116 15.7482 11.2521 15.6887C10.8257 15.2027 10.3893 14.7267 9.96286 14.2408C10.062 13.9532 10.1712 13.6755 10.2604 13.3879C10.3001 13.3482 10.3397 13.3185 10.3397 13.2788C10.3595 12.9813 10.3893 12.7036 10.4191 12.4061V12.3566ZM21.9227 40.729C21.8137 40.6795 21.6252 40.7489 21.4368 40.848C20.346 40.8778 19.2947 40.3324 18.2039 40.2134C17.7973 40.1737 17.3907 40.1638 16.9841 40.1836C17.0436 40.1539 17.0932 40.1142 17.113 40.0745C18.4419 37.4961 17.8072 34.5904 17.4006 31.8633C16.5676 26.2899 17.5791 20.7066 17.6089 15.1234C17.6386 10.6806 16.9147 6.0196 14.2966 2.37015C16.0916 3.56019 17.5196 5.26589 18.5312 7.18979C19.3741 8.79634 19.8997 10.4921 20.2468 12.2375C20.217 12.2474 20.1873 12.2574 20.1576 12.2673C20.0981 12.297 20.0088 12.3466 19.9592 12.4061C19.5328 13.0012 19.7212 13.8838 20.3261 14.2705C20.3757 14.3003 20.4848 14.2705 20.5542 14.2507C20.6236 14.8457 20.6633 15.4407 20.7129 16.0358C20.6732 16.0556 20.6336 16.0655 20.6038 16.0754C20.5443 16.1052 20.4452 16.1548 20.4154 16.2143C20.0187 16.8291 20.1179 17.7018 20.6534 18.2076C20.6931 18.2472 20.7625 18.2274 20.812 18.2274C20.812 18.2274 20.822 18.2274 20.8319 18.2274C20.8517 18.7728 20.8518 19.3183 20.8617 19.8637C20.8617 19.8637 20.8517 19.8637 20.8418 19.8637C20.7823 19.8934 20.6931 19.943 20.6534 20.0025C20.1675 20.6472 20.1774 21.6091 20.693 22.2339C20.7228 22.2735 20.8121 22.2537 20.8518 22.2537C20.8716 22.2537 20.8914 22.2438 20.9113 22.2339C20.9113 22.7694 20.9211 23.3049 20.941 23.8305C20.941 24.1578 20.9707 24.485 20.9905 24.8123C20.9509 24.8321 20.9112 24.842 20.8815 24.8619C20.8121 24.8916 20.7327 24.9412 20.6831 25.0007C20.1873 25.6354 20.2567 26.6271 20.8518 27.1725C20.8914 27.2122 20.9608 27.2023 21.0104 27.1924C21.06 27.1924 21.0997 27.1626 21.1493 27.1527C21.2385 28.065 21.3377 28.9774 21.4567 29.8898C21.3575 29.9295 21.2682 29.9889 21.1988 30.0584C20.9112 30.3757 20.7724 30.8319 20.8617 31.2583C20.9509 31.6748 21.2484 32.0219 21.6352 32.1905C21.6748 32.2104 21.7344 32.1905 21.784 32.1905C21.8137 32.379 21.8335 32.5773 21.8632 32.7657C21.9723 33.4301 22.0814 34.0946 22.1905 34.759C22.1112 34.7987 22.0418 34.8284 21.9724 34.878C21.5261 35.1954 21.2782 35.7805 21.4368 36.316C21.5856 36.8217 22.0517 37.1391 22.5574 37.2085C22.5574 37.2184 22.5574 37.2283 22.5574 37.2482C22.6169 37.7143 23.1922 41.3241 21.903 40.7588L21.9227 40.729Z" fill="#1E1E1C"/>
</svg>
