<svg width="37" height="32" viewBox="0 0 37 32" fill="none" xmlns="http://www.w3.org/2000/svg">
<path d="M36.4274 29.5443C35.1481 28.4336 33.8788 27.3526 32.5896 26.2717C31.4392 25.3097 30.3186 24.318 29.0889 23.4652C27.9782 22.7016 26.798 22.1561 25.489 21.8289C24.1304 21.4818 22.8114 21.1744 21.78 20.1628C19.8958 18.3183 19.5487 15.5812 18.8347 13.1714C17.4662 8.50045 11.2482 0.735454 11.2184 0.725537C11.2184 0.71562 11.1986 0.725537 11.1986 0.725537C10.4449 0.398276 9.69123 0.913959 9.09621 1.38006C8.64995 1.73707 8.20367 2.104 7.77724 2.48084L10.3755 5.34685L7.68799 10.1764C7.68799 10.1764 10.3557 12.3978 10.4945 12.378C10.6433 12.3681 9.36396 14.3416 9.36396 14.3416L10.4747 16.0473C11.0498 16.4043 11.5854 16.8406 12.0614 17.3266C12.5473 17.9613 13.0134 18.6059 13.4498 19.2802C13.4498 19.2901 13.4696 19.2802 13.4795 19.2802C13.5886 19.4786 13.6878 19.6769 13.7671 19.8852C14.5803 21.8289 14.4514 24.0305 15.2646 25.9742C16.1274 28.0567 18.1108 28.9989 20.1933 29.5145C25.2708 30.7443 35.8919 31.1707 35.9316 31.1905C35.9415 31.2104 36.2687 30.5558 36.2886 30.4765C36.3679 30.3476 36.5563 29.6831 36.4076 29.5542L36.4274 29.5443ZM16.4645 11.7631C15.7604 9.869 15.0365 7.98477 14.0646 6.20963C13.42 5.04935 12.706 3.91881 11.9821 2.77835C13.4399 4.58324 14.8679 6.4278 16.0877 8.4112C17.4463 10.6128 18.3884 12.9135 19.033 15.4126C19.5388 17.3563 20.0842 19.4686 21.5023 20.9562C18.9735 18.4769 17.6843 15.006 16.4745 11.7631H16.4645ZM26.3914 23.6536C25.8658 23.5644 25.37 23.4156 24.884 23.2173C23.8328 22.8107 22.8808 22.2057 22.0379 21.4818C21.9684 21.4322 21.9089 21.3727 21.8494 21.2934C21.9486 21.3826 22.0676 21.4719 22.1767 21.5611C23.2874 22.3942 24.6659 22.5826 25.965 22.9495C26.5303 23.1082 27.0459 23.3363 27.5517 23.5842C27.5517 23.6437 27.5517 23.6933 27.5517 23.7528C27.1649 23.8222 26.6592 23.6933 26.4013 23.6437L26.3914 23.6536Z" fill="#1E1E1C"/>
<path d="M6.91435 13.7664C6.77551 13.7961 3.92932 11.8028 3.92932 11.8028L6.20032 6.76499L3.37398 4.12708C3.01696 4.50392 2.67981 4.89068 2.37238 5.29728C1.15259 6.91375 0.706312 8.73848 0.775731 10.7417C0.864983 13.0028 1.41044 15.2242 1.53936 17.4853C1.66828 19.8157 1.53936 22.1562 1.10301 24.4569C1.08317 24.4569 0.97408 25.3792 1.03358 25.4982C1.07325 25.5874 1.1129 25.6569 1.14265 25.6073C1.14265 25.6073 2.44181 26.1428 2.47156 25.9643C2.85832 24.3081 3.25497 22.6322 3.65165 20.9661L4.24668 18.4175C4.38551 17.8125 4.48471 16.92 5.19873 16.7316C5.19873 16.7316 5.20862 16.7316 5.20862 16.7117C5.91273 16.8704 6.57719 17.1183 7.21188 17.4357L5.96233 15.8291C5.96233 15.8291 7.06311 13.7565 6.92427 13.7763L6.91435 13.7664Z" fill="#1E1E1C"/>
</svg>
