<svg width="60" height="61" viewBox="0 0 60 61" fill="none" xmlns="http://www.w3.org/2000/svg">
<g clip-path="url(#clip0_220_132)">
<path d="M41.9168 18.0328L40.7685 19.9525L52.0879 34.141L54.5069 33.8141L57.7761 18.5877L45.6888 3.43671L41.9168 18.0328Z" fill="#B38972"/>
<path d="M54.5919 33.9206C54.5727 33.9359 54.5501 33.9469 54.5246 33.9499L52.1056 34.2767C52.0584 34.2831 52.012 34.2643 51.9814 34.226L40.6621 20.0375C40.6264 19.9928 40.6218 19.9302 40.6504 19.883L41.7871 17.9795L45.5532 3.40213C45.5664 3.35322 45.6056 3.31499 45.6554 3.30314C45.7052 3.2913 45.7592 3.31094 45.7915 3.3514L57.8787 18.5024C57.9042 18.5343 57.9131 18.576 57.9066 18.616L54.6375 33.8424C54.6319 33.8747 54.6136 33.8998 54.588 33.9202L54.5919 33.9206ZM52.1451 33.9943L54.3926 33.6927L57.6288 18.6216L45.7522 3.73466L42.0486 18.0671C42.0486 18.0671 42.0401 18.0913 42.035 18.1023L40.9366 19.9404L52.1489 33.9947L52.1451 33.9943Z" fill="#9F6659"/>
<g style="mix-blend-mode:screen">
<path d="M45.1567 25.4528L46.0723 26.6006L48.4913 26.2738L51.7605 11.0474L50.8448 9.89961L47.5757 25.126L45.1567 25.4528Z" fill="#FBB98B"/>
</g>
<g style="mix-blend-mode:multiply">
<path d="M44.7557 6.99327C44.0881 9.29267 43.5055 11.6113 42.8604 13.9171C42.2628 16.0596 41.6422 18.1996 41.0841 20.3523L41.434 20.791L43.853 20.4641L47.1222 5.23775L45.719 3.47883C45.3753 4.65553 45.0874 5.854 44.7536 6.99497L44.7557 6.99327Z" fill="#D0A68D"/>
</g>
<path d="M41.9147 18.0345L9.58759 43.8246L22.1777 59.6059L54.5048 33.8158L41.9147 18.0345Z" fill="#D0A68D"/>
<path d="M54.5918 33.9206L22.2626 59.7124C22.203 59.76 22.1188 59.7505 22.0712 59.6909L9.48112 43.9096C9.43355 43.8499 9.44303 43.7657 9.50265 43.7182L41.8297 17.9281C41.8894 17.8805 41.9736 17.89 42.0211 17.9496L54.6112 33.7309C54.6588 33.7905 54.6493 33.8748 54.5897 33.9223L54.5918 33.9206ZM22.2014 59.4128L54.3155 33.7926L41.8953 18.2243L9.77901 43.8462L22.1992 59.4145L22.2014 59.4128Z" fill="#9F735D"/>
<g style="mix-blend-mode:screen">
<path d="M47.5735 25.1276L15.2465 50.9177L16.0432 51.9164L48.3703 26.1263L47.5735 25.1276Z" fill="#FBB98B"/>
</g>
<g style="mix-blend-mode:multiply">
<path d="M41.9147 18.0345L9.58759 43.8246L11.526 46.2543L43.853 20.4642L41.9147 18.0345Z" fill="#D0A68D"/>
</g>
<path d="M46.7494 3.14125L44.3948 0.189839L10.9157 26.899L7.56553 42.9149L15.6863 41.8202L19.9729 38.4004L19.9814 38.411L37.5557 24.3905L46.7685 3.17828L46.7617 3.16977L46.7664 3.16254L46.7494 3.14125Z" fill="#EAAD8D"/>
<path d="M37.6405 24.4971L20.0662 38.5176C20.0492 38.5312 20.0309 38.5388 20.0109 38.5443L15.769 41.9284C15.7498 41.9437 15.7273 41.9548 15.7018 41.9577L7.58308 43.0507C7.53968 43.0575 7.49503 43.0408 7.46572 43.0084C7.43641 42.9761 7.422 42.9318 7.4327 42.8884L10.7812 26.8704C10.7885 26.8402 10.8051 26.813 10.8307 26.7926L44.3098 0.0834749C44.3694 0.0359073 44.4536 0.0453806 44.5012 0.105005L46.8558 3.05641C46.866 3.06919 46.8774 3.08792 46.8851 3.10623C46.9059 3.1454 46.9122 3.19263 46.896 3.23345L37.6831 24.4457C37.675 24.4661 37.6614 24.4839 37.6443 24.4975L37.6405 24.4971ZM19.9432 38.2673L37.4451 24.3045L46.614 3.1901L44.3732 0.381361L11.0389 26.975L7.73834 42.7561L15.6289 41.6917L19.8878 38.294C19.9049 38.2804 19.9232 38.2728 19.9432 38.2673Z" fill="#B5826A"/>
<g style="mix-blend-mode:multiply" opacity="0.4">
<path d="M10.9157 26.899L9.63021 33.0541C13.4562 27.9214 18.469 23.5947 23.4144 19.6598C27.657 16.2855 32.0915 12.9987 37.0398 10.7272C39.4232 9.63065 41.9921 8.59182 44.6283 8.10912L46.7706 3.17661L46.7638 3.16809L46.7702 3.16299L44.3969 0.18816L10.9157 26.899Z" fill="#EAAD8D"/>
</g>
<path d="M41.1213 16.1446L7.56549 42.9149L10.1902 46.2049L43.746 19.4346L41.1213 16.1446Z" fill="#D0A68D"/>
<path d="M43.8309 19.541L10.2751 46.3113C10.2155 46.3589 10.1313 46.3494 10.0837 46.2898L7.45903 42.9998C7.41146 42.9402 7.42093 42.8559 7.48056 42.8084L41.0363 16.038C41.096 15.9905 41.1802 16 41.2277 16.0596L43.8525 19.3496C43.9 19.4092 43.8905 19.4934 43.8309 19.541ZM10.2117 46.0134L43.5546 19.413L41.0997 16.3359L7.75691 42.9364L10.2117 46.0134Z" fill="#9F735D"/>
<path d="M47.1452 3.63734L44.3948 0.189771L41.1213 16.1445L43.7409 19.4281L47.1452 3.63734Z" fill="#B38972"/>
<path d="M43.8258 19.5346C43.8109 19.5465 43.7905 19.5558 43.7726 19.5596C43.7228 19.5714 43.6667 19.5535 43.6344 19.513L41.0148 16.2294C40.9893 16.1975 40.9804 16.1558 40.9886 16.1179L44.2621 0.163222C44.2737 0.112187 44.3133 0.0701202 44.3631 0.0582755C44.415 0.0447319 44.469 0.0643758 44.5013 0.104835L47.2517 3.5524C47.2772 3.58435 47.2861 3.62605 47.2796 3.66603L43.8753 19.4568C43.868 19.487 43.8514 19.5142 43.8258 19.5346ZM41.2668 16.1085L43.6673 19.1174L46.9963 3.66905L44.4701 0.50257L41.2685 16.1107L41.2668 16.1085Z" fill="#9F6659"/>
<path d="M49.5194 31.7819C49.5194 31.7819 49.5092 31.7691 49.5041 31.7627C49.4922 31.7478 49.4803 31.7329 49.4706 31.7163C49.4587 31.7014 49.4451 31.6843 49.4315 31.6673C49.4213 31.6545 49.4111 31.6417 49.3992 31.6268C49.3686 31.5885 49.3397 31.5523 49.3092 31.514C49.299 31.5012 49.2888 31.4884 49.2786 31.4756C49.2548 31.4458 49.231 31.416 49.2055 31.3841C49.2004 31.3777 49.1953 31.3713 49.1885 31.3628L49.1801 31.3521C49.1733 31.3436 49.1682 31.3372 49.1614 31.3287C49.0811 31.2325 48.9987 31.1379 48.9141 31.045C48.7183 30.8214 48.2092 30.4191 48.0975 30.3096C48.0082 30.224 47.8599 30.4399 47.7419 30.541C47.6154 30.6489 47.0963 31.3174 46.7564 31.6165C46.6747 31.6887 46.5929 31.7609 46.5111 31.8331C46.4532 31.8828 46.3931 31.9342 46.3352 31.9839C46.3096 32.0043 46.2841 32.0247 46.2581 32.0489C46.2389 32.0642 46.2219 32.0778 46.2027 32.093C46.1516 32.1338 46.1027 32.1729 46.0516 32.2137C46.043 32.2205 46.0345 32.2272 46.0239 32.2357C45.9792 32.2714 45.931 32.3028 45.8829 32.3343C45.8659 32.3478 45.8493 32.3576 45.8305 32.3691C45.7743 32.4034 45.7181 32.4378 45.6602 32.4701C45.656 32.4735 45.6517 32.4769 45.6458 32.4782C45.59 32.5087 45.5347 32.5354 45.4755 32.5617C45.4572 32.5694 45.441 32.5753 45.4227 32.5829C45.3597 32.6088 45.295 32.6325 45.2248 32.6537C44.94 32.738 44.6239 32.7567 44.3291 32.7584C44.1121 32.7573 43.8392 32.5987 43.6294 32.6894C43.554 32.7216 43.4961 32.7713 43.4505 32.8321C43.2863 32.8272 43.1374 32.8415 42.9663 32.8804C42.8033 32.9163 42.659 32.9408 42.5334 33.0585C42.4252 33.1587 42.3867 33.3114 42.3669 33.4526C42.3455 33.6092 42.364 33.7721 42.3931 33.9266C42.4024 33.9819 42.4078 34.0368 42.415 34.0938C42.3988 34.0998 42.3805 34.1074 42.3639 34.1171C42.3392 34.1299 42.3179 34.1469 42.2979 34.1698C41.9227 33.8698 41.2831 33.9549 41.2581 34.5394C41.2463 34.7823 41.4731 35.023 41.7229 34.9735C41.8914 34.9401 42.0226 34.825 42.1487 34.7035C42.031 34.9054 42.034 35.1888 42.0618 35.4071C42.0816 35.576 42.1128 35.7462 42.1769 35.9007C42.164 35.9458 42.1491 35.9926 42.1363 36.0377C42.1204 36.0921 42.1025 36.1482 42.0884 36.2048C42.0696 36.2686 42.0529 36.3307 42.0324 36.3923C42.0138 36.2817 41.9744 36.1842 41.8778 36.1985C41.7991 36.2091 41.7436 36.3405 41.7325 36.4051C41.7114 36.5578 41.7401 36.6987 41.7799 36.8446C41.7939 36.8927 41.8177 36.9574 41.849 37.023C41.7875 37.2254 41.7226 37.4236 41.6517 37.623C41.6526 37.5456 41.6476 37.4694 41.6265 37.3992C41.6167 37.3651 41.587 37.3366 41.55 37.3383C41.3347 37.3392 41.3168 37.6706 41.3149 37.8255C41.3134 37.9591 41.3405 38.1152 41.4007 38.2519C41.3333 38.4032 41.2603 38.552 41.1801 38.6961C41.0539 38.9223 40.9383 39.1574 40.8082 39.3831C40.7605 39.4631 40.7148 39.5413 40.6633 39.6208C40.656 39.6335 40.6488 39.6463 40.6377 39.6586C40.6096 39.7019 40.5776 39.7449 40.5477 39.7861C40.5384 39.8005 40.529 39.815 40.5179 39.8273C40.4749 39.8826 40.4301 39.9357 40.3837 39.9867C40.2248 40.1588 40.034 40.304 39.8572 40.4624C39.663 40.6383 39.4721 40.8184 39.2715 40.982C39.013 41.1952 38.7583 41.4088 38.5555 41.6787C38.4847 41.7735 38.4165 41.8627 38.3785 41.9767C38.3452 42.0834 38.3386 42.2106 38.3351 42.3285C38.3333 42.3612 38.3333 42.3961 38.3315 42.4288C38.3222 42.736 38.3507 43.0687 38.4353 43.3671C38.4518 43.4271 38.4807 43.4807 38.5159 43.5293C38.481 43.5467 38.4597 43.5985 38.5378 43.7488C38.6477 43.9608 38.7624 44.0958 38.973 44.0323C39.1858 43.9671 40.0716 43.6577 41.854 42.511C43.6364 41.3644 44.4056 40.66 45.183 39.9353C45.9604 39.2106 46.1382 38.9224 46.3335 38.3066C46.5018 37.7751 46.5672 37.228 46.9981 36.6543C47.2153 36.7911 47.4597 36.9446 47.5838 37.0303C47.5872 37.0346 47.5927 37.0371 47.5966 37.0376C47.6127 37.0491 47.6272 37.0584 47.6378 37.0674C47.8074 37.197 47.9464 37.2707 48.0439 37.2313C48.1435 37.1902 49.7794 35.7944 50.1534 35.4682C50.5269 35.1458 50.5726 35.0676 50.5573 34.7383C50.5573 34.7208 50.5539 34.6991 50.551 34.6736C50.548 34.6655 50.5472 34.6557 50.548 34.6481C50.5459 34.6323 50.5421 34.6145 50.54 34.5987C50.5392 34.5889 50.5366 34.577 50.5341 34.5651C50.5303 34.5472 50.5265 34.5294 50.5231 34.5077C50.5206 34.4957 50.5198 34.486 50.5151 34.4757C50.5151 34.4757 50.5117 34.4715 50.5138 34.4698C50.4178 34.0306 50.1933 33.356 50.1933 33.356C50.1933 33.356 50.1869 33.3611 50.1762 33.3696C50.1636 33.2577 50.1472 33.1454 50.1171 33.0334C50.0211 32.6466 49.8462 32.3226 49.6421 31.9837C49.6077 31.9275 49.575 31.8734 49.5381 31.8227C49.5279 31.8099 49.5177 31.7972 49.5096 31.7827L49.5194 31.7819ZM42.4061 35.0349C42.3996 35.0748 42.3932 35.1148 42.3829 35.1544C42.3813 35.0999 42.3818 35.0438 42.3823 34.9876C42.3904 35.0021 42.3963 35.0183 42.4061 35.0349ZM41.5578 34.6661C41.4492 34.495 41.6647 34.3196 41.8114 34.307C41.9544 34.294 42.0798 34.3682 42.1967 34.4492C42.1963 34.453 42.1975 34.459 42.1971 34.4628C41.9638 34.6071 41.686 34.8705 41.5578 34.6661Z" fill="#9F735D"/>
</g>
<defs>
<clipPath id="clip0_220_132">
<rect width="55.7073" height="32.8632" fill="white" transform="translate(0.869263 34.7396) rotate(-38.5824)"/>
</clipPath>
</defs>
</svg>
