<svg width="28" height="33" viewBox="0 0 28 33" fill="none" xmlns="http://www.w3.org/2000/svg">
<g clip-path="url(#clip0_220_219)">
<path d="M16.072 9.58852L15.9334 10.6808L23.839 14.8425L24.8651 14.2174L23.3321 6.70672L14.8902 2.26268L16.072 9.58852Z" fill="#B38972"/>
<path d="M24.9245 14.2487C24.9188 14.2594 24.9108 14.2688 24.8999 14.2752L23.8738 14.9003C23.8538 14.9125 23.8292 14.9131 23.8078 14.9019L15.9022 10.7402C15.8773 10.7271 15.8629 10.6998 15.8664 10.6729L16.003 9.59011L14.8222 2.27389C14.8185 2.24922 14.8286 2.22424 14.8487 2.20907C14.8688 2.19389 14.8971 2.19209 14.9196 2.20395L23.3615 6.64799C23.3793 6.65736 23.3915 6.67441 23.3965 6.69371L24.9296 14.2044C24.9335 14.2201 24.9301 14.235 24.9226 14.2493L24.9245 14.2487ZM23.8359 14.7651L24.7896 14.1853L23.2724 6.75109L14.9776 2.3845L16.1382 9.57795C16.1382 9.57795 16.1392 9.59056 16.139 9.59656L16.0068 10.6422L23.8377 14.7646L23.8359 14.7651Z" fill="#9F6659"/>
<g style="mix-blend-mode:screen">
<path d="M18.9981 12.2942L19.6376 12.6309L20.6637 12.0058L19.1307 4.49503L18.4912 4.15837L20.0242 11.6691L18.9981 12.2942Z" fill="#FBB98B"/>
</g>
<g style="mix-blend-mode:multiply">
<path d="M15.1718 4.05052C15.3249 5.2191 15.5202 6.37956 15.6847 7.54657C15.8383 8.63059 15.9811 9.71798 16.1546 10.7988L16.3991 10.9275L17.4252 10.3024L15.8921 2.79166L14.9121 2.27574C14.9895 2.87414 15.0964 3.47136 15.1712 4.05171L15.1718 4.05052Z" fill="#D0A68D"/>
</g>
<path d="M16.0714 9.58973L6.58929 27.6019L15.3824 32.2308L24.8645 14.2187L16.0714 9.58973Z" fill="#D0A68D"/>
<path d="M24.9245 14.2487L15.4418 32.262C15.4243 32.2952 15.3844 32.3076 15.3512 32.2901L6.5581 27.6612C6.52488 27.6437 6.51252 27.6038 6.53001 27.5706L16.0121 9.55849C16.0296 9.52526 16.0694 9.5129 16.1026 9.53039L24.8957 14.1593C24.929 14.1768 24.9413 14.2166 24.9238 14.2499L24.9245 14.2487ZM15.355 32.139L24.7746 14.2455L16.1001 9.67908L6.67989 27.5738L15.3543 32.1402L15.355 32.139Z" fill="#9F735D"/>
<g style="mix-blend-mode:screen">
<path d="M20.0236 11.6703L10.5415 29.6824L11.098 29.9754L20.5801 11.9632L20.0236 11.6703Z" fill="#FBB98B"/>
</g>
<g style="mix-blend-mode:multiply">
<path d="M16.0714 9.58973L6.58929 27.6019L7.94308 28.3145L17.4252 10.3024L16.0714 9.58973Z" fill="#D0A68D"/>
</g>
<path d="M15.31 1.92005L13.6655 1.05435L3.84549 19.7084L5.49791 27.5911L8.94314 25.4937L10.2005 23.1053L10.2064 23.1085L15.3612 13.3163L15.3259 1.93298L15.3211 1.93048L15.3218 1.9263L15.31 1.92005Z" fill="#EAAD8D"/>
<path d="M15.4205 13.3476L10.2657 23.1397C10.2607 23.1492 10.254 23.1563 10.246 23.1627L9.00182 25.5262C8.9962 25.5369 8.98821 25.5463 8.97728 25.5527L5.53268 27.6488C5.51444 27.6604 5.49102 27.6617 5.47141 27.6529C5.4518 27.6441 5.43657 27.627 5.43282 27.6053L3.77922 19.722C3.77653 19.707 3.77866 19.6914 3.78615 19.6772L13.6061 1.02316C13.6236 0.989938 13.6635 0.977576 13.6967 0.995065L15.3412 1.86076C15.3483 1.86451 15.3572 1.87069 15.3642 1.87744C15.3813 1.89099 15.3935 1.91104 15.3943 1.93265L15.4296 13.316C15.43 13.3268 15.4274 13.3375 15.4224 13.347L15.4205 13.3476ZM10.1608 23.0512L15.2944 13.2994L15.2585 1.96879L13.6936 1.14494L3.91604 19.7183L5.54449 27.4853L8.89192 25.4471L10.1411 23.0741C10.1461 23.0646 10.1529 23.0576 10.1608 23.0512Z" fill="#B5826A"/>
<g style="mix-blend-mode:multiply" opacity="0.4">
<path d="M3.84553 19.7083L4.4815 22.7373C5.19289 19.6676 6.59851 16.7269 8.05115 13.9761C9.29767 11.6168 10.6479 9.25915 12.4303 7.25779C13.2884 6.2927 14.2415 5.31701 15.3347 4.57876L15.3265 1.93176L15.3218 1.92926L15.3237 1.9257L13.6661 1.05313L3.84553 19.7083Z" fill="#EAAD8D"/>
</g>
<path d="M15.3404 8.89432L5.49792 27.5911L7.33105 28.5561L17.1735 9.85933L15.3404 8.89432Z" fill="#D0A68D"/>
<path d="M17.2329 9.89054L7.39042 28.5873C7.37293 28.6205 7.33309 28.6329 7.29986 28.6154L5.46673 27.6504C5.43351 27.6329 5.42115 27.593 5.43864 27.5598L15.2811 8.86307C15.2986 8.82985 15.3384 8.81749 15.3717 8.83498L17.2048 9.79999C17.238 9.81748 17.2504 9.85732 17.2329 9.89054ZM7.303 28.4655L17.083 9.88741L15.3685 8.98486L5.58852 27.563L7.303 28.4655Z" fill="#9F735D"/>
<path d="M15.5865 2.06555L13.6655 1.05431L15.3404 8.89429L17.17 9.85742L15.5865 2.06555Z" fill="#B38972"/>
<path d="M17.2293 9.88867C17.2249 9.89697 17.2175 9.90521 17.2102 9.91046C17.1901 9.92563 17.1613 9.92863 17.1387 9.91676L15.3092 8.95362C15.2914 8.94426 15.2791 8.92721 15.2753 8.90853L13.6004 1.06856C13.5955 1.04327 13.6051 1.01648 13.6252 1.0013C13.6459 0.984944 13.6742 0.983136 13.6967 0.995004L15.6176 2.00623C15.6354 2.0156 15.6477 2.03265 15.6527 2.05195L17.2362 9.84383C17.2389 9.85888 17.2368 9.87443 17.2293 9.88867ZM15.3989 8.84934L17.0754 9.7319L15.5255 2.10927L13.7612 1.18049L15.4001 8.84997L15.3989 8.84934Z" fill="#9F6659"/>
<path d="M22.2151 14.2862C22.2151 14.2862 22.2079 14.2824 22.2044 14.2806C22.1961 14.2762 22.1878 14.2718 22.1801 14.2662C22.1718 14.2619 22.1623 14.2569 22.1528 14.2519C22.1457 14.2481 22.1386 14.2444 22.1303 14.24C22.1089 14.2288 22.0887 14.2182 22.0674 14.2069C22.0603 14.2032 22.0531 14.1994 22.046 14.1957C22.0294 14.1869 22.0128 14.1782 21.995 14.1688C21.9914 14.1669 21.9879 14.1651 21.9831 14.1626L21.9772 14.1594C21.9725 14.1569 21.9689 14.1551 21.9642 14.1526C21.909 14.125 21.8531 14.0987 21.7967 14.0735C21.6642 14.0113 21.3552 13.9305 21.2832 13.9032C21.2261 13.8822 21.2018 14.0089 21.1686 14.0777C21.1329 14.1514 21.0309 14.5553 20.9367 14.7572C20.9141 14.806 20.8915 14.8547 20.8688 14.9034C20.8525 14.9372 20.8356 14.9723 20.8193 15.0061C20.8118 15.0203 20.8043 15.0346 20.7974 15.0506C20.7918 15.0613 20.7868 15.0708 20.7811 15.0815C20.7662 15.1099 20.7518 15.1372 20.7368 15.1657C20.7343 15.1705 20.7318 15.1752 20.7287 15.1811C20.7156 15.2061 20.7001 15.2297 20.6846 15.2534C20.6796 15.2629 20.674 15.2706 20.6678 15.2794C20.6493 15.306 20.6307 15.3326 20.611 15.3586C20.6098 15.361 20.6085 15.3634 20.6061 15.3651C20.587 15.3899 20.5673 15.4129 20.5458 15.4364C20.5391 15.4435 20.5329 15.4493 20.5262 15.4564C20.5029 15.4805 20.4784 15.504 20.4509 15.5274C20.3392 15.6216 20.2004 15.6925 20.0678 15.7515C19.9697 15.7938 19.8154 15.7762 19.7387 15.8586C19.7111 15.888 19.6948 15.9218 19.6862 15.9582C19.6112 15.9885 19.5469 16.0243 19.4774 16.0756C19.411 16.124 19.3508 16.1635 19.3174 16.2414C19.2884 16.308 19.3012 16.3844 19.3202 16.452C19.3414 16.5268 19.382 16.5966 19.4256 16.6605C19.4407 16.6836 19.454 16.7073 19.4685 16.7316C19.4624 16.7375 19.4556 16.7445 19.4501 16.7522C19.4415 16.7628 19.4352 16.7747 19.4307 16.789C19.2023 16.7278 18.9307 16.8925 19.0349 17.161C19.0775 17.2728 19.2273 17.3365 19.3302 17.2649C19.3996 17.2166 19.436 17.1388 19.4688 17.0591C19.4557 17.1734 19.513 17.3005 19.5686 17.3934C19.6109 17.4657 19.6586 17.5363 19.718 17.5933C19.7211 17.6162 19.7236 17.6402 19.7267 17.6631C19.7303 17.6907 19.7333 17.7196 19.7381 17.7479C19.7422 17.7803 19.747 17.8116 19.7499 17.8435C19.7197 17.7973 19.6827 17.7611 19.642 17.7866C19.6085 17.8069 19.6095 17.8771 19.6172 17.9085C19.6379 17.9815 19.6787 18.0393 19.7254 18.0973C19.7412 18.1162 19.7647 18.1407 19.7918 18.164C19.804 18.2674 19.8139 18.3696 19.8213 18.4735C19.8065 18.4384 19.7892 18.4051 19.7657 18.3776C19.7546 18.3642 19.7356 18.3572 19.7192 18.3652C19.6224 18.4082 19.6797 18.5611 19.7095 18.6313C19.7352 18.6919 19.7782 18.7569 19.8323 18.8066C19.8318 18.8882 19.8283 18.9697 19.8206 19.0505C19.8084 19.1774 19.8027 19.3062 19.7886 19.4337C19.7829 19.4792 19.7778 19.5234 19.7702 19.5695C19.7694 19.5766 19.7687 19.5838 19.7661 19.5916C19.762 19.6167 19.7561 19.6423 19.7508 19.6668C19.7494 19.6752 19.748 19.6836 19.7455 19.6913C19.737 19.7247 19.7273 19.7575 19.7164 19.7897C19.6787 19.8986 19.6214 20.0018 19.573 20.1081C19.5202 20.2258 19.4697 20.3447 19.4115 20.458C19.3371 20.6052 19.2644 20.7518 19.2263 20.9136C19.2131 20.9703 19.2 21.024 19.2053 21.0829C19.2114 21.1376 19.2335 21.1962 19.2552 21.2501C19.2609 21.2652 19.2678 21.2809 19.2734 21.296C19.3299 21.4364 19.4084 21.5808 19.5055 21.6985C19.5248 21.7223 19.5484 21.7408 19.5739 21.7558C19.5616 21.7705 19.5622 21.7981 19.6271 21.8504C19.7185 21.9243 19.7969 21.9625 19.8793 21.8923C19.9624 21.8209 20.3007 21.5065 20.8778 20.6375C21.455 19.7685 21.6628 19.299 21.8701 18.8187C22.0775 18.3384 22.1008 18.1734 22.0672 17.8572C22.0381 17.5843 21.9596 17.3247 22.0405 16.9809C22.1655 16.9997 22.306 17.0207 22.3789 17.0348C22.3813 17.036 22.3843 17.0361 22.3861 17.0355C22.3956 17.0375 22.404 17.0389 22.4105 17.0409C22.5126 17.0658 22.5898 17.0716 22.626 17.0346C22.6628 16.9963 23.1247 16.044 23.2289 15.823C23.3337 15.6039 23.3388 15.5596 23.2669 15.4142C23.2634 15.4063 23.2576 15.3972 23.2513 15.3863C23.2483 15.3832 23.246 15.3789 23.2449 15.3753C23.2408 15.3686 23.2356 15.3613 23.2315 15.3547C23.2292 15.3504 23.2257 15.3455 23.2222 15.3407C23.217 15.3334 23.2117 15.326 23.2059 15.3169C23.2024 15.3121 23.2001 15.3078 23.196 15.3041C23.196 15.3041 23.1936 15.3029 23.1943 15.3017C23.0642 15.1226 22.8298 14.8628 22.8298 14.8628C22.8298 14.8628 22.8279 14.8664 22.8248 14.8723C22.797 14.8244 22.7674 14.777 22.7317 14.7324C22.612 14.577 22.4692 14.4654 22.3102 14.3529C22.2836 14.3344 22.2582 14.3165 22.2316 14.3009C22.2244 14.2972 22.2173 14.2934 22.2108 14.2885L22.2151 14.2862ZM19.6503 17.1576C19.6553 17.1769 19.6603 17.1962 19.6635 17.2161C19.652 17.1919 19.6411 17.1664 19.6303 17.141C19.6368 17.146 19.6426 17.1521 19.6503 17.1576ZM19.1951 17.1589C19.1123 17.1032 19.1748 16.9816 19.2385 16.9469C19.3004 16.9128 19.3716 16.9215 19.4403 16.9349C19.4408 16.9367 19.4426 16.9392 19.4431 16.941C19.3664 17.0521 19.2932 17.2257 19.1951 17.1589Z" fill="#9F735D"/>
</g>
<defs>
<clipPath id="clip0_220_219">
<rect width="27.4205" height="16.1761" fill="white" transform="translate(0.864319 25.2275) rotate(-62.2365)"/>
</clipPath>
</defs>
</svg>
