<svg width="40" height="66" viewBox="0 0 40 66" fill="none" xmlns="http://www.w3.org/2000/svg">
<g clip-path="url(#clip0_220_161)">
<path d="M22.0467 42.7339L20.2252 41.4356L5.17567 51.5822L5.30774 54.0196L20.2234 58.4978L36.2938 47.6629L22.0467 42.7339Z" fill="#B38972"/>
<path d="M5.19481 54.0957C5.18111 54.0754 5.17192 54.052 5.17103 54.0263L5.03896 51.5889C5.03645 51.5413 5.05888 51.4966 5.09954 51.4692L20.149 41.3226C20.1965 41.2906 20.2592 41.291 20.3039 41.3233L22.1103 42.6089L36.3392 47.5304C36.3869 47.5475 36.4219 47.5896 36.4297 47.6402C36.4375 47.6908 36.4136 47.743 36.3707 47.772L20.3003 58.6069C20.2664 58.6297 20.2241 58.6352 20.1848 58.6256L5.26913 54.1474C5.23735 54.1393 5.21382 54.119 5.19555 54.0919L5.19481 54.0957ZM5.31732 51.6509L5.43791 53.9154L20.2014 58.3483L35.9918 47.7022L22.0021 42.8625C22.0021 42.8625 21.9786 42.8521 21.968 42.8461L20.2238 41.604L5.31659 51.6547L5.31732 51.6509Z" fill="#9F6659"/>
<g style="mix-blend-mode:screen">
<path d="M14.3911 45.369L13.1736 46.1898L13.3057 48.6272L28.2213 53.1054L29.4387 52.2846L14.5231 47.8064L14.3911 45.369Z" fill="#FBB98B"/>
</g>
<g style="mix-blend-mode:multiply">
<path d="M32.8233 46.4478C30.5848 45.5982 28.3203 44.8318 26.0735 44.0041C23.9858 43.2368 21.9024 42.4467 19.8013 41.718L19.336 42.0317L19.4681 44.4691L34.3837 48.9473L36.2494 47.6895C35.104 47.2527 33.9324 46.8697 32.8218 46.4456L32.8233 46.4478Z" fill="#D0A68D"/>
</g>
<path d="M22.0452 42.7316L-1.07281 8.44275L-17.8118 19.7284L5.30625 54.0173L22.0452 42.7316Z" fill="#D0A68D"/>
<path d="M5.19485 54.0957L-17.9247 19.8046C-17.9674 19.7413 -17.9512 19.6581 -17.8879 19.6155L-1.14894 8.3298C-1.0857 8.28716 -1.00251 8.30335 -0.959869 8.3666L22.1582 42.6554C22.2008 42.7187 22.1846 42.8019 22.1214 42.8445L5.3824 54.1302C5.31916 54.1728 5.23597 54.1566 5.19333 54.0934L5.19485 54.0957ZM-17.6212 19.7675L5.34458 53.8304L21.8577 42.697L-1.10959 8.63181L-17.6227 19.7652L-17.6212 19.7675Z" fill="#9F735D"/>
<g style="mix-blend-mode:screen">
<path d="M14.5216 47.8041L-8.5965 13.5153L-9.65581 14.2295L13.4622 48.5183L14.5216 47.8041Z" fill="#FBB98B"/>
</g>
<g style="mix-blend-mode:multiply">
<path d="M22.0452 42.7316L-1.07281 8.44275L-3.64995 10.1803L19.4681 44.4691L22.0452 42.7316Z" fill="#D0A68D"/>
</g>
<path d="M36.5034 48.7436L39.634 46.633L15.6921 11.1222L-0.00402954 6.49998L0.436748 14.6824L3.5022 19.2291L3.49091 19.2367L16.0588 37.8775L36.465 48.7597L36.474 48.7536L36.4809 48.7588L36.5034 48.7436Z" fill="#EAAD8D"/>
<path d="M15.9459 37.9537L3.37797 19.3129C3.36578 19.2949 3.35964 19.276 3.35576 19.2556L0.322283 14.7564C0.308577 14.736 0.29939 14.7127 0.298501 14.687L-0.140755 6.50684C-0.144005 6.46304 -0.12383 6.41987 -0.0892145 6.39324C-0.0545987 6.36662 -0.00932255 6.3558 0.0330609 6.36994L15.7314 10.9906C15.7609 11.0003 15.7867 11.019 15.805 11.0461L39.7469 46.5569C39.7895 46.6202 39.7733 46.7034 39.7101 46.746L36.5796 48.8566C36.566 48.8658 36.5464 48.8757 36.5276 48.8818C36.4869 48.8994 36.4393 48.9019 36.3999 48.8825L15.9937 38.0003C15.974 37.9906 15.9573 37.9756 15.9451 37.9575L15.9459 37.9537ZM3.63733 19.2103L16.1535 37.7743L36.4657 48.6049L39.4449 46.5963L15.6065 11.2391L0.140477 6.68519L0.569469 14.6357L3.61513 19.153C3.62731 19.1711 3.63345 19.19 3.63733 19.2103Z" fill="#B5826A"/>
<g style="mix-blend-mode:multiply" opacity="0.4">
<path d="M15.692 11.1222L9.65968 9.34793C14.4695 13.5727 18.3808 18.9159 21.9069 24.1606C24.9306 28.6599 27.8517 33.3434 29.7196 38.4576C30.6217 40.9213 31.4514 43.5651 31.7214 46.2315L36.4665 48.762L36.4755 48.7559L36.4801 48.7627L39.6355 46.6353L15.692 11.1222Z" fill="#EAAD8D"/>
</g>
<path d="M23.9926 42.0921L-0.00408936 6.5L-3.49373 8.85277L20.503 44.4449L23.9926 42.0921Z" fill="#D0A68D"/>
<path d="M20.3901 44.521L-3.60665 8.9289C-3.64929 8.86566 -3.6331 8.78246 -3.56986 8.73982L-0.0802186 6.38705C-0.0169759 6.34442 0.0662171 6.3606 0.108856 6.42385L24.1056 42.0159C24.1482 42.0792 24.132 42.1624 24.0688 42.205L20.5792 44.5578C20.5159 44.6004 20.4327 44.5842 20.3901 44.521ZM-3.30464 8.88955L20.5398 44.2558L23.8036 42.0553L-0.0408691 6.68906L-3.30464 8.88955Z" fill="#9F735D"/>
<path d="M35.9772 49.0985L39.6339 46.633L23.9927 42.0921L20.5098 44.4403L35.9772 49.0985Z" fill="#B38972"/>
<path d="M20.3969 44.5164C20.3862 44.5006 20.3785 44.4795 20.3762 44.4614C20.3684 44.4108 20.3908 44.3563 20.4337 44.3274L23.9165 41.9792C23.9504 41.9563 23.9927 41.9508 24.0298 41.962L39.671 46.5029C39.721 46.5185 39.7597 46.5613 39.7676 46.6119C39.7769 46.6647 39.753 46.717 39.7101 46.7459L36.0533 49.2114C36.0194 49.2342 35.9771 49.2397 35.9378 49.2301L20.4704 44.572C20.4409 44.5623 20.4151 44.5436 20.3969 44.5164ZM24.0169 42.2401L20.8254 44.3918L35.9575 48.9475L39.3161 46.683L24.0146 42.2416L24.0169 42.2401Z" fill="#9F6659"/>
<path d="M7.7329 49.2108C7.7329 49.2108 7.74645 49.2017 7.75323 49.1971C7.76904 49.1865 7.78485 49.1758 7.80218 49.1674C7.81799 49.1567 7.83606 49.1446 7.85413 49.1324C7.86768 49.1232 7.88123 49.1141 7.89704 49.1034C7.9377 49.076 7.9761 49.0501 8.01675 49.0227C8.03031 49.0136 8.04386 49.0045 8.05741 48.9953C8.08903 48.974 8.12065 48.9527 8.15453 48.9298C8.16131 48.9253 8.16808 48.9207 8.17712 48.9146L8.18841 48.907C8.19745 48.9009 8.20422 48.8963 8.21326 48.8902C8.31563 48.8179 8.41649 48.7434 8.51582 48.6665C8.7544 48.4893 9.19617 48.014 9.31426 47.9114C9.40676 47.8293 9.20342 47.6641 9.1121 47.5384C9.01469 47.4037 8.38992 46.8328 8.11906 46.47C8.05363 46.3827 7.9882 46.2954 7.92277 46.2081C7.87787 46.1464 7.83145 46.0824 7.78655 46.0207C7.76827 45.9936 7.75 45.9665 7.72795 45.9386C7.71424 45.9183 7.70206 45.9002 7.68835 45.8799C7.6518 45.8257 7.61678 45.7738 7.58023 45.7195C7.57414 45.7105 7.56805 45.7015 7.56043 45.6902C7.52845 45.6428 7.50099 45.5923 7.47353 45.5418C7.46135 45.5237 7.45295 45.5064 7.44302 45.4868C7.41325 45.428 7.38348 45.3692 7.35597 45.3089C7.35292 45.3044 7.34987 45.2999 7.34909 45.2939C7.3231 45.2358 7.30089 45.1785 7.27942 45.1174C7.27327 45.0986 7.26865 45.082 7.26251 45.0631C7.24177 44.9983 7.2233 44.9319 7.20781 44.8602C7.14661 44.5696 7.15327 44.253 7.17516 43.959C7.19368 43.7428 7.37366 43.4835 7.3 43.267C7.27391 43.1894 7.22901 43.1276 7.17208 43.0773C7.19012 42.914 7.18783 42.7644 7.16275 42.5908C7.13998 42.4255 7.12713 42.2797 7.0199 42.145C6.92863 42.0291 6.77953 41.9785 6.64035 41.9475C6.48604 41.9136 6.32212 41.919 6.16581 41.9356C6.10993 41.9405 6.05478 41.9415 5.99737 41.9441C5.99275 41.9275 5.98661 41.9086 5.97821 41.8913C5.9675 41.8657 5.95227 41.8431 5.931 41.8213C6.2601 41.4713 6.22652 40.827 5.6459 40.7552C5.40472 40.724 5.14665 40.9308 5.17593 41.1838C5.1957 41.3544 5.29994 41.4944 5.41095 41.6298C5.21911 41.4963 4.93644 41.4766 4.71663 41.4869C4.54667 41.493 4.37449 41.5105 4.21535 41.562C4.17144 41.5456 4.12601 41.527 4.0821 41.5106C4.02911 41.4904 3.9746 41.4681 3.91935 41.4495C3.85727 41.4256 3.79671 41.404 3.73689 41.3786C3.84866 41.369 3.94898 41.3375 3.94243 41.24C3.93824 41.1607 3.81172 41.0949 3.74818 41.0786C3.59765 41.0454 3.45495 41.0628 3.30625 41.0907C3.2572 41.1008 3.1908 41.1193 3.12294 41.1453C2.9261 41.0678 2.73377 40.9872 2.54066 40.9006C2.61776 40.9077 2.69408 40.9088 2.76577 40.8933C2.80049 40.8864 2.83133 40.859 2.83265 40.822C2.84891 40.6073 2.52002 40.5629 2.36581 40.5486C2.23278 40.5365 2.07494 40.5509 1.93391 40.6C1.78844 40.5207 1.64596 40.436 1.50873 40.3446C1.29341 40.2006 1.06832 40.0666 0.853734 39.9188C0.7779 39.8648 0.703587 39.8131 0.628489 39.7553C0.616357 39.7471 0.604225 39.7388 0.59283 39.7268C0.551867 39.6953 0.51164 39.66 0.472936 39.6269C0.459282 39.6164 0.445627 39.6059 0.434231 39.5939C0.382608 39.5466 0.333246 39.4977 0.28614 39.4473C0.127337 39.2751 -0.00215493 39.0733 -0.145934 38.8844C-0.305678 38.6767 -0.469938 38.4721 -0.616866 38.259C-0.808691 37.9843 -1.00125 37.7133 -1.25401 37.4894C-1.34281 37.4113 -1.42631 37.3362 -1.53687 37.2892C-1.64059 37.2474 -1.76685 37.2307 -1.88403 37.2177C-1.91654 37.2134 -1.95131 37.2105 -1.98382 37.2061C-2.28923 37.1722 -2.62317 37.174 -2.92733 37.2345C-2.98847 37.2461 -3.04425 37.2706 -3.09547 37.3018C-3.11001 37.2657 -3.16001 37.2402 -3.31606 37.306C-3.53619 37.3986 -3.67996 37.5021 -3.63351 37.7172C-3.58553 37.9345 -3.3481 38.8422 -2.34787 40.7107C-1.34763 42.5792 -0.707188 43.4024 -0.0470482 44.2354C0.613092 45.0683 0.886128 45.2686 1.48427 45.5125C2.00064 45.7229 2.54066 45.8319 3.07805 46.3074C2.92424 46.5129 2.75167 46.7443 2.65632 46.8611C2.65181 46.8642 2.64881 46.8695 2.64808 46.8732C2.63531 46.8884 2.62481 46.9021 2.61504 46.9119C2.47231 47.0706 2.38762 47.2033 2.41912 47.3036C2.45215 47.4062 3.71238 49.1487 4.00761 49.5475C4.29905 49.9457 4.37336 49.9975 4.70283 50.0086C4.72022 50.01 4.74212 50.0084 4.7678 50.0075C4.7761 50.0052 4.78592 50.0051 4.79349 50.0066C4.80935 50.0058 4.82747 50.0034 4.84333 50.0026C4.85315 50.0025 4.86523 50.0009 4.87731 49.9994C4.89543 49.997 4.91355 49.9946 4.93546 49.993C4.94754 49.9914 4.95736 49.9914 4.96792 49.9876C4.96792 49.9876 4.97243 49.9845 4.97396 49.9868C5.4194 49.9263 6.10983 49.7565 6.10983 49.7565C6.10983 49.7565 6.10527 49.7497 6.09765 49.7384C6.21021 49.7348 6.3235 49.7274 6.43747 49.7064C6.83077 49.6416 7.16772 49.4933 7.5219 49.3169C7.58068 49.2872 7.63719 49.2589 7.69067 49.2262C7.70422 49.217 7.71777 49.2079 7.73285 49.201L7.7329 49.2108ZM5.06007 41.8598C5.02073 41.8502 4.9814 41.8406 4.94279 41.8272C4.99721 41.8299 5.05314 41.8349 5.10908 41.8399C5.094 41.8468 5.0774 41.8514 5.06007 41.8598ZM5.49554 41.0438C5.67487 40.9492 5.83245 41.1781 5.83322 41.3254C5.83472 41.4689 5.75072 41.588 5.66063 41.698C5.65685 41.6973 5.65081 41.6981 5.64703 41.6973C5.52185 41.4532 5.28155 41.1553 5.49554 41.0438Z" fill="#9F735D"/>
</g>
<defs>
<clipPath id="clip0_220_161">
<rect width="55.7073" height="32.8632" fill="white" transform="translate(8.68115 0.47998) rotate(56.0116)"/>
</clipPath>
</defs>
</svg>
