<svg width="32" height="32" viewBox="0 0 32 32" fill="none" xmlns="http://www.w3.org/2000/svg">
<g clip-path="url(#clip0_220_190)">
<path d="M12.5021 22.677L12.9357 21.6555L6.40721 15.4536L5.24071 15.7789L4.67078 23.484L11.6422 30.1066L12.5021 22.677Z" fill="#B38972"/>
<path d="M5.19172 15.7324C5.20009 15.7236 5.21043 15.7166 5.22278 15.7135L6.38927 15.3881C6.41205 15.3818 6.4361 15.3879 6.45374 15.4047L12.9822 21.6065C13.0028 21.6261 13.0093 21.6565 12.9985 21.6816L12.5695 22.6945L11.7112 30.1144C11.708 30.1394 11.6913 30.1608 11.6677 30.1701C11.644 30.1793 11.6161 30.1733 11.5975 30.1556L4.62615 23.533C4.61145 23.519 4.60425 23.4992 4.60469 23.4791L5.17462 15.774C5.17516 15.7577 5.18246 15.7441 5.19363 15.7324L5.19172 15.7324ZM6.38908 15.5296L5.30513 15.8308L4.74083 23.4574L11.5907 29.9646L12.435 22.6692C12.435 22.6692 12.4375 22.6567 12.4393 22.651L12.8539 21.6729L6.38717 15.5297L6.38908 15.5296Z" fill="#9F6659"/>
<g style="mix-blend-mode:screen">
<path d="M10.4048 19.2512L9.87671 18.7495L8.71021 19.0749L8.14028 26.78L8.6684 27.2817L9.23833 19.5766L10.4048 19.2512Z" fill="#FBB98B"/>
</g>
<g style="mix-blend-mode:multiply">
<path d="M11.8585 28.2953C12.0301 27.1199 12.1585 25.9408 12.3186 24.7637C12.4664 23.6702 12.6257 22.5763 12.7534 21.4804L12.5516 21.2887L11.3851 21.614L10.8151 29.3191L11.6245 30.0879C11.7132 29.4863 11.7731 28.8777 11.8595 28.2943L11.8585 28.2953Z" fill="#D0A68D"/>
</g>
<path d="M12.503 22.6761L26.6334 7.80151L19.372 0.903399L5.24164 15.7779L12.503 22.6761Z" fill="#D0A68D"/>
<path d="M5.19171 15.7324L19.323 0.856869C19.3491 0.829434 19.3911 0.828355 19.4186 0.854418L26.68 7.75253C26.7074 7.77859 26.7085 7.82063 26.6824 7.84806L12.552 22.7226C12.526 22.75 12.4839 22.7511 12.4565 22.7251L5.19509 15.8269C5.16766 15.8009 5.16658 15.7588 5.19264 15.7314L5.19171 15.7324ZM19.3735 0.999919L5.33623 15.7765L12.4996 22.5815L26.5379 7.80397L19.3745 0.998939L19.3735 0.999919Z" fill="#9F735D"/>
<g style="mix-blend-mode:screen">
<path d="M9.23924 19.5756L23.3696 4.70105L22.9101 4.26451L8.77971 19.1391L9.23924 19.5756Z" fill="#FBB98B"/>
</g>
<g style="mix-blend-mode:multiply">
<path d="M12.503 22.6761L26.6334 7.80151L25.5155 6.73948L11.3851 21.614L12.503 22.6761Z" fill="#D0A68D"/>
</g>
<path d="M11.1411 30.324L12.4991 31.6141L27.133 16.2095L27.689 8.11092L23.7728 9.20174L21.8991 11.1741L21.8943 11.1694L14.2124 19.2558L11.1291 30.3071L11.1331 30.3109L11.1313 30.3147L11.1411 30.324Z" fill="#EAAD8D"/>
<path d="M14.1635 19.2093L21.8453 11.1229C21.8528 11.1151 21.8613 11.1101 21.8707 11.106L23.7249 9.15421C23.7332 9.14539 23.7436 9.13844 23.7559 9.13525L27.6712 8.04541C27.692 8.03914 27.7151 8.04428 27.7317 8.05819C27.7483 8.07211 27.7584 8.09288 27.7561 8.11492L27.2011 16.2144C27.1996 16.2298 27.1933 16.2443 27.1821 16.256L12.5481 31.6607C12.5221 31.6881 12.48 31.6892 12.4526 31.6631L11.0946 30.373C11.0887 30.3674 11.0818 30.359 11.0768 30.3505C11.0639 30.3327 11.0576 30.3099 11.0628 30.2888L14.146 19.2375C14.1486 19.2269 14.1541 19.2172 14.1616 19.2093L14.1635 19.2093ZM21.9228 11.2375L14.2726 19.2906L11.2043 30.2909L12.4967 31.5186L27.0673 16.1806L27.6149 8.20076L23.8098 9.26101L21.9482 11.2206C21.9408 11.2285 21.9323 11.2335 21.9228 11.2375Z" fill="#B5826A"/>
<g style="mix-blend-mode:multiply" opacity="0.4">
<path d="M27.133 16.2095L27.3457 13.0973C25.8149 15.8801 23.6461 18.3475 21.4838 20.6179C19.6285 22.565 17.6731 24.4821 15.3961 25.9352C14.2995 26.6363 13.1078 27.3217 11.8452 27.7384L11.1282 30.3081L11.1321 30.3119L11.1293 30.3148L12.4981 31.6151L27.133 16.2095Z" fill="#EAAD8D"/>
</g>
<path d="M13.0216 23.5509L27.689 8.11096L26.1752 6.67289L11.5078 22.1128L13.0216 23.5509Z" fill="#D0A68D"/>
<path d="M11.4588 22.0663L26.1262 6.62635C26.1523 6.59892 26.1943 6.59784 26.2217 6.6239L27.7356 8.06198C27.763 8.08804 27.7641 8.13008 27.738 8.15751L13.0706 23.5974C13.0445 23.6248 13.0025 23.6259 12.975 23.5999L11.4612 22.1618C11.4338 22.1357 11.4327 22.0937 11.4588 22.0663ZM26.1777 6.76842L11.6033 22.1103L13.0191 23.4553L27.5935 8.11342L26.1777 6.76842Z" fill="#9F735D"/>
<path d="M10.9128 30.1071L12.4991 31.614L13.0216 23.5507L11.5107 22.1155L10.9128 30.1071Z" fill="#B38972"/>
<path d="M11.4617 22.0689C11.4682 22.0621 11.4776 22.0561 11.4862 22.053C11.5098 22.0438 11.5386 22.0488 11.5572 22.0665L13.0681 23.5018C13.0828 23.5157 13.09 23.5356 13.0886 23.5548L12.5661 31.6181C12.5639 31.644 12.5473 31.6673 12.5236 31.6765C12.499 31.6867 12.4712 31.6807 12.4525 31.6631L10.8662 30.1561C10.8515 30.1421 10.8443 30.1223 10.8448 30.1022L11.4427 22.1105C11.4442 22.0952 11.4505 22.0807 11.4617 22.0689ZM12.9525 23.5783L11.568 22.2631L10.9838 30.0814L12.4408 31.4655L12.9515 23.5774L12.9525 23.5783Z" fill="#9F6659"/>
<path d="M7.83 16.438C7.83 16.438 7.83588 16.4436 7.83882 16.4464C7.84568 16.4529 7.85254 16.4595 7.85847 16.4669C7.86533 16.4735 7.87317 16.4809 7.881 16.4884C7.88688 16.4939 7.89276 16.4995 7.89962 16.506C7.91726 16.5228 7.93391 16.5386 7.95155 16.5554C7.95743 16.561 7.96331 16.5665 7.96919 16.5721C7.9829 16.5852 7.99662 16.5982 8.01132 16.6122C8.01426 16.6149 8.0172 16.6177 8.02112 16.6215L8.02602 16.6261C8.02994 16.6298 8.03288 16.6326 8.03679 16.6364C8.0828 16.6782 8.12973 16.719 8.17759 16.7589C8.28905 16.8555 8.56663 17.0185 8.62899 17.0647C8.67867 17.1007 8.73687 16.9845 8.78796 16.9268C8.84278 16.8652 9.05235 16.5013 9.19903 16.3312C9.2343 16.2902 9.26957 16.2491 9.30484 16.2081C9.32993 16.1797 9.35594 16.1504 9.38102 16.122C9.39219 16.1102 9.40336 16.0985 9.41448 16.0848C9.42286 16.076 9.4303 16.0681 9.43868 16.0593C9.46102 16.0358 9.48243 16.0133 9.50477 15.9898C9.50849 15.9858 9.51221 15.9819 9.51687 15.977C9.53642 15.9564 9.55792 15.9377 9.57943 15.919C9.58687 15.9112 9.59437 15.9053 9.6028 15.8983C9.62807 15.8776 9.65335 15.8569 9.67961 15.8371C9.68147 15.8351 9.68333 15.8332 9.68618 15.8322C9.7115 15.8133 9.73688 15.7964 9.76417 15.7795C9.77264 15.7745 9.78019 15.7705 9.78866 15.7655C9.81786 15.7485 9.84804 15.7324 9.88111 15.7172C10.0153 15.6564 10.1694 15.6257 10.3141 15.6048C10.4208 15.5906 10.5657 15.6499 10.6627 15.5911C10.6975 15.5701 10.7226 15.5417 10.7409 15.5088C10.8219 15.5 10.8941 15.4828 10.9755 15.4521C11.0532 15.4233 11.1224 15.4015 11.1761 15.3351C11.2225 15.2784 11.231 15.2008 11.2311 15.1301C11.231 15.0517 11.2108 14.9728 11.186 14.8989C11.1777 14.8724 11.1712 14.8458 11.1638 14.8182C11.1714 14.8142 11.1799 14.8092 11.1874 14.8033C11.1986 14.7954 11.2079 14.7856 11.2162 14.7729C11.421 14.8948 11.7295 14.8095 11.702 14.5205C11.6913 14.4003 11.5634 14.2975 11.4441 14.3388C11.3635 14.3667 11.3069 14.4322 11.2532 14.5005C11.2973 14.3932 11.2765 14.2542 11.248 14.1488C11.2268 14.0672 11.1998 13.9857 11.1579 13.9141C11.1611 13.8911 11.1653 13.867 11.1685 13.844C11.1725 13.8162 11.1775 13.7874 11.1806 13.7586C11.1855 13.726 11.1895 13.6944 11.1954 13.6627C11.212 13.7158 11.238 13.761 11.2845 13.7474C11.3225 13.7368 11.3408 13.6685 11.3419 13.636C11.3419 13.5595 11.3181 13.4922 11.2886 13.4232C11.2785 13.4005 11.2624 13.3703 11.2425 13.3403C11.259 13.2366 11.2774 13.1348 11.2987 13.032C11.3035 13.0701 11.3111 13.1072 11.3263 13.1402C11.3334 13.1563 11.35 13.1683 11.3681 13.165C11.4738 13.1498 11.46 12.9858 11.4504 12.9095C11.442 12.8438 11.4181 12.7689 11.3792 12.7058C11.402 12.6269 11.4278 12.5488 11.4574 12.4725C11.504 12.3528 11.5448 12.2294 11.5933 12.1096C11.6114 12.0671 11.6285 12.0255 11.6484 11.9829C11.6511 11.9762 11.6538 11.9694 11.6584 11.9626C11.6693 11.9394 11.6821 11.9161 11.6939 11.8938C11.6975 11.8861 11.7012 11.8783 11.7058 11.8715C11.7232 11.8415 11.7415 11.8123 11.7609 11.7841C11.8273 11.6887 11.9111 11.6043 11.9872 11.5144C12.0707 11.4148 12.1522 11.3133 12.2397 11.2193C12.3522 11.0969 12.4628 10.9746 12.5441 10.8281C12.5724 10.7767 12.5999 10.7282 12.6108 10.6696C12.6199 10.6149 12.6145 10.552 12.6082 10.4938C12.6068 10.4776 12.6045 10.4605 12.6031 10.4442C12.5868 10.2927 12.5501 10.1311 12.4882 9.99026C12.476 9.96189 12.4582 9.9375 12.4376 9.91604C12.4535 9.90511 12.4605 9.87817 12.4119 9.80963C12.3434 9.71293 12.2779 9.65439 12.1787 9.69995C12.0786 9.74649 11.6643 9.95882 10.8665 10.6437C10.0687 11.3285 9.73858 11.727 9.4059 12.1361C9.07321 12.5451 9.00546 12.6989 8.95143 13.0148C8.90489 13.2874 8.90999 13.5607 8.73731 13.872C8.62125 13.8195 8.49069 13.7607 8.42387 13.7271C8.42191 13.7252 8.41902 13.7243 8.41711 13.7244C8.40839 13.7198 8.40065 13.7162 8.39482 13.7125C8.30267 13.6604 8.22933 13.6336 8.18411 13.6596C8.13796 13.6866 7.42904 14.4839 7.26748 14.6697C7.10586 14.8535 7.08876 14.8951 7.1187 15.0559C7.11987 15.0644 7.12301 15.0749 7.12619 15.0872C7.1282 15.091 7.12928 15.0957 7.12938 15.0996C7.13148 15.1071 7.13457 15.1157 7.13668 15.1233C7.13776 15.128 7.13981 15.1337 7.14187 15.1394C7.14496 15.1479 7.14804 15.1564 7.15118 15.1669C7.15324 15.1725 7.15431 15.1773 7.1573 15.182C7.1573 15.182 7.15926 15.1839 7.15833 15.1848C7.2354 15.3941 7.39168 15.7104 7.39168 15.7104C7.39168 15.7104 7.39447 15.7074 7.39913 15.7025C7.41294 15.7567 7.42867 15.8107 7.45106 15.8637C7.5246 16.0473 7.63257 16.1946 7.75598 16.3472C7.7767 16.3725 7.79645 16.3968 7.81805 16.4192C7.82393 16.4248 7.82981 16.4304 7.83476 16.437L7.83 16.438ZM11.1042 14.3552C11.1046 14.3351 11.105 14.315 11.1074 14.2949C11.1119 14.3215 11.1155 14.3492 11.1191 14.3768C11.1141 14.3702 11.1101 14.3627 11.1042 14.3552ZM11.5461 14.4786C11.6112 14.5554 11.5172 14.6562 11.4459 14.6724C11.3766 14.6885 11.3099 14.6606 11.2469 14.6287C11.2469 14.6268 11.2458 14.624 11.2458 14.6221C11.3506 14.5353 11.4692 14.3869 11.5461 14.4786Z" fill="#9F735D"/>
</g>
<defs>
<clipPath id="clip0_220_190">
<rect width="27.6371" height="16.3039" fill="white" transform="translate(31.5363 11.6725) rotate(133.53)"/>
</clipPath>
</defs>
</svg>
