<svg width="64" height="20" viewBox="0 0 64 20" fill="none" xmlns="http://www.w3.org/2000/svg">
<path fill-rule="evenodd" clip-rule="evenodd" d="M19.139 -0.00781124L2.32334 -0.00781124C1.82336 -0.00837998 1.34361 0.184257 0.989553 0.52775C0.635497 0.871242 0.436117 1.33748 0.435242 1.82396L0.435242 18.1563C0.436117 18.6428 0.635497 19.109 0.989553 19.4525C1.34361 19.796 1.82336 19.9887 2.32334 19.9881L19.139 19.9881C19.6389 19.9887 20.1187 19.796 20.4727 19.4525C20.8268 19.109 21.0262 18.6428 21.027 18.1563L21.027 1.82396C21.0262 1.33748 20.8268 0.871242 20.4727 0.52775C20.1187 0.184257 19.6389 -0.00837998 19.139 -0.00781124V-0.00781124ZM7.41624 18.7955C7.41615 18.8796 7.39903 18.9627 7.36587 19.0404C7.33271 19.118 7.28415 19.1885 7.22298 19.2478C7.16181 19.3072 7.08922 19.3543 7.00935 19.3863C6.92948 19.4184 6.84391 19.4348 6.75752 19.4346H2.58646C2.38484 19.4348 2.18516 19.3964 1.99882 19.3215C1.81248 19.2466 1.64313 19.1366 1.50045 18.998C1.35776 18.8594 1.24453 18.6948 1.16723 18.5137C1.08993 18.3325 1.05007 18.1383 1.04993 17.9421L1.04993 7.49423C1.0509 7.32469 1.12067 7.16242 1.24404 7.0427C1.36742 6.92299 1.53441 6.85553 1.70865 6.85506L6.75752 6.85506C6.93176 6.85553 7.09875 6.92299 7.22213 7.0427C7.34551 7.16242 7.41528 7.32469 7.41624 7.49423L7.41624 18.7955V18.7955ZM20.3243 17.9421C20.3241 18.1383 20.2843 18.3325 20.207 18.5137C20.1297 18.6948 20.0165 18.8594 19.8738 18.998C19.7311 19.1366 19.5617 19.2466 19.3754 19.3215C19.1891 19.3964 18.9894 19.4348 18.7878 19.4346H14.6167C14.5303 19.4348 14.4447 19.4184 14.3649 19.3863C14.285 19.3543 14.2124 19.3072 14.1512 19.2478C14.0901 19.1885 14.0415 19.118 14.0083 19.0404C13.9752 18.9627 13.9581 18.8796 13.958 18.7955L13.958 7.49423C13.9589 7.32469 14.0287 7.16242 14.1521 7.0427C14.2755 6.92299 14.4425 6.85553 14.6167 6.85506H19.6648C19.8391 6.85553 20.0061 6.92299 20.1294 7.0427C20.2528 7.16242 20.3226 7.32469 20.3236 7.49423L20.3236 17.9421H20.3243ZM62.0341 -0.00781124L45.2185 -0.00781124C44.7186 -0.00828525 44.239 0.184398 43.885 0.527881C43.531 0.871363 43.3317 1.33754 43.3308 1.82396V18.1563C43.3317 18.6427 43.531 19.1089 43.885 19.4524C44.239 19.7959 44.7186 19.9886 45.2185 19.9881L62.0341 19.9881C62.5341 19.9887 63.0139 19.796 63.3679 19.4525C63.722 19.109 63.9214 18.6428 63.9222 18.1563V1.82396C63.9214 1.33748 63.722 0.871242 63.3679 0.52775C63.0139 0.184257 62.5341 -0.00837998 62.0341 -0.00781124V-0.00781124ZM50.3114 18.7955C50.3113 18.8795 50.2942 18.9627 50.2611 19.0403C50.228 19.1179 50.1794 19.1884 50.1183 19.2477C50.0572 19.3071 49.9846 19.3541 49.9048 19.3862C49.825 19.4183 49.7394 19.4347 49.6531 19.4346H45.482C45.2804 19.4349 45.0807 19.3964 44.8943 19.3216C44.708 19.2467 44.5386 19.1367 44.3959 18.9981C44.2532 18.8595 44.14 18.6949 44.0627 18.5137C43.9854 18.3325 43.9456 18.1383 43.9455 17.9421V7.49423C43.9465 7.32476 44.0162 7.16249 44.1395 7.04279C44.2628 6.92309 44.4297 6.85562 44.6038 6.85506L49.6531 6.85506C49.8273 6.85562 49.9942 6.92309 50.1175 7.04279C50.2408 7.16249 50.3105 7.32476 50.3114 7.49423V18.7955V18.7955ZM63.2198 17.9421C63.2197 18.1383 63.1798 18.3325 63.1025 18.5137C63.0252 18.695 62.9119 18.8596 62.7692 18.9982C62.6265 19.1368 62.4571 19.2467 62.2707 19.3216C62.0843 19.3964 61.8846 19.4349 61.6829 19.4346H57.5123C57.4259 19.4348 57.3403 19.4184 57.2604 19.3863C57.1806 19.3543 57.108 19.3072 57.0468 19.2478C56.9856 19.1885 56.9371 19.118 56.9039 19.0404C56.8708 18.9627 56.8536 18.8796 56.8535 18.7955V7.49423C56.8545 7.32469 56.9243 7.16242 57.0476 7.0427C57.171 6.92299 57.338 6.85553 57.5123 6.85506L62.5611 6.85506C62.7357 6.85506 62.9031 6.92229 63.0269 7.04205C63.1507 7.16181 63.2207 7.32439 63.2217 7.49423V17.9421H63.2198ZM40.5645 -0.00781124L23.7489 -0.00781124C23.249 -0.00828525 22.7693 0.184398 22.4154 0.527881C22.0614 0.871363 21.8621 1.33754 21.8612 1.82396L21.8612 18.1563C21.8621 18.6427 22.0614 19.1089 22.4154 19.4524C22.7693 19.7959 23.249 19.9886 23.7489 19.9881L40.5645 19.9881C41.0645 19.9887 41.5443 19.796 41.8983 19.4525C42.2524 19.109 42.4518 18.6428 42.4526 18.1563V1.82396C42.4518 1.33748 42.2524 0.871242 41.8983 0.52775C41.5443 0.184257 41.0645 -0.00837998 40.5645 -0.00781124V-0.00781124ZM35.3839 18.9633C35.3839 19.0769 35.3375 19.1859 35.2549 19.2663C35.1724 19.3466 35.0603 19.3918 34.9435 19.3918L29.4565 19.3918C29.3397 19.3918 29.2277 19.3466 29.1451 19.2663C29.0625 19.1859 29.0161 19.0769 29.0161 18.9633V13.6358C29.0161 13.5222 29.0625 13.4132 29.1451 13.3328C29.2277 13.2525 29.3397 13.2073 29.4565 13.2073H34.9446C35.0614 13.2073 35.1735 13.2525 35.256 13.3328C35.3386 13.4132 35.385 13.5222 35.385 13.6358V18.9633H35.3839ZM35.3839 6.47301C35.3838 6.52909 35.3723 6.58459 35.3501 6.63634C35.3279 6.68808 35.2954 6.73502 35.2545 6.77451C35.2136 6.81399 35.165 6.84521 35.1117 6.86639C35.0583 6.88757 35.0012 6.89828 34.9435 6.89791L29.4565 6.89791C29.3989 6.89828 29.3417 6.88757 29.2884 6.86639C29.235 6.84521 29.1865 6.81399 29.1456 6.77451C29.1046 6.73502 29.0721 6.68808 29.0499 6.63634C29.0277 6.58459 29.0162 6.52909 29.0161 6.47301V1.14194C29.0162 1.08587 29.0277 1.03036 29.0499 0.97862C29.0721 0.926876 29.1046 0.879932 29.1456 0.840447C29.1865 0.800962 29.235 0.769741 29.2884 0.748565C29.3417 0.727388 29.3989 0.716674 29.4565 0.717051L34.9446 0.717051C35.0023 0.716674 35.0594 0.727388 35.1128 0.748565C35.1661 0.769741 35.2147 0.800962 35.2556 0.840447C35.2965 0.879932 35.329 0.926876 35.3512 0.97862C35.3734 1.03036 35.3849 1.08587 35.385 1.14194V6.47301H35.3839Z" fill="white"/>
</svg>
