<svg width="112" height="265" viewBox="0 0 112 265" fill="none" xmlns="http://www.w3.org/2000/svg">
<path d="M44.6095 253.364C44.4707 253.85 44.4409 254.406 44.2128 254.852C42.1501 254.455 38.9568 255.09 37.3205 254.069C37.1718 254.545 36.9337 253.563 36.8445 253.384C36.9437 253.394 37.0726 253.355 37.1817 253.345C39.6014 252.869 42.16 253.265 44.6095 253.364Z" fill="black"/>
<path d="M67.8449 253.394C67.7457 253.87 67.8251 254.445 67.6168 254.872C65.2169 254.019 58.0668 255.407 57.9478 252.601C61.2402 252.581 64.5326 253.672 67.835 253.394H67.8449Z" fill="black"/>
<path d="M17.04 89.0399C13.5492 79.4303 23.4761 71.7447 37.3401 71.3381C41.8821 81.9691 48.3083 79.351 56.6881 73.6686C56.827 74.0752 56.8666 74.3132 57.0848 74.2041C58.0269 77.1792 60.1492 83.7938 60.288 83.4666C60.288 84.2401 57.0055 127.24 57.0154 127.31C65.5936 139.726 61.0318 139.864 70.6017 130.602C71.6231 114.636 69.0348 98.3123 63.749 83.1195C66.0002 81.0567 64.5424 77.7643 65.2862 75.2156C74.1024 76.8817 75.5503 86.3921 75.2032 73.5992C78.089 73.9661 80.4988 74.4719 82.5021 75.1264C81.4112 74.571 78.6939 73.4603 75.2627 72.7661C75.1238 71.6356 75.0147 69.2555 74.9354 68.0258C74.7172 67.8771 74.8164 66.6374 74.7966 66.4986C74.866 66.4788 74.9255 66.449 74.9949 66.4292C74.8858 66.4193 74.7767 66.3994 74.6676 66.3895C74.5387 66.3796 74.4197 66.3697 74.2908 66.3598C74.142 66.3598 73.9933 66.3796 73.8445 66.3994C73.3784 66.6969 72.8925 66.9647 72.4066 67.2325C71.8413 67.6886 71.2859 68.125 70.7207 68.4919C70.0761 69.1167 69.4513 69.7514 68.7769 70.3365C65.8514 72.8355 61.1409 73.5793 57.4121 72.5678C57.1939 72.5083 56.9856 72.4389 56.7774 72.3695C56.7476 72.2108 56.698 72.0719 56.6187 72.0422C53.1081 70.5745 50.1429 67.8374 48.4273 64.535C48.3381 64.2772 48.2587 64.0094 48.1695 63.7417C48.0703 63.4343 48.0306 63.5235 48.0306 63.7119C47.9413 63.5235 47.8719 63.3252 47.7926 63.1367C47.6538 62.6706 47.5149 62.1946 47.3761 61.7285C47.3265 61.5599 47.2868 61.4707 47.2472 61.4409C47.0191 60.5286 46.8703 59.5865 46.8406 58.6344C46.8406 58.5055 46.8207 58.3567 46.791 58.2179C46.8009 58.0097 46.8207 57.8014 46.8406 57.5832C46.672 57.1072 46.5034 56.6312 46.3547 56.1453C46.196 56.3833 46.0373 56.6114 45.8886 56.8494C45.8687 56.8295 45.8489 56.8196 45.8291 56.8494C45.7398 56.9981 45.6704 57.1568 45.5811 57.3055C45.4423 57.5237 45.2935 57.732 45.1547 57.9502C45.1249 57.9997 45.1249 58.0791 45.1349 58.1386C43.7762 60.717 39.2541 66.4986 38.7483 69.3547C38.3021 69.315 10.1676 71.7447 17.0499 89.0597L17.04 89.0399ZM66.3671 73.6487C69.3819 71.7843 71.7223 69.1762 74.1619 66.7068C74.1916 66.6969 74.2214 66.687 74.261 66.6771C74.6875 70.6042 74.747 74.5611 74.3701 78.5081C72.0892 76.3462 69.3621 74.6999 66.3671 73.6487ZM64.5226 76.9511C63.2234 75.3644 61.3888 74.2239 59.3657 73.7479C61.131 73.5892 62.9259 73.9066 64.5226 74.6801C64.473 75.4338 64.5027 76.1974 64.5226 76.9511ZM64.8399 88.1275C63.3524 88.6432 61.9342 89.3572 60.6153 90.2002C60.6748 89.1589 60.7442 88.1077 60.7938 87.0763C61.6169 86.1739 62.7772 85.6582 63.9176 85.2913C64.235 86.2433 64.5523 87.1755 64.8399 88.1375V88.1275ZM60.8632 85.7772C60.8929 85.0533 60.9525 84.3293 60.9822 83.6054C61.6962 83.9426 62.6681 83.8831 63.3325 83.3872C63.3722 83.7938 63.4912 83.9922 63.6003 84.3393C62.5689 84.5971 61.6367 85.0929 60.8632 85.7772ZM66.1192 92.5604C64.0069 92.7588 62.0136 93.5323 60.3376 94.762C60.4169 93.6315 60.4863 92.5108 60.5558 91.3803C61.8946 90.3291 63.7986 89.8333 65.1077 88.9606C65.4746 90.1605 65.7919 91.3506 66.1291 92.5604H66.1192ZM61.6367 132.903C63.6598 129.62 66.6448 126.953 70.1951 125.267C70.1852 126.12 70.1752 126.972 70.1455 127.835C70.0265 127.805 70.0562 128.331 70.086 128.757C67.8943 130.78 65.5341 133.438 63.3623 135.461C62.678 134.41 62.1524 133.607 61.6466 132.903H61.6367ZM58.2451 128.152C61.2698 124.374 65.4548 121.558 70.1653 120.1C70.205 121.498 70.2149 122.887 70.2149 124.275C70.1852 124.215 70.1653 124.176 70.1356 124.166C66.4167 125.941 63.154 128.757 61.1905 132.298C60.4169 131.276 59.6236 130.334 58.3641 128.886C58.3542 128.648 58.2649 128.4 58.2352 128.152H58.2451ZM58.6815 120.11C61.7855 117.234 65.6531 115.211 69.848 114.259C69.9769 115.846 70.0562 117.432 70.1157 119.029C65.4845 120.437 61.359 123.164 58.3046 126.824C58.4137 124.612 58.5426 122.371 58.6815 120.12V120.11ZM59.0484 114.318C62.2218 112.146 65.6828 110.352 69.3224 109.042C69.5009 110.431 69.6298 111.819 69.7587 113.208C65.6432 114.12 61.845 116.074 58.7509 118.85C58.8401 117.353 58.9294 115.836 59.0385 114.318H59.0484ZM59.4947 107.456C62.321 105.78 65.3457 104.471 68.529 103.558C68.7769 105.036 69.0051 106.514 69.1935 108.011C65.6234 109.29 62.2417 111.026 59.1178 113.128C59.2368 111.234 59.3657 109.35 59.4947 107.456ZM59.8417 102.2C62.0334 100.316 64.7209 99.0462 67.5473 98.4115C67.8448 99.78 68.1026 101.149 68.3604 102.527C65.2663 103.41 62.3309 104.679 59.574 106.276C59.6632 104.917 59.7525 103.558 59.8417 102.2ZM66.3969 93.5422C66.7341 94.8314 67.0316 96.1306 67.3291 97.4098C64.6019 97.985 62.0631 99.2246 59.9409 100.96C60.05 99.2941 60.169 97.628 60.2781 95.9719C62.0136 94.6033 64.1656 93.7604 66.4068 93.5422H66.3969ZM58.9095 77.9031C60.7243 78.4287 62.3904 79.3213 63.868 80.4716C63.5904 80.8782 63.2334 81.2352 62.7673 81.4732C60.0599 82.4848 60.169 81.027 58.9195 77.9031H58.9095ZM57.6997 74.4917C60.3376 74.6008 62.8367 75.8305 64.5127 77.7841C64.5027 78.4783 64.4631 79.1824 64.1953 79.827C62.6086 78.4882 60.7541 77.4866 58.731 76.9015C58.6715 76.8817 58.6914 77.2387 58.7112 77.3775C58.3542 76.3858 57.9972 75.3842 57.6997 74.5016V74.4917ZM40.6226 68.2638C40.702 67.768 44.3812 62.4128 44.5498 61.917C44.5498 61.8971 44.5497 61.8674 44.5597 61.8475C44.5597 61.8475 44.5597 61.8475 44.5696 61.8376C44.8671 60.955 45.2142 60.0922 45.6307 59.2592C45.6208 60.1418 45.8489 61.0641 46.1464 61.917C46.1265 62.155 46.5827 63.0673 46.6422 63.2359C47.029 64.1879 47.4852 65.1102 48.0108 66.0027C48.9826 67.1829 49.895 68.4126 50.8173 69.6324C51.0057 69.7811 53.8816 71.5959 54.4667 71.8439C54.7345 72.0025 55.0023 72.1612 55.2799 72.31C53.128 73.262 42.7944 78.0122 40.94 76.4453C39.3731 73.4107 36.9434 70.7331 40.6127 68.2737L40.6226 68.2638Z" fill="black"/>
<path d="M3.50338 264.491C7.93627 263.648 33.2643 262.736 36.4774 253.156C36.7451 250.955 42.8837 252.601 44.8175 252.343C45.4919 248.783 45.6605 245.143 45.3531 241.533C49.8455 233.729 47.3662 223.365 48.8637 214.668C49.8356 198.771 50.8372 182.855 51.8289 166.958C53.7528 167.216 55.6766 167.325 57.6204 167.255C56.3411 181.288 55.7064 195.36 55.7659 209.442C55.7857 213.885 55.875 218.318 56.0238 222.761C56.5692 228.294 55.7659 236.158 58.7212 240.641C57.9179 243.864 58.0964 250.042 58.0667 251.589C61.369 251.649 64.6614 252.65 67.9836 252.363C68.0035 252.164 68.0233 251.966 68.0431 251.778C73.1008 252.67 117.043 264.253 111.261 253.235C102.207 250.746 93.5992 248.188 85.2689 243.695C84.9218 242.932 84.7037 242.089 84.6342 241.266C85.4772 240.849 86.0623 241.186 86.2408 240.502C87.1532 216.88 85.5268 193.208 81.4608 169.903C80.36 163.526 79.0609 157.189 77.5833 150.892C77.6626 150.922 77.7122 150.753 77.7122 150.595C77.7915 150.505 77.8312 150.396 77.8907 150.317C77.6725 149.573 77.7915 148.691 77.7518 147.907C77.7518 147.917 77.7419 147.927 77.732 147.937C77.6725 146.36 77.9403 144.793 77.8312 143.226C78.0395 143.127 78.2378 143.018 78.446 142.899H78.456V142.978C78.5849 142.849 78.7237 142.75 78.8824 142.691C78.8824 142.661 78.8725 142.631 78.8725 142.611C83.2459 130.047 85.9433 117.393 89.1167 105.234C89.7118 101.387 90.4258 96.9933 90.4853 92.6794C90.158 94.7223 89.6919 96.9636 89.1266 99.4329C85.7747 112.077 81.2426 128.123 78.4857 140.578C76.4032 141.511 45.3233 151.13 27.9388 136.78C27.5818 123.868 25.2017 110.996 20.7689 98.7982C19.4697 96.4876 18.5375 94.2662 17.9326 92.1439C19.3805 97.9354 21.9192 104.233 23.8332 110.342C26.0546 118.959 27.2446 127.815 27.3934 136.701C27.1058 138.615 29.4859 139.617 30.7553 140.628C30.6561 141.511 31.261 146.529 31.3007 147.124C22.8713 177.47 16.0781 208.688 14.5311 240.105C14.5112 240.671 14.4815 241.246 14.4517 241.811C16.0087 242.456 17.5954 243.001 19.202 243.477C14.2435 250.399 8.15445 256.478 1.12331 261.476C0.409288 262.984 2.15467 264.204 3.50338 264.511V264.491ZM108.733 253.533C109.129 253.374 109.675 253.811 109.397 254.277C108.118 255.655 105.847 254.108 104.369 253.711C102.683 251.827 107.999 253.186 108.733 253.533ZM102.207 251.817H102.227C102.316 251.867 102.415 251.907 102.495 251.986C102.524 252.016 102.574 252.065 102.604 252.125C102.604 252.125 102.604 252.135 102.614 252.135C102.634 252.184 102.653 252.244 102.673 252.283C102.683 252.333 102.693 252.412 102.693 252.472C102.693 252.541 102.693 252.601 102.653 252.65C102.534 253.067 101.89 253.116 101.701 252.73C101.186 252.422 101.662 251.629 102.207 251.827V251.817ZM61.5277 149.087C61.2202 150.257 62.212 152.152 60.7641 152.707C57.4518 152.707 53.8023 152.469 50.5198 151.834C49.5678 152.181 48.7249 151.041 49.3298 150.287C49.8157 148.839 49.667 147.243 49.7959 145.735C50.1727 143.316 58.0567 145.606 60.3971 145.091C62.3111 145.487 61.4979 147.748 61.5376 149.087H61.5277ZM56.232 164.835C56.7279 161.126 56.7873 157.368 56.4006 153.629C63.164 153.441 71.3058 154.889 77.1767 151.15C78.6444 157.378 79.9336 163.645 81.0245 169.943C84.9714 192.662 86.4986 215.759 85.6458 238.786C82.9484 239.6 80.241 240.056 77.4543 240.304C76.0164 221.045 75.4015 199.763 73.5272 181.496C74.7569 201.102 75.9866 220.718 77.2064 240.333C72.7438 240.304 57.5311 242.257 58.5129 236.743C56.6783 227.739 56.0634 218.605 56.0634 209.432C56.0634 195.35 57.5113 181.169 58.2352 167.225C60.3475 166.739 68.1522 167.315 65.7424 163.873C63.3028 164.578 59.3658 164.786 56.2122 164.835H56.232ZM38.1137 167.711C32.8973 191.314 29.7735 218.209 27.5719 243.16C23.2085 242.723 18.9342 241.682 14.8683 240.095C17.5359 208.887 23.3572 177.946 32.1337 147.788C37.8856 152.786 46.9299 152.429 54.2486 153.51C54.3874 157.388 54.8833 157.259 54.4965 153.52C55.0519 153.56 55.6171 153.599 56.1824 153.629C56.5493 157.368 56.4304 161.117 55.8651 164.845C55.2006 164.845 54.5858 164.855 54.0304 164.855C54.4172 162.862 54.923 160.611 54.4271 158.637C54.1891 160.403 54.2684 162.921 53.5346 164.855C52.1958 164.855 51.3132 164.845 51.3033 164.885C48.7943 164.518 46.315 163.923 43.9448 163.021C43.8655 162.396 41.7433 162.108 41.7433 162.108C41.0491 165.807 48.5166 165.966 51.1843 166.839C49.1414 190.441 49.3595 214.47 46.1068 237.854C43.0623 244.042 33.8295 243.606 27.919 243.17C29.7834 217.862 33.9485 192.643 38.1236 167.701L38.1137 167.711ZM10.6238 255.893H10.6337C10.6238 255.794 10.6734 255.705 10.7329 255.645H10.7428C10.7726 255.477 10.9312 255.358 11.0998 255.318C14.0055 256.022 11.6155 258.194 10.6238 255.893ZM3.42406 261.03C4.50501 258.967 7.26193 257.549 9.4635 256.776C14.7889 257.41 4.18767 263.638 3.42406 261.03Z" fill="black"/>
<path d="M17.0403 89.0399C17.1692 89.3672 17.2882 89.6746 17.437 90.0118C17.2882 89.6845 17.1593 89.3573 17.0403 89.0399Z" fill="black"/>
<path d="M51.6106 150.019C51.6701 149.633 51.7296 149.246 51.7593 148.859C55.6567 149.514 55.7757 147.639 51.8387 147.828C51.8486 147.481 51.8784 147.124 51.8883 146.777C54.4171 147.015 56.9658 147.034 59.4946 147.144C59.445 148.334 59.3459 149.514 59.3657 150.694C56.7873 150.426 54.1791 150.347 51.6106 150.029V150.019Z" fill="black"/>
<path d="M17.8929 79.2122C17.8929 79.2122 18.2995 79.9461 18.1507 80.1841C16.1376 83.3575 16.5144 87.2152 17.6747 90.6068C18.8747 94.1373 20.63 97.4595 21.3638 101.129C21.3737 101.198 21.4729 101.635 21.3638 101.654C21.2547 101.674 21.1556 101.208 21.1556 101.168C20.3325 97.0826 18.1111 93.4134 17.0698 89.3871C16.1971 86.0351 15.969 82.2667 17.9028 79.2122H17.8929Z" fill="#1D1D1B"/>
<path d="M60.3078 139.339C60.4664 139.993 60.9226 140.767 61.7259 140.757C62.3011 140.747 62.6482 140.231 62.7077 139.726C62.7474 139.279 62.668 138.794 62.4895 138.387C62.43 138.258 62.3606 138.139 62.2614 138.03C62.2217 137.96 62.2019 137.881 62.1523 137.822C61.9242 137.514 61.5672 137.336 61.1805 137.415C60.8334 137.484 60.5259 137.732 60.3673 138.03C60.1491 138.436 60.2086 138.922 60.3078 139.339ZM60.5656 139.24C60.5656 139.24 60.5458 139.21 60.5359 139.2C60.5656 139.101 60.6152 138.992 60.6747 138.903C60.8234 138.675 61.0615 138.506 61.3391 138.436C61.5573 138.387 61.7755 138.427 61.9639 138.526C61.9639 138.536 61.9639 138.556 61.9639 138.565C61.9738 138.595 62.0234 138.764 62.073 138.784C62.1027 138.794 62.1226 138.823 62.1523 138.833C62.1722 138.942 62.2019 139.051 62.2218 139.151C62.2218 139.18 62.2515 139.22 62.2614 139.25C62.1027 139.537 61.8251 139.736 61.4681 139.736C61.2201 139.736 60.992 139.636 60.8036 139.498C60.7044 139.418 60.6152 139.339 60.5458 139.24H60.5656Z" fill="#1D1D1B"/>
<path d="M35.2874 121.469C35.3073 121.24 35.456 121.588 35.4759 121.617C35.5651 121.826 35.5949 122.093 35.5849 122.321C34.9899 129.977 37.5485 137.643 42.5368 143.613C42.6756 143.772 42.7153 144.02 42.745 144.218C42.745 144.258 42.7549 144.684 42.6855 144.595C37.2907 138.139 34.6527 129.71 35.2973 121.459L35.2874 121.469Z" fill="#1D1D1B"/>
<path d="M31.4593 126.645C31.5882 126.794 31.608 127.171 31.608 127.359C31.727 133.478 34.0476 139.418 38.0045 144.188C38.1334 144.347 38.183 144.595 38.2128 144.793C38.2128 144.833 38.2227 145.259 38.1533 145.17C33.8096 139.934 31.4395 133.349 31.3105 126.665C31.3105 126.437 31.37 126.536 31.4593 126.635V126.645Z" fill="#1D1D1B"/>
<path d="M73.0612 141.917C75.7487 139.488 77.3453 136.017 77.3651 132.456C77.3651 132.248 77.4345 132.298 77.5139 132.427C77.6329 132.605 77.6626 132.933 77.6626 133.141C77.6428 136.83 76.066 140.39 73.2694 142.929C73.2099 142.978 73.0612 142.483 73.0612 142.443C73.0314 142.314 72.9521 142.016 73.0612 141.917Z" fill="#1D1D1B"/>
<path d="M70.7207 142.711C72.4859 140.886 73.6462 138.565 74.0032 136.086C74.0329 135.868 74.1718 136.195 74.1916 136.235C74.2709 136.443 74.3305 136.711 74.3007 136.939C73.9338 139.458 72.7834 141.818 70.9884 143.673C70.8893 143.772 70.8 143.395 70.7802 143.345C70.7504 143.226 70.6215 142.82 70.7306 142.711H70.7207Z" fill="#1D1D1B"/>
<path d="M63.3226 144.079C64.5821 141.64 65.1176 138.813 64.6317 136.116C64.6218 136.046 64.5127 135.61 64.6317 135.59C64.7408 135.57 64.8399 136.036 64.8399 136.076C65.3854 139.131 65.0085 142.254 63.5705 145.051C63.511 145.17 63.3722 144.744 63.3623 144.724C63.3127 144.555 63.2234 144.258 63.3127 144.089L63.3226 144.079Z" fill="#1D1D1B"/>
<path d="M35.3568 34.6353C35.4064 37.4418 36.2493 40.2186 37.9154 42.5789C38.0641 43.4714 38.6294 44.1854 39.4822 44.5623C40.1665 44.8697 40.9599 44.8994 41.6442 44.5821C41.5351 45.1573 41.4161 45.7324 41.2971 46.3076C41.3169 46.2581 41.3566 46.2085 41.3764 46.1589C41.9218 45.0879 42.7648 44.0069 43.9647 43.5805C44.0342 43.5408 44.1036 43.5309 44.1829 43.5011C44.1829 43.4119 44.173 43.3325 44.1631 43.2433C44.5597 43.0251 44.9663 42.8367 45.4027 42.6979C45.4523 42.678 45.4622 42.5888 45.4721 42.5392C45.4919 42.4202 45.482 42.2913 45.4721 42.1723C45.4721 42.1227 45.4225 41.6367 45.3234 41.6665C44.887 41.8053 44.4804 41.9937 44.0738 42.2119C44.0441 41.8053 44.0143 41.3987 43.9945 40.9921C44.3118 40.7839 44.6787 40.645 45.0655 40.6153C45.1151 40.6153 45.125 40.4963 45.1349 40.4566C45.1548 40.3376 45.1449 40.2087 45.1349 40.0897C45.1349 39.9707 45.1151 39.8418 45.0754 39.7228C45.0754 39.7029 45.0358 39.574 44.9862 39.574C44.6093 39.5938 44.2523 39.7426 43.9449 39.9409C43.8953 38.2352 43.9052 36.5196 44.0044 34.8238C44.0044 34.7841 43.9746 34.3577 43.9151 34.2387C43.8854 34.199 43.8656 34.199 43.8457 34.2684L43.0127 36.2121C42.9333 36.7675 42.854 37.303 42.7648 37.8584C42.4871 39.7128 42.1797 41.5673 41.8425 43.402C41.1681 43.8383 40.3054 43.8681 39.5616 43.5904C39.3137 43.5011 39.0756 43.3524 38.8575 43.1838C38.8575 43.1342 38.8575 43.0945 38.8575 43.0449C38.8575 42.9854 38.8575 42.9359 38.8376 42.8764C38.8376 42.8367 38.8277 42.797 38.8079 42.7474C38.6691 42.4499 38.5302 42.1524 38.3715 41.8549C38.3715 41.8252 38.3517 41.8053 38.322 41.7954C38.3121 41.7954 38.3021 41.7954 38.2922 41.8053C38.2625 41.8351 38.2525 41.8847 38.2426 41.9243C38.2426 41.9442 38.2426 41.964 38.2228 41.9937C36.2196 39.336 35.208 36.0634 35.6344 32.88C35.8625 31.2636 36.3782 29.4289 37.4691 28.11C37.9649 27.5249 38.679 26.9894 39.5417 26.9894C39.8591 26.9894 40.4343 27.1183 40.8508 27.3662C40.8706 27.3959 40.8805 27.4059 40.8905 27.386C41.1582 27.5546 41.3566 27.7728 41.3566 28.0306C41.3566 28.0703 41.3466 28.5166 41.4656 28.5166C41.545 28.5166 41.5549 28.348 41.5648 28.2091C42.4375 30.1132 43.3201 32.0173 44.1928 33.9312C44.2027 33.961 44.2325 33.9907 44.2523 33.9907C44.2721 33.9907 44.292 33.9808 44.3019 33.9312C44.4507 33.4552 44.6192 32.9792 44.7878 32.5032C44.7878 32.5329 44.7878 32.5627 44.7978 32.5924C44.8176 32.6519 44.887 32.9693 44.9564 32.771L44.9862 32.6718C44.9862 32.8007 45.1449 33.5941 45.2044 33.1478C45.3333 32.2652 45.5217 31.4024 45.7696 30.5595C45.9184 30.1529 46.0671 29.7364 46.2258 29.3298L48.2092 25.482C48.6356 25.0258 49.1216 24.6192 49.6273 24.2622C50.4802 23.8258 51.333 23.3895 52.1859 22.9531C52.3049 22.8936 52.2851 22.5069 52.2256 22.2292C52.3743 22.1697 52.5132 22.1102 52.6619 22.0507C52.8107 22.0011 52.7611 21.5747 52.6917 21.2871C52.9693 21.2276 53.247 21.1681 53.5247 21.1086C53.6239 21.0887 53.6338 20.8111 53.604 20.5433C54.0503 20.5235 54.4966 20.5235 54.9428 20.5532C55.0618 20.5532 55.0718 19.5318 54.8734 19.5219C53.8123 19.4425 52.7611 19.5218 51.7396 19.74C52.1165 19.6409 52.4834 19.5417 52.8603 19.4425C52.9594 19.4128 52.9693 19.1252 52.9396 18.8574C53.2371 18.8177 53.5346 18.788 53.842 18.7682L55.1412 18.9268C55.1412 18.9268 55.2007 18.8376 55.2106 18.7087C55.994 18.7087 56.7874 18.7384 57.5708 18.8376C57.67 18.8475 57.7097 17.836 57.5014 17.8062C56.8469 17.717 56.1825 17.6872 55.5279 17.6773C55.4982 17.5484 55.4585 17.4393 55.399 17.4294C55.0321 17.3699 54.6652 17.3104 54.2883 17.2509C54.5462 17.0724 54.804 16.8839 55.0222 16.6459C55.0321 16.636 55.042 16.6063 55.0519 16.5765C56.0833 16.5864 57.1146 16.636 58.146 16.7649C58.2452 16.7748 58.2848 15.7633 58.0766 15.7336C57.5411 15.6641 57.0055 15.6344 56.4601 15.5947C56.4601 15.4063 56.4304 15.2377 56.351 15.1881C56.3114 15.1584 56.2618 15.1485 56.2122 15.1187C57.3725 15.2873 58.5328 15.5352 59.6633 15.8823C59.6831 15.8823 59.703 15.7534 59.7228 15.5749C59.941 15.6641 60.1492 15.7534 60.3674 15.8427C60.4567 15.8823 60.4071 14.9799 60.3575 14.8807C60.1294 14.4444 59.8517 14.0378 59.5542 13.6609C60.4468 14.0576 61.2996 14.5534 62.0533 15.1881C62.0632 15.198 62.093 15.0791 62.1227 14.9204C62.8764 15.3468 63.6202 15.803 64.3441 16.279C64.4135 16.3187 64.5226 15.4261 64.3342 15.2774C64.2747 15.2377 64.2152 15.1881 64.1656 15.1485L64.1954 15.1683C64.2747 15.2179 64.364 14.3154 64.1855 14.1667C63.1541 13.3138 62.1227 12.461 61.0914 11.618C61.1211 11.618 61.1409 11.5982 61.1707 11.5982C61.2302 11.618 61.2897 11.6478 61.3492 11.6676C63.0946 12.6196 64.8301 13.5717 66.5755 14.5237C66.6746 14.5733 66.6944 13.9584 66.625 13.6708C67.23 14.1964 67.825 14.732 68.4299 15.2576C68.4696 15.2873 68.5886 14.4444 68.42 14.2559C67.3688 13.1353 66.2185 12.1238 64.9788 11.2213C64.8995 11.1519 64.8102 11.0726 64.7309 11.0032C64.7607 11.0032 64.8003 11.0032 64.8301 10.9932C64.8896 10.9932 64.9094 10.8643 64.9193 10.7057C65.2466 10.8148 65.5738 10.9437 65.9011 11.0627C66.9226 11.7866 67.8746 12.6097 68.7076 13.532C69.382 14.4444 70.0563 15.3468 70.7307 16.2493C70.8001 16.3385 70.8397 15.922 70.8397 15.8823C70.8397 15.6741 70.8298 15.4361 70.7207 15.2476C70.1456 14.2658 69.4613 13.3634 68.6977 12.5205C68.3506 12.0544 68.0134 11.5982 67.6663 11.1321C67.6663 10.9635 67.6267 10.8147 67.5374 10.7652C67.468 10.7255 67.3886 10.6957 67.3192 10.666L66.1193 9.04951C68.3407 10.7354 70.0662 12.9766 71.0579 15.5451C71.1273 15.7137 71.167 15.5055 71.1868 15.4559C71.2563 15.2972 71.1868 14.9898 71.1571 14.8311C71.0877 14.4741 71.0083 14.127 70.9092 13.7799C71.1769 14.1468 71.4447 14.5039 71.7124 14.8708C71.7819 14.96 71.8215 14.5931 71.8215 14.5634C71.8315 14.3551 71.8116 14.1171 71.7323 13.9188C71.4447 13.1452 71.0877 12.4015 70.7108 11.6577C71.1274 12.1436 71.5538 12.6296 71.9703 13.1155C71.9901 13.1452 72.01 13.1155 72.0298 13.0857C72.4166 13.7998 72.7934 14.5237 73.1802 15.2377C73.2893 15.4361 73.3091 14.5634 73.2595 14.4146C72.7636 12.9469 72.2678 11.4792 71.7719 10.0115C72.6942 11.7866 73.6264 13.5618 74.5487 15.3369C74.6181 15.4658 74.6479 15.1385 74.6479 14.8609C74.6876 14.6526 74.7272 14.4344 74.757 14.2163C74.7669 14.2956 74.7966 14.3749 74.8065 14.4543C74.8065 14.4642 74.876 14.7716 74.9454 14.6824C75.0545 14.5435 75.1536 14.4047 75.2429 14.2659C75.2131 14.5039 75.1735 14.7419 75.1437 14.9799C75.114 15.1782 75.114 15.4162 75.1735 15.6046C75.1735 15.5947 75.2627 15.9517 75.3123 15.8327C75.5007 15.3964 75.6892 14.97 75.8776 14.5336C75.8776 14.6427 75.8578 14.7617 75.8578 14.8708C75.8578 14.9204 75.9569 15.6046 76.0363 15.4956C76.8296 14.4047 77.3453 13.1948 77.5932 11.9155C78.0098 11.5486 78.4858 11.2511 79.0014 11.0329C79.0014 11.0527 78.9915 11.0726 78.9816 11.0924C78.1188 11.618 77.4941 12.4213 77.2957 13.4328C76.9189 14.008 76.6114 14.6129 76.3734 15.2675C76.3734 15.2873 76.3536 15.3071 76.3536 15.3171C76.304 15.446 76.4131 16.3484 76.5024 16.2592C76.7305 16.0311 76.9189 15.7732 77.1271 15.5253C77.1569 15.5253 77.1767 15.5055 77.1866 15.4559C77.2263 15.4063 77.266 15.3567 77.3056 15.3071C77.2461 15.684 77.2164 16.0608 77.2362 16.4476C77.2362 16.4476 77.2957 17.0029 77.385 16.9534C77.9403 16.6558 78.4461 16.2988 78.9122 15.9022C78.9122 16.041 78.9122 16.1798 78.9221 16.2988C78.9221 16.2988 78.9221 16.2988 78.9221 16.3088C78.9221 16.5765 78.9717 17.241 79.0808 17.1517C79.1304 17.112 79.17 17.0525 79.2196 17.0129C79.2494 17.1418 79.3089 17.3798 79.3684 17.2905C79.4973 17.112 79.6461 16.9534 79.7948 16.7947C79.7353 17.0724 79.7948 17.707 79.9237 17.6971C80.122 17.6872 80.3005 17.6376 80.4791 17.588C80.4592 17.6079 80.4394 17.6277 80.4196 17.6575C80.3204 17.8062 80.3105 18.5996 80.5187 18.669C80.7369 18.7483 80.965 18.7781 81.1931 18.7979C81.2228 18.9169 81.2625 19.0458 81.322 18.9863C81.322 18.9863 81.3319 18.9863 81.3419 18.9665C81.3617 19.0954 81.3914 19.2045 81.4311 19.2343C81.6394 19.383 81.8575 19.4921 82.0856 19.5814C82.0559 19.8888 82.1253 20.3846 82.2443 20.3846C82.5418 20.3648 82.8294 20.3846 83.117 20.4144C83.117 20.5036 83.117 20.6028 83.117 20.7119C83.0476 20.6722 82.9682 20.6226 82.8988 20.583C82.7699 20.5136 82.8096 21.4061 82.879 21.535C82.879 21.5548 82.8988 21.5648 82.9087 21.5747C83.2856 22.1994 83.8806 22.6358 84.5649 22.8341C84.6244 22.8837 84.6839 22.9333 84.7434 22.973C84.8029 23.0821 84.8624 23.1812 84.9318 23.2903C84.9814 23.4589 85.0211 23.6275 85.0607 23.7961C84.9318 23.6572 84.8128 23.5184 84.6839 23.3895C84.6045 23.3002 84.5748 23.7167 84.5748 23.7564C84.5748 23.9547 84.5748 24.2126 84.6938 24.3911C84.7533 24.4803 84.8128 24.5696 84.8624 24.6589C84.8525 24.7382 84.8426 24.8175 84.8426 24.8374C84.8426 24.8473 84.8426 24.8671 84.8426 24.877C84.6244 24.639 84.3963 24.401 84.1781 24.163C84.0988 24.0738 84.069 24.4903 84.069 24.5299C84.069 24.7184 84.069 24.996 84.188 25.1646C84.4558 25.5117 84.7235 25.8687 84.9814 26.2158C84.9417 26.3051 84.9219 26.5233 84.9219 26.553C84.9219 26.7513 84.9219 27.0092 85.0409 27.1877C85.1599 27.3761 85.269 27.5745 85.3682 27.7629C85.3483 28.0406 85.3285 28.3182 85.2987 28.5959C85.1996 28.1794 85.0805 27.7629 84.9219 27.3662C84.8425 27.1579 84.793 27.505 84.7831 27.5645C84.7533 27.7926 84.783 28.0604 84.8723 28.2686C85.0211 28.6455 85.1202 29.0223 85.1995 29.3992C84.9219 31.2338 84.4161 33.0685 83.9004 34.8139C82.7302 38.7906 81.5798 42.8069 82.0658 46.9423C81.8079 47.5968 81.5402 48.2415 81.2724 48.8861C81.3518 50.5719 81.084 52.2777 80.608 53.8941C80.0923 55.6395 79.3188 57.375 78.0692 58.7535C77.8411 59.0014 77.6031 58.0196 77.6131 57.9105C77.6726 57.2163 77.7023 56.5221 77.7221 55.8279C77.6924 55.58 77.6825 55.3321 77.6825 55.0842C77.5238 54.4297 77.4048 53.7652 77.2858 53.1008C77.266 52.952 77.2759 52.8429 77.385 52.8429C77.2065 52.2182 76.9784 51.6132 76.6313 51.0975C76.2941 50.5918 75.7288 50.1554 75.0743 50.1455C74.6776 50.9686 74.033 51.6529 73.1702 52.0397C72.6149 52.2876 72.01 52.3867 71.3951 52.3967C71.3555 52.4264 71.3059 52.4463 71.2662 52.476C68.2911 51.8116 66.9027 48.5786 64.1557 47.4481C62.9458 46.9522 61.6666 47.0316 60.417 47.3291C60.3476 47.2795 60.2682 47.2398 60.1889 47.1902C59.6534 47.2993 59.108 47.3688 58.5625 47.4283C57.9576 47.577 57.3427 47.7059 56.7279 47.7753C55.161 48.7869 53.6338 49.8778 52.3347 51.1769C51.6405 52.0397 50.986 52.9223 50.3215 53.7255C50.262 53.795 50.1827 53.7255 50.0934 53.6065C49.6769 54.1421 49.2505 54.6677 48.7844 55.1536C48.6852 55.2627 48.5563 55.0643 48.5067 54.9949C48.4571 54.9057 48.4274 54.8164 48.3778 54.7272C48.2984 54.8561 48.2191 54.985 48.1398 55.104C48.1299 55.104 48.1199 55.104 48.11 55.0842C47.991 55.2428 47.8423 55.3916 47.7233 55.5403C47.5844 55.7189 47.1084 54.8561 47.2869 54.6379C47.3167 54.6081 47.3365 54.5784 47.3663 54.5387C46.92 54.1421 46.5531 53.6462 46.2556 53.1107C46.1266 53.2099 45.9878 53.3289 45.8589 53.438C45.006 54.2412 44.4804 55.342 44.1432 56.4031C43.8259 57.3948 43.6077 58.5055 43.6077 59.6162C43.8358 59.9534 44.054 60.2906 44.2821 60.6278C45.2043 62.0459 46.1564 63.4442 47.2076 64.7731C47.2472 64.1086 47.396 63.4541 47.6241 62.8194C47.6935 62.6211 47.8621 62.8492 47.9117 62.9384C48.0009 63.107 48.11 63.4045 48.0406 63.6029C47.8423 64.1483 47.6935 64.7433 47.6539 65.3284C48.477 66.3102 49.3397 67.2622 50.2918 68.125C49.9546 67.0639 49.786 65.9433 49.905 64.8127C49.9248 64.6243 50.0339 64.5946 50.1529 64.7532C50.2918 64.9218 50.381 65.2094 50.3513 65.4177C50.2323 66.5284 50.4405 67.5796 50.8372 68.601C51.1843 68.8985 51.5611 69.196 51.938 69.4737C52.7214 70.0489 53.5743 70.5547 54.4271 70.991C53.7032 69.5134 53.2371 67.9366 53.4156 66.3399C53.4355 66.1614 53.5445 66.1515 53.6635 66.2904C53.8024 66.449 53.8916 66.7565 53.8619 66.9548C53.6834 68.4622 54.2586 69.92 54.9924 71.2687C57.1642 72.2802 59.5443 72.8951 61.9641 73.0934C61.9244 72.9347 61.8946 72.7265 61.9839 72.6571C62.6186 72.191 63.2136 71.6654 63.6599 71.0406C64.0466 70.4852 64.3441 69.8109 64.1954 69.1365C64.1755 69.0473 64.126 68.72 64.3144 68.7597C64.483 68.7795 64.5821 69.196 64.6119 69.3051C64.9292 70.8522 64.0565 72.1513 62.8665 73.143C63.2235 73.1529 63.5805 73.1628 63.9475 73.1628C64.1557 73.1628 64.3739 73.143 64.5821 73.1232C64.5821 73.0438 64.6218 72.9942 64.6714 72.9645C67.1606 71.824 68.777 69.5332 68.9258 66.9846C68.9258 66.7961 69.0547 66.7961 69.1737 66.925C69.3225 67.1035 69.3919 67.3911 69.372 67.5895C69.2927 68.9283 68.8365 70.2076 68.0828 71.2885H68.0729C67.7457 71.7645 67.3589 72.2108 66.9226 72.5976C67.7556 72.3 68.5291 71.8835 69.2629 71.4174C69.6795 70.9811 70.1158 70.5547 70.5621 70.1183C71.5042 69.196 72.5058 68.2936 73.4876 67.3713C73.4876 67.3515 73.4876 67.3416 73.5074 67.3316C73.6463 67.2226 73.7752 67.0837 73.9041 66.9746C73.9041 66.9746 73.914 66.9746 73.914 66.9548C75.6991 65.2887 77.256 63.4739 78.5353 61.4509C79.408 60.0724 80.1419 58.6245 80.7667 57.1271C80.8361 56.8196 80.8956 56.5221 80.965 56.2147C81.0047 56.0263 81.0344 55.8478 81.0741 55.6792C81.0741 55.6494 81.0741 55.6296 81.0939 55.5998C81.1733 55.2329 81.2427 54.8561 81.322 54.4792C81.322 54.4991 81.3022 54.509 81.3022 54.5288C81.6195 52.8429 81.917 51.1471 82.1848 49.4513C82.155 49.5802 82.1253 49.7092 82.0955 49.8381C82.0559 49.6397 81.9864 49.3819 81.9468 49.4315C81.9468 49.3819 81.9468 49.3323 81.9468 49.2827C81.9567 49.2331 81.9765 49.1736 81.9865 49.1241C82.0261 48.9555 82.0261 48.7571 81.9964 48.5786C82.0658 48.3704 82.1253 48.1621 82.1848 47.9539C82.2542 48.1919 82.3038 47.8349 82.3137 47.5473C82.3137 47.5473 82.3137 47.5473 82.3137 47.5373C82.3335 47.7754 82.3335 48.0233 82.3435 48.2613C82.393 47.9043 82.4525 47.5373 82.5021 47.1803C82.5021 47.1506 82.5021 47.1208 82.5021 47.0911C82.512 47.0613 82.522 47.0415 82.5319 47.0117C82.5815 46.6547 82.631 46.3076 82.6806 45.9506C82.6806 45.9407 82.6806 45.9209 82.6806 45.911C82.6608 45.8515 82.5914 45.5341 82.522 45.7324C82.4625 45.8911 82.3931 46.0399 82.3336 46.1985C82.3137 46.1787 82.2939 46.1985 82.2741 46.258C82.2542 46.3374 82.2245 46.4167 82.2046 46.4961C81.679 41.8053 83.8013 37.184 84.8723 32.6916C85.0409 31.9875 85.1797 31.2735 85.2987 30.5495C85.3086 31.3727 85.1698 32.1958 84.8822 33.009C84.8227 33.1875 85.0012 33.9907 85.031 33.9511C85.3186 33.485 85.5665 32.999 85.7846 32.5032C85.8144 32.6024 85.864 32.6916 85.9136 32.5627C85.9532 32.4437 85.983 32.3247 86.0227 32.2156C86.0227 32.3743 86.0425 32.5329 86.0822 32.6718C86.1417 32.8404 86.2012 32.8404 86.2409 32.6718C86.3499 32.0668 86.3995 31.4421 86.3797 30.8272C86.3797 30.7776 86.3995 30.738 86.4094 30.6884C86.4293 30.5991 86.459 30.5099 86.4788 30.4107C86.4788 30.4107 86.4888 30.3909 86.4987 30.381C86.4987 30.4801 86.4987 30.5694 86.4987 30.6685C86.4888 30.8272 86.4689 31.2338 86.5879 31.3727C86.7168 31.5115 86.7169 31.2834 86.7268 31.1743C86.7466 30.8074 86.7466 30.4405 86.7367 30.0735C86.935 29.8157 87.1135 29.5479 87.2821 29.2702C87.3416 29.3496 87.4011 29.4289 87.4606 29.4983C87.5003 29.5479 87.54 29.4587 87.54 29.4388C87.6094 29.1116 87.659 28.7843 87.6986 28.4471C87.9069 27.991 88.0755 27.5149 88.1945 27.029C88.4622 27.4753 88.7399 27.9116 89.0473 28.3281C89.1068 28.4075 89.1465 28.1992 89.1465 28.1893C89.4143 25.353 89.0672 22.487 88.0953 19.8194C88.1647 19.6607 88.0953 19.2938 88.0656 19.1649C87.8573 18.2624 87.6292 17.3104 87.3416 16.3881C88.0953 17.0823 88.6408 17.9748 88.8391 18.9665C88.8589 19.0756 88.8986 19.3037 88.9978 19.145C89.1069 18.9764 89.0275 18.6194 88.9978 18.4409C88.7399 17.0823 87.9664 15.8526 86.8557 15.0195C86.2111 13.4824 85.2789 12.104 83.7616 11.2015C83.3054 10.9338 82.8195 10.7255 82.3236 10.6065C82.3236 10.3883 82.3137 10.1701 82.2145 10.1106C81.9468 9.93213 81.6691 9.78338 81.3716 9.66438C81.56 9.68421 81.7484 9.72388 81.9369 9.77346C82.6211 10.0313 83.2856 10.3486 83.9004 10.7453C83.9103 10.7453 83.9302 10.7255 83.9401 10.6759C84.674 11.2114 85.269 11.9354 85.6161 12.7783C85.6954 12.9766 85.745 12.6395 85.7549 12.58C85.7747 12.3519 85.7549 12.094 85.6656 11.8759C85.1004 10.4676 83.8607 9.37678 82.403 8.88093C82.3831 8.79167 82.3633 8.70243 82.3236 8.64293C82.284 8.59334 82.2344 8.54375 82.1947 8.49416C82.1947 8.33549 82.1749 8.16691 82.1055 8.0479C80.5882 5.46949 77.2858 4.25961 74.3603 4.83479C71.7323 2.14729 67.9936 0.491156 64.0962 0.590326C64.0962 0.590326 64.0962 0.590326 64.0863 0.590326C61.1112 -0.143531 57.9378 0.0448947 55.0717 1.13576C53.5544 1.23493 52.0867 1.60186 50.7083 2.17705C50.0438 2.23655 49.3893 2.33571 48.7348 2.49439C45.2341 3.33733 42.1797 5.4794 40.3649 8.49416C38.6988 11.2511 38.1534 14.4741 38.5897 17.6079C38.6096 18.3616 38.6988 19.1252 38.8575 19.8689C38.8674 19.9284 38.8773 19.9582 38.8872 19.9879C38.8476 20.3747 38.8079 20.7516 38.7881 21.1482C38.7881 21.178 38.7881 21.2177 38.7881 21.2573C38.6492 22.8341 38.7186 24.4209 38.9963 25.9977C38.8575 26.0274 38.7186 26.0671 38.5897 26.1266C37.1319 26.8108 36.4377 28.5364 36.0014 29.8851C35.5055 31.3826 35.2874 32.9495 35.3171 34.5163L35.3568 34.6353ZM65.9705 62.9582C66.1292 63.1665 66.2978 63.3648 66.4961 63.5533C66.5259 63.6921 66.5754 63.8309 66.5953 63.9797C66.7936 65.0606 66.8135 66.1614 66.5854 67.2523C66.5358 67.4606 66.3374 67.2126 66.2978 67.1333C66.1986 66.9449 66.1193 66.687 66.1689 66.4788C66.387 65.4871 66.3374 64.4557 66.1094 63.464C66.0796 63.2954 66.0102 63.1268 65.9705 62.9682V62.9582ZM64.8995 61.7484C64.8995 61.7484 64.9689 61.7385 65.0086 61.7286C65.0383 61.8277 65.0582 61.9368 65.0978 62.036C65.0978 62.0756 65.1276 62.1351 65.1474 62.1748C65.2466 62.4327 65.3656 62.6806 65.5143 62.9285C65.6532 64.3367 65.3358 65.7648 65.0284 67.1432C64.9788 67.3515 64.7805 67.1036 64.7408 67.0242C64.6416 66.8358 64.5623 66.578 64.6119 66.3598C64.9391 64.8921 65.3953 63.2458 64.9094 61.7484H64.8995ZM62.45 65.8639C63.3326 64.5946 63.9673 63.0475 63.7789 61.5104C63.8185 61.4112 63.8681 61.3021 63.9078 61.203C63.9276 61.4509 63.9574 61.6988 63.9772 61.9368C63.9772 62.036 64.126 62.7103 64.1855 62.2938C64.1954 62.2145 64.2053 62.1351 64.2251 62.0558C64.3441 63.7318 63.7888 65.3483 62.8169 66.7664C62.7078 66.9151 62.5194 66.5383 62.4996 66.4788C62.4401 66.3201 62.3409 66.0325 62.45 65.8738V65.8639ZM60.3674 66.0028C60.4765 65.1003 60.6649 64.1384 61.0616 63.2756C61.1608 63.0574 61.2798 62.8492 61.4087 62.6508C61.6071 62.6112 61.7955 62.5715 61.9839 62.5021C62.3111 62.4426 62.6285 62.3632 62.9558 62.2641C61.5178 63.2558 60.9823 65.0408 60.8335 66.6077C60.8137 66.7961 60.6947 66.816 60.5757 66.6672C60.4368 66.4986 60.3575 66.211 60.3773 66.0028H60.3674ZM63.8483 52.8132C63.4913 53.2495 63.0252 53.5768 62.3707 53.6958C62.1822 53.7355 61.9839 53.7454 61.7955 53.7454C61.8351 53.6958 61.855 53.6065 61.855 53.4974C61.974 53.557 62.1029 53.6065 62.2219 53.6561C62.6483 53.2594 63.1243 52.9223 63.6499 52.6644C63.6995 52.6347 63.7789 52.714 63.8384 52.8231L63.8483 52.8132ZM66.4069 52.0297C66.3275 52.8033 65.9904 53.4677 65.4648 53.9735C65.0086 53.9338 64.5623 53.8346 64.126 53.6561C65.1772 53.2099 65.8118 52.3669 65.9309 51.2463C65.9507 51.0182 66.1788 51.2661 66.2284 51.3455C66.3573 51.5438 66.4366 51.8016 66.4069 52.0297ZM67.2994 53.7355C67.706 53.5966 68.0828 53.4181 68.4498 53.1999C67.587 53.795 66.5259 54.0627 65.4747 53.9735C66.4664 53.5173 67.2597 52.7537 67.22 51.6033C67.22 51.5537 67.2201 51.4446 67.2895 51.4149C67.3589 51.395 67.4283 51.4843 67.4581 51.5141C67.6068 51.7025 67.706 51.9702 67.706 52.2082C67.7258 52.7735 67.5672 53.2793 67.2895 53.7355H67.2994ZM76.1354 57.3353C76.0164 57.5237 75.8677 57.6824 75.709 57.8411C75.7189 57.8907 75.7387 57.9403 75.7487 57.9799C75.7487 58.0394 75.7487 58.1088 75.7487 58.1683C75.7487 58.1683 75.7487 58.1882 75.7487 58.1981C75.7685 58.7237 75.6892 59.2493 75.5007 59.7253C75.5007 59.7253 75.5007 59.7352 75.5007 59.7452C75.4313 59.9534 75.3222 60.1517 75.1933 60.3303C75.0247 60.6178 74.8264 60.8955 74.5884 61.1434C74.0231 61.7385 73.2893 62.2145 72.4761 62.4128C72.4761 62.4525 72.4761 62.4822 72.4761 62.512C71.5042 62.4723 70.5224 62.393 69.6299 62.0062C69.0051 61.7385 68.2613 61.2129 67.9341 60.5484C69.0349 60.3104 70.0662 59.7947 70.8893 59.041C71.0778 58.8625 70.81 58.0097 70.7604 58.0493C69.3026 59.3981 67.1506 59.9832 65.1871 59.5071C64.6813 59.3881 64.2053 59.1997 63.769 58.9518C63.7392 58.8427 63.6698 58.7039 63.6301 58.8625C62.4599 58.1783 61.5277 57.1172 61.0715 55.8577C60.9922 55.6494 60.9426 55.9965 60.9327 56.056C60.9129 56.2841 60.9327 56.542 61.0219 56.7601C61.4384 57.8907 62.2318 58.8625 63.2235 59.5766C62.6186 60.1914 61.5376 60.3302 60.6748 60.2608C59.5344 60.1716 58.4435 59.7551 57.5312 59.0906C56.599 58.4064 55.8651 57.4742 55.4982 56.3932C55.3891 56.056 55.3296 55.7188 55.3098 55.3817C55.3197 55.3222 55.3296 55.2527 55.3395 55.1932C55.3395 55.104 55.3296 55.0148 55.3197 54.9255C55.3891 54.7073 55.4883 54.4991 55.5973 54.3007C55.5973 54.2908 55.5973 54.271 55.5973 54.2611C55.8254 54.3801 56.0634 54.4792 56.3114 54.5685C57.6502 55.0346 59.1377 54.9949 60.4468 54.4891C61.1608 54.7272 61.8946 54.8462 62.6483 54.6577C62.9657 54.5784 63.2334 54.4495 63.4714 54.2908C65.554 55.58 68.2415 55.0742 69.6597 53.1503C69.6894 53.2099 69.6993 53.2495 69.7092 53.2793C69.739 53.3685 69.7489 53.4479 69.7687 53.5173C69.7687 53.5173 69.7886 53.547 69.7985 53.547C69.7985 53.547 69.8084 53.5569 69.8183 53.5669C70.3935 55.1932 71.9108 56.4329 73.8049 56.3238C73.9636 56.3238 73.8942 55.2825 73.7355 55.2924C72.8926 55.342 72.01 55.0544 71.286 54.5685C71.6034 54.7371 71.9306 54.8858 72.2678 55.0147C72.3769 55.0544 72.4959 55.0941 72.6149 55.1139C72.6446 55.1139 72.724 55.1338 72.6843 55.1238C72.6843 55.1238 72.6843 55.1238 72.6942 55.1238C72.6942 55.0742 72.6744 55.0247 72.6744 54.9652C72.6744 54.9255 72.6546 54.866 72.6744 54.9354C72.6744 54.9057 72.6645 54.8759 72.6546 54.8462C72.6347 54.7767 72.6248 54.7073 72.605 54.6379C72.605 54.6081 72.5851 54.5784 72.5851 54.5586C72.5653 54.4991 72.5455 54.4396 72.5157 54.3801C72.5157 54.3701 72.5157 54.3801 72.5157 54.3701C72.5058 54.3503 72.4959 54.3206 72.486 54.3007C72.4661 54.271 72.4562 54.2412 72.4364 54.2015C72.4166 54.1619 72.4166 54.1619 72.4364 54.2015C72.3967 54.142 72.367 54.0826 72.3273 54.023C72.3273 54.023 72.3273 54.0131 72.3174 54.0032C72.2976 53.9735 72.2777 53.9437 72.248 53.9239C72.1686 53.8247 72.0893 53.7454 72 53.666C71.8215 53.5173 71.7224 53.2396 71.6926 53.0214C71.6827 52.9223 71.6926 52.6148 71.8612 52.7636C72.5554 53.3685 72.9124 54.2016 73.1008 55.0742C73.6562 55.0346 74.0529 55.3321 74.3405 55.7684C74.3702 55.6891 74.3999 55.6197 74.4099 55.5304C74.4198 55.4709 74.4198 55.4213 74.4297 55.3718C74.4297 55.3321 74.4297 55.2924 74.4297 55.2528C74.4297 55.1833 74.4297 55.2528 74.4297 55.2131C74.4297 55.1734 74.4297 55.1437 74.4198 55.1139C74.4198 55.1139 74.4198 55.0742 74.4099 55.0544C74.4099 55.0346 74.39 54.985 74.39 54.9949C74.39 54.9949 74.3702 54.9354 74.3702 54.9255C74.3702 54.9057 74.3504 54.8858 74.3504 54.8858C74.3504 54.8858 74.3305 54.8362 74.3206 54.8164C74.3107 54.7966 74.3008 54.7668 74.3008 54.7668C74.281 54.7371 74.271 54.6974 74.2512 54.6676C74.2512 54.6676 74.2512 54.6677 74.2413 54.6478C74.2215 54.6181 74.2016 54.5883 74.1818 54.5586C74.162 54.5288 74.1421 54.4991 74.1223 54.4693C74.152 54.5189 74.1124 54.4495 74.1024 54.4396C74.0231 54.3404 73.924 54.2115 73.8446 54.142C73.676 53.9735 73.5768 53.7255 73.5372 53.4974C73.5272 53.4082 73.5372 53.071 73.7058 53.2396C74.5388 54.0627 75.2627 55.6296 74.757 56.7502C74.8165 56.9486 74.8561 57.1271 74.8958 57.3056C75.1239 57.1469 75.3421 56.9684 75.5206 56.7601C75.7784 56.4626 75.9768 56.1056 76.0263 55.7189C76.0263 55.6395 76.0363 55.5602 76.0263 55.4908C76.0263 55.4709 76.0065 55.3718 76.0164 55.3916C76.0164 55.4114 76.0164 55.3718 76.0065 55.3519C75.9569 55.2131 75.8082 55.0048 75.6792 54.8561C75.5206 54.6776 75.4313 54.3999 75.4313 54.1619C75.4313 53.9635 75.5404 53.9338 75.6693 54.0825C76.4528 54.9751 76.8395 56.294 76.1751 57.3552L76.1354 57.3353ZM88.9878 24.9266C89.0473 25.72 89.0573 26.5232 88.9878 27.3265C88.9085 27.2075 88.8292 27.0984 88.7498 26.9794C88.8887 26.3051 88.968 25.6208 88.9779 24.9266H88.9878ZM88.492 25.0357C88.492 25.0357 88.5515 25.115 88.5912 25.1448C88.6903 25.244 88.7002 24.6588 88.7002 24.639C88.5812 23.3895 88.373 22.1499 88.0953 20.9201C88.7697 22.6854 88.9581 24.6093 88.5019 26.4836C88.5019 26.5133 88.5019 26.553 88.492 26.5828C88.4523 26.5232 88.4127 26.4538 88.373 26.3943C88.4424 25.9481 88.4821 25.482 88.492 25.0258V25.0357ZM86.9251 26.9199C86.9846 26.9794 87.0441 27.0488 87.0937 27.1084C87.1135 27.1282 87.1433 26.91 87.1532 26.672L87.6094 27.3563C87.6094 27.4455 87.6094 27.5249 87.5995 27.6042C87.5499 27.7331 87.5003 27.8521 87.4309 27.981C87.411 27.862 87.3912 27.743 87.3317 27.6439C87.1929 27.4257 87.0639 27.2174 86.9251 26.9993C86.9251 26.9695 86.9251 26.9398 86.9251 26.9199ZM85.626 28.3777C85.9036 29.0322 86.0822 29.7066 86.1417 30.4107C85.983 30.9462 85.7946 31.4817 85.5367 31.9974C85.626 31.2041 85.6062 30.4107 85.4971 29.6173C85.5467 29.2108 85.5962 28.7942 85.626 28.3777ZM85.6656 27.1877L86.0921 27.743C86.2309 28.1298 86.34 28.5265 86.4193 28.9232C86.3995 29.1413 86.3797 29.3595 86.34 29.5777C86.3301 29.5876 86.3202 29.6074 86.3102 29.6173C86.1912 28.8736 85.9731 28.1397 85.6656 27.4455C85.6656 27.3563 85.6656 27.267 85.6656 27.1877ZM86.3599 21.7333C86.6276 22.2193 86.8953 22.6953 87.173 23.1812C87.2424 23.3201 87.3218 23.449 87.4011 23.5878C87.5499 23.8556 87.6986 24.1134 87.8474 24.3713C87.8871 24.4407 87.9168 24.4308 87.9366 24.3812C88.016 24.4803 88.1052 24.5795 88.1945 24.6787C88.1945 25.0952 88.1746 25.5216 88.1052 25.9381C87.9366 25.6406 87.7681 25.3431 87.6193 25.0357C87.4606 24.2225 87.2028 23.4292 86.8557 22.6655C86.7664 22.487 86.7367 22.7647 86.7168 22.9135C86.5879 22.5267 86.4689 22.1399 86.3697 21.7433L86.3599 21.7333ZM86.4689 15.8327C86.4689 15.8327 86.4193 15.8129 86.3995 15.803C86.3995 15.803 86.3995 15.7831 86.3896 15.7732C86.5483 15.8625 86.697 15.9617 86.8458 16.0608C87.2226 16.9831 87.5003 17.955 87.7284 18.9169C87.5598 18.5202 87.3813 18.1335 87.1829 17.7566C87.0044 17.2509 86.816 16.755 86.6078 16.2691C86.5879 16.0608 86.5483 15.8724 86.4689 15.8327ZM86.3202 17.9649C86.0127 17.7467 85.6657 17.588 85.2987 17.4591C85.3285 17.36 85.3483 17.1715 85.3483 17.1418C85.3483 17.0327 85.3384 16.9236 85.3185 16.8145C85.6756 17.1517 86.0227 17.5087 86.3301 17.8955C86.3301 17.9252 86.3301 17.945 86.3301 17.9748L86.3202 17.9649ZM84.6343 21.2871C84.7037 21.2276 84.783 21.1879 84.8624 21.1383C85.1103 21.3069 85.3483 21.4953 85.5566 21.7135L85.6756 22.011C85.6161 22.011 85.5467 22.0209 85.4872 22.0309C85.4574 21.9515 85.4277 21.8722 85.3979 21.8028C85.3384 21.6738 85.2987 21.773 85.2789 21.8722C85.0706 21.6738 84.8624 21.4854 84.6343 21.297V21.2871ZM82.6112 18.5599C82.7501 18.4806 82.8889 18.3913 83.0178 18.2822C83.1963 18.2525 83.3848 18.2227 83.5732 18.2128L84.1484 18.7483C84.0393 18.7781 83.9401 18.8078 83.831 18.8277C83.4244 18.7384 83.0277 18.6492 82.6211 18.5599H82.6112ZM83.0178 13.9386C83.6228 13.8593 84.2376 13.8692 84.8426 14.0179C84.8723 14.0179 84.9219 13.7403 84.9219 13.4626C84.9417 13.3634 84.9516 13.2543 84.9516 13.2345C84.9516 13.2146 84.9516 13.1948 84.9516 13.175C85.4177 13.6212 85.8144 14.1072 86.1516 14.6526C86.0326 14.5931 85.9136 14.5336 85.7846 14.484C85.6458 14.2064 85.507 13.9287 85.3582 13.651C85.269 13.4923 85.2491 13.9882 85.259 14.2857C85.1995 14.2658 85.1401 14.246 85.0806 14.2262C84.4459 14.0576 83.7913 14.0378 83.1467 14.1171L83.0377 13.9386H83.0178ZM83.1269 12.2527C83.5037 12.4213 83.8409 12.6395 84.1583 12.8973C83.8509 12.8676 83.5533 12.8576 83.2459 12.8775C83.2459 12.8081 83.2459 12.7386 83.2459 12.7287C83.2459 12.6296 83.236 12.332 83.1269 12.2428V12.2527ZM39.8789 13.0758C39.8789 13.2147 39.8591 13.3436 39.8789 13.4824C39.8789 13.5221 39.9087 13.9981 40.0277 13.9882C40.1467 13.9882 40.107 13.532 40.0971 13.4626C40.0773 13.1651 40.0971 12.8676 40.1368 12.57C40.4739 11.9453 40.8805 11.3403 41.3367 10.785C40.8508 11.8461 40.4938 12.9469 40.2954 14.0873C39.6806 15.7435 39.2443 17.469 39.0062 19.2243C38.6195 17.1418 38.9765 14.9898 39.8888 13.0758H39.8789ZM41.3962 8.31567C40.7318 9.28753 40.2558 10.3685 40.0277 11.5288C39.3137 12.8378 38.8773 14.2659 38.6889 15.7336C38.7286 13.0758 39.7302 10.4478 41.3962 8.31567ZM44.8969 6.22318C44.2127 6.76862 43.5879 7.37355 43.0325 8.03799C42.2689 8.62309 41.5648 9.29744 40.9698 10.0611C41.8722 8.47433 43.3499 7.12563 44.8969 6.22318ZM40.4244 18.7087C40.4244 18.7087 40.4244 18.7087 40.4144 18.6888C40.4244 18.5797 40.4244 18.4508 40.4144 18.3517C40.4045 18.2723 40.3946 18.1831 40.3847 18.1037C40.4442 17.6178 40.5235 17.1418 40.6326 16.6658C40.7615 17.4591 40.8607 18.2624 40.9301 19.0657C40.7318 19.6309 40.5533 20.1962 40.3946 20.7714C40.3649 20.6028 40.3351 20.4342 40.3054 20.2656C40.355 19.988 40.4045 19.7103 40.4541 19.4326C40.4839 19.2541 40.5037 18.8574 40.4045 18.6988L40.4244 18.7087ZM40.1269 21.3168C40.1467 21.5648 40.1665 21.8028 40.2062 22.0507C40.2062 22.0804 40.3252 22.5961 40.3847 22.3482C40.3847 22.3184 40.4045 22.2788 40.4144 22.249L40.7615 24.2919C40.5235 24.3217 40.2756 24.3415 40.0277 24.3613C40.0277 24.3316 40.0277 24.3118 40.0277 24.282C40.0178 23.5283 40.0079 22.7746 39.9979 22.0309C40.0376 21.8028 40.0872 21.5647 40.1269 21.3367V21.3168ZM40.9103 16.3286C41.0888 16.1203 41.2872 15.922 41.4855 15.7237C41.5053 16.2889 41.545 16.8443 41.5946 17.3798C41.5053 17.588 41.426 17.7963 41.3367 18.0145C41.1979 17.4492 41.0491 16.8839 40.9103 16.3286ZM48.7546 5.65791C48.0009 5.76699 47.2572 5.95542 46.5431 6.19343C47.2472 5.78684 47.9712 5.42982 48.7348 5.16206C48.6951 5.29098 48.715 5.4794 48.7546 5.65791ZM54.8734 4.37862C54.6354 4.46787 54.3974 4.53729 54.1693 4.63646C52.6817 4.74554 51.2141 5.03315 49.7959 5.49925C50.4405 5.11248 51.105 4.75547 51.7793 4.42821C52.8107 4.29929 53.8421 4.27945 54.8734 4.37862ZM65.7325 5.23148C64.5623 4.56705 63.283 4.10095 61.9641 3.82327C61.974 3.76377 61.9839 3.69435 61.9938 3.61501C63.3425 3.9026 64.6615 4.34886 65.8912 4.94388C65.8713 4.94388 65.8515 4.94388 65.8317 4.94388C65.7722 4.94388 65.7424 5.07281 65.7424 5.23148H65.7325ZM64.0367 5.43973C62.1326 5.15214 60.1393 4.85463 58.146 4.7753C57.9873 4.75546 57.8386 4.7158 57.6799 4.70588C58.5824 4.57696 59.4947 4.52738 60.4071 4.5968C61.6566 4.69597 62.8764 4.99347 64.0268 5.43973H64.0367ZM59.2071 5.93558C59.1377 5.93558 59.0782 5.92567 59.0088 5.91576C56.4601 5.80667 53.9214 6.27276 51.581 7.22479C52.0173 6.89753 52.4834 6.60002 52.9693 6.32234C54.7742 5.84633 56.6386 5.73724 58.5129 5.82649C58.741 5.85624 58.979 5.886 59.2071 5.93558ZM56.7973 3.32742C58.0171 3.1985 59.2468 3.20842 60.4567 3.35717C60.4567 3.43651 60.4765 3.51584 60.4963 3.58526C60.4467 3.58526 60.3872 3.56542 60.3377 3.56542C59.227 3.48609 58.1063 3.56543 57.0254 3.76377C57.0056 3.73402 56.9857 3.70426 56.956 3.70426C56.3609 3.54559 55.756 3.45634 55.1412 3.38692C55.161 3.30759 55.161 3.20841 55.1511 3.08941C55.637 2.94066 56.1329 2.80182 56.6287 2.70265C56.6287 3.00016 56.7081 3.33734 56.7874 3.32742H56.7973ZM66.2581 2.44481C65.6432 2.34564 65.0284 2.27622 64.4136 2.2663C63.1541 1.75062 61.7855 1.44319 60.3972 1.36385C59.9311 1.3341 59.4749 1.34402 59.0088 1.36385C61.4682 1.11592 63.9871 1.48286 66.268 2.44481H66.2581ZM73.5669 5.15215C73.2595 5.25132 72.9521 5.3604 72.6546 5.50916C71.7819 4.72572 70.7902 4.06128 69.7191 3.55551C69.0646 3.01008 68.3506 2.52414 67.6068 2.10762C69.8084 2.63322 71.8711 3.70426 73.5669 5.16206V5.15215ZM69.7786 4.56705C70.3935 5.08273 70.9488 5.65791 71.4645 6.26284C71.4546 6.26284 71.4447 6.28268 71.4249 6.29259C71.415 6.29259 71.405 6.32235 71.405 6.33227C70.5026 5.72733 69.4712 5.3009 68.3903 5.09265C67.8944 4.50754 67.3291 3.99186 66.7044 3.5456C67.7655 3.75386 68.7969 4.11086 69.7687 4.57696L69.7786 4.56705ZM72.724 6.54052C73.0413 6.82811 73.3289 7.13553 73.6066 7.45288C73.4678 7.55205 73.3289 7.65123 73.1901 7.76032C73.0513 7.49256 72.9025 7.2248 72.7438 6.96696C72.6744 6.85787 72.5951 6.74878 72.5256 6.63969C72.5951 6.60003 72.6645 6.56036 72.7339 6.53061L72.724 6.54052ZM74.4396 5.97526C74.6776 6.21326 74.8958 6.46119 75.114 6.71903C74.7768 6.82812 74.4495 6.95704 74.1322 7.12563C73.9041 6.8182 73.6661 6.5207 73.4083 6.24302C73.7454 6.12402 74.0925 6.04468 74.4396 5.97526ZM73.9041 9.16853C73.8049 8.97019 73.6958 8.76193 73.5768 8.5735C73.5768 8.5735 73.5768 8.55366 73.5669 8.55366C73.7553 8.41483 73.9537 8.29583 74.1619 8.17683C74.2809 8.3355 74.4099 8.48425 74.519 8.65284C74.3504 8.71234 74.1719 8.75201 74.0033 8.81152C73.914 8.84127 73.9041 8.99994 73.914 9.16853H73.9041ZM75.7685 7.5818C75.9272 7.79998 76.0759 8.02808 76.2148 8.25617C75.8082 8.31567 75.4016 8.38508 75.0049 8.49416C74.9057 8.29583 74.7768 8.11733 74.6578 7.9289C75.0148 7.77023 75.3916 7.67106 75.7685 7.5818ZM79.6361 6.79837C78.3965 6.34219 77.0081 6.26285 75.7189 6.55044C75.5503 6.31244 75.3718 6.09426 75.1933 5.86617C76.7205 5.73725 78.3073 6.05459 79.6361 6.79837ZM79.5766 10.8643C79.5766 10.8643 79.5965 10.5867 79.5766 10.3586C79.9336 10.3784 80.2807 10.4379 80.6179 10.5172C80.5287 10.5668 80.4493 10.6164 80.37 10.6561C80.1518 10.6957 79.9336 10.7552 79.7254 10.8346C79.6659 10.8544 79.6163 10.8842 79.5568 10.904C79.5568 10.8842 79.5667 10.8742 79.5667 10.8544L79.5766 10.8643ZM78.5651 15.1881C78.9023 14.5634 79.418 14.0576 80.0427 13.7105C79.6163 14.2559 79.1105 14.7518 78.5651 15.1881ZM79.0114 13.3932C78.7337 13.6808 78.4857 14.008 78.3172 14.3749C78.2279 14.5634 78.2577 14.8113 78.2874 15.0195C78.2874 15.0295 78.337 15.2179 78.3767 15.327C78.099 15.5253 77.8213 15.7137 77.5238 15.8922C77.6825 14.9501 78.2676 14.0477 79.0114 13.4031V13.3932ZM76.7106 8.17683C76.5817 7.9289 76.4429 7.70081 76.304 7.46281C77.9701 7.2248 79.7452 7.61156 81.1038 8.5735C79.6857 8.14707 78.1882 8.01816 76.7106 8.17683ZM77.1668 9.16853C77.6527 9.13878 78.1387 9.12886 78.6246 9.14869C78.4362 9.23794 78.2477 9.33712 78.0692 9.4462C77.9601 9.47595 77.8511 9.51562 77.7519 9.55529C77.7122 9.39662 77.6627 9.25777 77.6527 9.29744C77.6032 9.40653 77.5535 9.52554 77.504 9.63463C77.4544 9.65446 77.4147 9.66437 77.3651 9.6842C77.3056 9.50569 77.2461 9.33711 77.1767 9.1586L77.1668 9.16853ZM74.8661 13.4824C75.0148 13.0262 75.2627 12.5899 75.5602 12.2031C75.5404 12.3618 75.5206 12.5304 75.4908 12.6891C75.3321 13.0362 75.1338 13.3634 74.9057 13.6609C74.8958 13.6014 74.876 13.5419 74.8661 13.4824ZM74.8165 12.3221C74.7371 11.4494 74.519 10.5966 74.1818 9.78338C74.4694 9.68421 74.757 9.59495 75.0446 9.51561C75.0446 9.51561 75.0445 9.51561 75.0545 9.51561C75.5999 9.36686 76.1553 9.26769 76.7205 9.20819C76.8296 9.42636 76.9288 9.63462 77.028 9.86271C76.8792 9.93213 76.7404 10.0015 76.6015 10.0908C76.3536 10.2594 76.1255 10.4478 75.9272 10.6561C75.8776 10.5073 75.8082 10.3685 75.7685 10.6164C75.7586 10.6957 75.7487 10.7751 75.7387 10.8544C75.3421 11.2908 75.0247 11.7866 74.8165 12.332V12.3221ZM74.4495 14.008C73.8049 12.1039 73.1603 10.1999 72.5157 8.29583C72.605 8.38508 72.7041 8.46442 72.7934 8.56359C72.7934 8.60326 72.8033 8.65284 72.8132 8.67268C72.8132 8.71235 72.8727 9.11893 72.9719 9.01976C72.9818 9.00985 72.9917 8.99993 73.0116 8.99001C73.6958 10.3586 74.2115 11.7866 74.5586 13.2742C74.509 13.5122 74.4793 13.7601 74.4595 14.008H74.4495ZM71.3058 8.14708C71.1571 7.84957 70.9984 7.56198 70.8497 7.26447C70.8001 7.1653 70.7703 7.32396 70.7604 7.5223C70.4232 7.16529 70.0861 6.82812 69.7191 6.50086C70.5621 6.8182 71.3356 7.27438 72.01 7.82973C72.2876 8.66276 72.5752 9.49578 72.8529 10.3189C72.4067 9.54536 71.881 8.82142 71.3058 8.13715V8.14708ZM69.9175 7.66114C70.2943 8.00824 70.6513 8.37517 70.9885 8.76193C71.4249 10.0511 71.8612 11.3403 72.2975 12.6295C71.6232 11.3701 70.9489 10.1106 70.2745 8.85118C70.1753 8.44458 70.0662 8.0479 69.9175 7.66114ZM66.8134 5.92567C67.1308 5.92567 67.4382 5.95543 67.7456 5.9951C68.1919 6.28269 68.6283 6.59011 69.0349 6.91737C69.1935 7.15538 69.3324 7.39338 69.4613 7.6413C69.4613 7.69089 69.4415 7.74048 69.4415 7.76032C69.4216 7.96857 69.4316 8.27599 69.5307 8.46442C69.5506 8.514 69.5803 8.55367 69.6001 8.60325C68.8167 7.5818 67.8746 6.67936 66.8134 5.92567ZM65.2565 7.14545C64.8003 6.8777 64.3243 6.64961 63.8483 6.42152C64.0268 6.45127 64.1954 6.47111 64.3739 6.50086C64.4532 6.51077 64.5028 5.8265 64.3937 5.56866C65.5342 6.04467 66.5953 6.68927 67.5473 7.45288C67.5473 7.48263 67.5473 7.51239 67.5473 7.5223C67.5473 7.70081 67.5473 8.00824 67.6663 8.15699C67.9837 8.514 68.2713 8.90077 68.5688 9.27762C68.5093 9.23795 68.4597 9.18836 68.4002 9.14869C68.1522 8.87101 67.8845 8.59333 67.6068 8.33549C67.587 8.31566 67.5671 8.44459 67.5572 8.61318C67.2795 8.44459 67.0217 8.26607 66.7341 8.1074C66.268 7.77023 65.7821 7.44296 65.2763 7.14545H65.2565ZM57.2337 13.1452C57.3229 13.0956 57.4221 13.0461 57.5113 12.9965C57.6502 13.0262 57.7791 13.0758 57.908 13.1155C58.4733 13.5022 58.989 13.9584 59.4253 14.484C59.1972 14.3849 58.9691 14.2956 58.751 14.1964C58.7311 14.0477 58.7014 13.9287 58.622 13.8989C58.6022 13.8989 58.5824 13.889 58.5724 13.8791C58.5526 13.7105 58.503 13.5717 58.4336 13.5419L57.2436 13.1353L57.2337 13.1452ZM56.7378 11.4296C57.0452 11.3304 57.3427 11.2313 57.6601 11.142C57.8683 11.3007 58.0865 11.4693 58.2948 11.6279C58.1262 11.6974 57.9576 11.7767 57.789 11.856C57.5014 11.737 57.2138 11.6279 56.9262 11.5188C56.8667 11.4891 56.8072 11.4494 56.7378 11.4197V11.4296ZM48.1993 23.5977C48.229 23.4688 48.2588 23.3498 48.2885 23.2209C49.0819 22.6259 49.9546 22.1399 50.8868 21.7829C49.9248 22.2887 49.0224 22.8936 48.1993 23.5878V23.5977ZM49.6769 17.8062C49.4984 17.8558 49.3298 17.9252 49.1513 17.9748C49.2901 17.6773 49.429 17.3798 49.5678 17.0823C49.7166 17.0525 49.8554 17.0426 50.0042 17.0129C50.0042 17.0426 50.0042 17.0823 50.0042 17.112C49.8951 17.3401 49.786 17.5682 49.6868 17.8062H49.6769ZM47.4753 16.2691C47.6836 15.9021 47.9117 15.5452 48.1596 15.1981C48.1695 15.4261 48.229 15.6443 48.3183 15.6542C48.4373 15.6741 48.5662 15.6939 48.6852 15.7137L48.6555 15.8228C48.6059 15.8823 48.5662 15.9517 48.5166 16.0112C48.1695 16.1501 47.8323 16.3187 47.5051 16.4972C47.5051 16.4178 47.4853 16.3385 47.4853 16.2592L47.4753 16.2691ZM48.0208 11.9453C49.1216 11.0032 50.3711 10.2197 51.7396 9.67429C53.2768 9.06935 54.9032 8.79168 56.5395 8.78177C56.47 8.84127 56.4006 8.90077 56.3213 8.97019C55.3098 9.10903 54.3181 9.32719 53.3462 9.65445C52.5231 9.93213 51.7198 10.2693 50.9562 10.6561C50.1133 10.9833 49.31 11.4098 48.5464 11.8957C48.3679 11.8957 48.1993 11.9354 48.0208 11.9453ZM47.4952 11.3404C47.9613 10.7057 48.477 10.1106 49.0323 9.54536C53.7825 6.63969 59.6534 6.21327 64.721 8.17683C65.2168 8.85118 65.7226 9.51562 66.2185 10.19C66.0895 10.1404 65.9606 10.0908 65.8416 10.0412C64.3243 8.98009 62.6483 8.13715 60.8434 7.59172C60.774 7.57188 60.7641 8.09749 60.8137 8.40492C57.7295 7.42313 54.2982 7.50247 51.3033 8.79168C49.8753 9.40653 48.596 10.2891 47.4952 11.3404ZM45.9779 18.5401C46.1564 18.4112 46.325 18.2723 46.5035 18.1533C46.5432 18.4806 46.5828 18.8078 46.6126 19.1351C46.6026 19.1649 46.5828 19.1946 46.5729 19.2144C46.3845 19.3433 46.196 19.4524 46.0175 19.5913C46.0076 19.2442 45.9878 18.8872 45.9779 18.5401ZM44.2027 22.487C44.1432 21.773 44.1234 21.059 44.1631 20.345C44.173 20.2458 44.1928 20.1466 44.2027 20.0375C44.2722 19.9681 44.3416 19.9086 44.411 19.8392C44.4308 19.9483 44.4606 20.0574 44.4804 20.1665C44.4507 20.9003 44.4308 21.6342 44.4308 22.3779C44.3813 22.487 44.3317 22.5862 44.292 22.6953C44.2622 22.6259 44.2325 22.5565 44.2027 22.4771V22.487ZM43.5284 24.4208L43.6077 23.8258C43.6672 23.8655 43.697 23.8258 43.7069 23.7663C43.7168 23.7465 43.7267 23.7167 43.7366 23.6473C43.7763 23.33 43.816 23.0126 43.8556 22.6953C43.8953 22.7845 43.9251 22.8639 43.9647 22.9531C43.9846 23.0126 44.0044 23.0721 44.0242 23.1316C44.0242 23.2011 44.0242 23.2705 44.0441 23.33C43.9449 23.6969 43.8655 24.0638 43.816 24.4407C43.7168 24.4407 43.6176 24.4208 43.5185 24.4109L43.5284 24.4208ZM45.4523 8.88093C44.9465 9.26769 44.4903 9.69413 44.0441 10.1305C43.578 10.2792 43.1317 10.547 42.7648 10.9238C42.8838 10.7156 42.9929 10.5073 43.1119 10.309C43.5383 9.83296 44.0143 9.3867 44.5201 9.02969C45.5316 8.30575 46.7117 7.8099 47.9514 7.60164C47.8621 7.66114 47.7728 7.72065 47.6935 7.79007C46.9398 8.38509 46.2655 9.04952 45.6506 9.75363C45.7002 9.46603 45.5217 8.85119 45.4622 8.89085L45.4523 8.88093ZM44.0639 13.9882C44.0639 13.9882 44.1531 13.9386 44.2027 13.9188C44.2424 14.4543 44.3019 14.9799 44.3614 15.5055L44.3118 15.9319C44.3118 15.9319 44.3118 15.9418 44.3118 15.9517C44.2325 16.0112 44.1631 16.0807 44.0837 16.1402C44.0242 15.4757 43.9846 14.8014 43.9846 14.127C44.0143 14.0774 44.0441 14.0378 44.0738 13.9882H44.0639ZM43.0821 18.1732C43.2606 17.9748 43.4391 17.7765 43.6375 17.598C43.6176 17.7467 43.6375 17.9054 43.6474 18.0244C43.6474 18.0442 43.7366 18.4905 43.8061 18.3715C43.8854 18.2327 43.9746 18.1037 44.0639 17.9748C44.0639 17.9946 44.0639 18.0145 44.0639 18.0343L44.0242 18.3616C43.9647 18.6392 43.9151 18.9169 43.8656 19.1946C43.6871 19.4128 43.5185 19.6409 43.3598 19.8689C43.2705 19.5119 43.1912 19.1549 43.1119 18.788C43.092 18.5797 43.0821 18.3715 43.0722 18.1632L43.0821 18.1732ZM42.8342 16.0311C43.1218 15.5055 43.4292 14.9898 43.7466 14.4741C43.7664 15.089 43.8061 15.7038 43.8656 16.3088C43.5581 16.5666 43.2606 16.8443 42.9829 17.1418C42.9433 16.7649 42.8838 16.398 42.8342 16.0212V16.0311ZM43.1317 13.4031C42.9235 13.5221 42.735 13.6609 42.5367 13.7998C42.497 13.5816 42.4474 13.3634 42.4078 13.1353C42.8441 12.5601 43.3102 12.0048 43.816 11.4792C43.7961 11.737 43.7763 12.0048 43.7664 12.2626C43.5383 12.6296 43.3201 13.0064 43.1317 13.4031ZM41.6243 20.3053C41.6541 20.4342 41.6838 20.5631 41.7235 20.6821C41.7433 21.2375 41.7731 21.7928 41.8326 22.3482C41.7731 22.4771 41.7036 22.5961 41.6541 22.725C41.5747 21.9119 41.5747 21.1086 41.6342 20.3053H41.6243ZM41.3268 23.5977C41.3566 22.2788 41.307 20.9697 41.2078 19.6508C41.2574 19.5219 41.307 19.3929 41.3566 19.264L41.4061 19.4822C41.2871 20.7218 41.2971 21.9714 41.4458 23.2209C41.3962 23.3498 41.3566 23.4787 41.3169 23.6077L41.3268 23.5977ZM41.0392 24.2225C41.0392 24.2225 41.0095 24.2225 40.9896 24.2225C40.8409 23.3696 40.702 22.5267 40.5533 21.6738C40.6921 21.1681 40.8508 20.6722 41.0194 20.1764C41.0987 21.5152 41.1086 22.8639 41.0392 24.2126V24.2225ZM39.1748 25.5911C38.9467 24.3118 38.9071 23.0126 39.0261 21.7333C39.1252 20.583 39.3633 19.4524 39.7203 18.3417C39.7203 18.9268 39.7401 19.5119 39.75 20.0871C39.75 19.978 39.7302 19.8689 39.7302 19.7599C39.7103 19.5417 39.5318 18.9665 39.512 19.5119C39.4426 21.0392 39.3632 22.5763 39.2938 24.1035C39.2938 24.2126 39.4227 25.1745 39.512 24.7184C39.5318 24.5993 39.5517 24.4804 39.5814 24.3713C39.6905 24.401 39.7897 24.4308 39.8988 24.4506C39.9484 24.5795 40.0078 24.6192 40.0376 24.4903C40.0376 24.4903 40.0574 24.4903 40.0673 24.4903C40.0673 24.639 40.0674 24.7878 40.1269 24.9068C40.345 25.3729 40.5533 25.8291 40.7715 26.3051C40.2855 26.0274 39.7401 25.9381 39.2046 26.0274C39.2244 25.8588 39.2244 25.6605 39.2046 25.5811L39.1748 25.5911Z" fill="#000100"/>
<path d="M66.8234 63.1566C66.8234 63.1566 66.8234 63.1169 66.8234 63.0971C66.8829 63.1665 66.9523 63.2459 67.0118 63.3153C66.9424 63.2657 66.8829 63.2161 66.8135 63.1566H66.8234Z" fill="#000100"/>
<path d="M59.9907 49.7786C59.9014 49.7587 59.8122 49.729 59.7229 49.7091C59.7229 49.6794 59.7229 49.6596 59.7328 49.6298L59.9907 49.7786Z" fill="#000100"/>
<path d="M77.6728 60.0228C77.6728 60.0228 77.6728 60.0428 77.6728 60.0528C77.6528 60.0728 77.6428 60.0828 77.6228 60.1028C77.6328 60.0728 77.6528 60.0528 77.6628 60.0228H77.6728Z" fill="#000100"/>
<path d="M85.2688 26.672L85.4374 26.9001C85.4374 26.9001 85.4374 26.9695 85.4374 27.0092C85.3779 26.9001 85.3283 26.7811 85.2688 26.6819V26.672Z" fill="#000100"/>
<path d="M85.4375 24.2622C85.4673 24.3118 85.497 24.3614 85.5268 24.4209C85.497 24.3911 85.4772 24.3614 85.4474 24.3316C85.4474 24.3118 85.4474 24.282 85.4375 24.2622Z" fill="#000100"/>
<path d="M41.6047 24.173H41.5947L41.6047 24.163V24.173Z" fill="#000100"/>
<path d="M44.2127 24.2622C44.2325 24.3515 44.2424 24.4308 44.2523 24.52C44.2226 24.52 44.1928 24.52 44.1631 24.52C44.1829 24.4407 44.1929 24.3515 44.2127 24.2721V24.2622Z" fill="#000100"/>
<path d="M44.4406 24.2622C44.4406 24.2622 44.4703 24.3415 44.4902 24.3812C44.4902 24.4308 44.4902 24.4804 44.4902 24.53C44.4703 24.53 44.4505 24.53 44.4307 24.53C44.4307 24.4407 44.4307 24.3515 44.4307 24.2721L44.4406 24.2622Z" fill="#000100"/>
<path d="M63.4416 54.4991C65.8613 56.3437 69.0149 57.1172 72.0595 56.6412C72.1884 56.6213 72.3173 57.6428 72.1289 57.6725C69.0645 58.1585 65.8911 57.3552 63.4515 55.5007C63.3127 55.4016 63.3325 55.0148 63.3325 54.866C63.3325 54.8165 63.3325 54.4198 63.4416 54.4991Z" fill="#000100"/>
<path d="M41.9019 47.5175C42.0308 47.4877 41.9713 47.1307 41.8523 46.863C42.3581 45.9407 43.0721 45.0482 44.044 44.6217C44.1134 44.5821 44.1927 44.5523 44.2621 44.5225C44.2721 44.6316 44.2919 44.7407 44.3018 44.8399C44.758 44.3738 45.2638 43.9672 45.829 43.6201C45.8985 43.5804 45.9679 44.0961 45.9778 44.1259C45.9778 44.2449 46.0373 44.5721 45.9084 44.6515C45.3629 44.9787 44.877 45.3754 44.4406 45.8217C44.5001 46.2679 44.5497 46.7142 44.6192 47.1605C45.0555 46.615 45.5018 46.0597 45.9381 45.5142C46.0274 45.4052 46.0968 45.8415 46.0968 45.8613C46.1166 46.02 46.1761 46.3572 46.067 46.5059L44.758 48.1323C44.7778 48.2612 44.7977 48.3902 44.8274 48.529C45.2142 48.0232 45.6704 47.5472 46.196 47.1506C46.305 47.0613 46.3447 47.4481 46.3546 47.4976C46.3745 47.6166 46.4439 48.0431 46.3249 48.1423C45.829 48.5191 45.3927 48.9654 45.0059 49.4513C45.0059 49.4612 45.0059 49.4711 45.0059 49.4909C44.9563 49.5306 44.9167 49.5802 44.8671 49.6199C44.0936 50.6512 43.5779 51.871 43.4688 53.1404C43.4688 53.2495 43.4589 53.4776 43.3299 53.3387C43.2109 53.2098 43.2308 52.7933 43.2407 52.6346C43.2605 52.3768 43.3002 52.1289 43.3399 51.8809C42.8043 53.1206 42.487 54.4792 42.4473 55.818C42.4473 56.0262 42.4969 56.3238 42.6457 56.4824C42.7647 56.6014 42.8837 56.6312 42.8936 56.4229C42.9432 55.0544 43.2704 53.6462 43.8555 52.3867C44.1233 51.8215 44.4704 51.2264 44.9464 50.7504C45.0257 50.6512 45.115 50.562 45.2142 50.4826C45.2439 50.6116 45.2935 50.7405 45.3233 50.8793C45.6109 50.4331 45.9183 50.0066 46.2753 49.6C46.3645 49.4909 46.434 49.9174 46.434 49.9471C46.4538 50.0959 46.5133 50.4529 46.4042 50.5917C46.1067 50.9388 45.829 51.3058 45.5811 51.6826C45.6604 51.9107 45.7398 52.1487 45.8389 52.3768C45.7199 52.466 45.6108 52.5652 45.5018 52.6644C44.9563 53.19 44.5398 53.8445 44.2225 54.5288C44.0142 55.2131 43.8654 55.9172 43.8159 56.6411C43.8159 56.7601 43.8159 56.9684 43.677 56.8394C43.5977 56.7601 43.5779 56.532 43.5779 56.3535C43.3498 57.2361 43.1911 58.1584 43.1812 59.0906C42.7052 58.3766 42.2589 57.6526 41.9118 56.889C41.416 55.8081 41.0887 54.6478 40.8309 53.5073C40.6424 52.6743 40.4937 51.8016 40.4441 50.9289C40.6623 49.8381 40.9697 48.7373 41.4259 47.7059C41.5647 47.6365 41.7135 47.5671 41.8821 47.5274L41.9019 47.5175Z" fill="#000100"/>
<path d="M58.6616 55.5999H58.6815C58.7211 55.6594 58.7707 55.699 58.8104 55.7486C58.7707 55.7486 58.7112 55.7486 58.6616 55.7288V55.6098V55.5999Z" fill="#000100"/>
<path d="M58.5138 57.1971C58.5138 57.1971 58.4738 57.1971 58.4438 57.1971C58.4438 57.1971 58.4372 57.1971 58.4238 57.1971C58.4238 57.1971 58.4438 57.1571 58.4538 57.1271C58.4838 57.1571 58.4938 57.1671 58.5138 57.1971Z" fill="#000100"/>
<path d="M62.1722 44.7506C62.0037 43.7391 62.1128 42.4797 63.0846 41.8251C63.6499 41.4384 64.354 41.3293 65.0383 41.4285C64.9986 41.3095 64.9986 41.1409 64.9887 41.0715C64.9887 41.0318 64.9887 40.5161 65.0581 40.5459C66.268 41.002 67.22 41.9739 67.6365 43.154C67.6861 43.3028 67.7059 43.4614 67.7158 43.63C67.9935 44.354 68.0927 45.1573 68.0828 45.9109C68.0828 45.9704 68.0828 46.3969 67.9638 46.3969H67.9539C67.8547 46.377 67.8547 45.9506 67.8646 45.9109C67.9043 43.9077 65.8911 41.607 63.511 42.5788C62.9954 42.797 62.5491 43.2036 62.4004 43.7094C62.1822 44.4432 62.678 45.2167 63.154 45.7919C63.9275 46.734 64.9887 47.4977 65.9407 48.291C66.4068 48.6976 66.8828 49.0844 67.3588 49.491C67.3688 49.4711 67.3886 49.4711 67.3985 49.4612C67.4184 49.4612 67.4283 49.5108 67.4481 49.5703C68.0431 50.0761 68.6381 50.5818 69.253 51.0578C70.1951 51.8115 71.3653 52.4363 72.6049 51.9206C73.8941 51.3752 74.4991 50.0463 74.4297 48.7968C74.3503 47.3886 73.9735 45.9605 73.7255 44.5721C73.1702 41.5772 72.6347 38.5922 72.0892 35.6072C72.0892 35.627 72.0892 35.6469 72.0793 35.6667V35.6865C72.0793 35.7559 72.0198 36.0435 71.9207 35.865C71.8314 35.6766 71.8612 35.389 71.8909 35.1907C72.0099 34.3081 72.6148 33.6436 73.5272 33.3263C74.1916 33.0982 76.413 33.4651 77.6328 33.9114C77.5733 33.8023 77.5337 33.485 77.5337 33.4453C77.5337 33.3263 77.5237 33.1974 77.5337 33.0784C77.5337 33.0288 77.5436 32.9395 77.6031 32.9197C78.1882 32.7015 78.7832 32.4933 79.3683 32.2751C79.4576 32.2453 79.5071 32.7412 79.517 32.7809C79.517 32.8899 79.517 33.0089 79.517 33.118C80.122 33.2668 80.7269 33.4255 81.3319 33.5742C81.3815 33.5841 81.4112 33.6833 81.4211 33.723C81.4509 33.842 81.4707 33.9709 81.4806 34.0899C81.4806 34.1296 81.5004 34.6353 81.4112 34.6155C80.6377 34.4171 79.8741 34.2287 79.1006 34.0304C79.051 34.0205 79.0212 33.9213 79.0113 33.8816C78.9816 33.7626 78.9617 33.6337 78.9518 33.5147C78.9518 33.5147 78.9518 33.4949 78.9518 33.4849C78.5452 33.6337 78.1287 33.7825 77.7221 33.9312C77.9998 34.0403 78.2279 34.1494 78.3568 34.2585C78.4064 34.2982 78.4163 34.437 78.4163 34.4866C78.446 34.6155 78.4361 34.7444 78.4262 34.8634C78.4262 34.8932 77.8312 34.8634 77.2461 34.8039C76.9684 34.2981 75.8081 33.604 73.6462 34.2585C73.2594 34.3676 72.9024 34.556 72.6049 34.8138C72.4859 34.9229 72.3867 35.0518 72.2975 35.1808C72.8132 38.017 73.3289 40.8632 73.8545 43.6994C73.8545 43.6796 73.8545 43.6598 73.8743 43.6598C75.0445 44.2052 75.7883 45.2267 76.0858 46.3671C76.3932 47.577 76.294 48.9852 75.5503 50.0364C75.4808 50.1455 75.4214 49.7091 75.4214 49.6893C75.4214 49.5108 75.3916 49.2431 75.5007 49.0844C76.0164 48.3505 76.1354 47.577 75.828 46.7539C75.5106 45.9109 74.8759 45.1771 74.033 44.7308C74.0726 44.9093 74.1024 45.0977 74.1421 45.2762C74.4396 46.9125 75.0445 49.2827 74.3702 51.0281C74.3503 51.0281 74.3305 51.0281 74.3106 51.0479C73.5669 51.6826 72.7537 52.3371 71.7719 52.5851C71.2661 52.714 70.7306 52.7239 70.2149 52.6446C69.6298 52.5553 69.0546 52.3371 68.5687 52.0495C67.9836 51.6826 67.4977 51.1868 67.0316 50.681C66.8233 50.4728 66.6349 50.2546 66.4266 50.0463C66.5258 49.9967 66.625 49.967 66.7043 49.9174C65.9705 49.3125 65.2465 48.7075 64.5226 48.0927C63.4119 47.1605 62.3706 46.1489 62.1524 44.7407L62.1722 44.7506Z" fill="#000100"/>
<path d="M73.696 57.2361C73.696 57.2361 73.716 57.2561 73.706 57.2661C73.706 57.2561 73.686 57.2561 73.676 57.2361H73.686H73.696Z" fill="#000100"/>
<path d="M82.3635 52.6446C82.3337 52.714 82.3139 52.8033 82.304 52.8727C82.3635 52.5553 82.4229 52.2182 82.4725 51.9008C82.4329 52.1487 82.4031 52.3967 82.3734 52.6446H82.3635Z" fill="#000100"/>
<path d="M37.955 29.4785C37.9054 29.2306 37.8558 28.9926 37.8062 28.7447C37.7864 28.6653 37.8062 27.8125 37.8955 27.8621C41.5846 29.6174 43.092 34.0999 41.8623 37.7691C41.7929 37.9774 41.7234 37.6303 41.7135 37.5807C41.6837 37.3526 41.6838 37.0948 41.7631 36.8766C42.2689 35.3692 42.0408 33.7528 41.3466 32.3445C41.3466 32.4437 41.3466 32.5429 41.3267 32.6421C41.3267 32.7016 41.2375 33.0288 41.178 32.8305C40.9797 32.2255 40.3053 31.9677 39.6904 31.9875C38.9467 32.0074 38.3516 32.414 38.0244 33.0487C37.6376 33.8123 37.7963 34.6056 38.0046 35.399C38.2326 36.2915 38.4806 37.1642 38.5301 38.0865C38.5301 38.2055 38.5698 38.6518 38.4409 38.7212C38.3219 38.7807 38.312 38.4038 38.312 38.3542C38.2525 37.303 37.8161 36.3113 37.6476 35.28C37.4889 34.3081 37.4591 33.1875 37.8657 32.2553C38.183 31.5214 38.8078 30.9859 39.6508 30.9462C39.978 30.9264 40.3053 31.0057 40.583 31.1446C39.9285 30.2818 39.0954 29.548 38.1434 29.0422C38.1434 29.1909 38.1434 29.3496 38.1037 29.4785C38.0541 29.6372 37.9847 29.6769 37.9451 29.4785H37.955Z" fill="#000100"/>
<path d="M39.4822 34.8535C39.4822 34.8535 39.4822 34.8932 39.4822 34.9031C39.5119 35.2006 39.6111 35.5279 39.7598 35.8155C40.0871 36.4601 40.6325 36.9956 41.3168 37.2733C41.4457 37.3229 41.4259 37.6799 41.416 37.789C41.416 37.8286 41.3763 38.3344 41.297 38.3046C40.4541 37.9576 39.8293 37.2634 39.5218 36.4403C39.1549 35.4982 39.145 34.318 39.5218 33.3759C39.6012 33.1776 39.6607 33.5048 39.6706 33.5643C39.7003 33.7825 39.7103 34.0602 39.621 34.2684C39.5714 34.3974 39.5119 34.5759 39.4921 34.685C39.4921 34.685 39.4723 34.8337 39.4822 34.7544C39.4822 34.7544 39.4822 34.804 39.4822 34.8238C39.4822 34.7841 39.4822 34.8436 39.4822 34.8436V34.8535Z" fill="#000100"/>
<path d="M74.152 39.2368C73.3983 38.4038 73.2198 37.0551 74.1322 36.2816C75.0743 35.4783 76.4528 36.0634 77.2164 36.8072C77.7816 37.3625 78.1882 38.0468 78.575 38.7212C78.6048 38.7707 78.6345 38.8402 78.6643 38.8997C79.0411 38.7112 79.4279 38.5625 79.8444 38.4633C79.894 38.4534 79.9634 38.5526 79.9733 38.5724C80.0427 38.6716 80.1022 38.7906 80.1419 38.8997C80.1617 38.9492 80.3402 39.3955 80.241 39.4153C79.527 39.5839 78.8626 39.8913 78.2676 40.3178C78.1882 40.3773 77.98 39.9211 77.97 39.8814C77.9205 39.7724 77.8808 39.6533 77.861 39.5343C77.861 39.4848 77.8312 39.3955 77.8709 39.3658C78.0494 39.2368 78.2577 39.1377 78.4461 39.0286C78.0692 38.4038 77.613 37.7493 77.0081 37.3229C77.018 37.3526 77.0379 37.3824 77.0478 37.422C77.137 37.6898 77.1965 37.9575 77.2362 38.2352C77.2362 38.2551 77.2461 38.2848 77.256 38.3046C77.2957 38.5228 77.2957 38.7509 77.256 38.9592C77.2362 39.2368 77.1866 39.5244 77.0775 39.7922C77.0775 39.7922 77.0676 39.812 77.0577 39.8219C76.2544 39.6633 75.8379 38.8401 75.6892 38.136C75.59 37.6997 75.709 37.2435 76.0164 36.9262C75.9073 36.9063 75.8082 36.8865 75.6991 36.8766C75.1437 36.8568 74.6479 37.065 74.3008 37.4914C74.1421 37.6898 74.033 37.9179 73.9735 38.1658C73.9537 38.265 73.9537 38.3641 73.9438 38.4633C74.0628 38.6319 74.152 38.8402 74.2016 39.0286C74.2214 39.0881 74.2809 39.4153 74.1322 39.2567L74.152 39.2368Z" fill="#000100"/>
<path d="M61.8153 35.5378C61.8351 35.6568 61.8252 35.7857 61.8153 35.9047C61.8153 35.9444 61.7359 36.4502 61.6566 36.4105C60.8236 35.9841 59.9806 35.5676 59.1476 35.1411C59.098 35.1114 59.0881 35.0321 59.0881 34.9825C59.0683 34.8635 59.0782 34.7345 59.0881 34.6155C59.0881 34.5759 59.1675 34.0701 59.2468 34.1098C59.7526 34.3676 60.2682 34.6254 60.774 34.8833C60.7938 34.7742 60.8137 34.6651 60.8533 34.566C61.488 33.2073 63.3127 32.4536 64.7309 33.1776C66.2383 33.9511 66.5754 35.8155 66.0994 37.2832C66.0399 37.4518 65.9705 37.4419 65.9408 37.2733C65.9011 37.0452 65.9407 36.7675 66.0101 36.5494C66.03 36.4899 66.0498 36.4303 66.0598 36.3708V36.3213C66.0498 36.1923 66.03 36.0634 66.0003 35.9444C65.9209 35.6469 65.8019 35.3692 65.6333 35.1213C65.5738 35.0321 65.5044 34.9626 65.4449 34.8833C65.4449 35.1213 65.4251 35.3593 65.3755 35.5874C65.3656 35.8948 65.2961 36.2618 65.0879 36.4899L64.9986 36.9659C64.9986 36.9659 64.9391 37.4121 64.83 37.3129C64.7804 37.2733 64.7904 37.1245 64.7904 37.075C64.7904 36.9758 64.7904 36.8766 64.8102 36.7774C64.5325 37.065 64.1755 37.2733 63.759 37.2931C63.7293 37.2733 63.7094 37.2535 63.7094 37.2138C63.6202 36.7378 63.6598 36.1527 63.8681 35.6469C63.8681 35.3692 63.8879 35.0717 63.9673 34.8139C64.0565 34.5362 64.2449 34.3081 64.483 34.1594C64.3739 34.1098 64.2648 34.0701 64.1557 34.0404C63.0549 33.7528 61.8054 34.199 61.1508 35.0816C61.3591 35.1907 61.5673 35.2899 61.7756 35.399C61.8252 35.4287 61.8351 35.5081 61.8351 35.5577L61.8153 35.5378Z" fill="#000100"/>
<path d="M65.6532 28.9529C66.3672 29.4091 66.8432 30.143 66.9821 30.9562C67.0217 31.1843 66.982 31.4421 66.9126 31.6603C66.8928 31.7198 66.873 31.8487 66.8135 31.8884C66.7639 31.9181 66.744 31.8784 66.7341 31.8289C66.6746 31.4719 66.5259 31.1248 66.3176 30.8173C66.3176 30.8669 66.3176 30.9066 66.3176 30.9562C66.2978 31.0752 66.2779 31.1942 66.2284 31.3132C66.2284 31.333 66.1589 31.4818 66.1292 31.452C65.5242 30.976 64.9094 30.5 64.3045 30.024C64.2549 29.9843 64.2549 29.9149 64.2549 29.8653C64.2549 29.7463 64.2549 29.6174 64.2747 29.4984C64.2945 29.3794 64.3144 29.2604 64.364 29.1414C64.364 29.1215 64.4334 28.9728 64.4631 29.0025C64.7904 29.2604 65.1177 29.5182 65.4449 29.7761C65.4449 29.667 65.4449 29.5579 65.4648 29.4587C65.4648 29.419 65.5838 28.9133 65.6532 28.9629V28.9529Z" fill="#000100"/>
<path d="M64.1852 30.0339C64.2348 30.0537 64.2348 30.1529 64.2348 30.1926C64.2348 30.3116 64.2348 30.4405 64.215 30.5595C64.215 30.5892 64.1654 30.7876 64.1158 30.9264C65.0678 31.0256 66 31.452 66.6248 32.166C66.7141 32.2652 66.5455 32.5528 66.5058 32.652C66.486 32.6916 66.2381 33.0982 66.1885 33.0487C64.9984 31.6801 62.6878 31.3628 61.2101 32.3743C61.1011 32.4437 61.2498 32.0272 61.2498 32.0173C61.3192 31.8388 61.4184 31.6206 61.587 31.5115C62.1919 31.095 62.9456 30.9066 63.6993 30.9165C63.134 30.6587 62.5787 30.4008 62.0134 30.143C61.9638 30.1231 61.9638 30.024 61.9638 29.9843C61.9638 29.8653 61.9638 29.7364 61.9837 29.6174C61.9837 29.5777 62.0828 29.0819 62.1721 29.1215L64.1852 30.0438V30.0339Z" fill="#000100"/>
<path d="M61.2599 30.7876C60.7542 30.5694 60.2385 30.3611 59.7327 30.143C59.6831 30.1231 59.6831 30.014 59.6831 29.9843C59.6831 29.8653 59.6831 29.7364 59.703 29.6174C59.703 29.5777 59.8021 29.0819 59.8914 29.1215L61.4186 29.7661C61.4682 29.786 61.4682 29.895 61.4682 29.9248C61.4682 30.0438 61.4682 30.1727 61.4484 30.2917C61.4484 30.3314 61.3492 30.8272 61.2599 30.7876Z" fill="#000100"/>
<path d="M77.2758 32.057C77.2758 32.176 77.2858 32.3049 77.2758 32.4239C77.2758 32.4636 77.2659 32.5727 77.2064 32.5826C76.3635 32.771 75.5205 32.9594 74.6776 33.1478C74.5685 33.1677 74.5387 32.6917 74.5288 32.6421C74.5288 32.5231 74.5189 32.3942 74.5288 32.2752C74.5288 32.2355 74.5387 32.1264 74.5982 32.1165L77.1271 31.5512C77.2362 31.5314 77.2659 32.0074 77.2758 32.057Z" fill="#000100"/>
<path d="M74.0925 31.7098C74.0925 31.5908 74.0826 31.4619 74.0925 31.3429C74.0925 31.2933 74.1024 31.2041 74.1619 31.1842C74.8264 30.9462 75.5008 30.7082 76.1652 30.4702C76.2544 30.4405 76.304 30.9363 76.3139 30.976C76.3139 31.095 76.3239 31.2239 76.3139 31.3429C76.3139 31.3925 76.304 31.4817 76.2445 31.5016C75.5801 31.7396 74.9057 31.9776 74.2413 32.2156C74.152 32.2454 74.1025 31.7495 74.0925 31.7098Z" fill="#000100"/>
<path d="M83.6326 76.2073C83.3251 75.9793 82.9582 75.7611 82.5615 75.5627C90.6835 78.2007 92.1215 83.3972 90.5447 93.096C90.634 86.5706 89.2158 80.2237 83.6326 76.2073Z" fill="black"/>
</svg>
