<svg width="111" height="284" viewBox="0 0 111 284" fill="none" xmlns="http://www.w3.org/2000/svg">
<path d="M67.1749 272.364C67.3138 272.85 67.3435 273.406 67.5716 273.852C69.6343 273.455 72.8276 274.09 74.4639 273.069C74.6127 273.545 74.8507 272.563 74.9399 272.384C74.8408 272.394 74.7118 272.355 74.6027 272.345C72.183 271.869 69.6244 272.265 67.1749 272.364Z" fill="black"/>
<path d="M43.9395 272.394C44.0387 272.87 43.9594 273.445 44.1676 273.872C46.5675 273.019 53.7177 274.407 53.8367 271.601C50.5442 271.581 47.2518 272.672 43.9494 272.394H43.9395Z" fill="black"/>
<path d="M94.7444 108.04C98.2352 98.4303 88.3083 90.7447 74.4443 90.3381C69.9024 100.969 63.4761 98.351 55.0963 92.6686C54.9574 93.0752 54.9178 93.3132 54.6996 93.2041C53.7575 96.1792 51.6353 102.794 51.4964 102.467C51.4964 103.24 54.7789 146.24 54.769 146.31C46.1908 158.726 50.7526 158.864 41.1828 149.602C40.1613 133.636 42.7496 117.312 48.0354 102.119C45.7842 100.057 47.242 96.7643 46.4982 94.2156C37.682 95.8817 36.2342 105.392 36.5813 92.5992C33.6954 92.9661 31.2856 93.4719 29.2824 94.1264C30.3732 93.571 33.0905 92.4603 36.5218 91.7661C36.6606 90.6356 36.7697 88.2555 36.849 87.0258C37.0672 86.8771 36.968 85.6374 36.9879 85.4986C36.9184 85.4788 36.859 85.449 36.7895 85.4292C36.8986 85.4193 37.0077 85.3994 37.1168 85.3895C37.2457 85.3796 37.3647 85.3697 37.4936 85.3598C37.6424 85.3598 37.7911 85.3796 37.9399 85.3994C38.406 85.6969 38.8919 85.9647 39.3779 86.2325C39.9431 86.6886 40.4985 87.125 41.0638 87.4919C41.7084 88.1167 42.3331 88.7514 43.0075 89.3365C45.933 91.8355 50.6435 92.5793 54.3723 91.5678C54.5905 91.5083 54.7988 91.4389 55.007 91.3695C55.0368 91.2108 55.0864 91.0719 55.1657 91.0422C58.6763 89.5745 61.6415 86.8374 63.3571 83.535C63.4464 83.2772 63.5257 83.0094 63.615 82.7417C63.7141 82.4343 63.7538 82.5235 63.7538 82.7119C63.8431 82.5235 63.9125 82.3252 63.9918 82.1367C64.1307 81.6706 64.2695 81.1946 64.4083 80.7285C64.4579 80.5599 64.4976 80.4707 64.5372 80.4409C64.7653 79.5286 64.9141 78.5865 64.9438 77.6344C64.9438 77.5055 64.9637 77.3567 64.9934 77.2179C64.9835 77.0097 64.9637 76.8014 64.9438 76.5832C65.1124 76.1072 65.281 75.6312 65.4298 75.1453C65.5884 75.3833 65.7471 75.6114 65.8959 75.8494C65.9157 75.8295 65.9355 75.8196 65.9554 75.8494C66.0446 75.9981 66.114 76.1568 66.2033 76.3055C66.3421 76.5237 66.4909 76.732 66.6297 76.9502C66.6595 76.9997 66.6595 77.0791 66.6496 77.1386C68.0082 79.717 72.5303 85.4986 73.0361 88.3547C73.4824 88.315 101.617 90.7447 94.7345 108.06L94.7444 108.04ZM45.4173 92.6487C42.4025 90.7843 40.0621 88.1762 37.6226 85.7068C37.5928 85.6969 37.5631 85.687 37.5234 85.6771C37.097 89.6042 37.0374 93.5611 37.4143 97.5081C39.6952 95.3462 42.4224 93.6999 45.4173 92.6487ZM47.2619 95.9511C48.561 94.3644 50.3956 93.2239 52.4187 92.7479C50.6535 92.5892 48.8585 92.9066 47.2619 93.6801C47.3115 94.4338 47.2817 95.1974 47.2619 95.9511ZM46.9445 107.128C48.4321 107.643 49.8502 108.357 51.1692 109.2C51.1097 108.159 51.0402 107.108 50.9906 106.076C50.1675 105.174 49.0072 104.658 47.8668 104.291C47.5494 105.243 47.2321 106.176 46.9445 107.137V107.128ZM50.9212 104.777C50.8915 104.053 50.832 103.329 50.8022 102.605C50.0882 102.943 49.1163 102.883 48.4519 102.387C48.4122 102.794 48.2932 102.992 48.1841 103.339C49.2155 103.597 50.1477 104.093 50.9212 104.777ZM45.6652 111.56C47.7775 111.759 49.7709 112.532 51.4468 113.762C51.3675 112.631 51.2981 111.511 51.2287 110.38C49.8899 109.329 47.9858 108.833 46.6768 107.961C46.3098 109.161 45.9925 110.351 45.6553 111.56H45.6652ZM50.1477 151.903C48.1247 148.62 45.1396 145.953 41.5894 144.267C41.5993 145.12 41.6092 145.972 41.6389 146.835C41.7579 146.805 41.7282 147.331 41.6984 147.757C43.8901 149.78 46.2503 152.438 48.4221 154.461C49.1064 153.41 49.632 152.607 50.1378 151.903H50.1477ZM53.5393 147.152C50.5146 143.374 46.3297 140.558 41.6191 139.1C41.5794 140.498 41.5695 141.887 41.5695 143.275C41.5993 143.215 41.6191 143.176 41.6489 143.166C45.3677 144.941 48.6304 147.757 50.594 151.298C51.3675 150.276 52.1609 149.334 53.4203 147.886C53.4302 147.648 53.5195 147.4 53.5492 147.152H53.5393ZM53.103 139.11C49.9989 136.234 46.1313 134.211 41.9365 133.259C41.8075 134.846 41.7282 136.432 41.6687 138.029C46.2999 139.437 50.4254 142.164 53.4798 145.824C53.3707 143.612 53.2418 141.371 53.103 139.12V139.11ZM52.736 133.318C49.5626 131.146 46.1016 129.352 42.4621 128.042C42.2835 129.431 42.1546 130.819 42.0257 132.208C46.1413 133.12 49.9394 135.074 53.0335 137.85C52.9443 136.353 52.855 134.836 52.746 133.318H52.736ZM52.2898 126.456C49.4634 124.78 46.4388 123.471 43.2554 122.558C43.0075 124.036 42.7794 125.514 42.5909 127.011C46.1611 128.29 49.5428 130.026 52.6666 132.128C52.5476 130.234 52.4187 128.35 52.2898 126.456ZM51.9427 121.2C49.751 119.316 47.0635 118.046 44.2372 117.411C43.9397 118.78 43.6818 120.149 43.424 121.527C46.5181 122.41 49.4535 123.679 52.2104 125.276C52.1212 123.917 52.0319 122.558 51.9427 121.2ZM45.3875 112.542C45.0504 113.831 44.7529 115.131 44.4553 116.41C47.1825 116.985 49.7213 118.225 51.8435 119.96C51.7344 118.294 51.6154 116.628 51.5063 114.972C49.7709 113.603 47.6189 112.76 45.3776 112.542H45.3875ZM52.8749 96.9031C51.0601 97.4287 49.394 98.3213 47.9164 99.4716C48.1941 99.8782 48.5511 100.235 49.0172 100.473C51.7245 101.485 51.6154 100.027 52.865 96.9031H52.8749ZM54.0848 93.4917C51.4468 93.6008 48.9477 94.8305 47.2718 96.7841C47.2817 97.4783 47.3214 98.1824 47.5891 98.827C49.1758 97.4882 51.0303 96.4866 53.0534 95.9015C53.1129 95.8817 53.093 96.2387 53.0732 96.3775C53.4302 95.3858 53.7873 94.3842 54.0848 93.5016V93.4917ZM71.1618 87.2638C71.0824 86.768 67.4033 81.4128 67.2347 80.917C67.2347 80.8971 67.2347 80.8674 67.2248 80.8475C67.2248 80.8475 67.2248 80.8475 67.2148 80.8376C66.9173 79.955 66.5702 79.0922 66.1537 78.2592C66.1636 79.1418 65.9356 80.0641 65.638 80.917C65.6579 81.155 65.2017 82.0673 65.1422 82.2359C64.7554 83.1879 64.2992 84.1102 63.7736 85.0027C62.8018 86.1829 61.8894 87.4126 60.9671 88.6324C60.7787 88.7811 57.9028 90.5959 57.3177 90.8439C57.0499 91.0025 56.7822 91.1612 56.5045 91.31C58.6565 92.262 68.99 97.0122 70.8445 95.4453C72.4113 92.4107 74.841 89.7331 71.1717 87.2737L71.1618 87.2638Z" fill="black"/>
<path d="M108.281 283.491C103.848 282.648 78.5202 281.736 75.3071 272.156C75.0393 269.955 68.9007 271.601 66.9669 271.343C66.2925 267.783 66.1239 264.143 66.4314 260.533C61.939 252.729 64.4182 242.365 62.9207 233.668C61.9489 217.771 60.9473 201.855 59.9556 185.958C58.0317 186.216 56.1078 186.325 54.164 186.255C55.4433 200.288 56.078 214.36 56.0185 228.442C55.9987 232.885 55.9094 237.318 55.7607 241.761C55.2152 247.294 56.0185 255.158 53.0632 259.641C53.8665 262.864 53.688 269.042 53.7178 270.589C50.4154 270.649 47.123 271.65 43.8008 271.363C43.781 271.164 43.7611 270.966 43.7413 270.778C38.6836 271.67 -5.25853 283.253 0.523075 272.235C9.57728 269.746 18.1852 267.188 26.5155 262.695C26.8626 261.932 27.0808 261.089 27.1502 260.266C26.3072 259.849 25.7221 260.186 25.5436 259.502C24.6312 235.88 26.2576 212.208 30.3236 188.903C31.4244 182.526 32.7235 176.189 34.2011 169.892C34.1218 169.922 34.0722 169.753 34.0722 169.595C33.9929 169.505 33.9532 169.396 33.8937 169.317C34.1119 168.573 33.9929 167.691 34.0326 166.907C34.0326 166.917 34.0425 166.927 34.0524 166.937C34.1119 165.36 33.8441 163.793 33.9532 162.226C33.745 162.127 33.5466 162.018 33.3384 161.899H33.3284V161.978C33.1995 161.849 33.0607 161.75 32.902 161.691C32.902 161.661 32.912 161.631 32.912 161.611C28.5386 149.047 25.8411 136.393 22.6677 124.234C22.0727 120.387 21.3586 115.993 21.2991 111.679C21.6264 113.722 22.0925 115.964 22.6578 118.433C26.0097 131.077 30.5418 147.123 33.2987 159.578C35.3813 160.511 66.4611 170.13 83.8456 155.78C84.2026 142.868 86.5827 129.996 91.0156 117.798C92.3147 115.488 93.2469 113.266 93.8518 111.144C92.4039 116.935 89.8652 123.233 87.9512 129.342C85.7298 137.959 84.5398 146.815 84.391 155.701C84.6786 157.615 82.2985 158.617 81.0292 159.628C81.1283 160.511 80.5234 165.529 80.4837 166.124C88.9132 196.47 95.7063 227.688 97.2534 259.105C97.2732 259.671 97.3029 260.246 97.3327 260.811C95.7757 261.456 94.189 262.001 92.5824 262.477C97.5409 269.399 103.63 275.478 110.661 280.476C111.375 281.984 109.63 283.204 108.281 283.511V283.491ZM3.05189 272.533C2.65521 272.374 2.1098 272.811 2.38747 273.277C3.66676 274.655 5.93773 273.108 7.41536 272.711C9.10125 270.827 3.78575 272.186 3.05189 272.533ZM9.57729 270.817H9.55743C9.46818 270.867 9.36902 270.907 9.28969 270.986C9.25994 271.016 9.21033 271.065 9.18058 271.125C9.18058 271.125 9.1806 271.135 9.17069 271.135C9.15085 271.184 9.13102 271.244 9.11119 271.283C9.10127 271.333 9.09133 271.412 9.09133 271.472C9.09133 271.541 9.09134 271.601 9.13101 271.65C9.25001 272.067 9.89461 272.116 10.083 271.73C10.5987 271.422 10.1227 270.629 9.57729 270.827V270.817ZM50.2568 168.087C50.5642 169.257 49.5725 171.152 51.0203 171.707C54.3326 171.707 57.9821 171.469 61.2646 170.834C62.2166 171.181 63.0596 170.041 62.4546 169.287C61.9687 167.839 62.1175 166.243 61.9885 164.735C61.6117 162.316 53.7277 164.606 51.3873 164.091C49.4733 164.487 50.2865 166.748 50.2468 168.087H50.2568ZM55.5524 183.835C55.0566 180.126 54.9971 176.368 55.3838 172.629C48.6205 172.441 40.4786 173.889 34.6077 170.15C33.14 176.378 31.8508 182.645 30.76 188.943C26.813 211.662 25.2858 234.759 26.1386 257.786C28.8361 258.6 31.5434 259.056 34.3301 259.304C35.768 240.045 36.3829 218.763 38.2572 200.496C37.0275 220.102 35.7978 239.718 34.578 259.333C39.0406 259.304 54.2533 261.257 53.2715 255.743C55.1062 246.739 55.721 237.605 55.721 228.432C55.721 214.35 54.2731 200.169 53.5492 186.225C51.4369 185.739 43.6322 186.315 46.042 182.873C48.4816 183.578 52.4187 183.786 55.5723 183.835H55.5524ZM73.6708 186.711C78.8871 210.314 82.0109 237.209 84.2125 262.16C88.576 261.723 92.8502 260.682 96.9162 259.095C94.2485 227.887 88.4272 196.946 79.6507 166.788C73.8989 171.786 64.8546 171.429 57.5358 172.51C57.397 176.388 56.9011 176.259 57.2879 172.52C56.7325 172.56 56.1673 172.599 55.602 172.629C55.2351 176.368 55.3541 180.117 55.9193 183.845C56.5838 183.845 57.1986 183.855 57.754 183.855C57.3672 181.862 56.8615 179.611 57.3573 177.637C57.5953 179.403 57.516 181.921 58.2498 183.855C59.5886 183.855 60.4712 183.845 60.4812 183.885C62.9902 183.518 65.4694 182.923 67.8396 182.021C67.9189 181.396 70.0412 181.108 70.0412 181.108C70.7353 184.807 63.2678 184.966 60.6002 185.839C62.6431 209.441 62.4249 233.47 65.6777 256.854C68.7222 263.042 77.9549 262.606 83.8654 262.17C82.001 236.862 77.8359 211.643 73.6608 186.701L73.6708 186.711ZM101.161 274.893H101.151C101.161 274.794 101.111 274.705 101.052 274.645H101.042C101.012 274.477 100.853 274.358 100.685 274.318C97.779 275.022 100.169 277.194 101.161 274.893ZM108.36 280.03C107.279 277.967 104.522 276.549 102.321 275.776C96.9955 276.41 107.597 282.638 108.36 280.03Z" fill="black"/>
<path d="M94.7441 108.04C94.6152 108.367 94.4962 108.675 94.3474 109.012C94.4962 108.685 94.6251 108.357 94.7441 108.04Z" fill="black"/>
<path d="M60.1738 169.019C60.1143 168.633 60.0548 168.246 60.0251 167.859C56.1277 168.514 56.0087 166.639 59.9457 166.828C59.9358 166.481 59.9061 166.124 59.8962 165.777C57.3673 166.015 54.8186 166.034 52.2898 166.144C52.3394 167.334 52.4386 168.514 52.4187 169.694C54.9972 169.426 57.6053 169.347 60.1738 169.029V169.019Z" fill="black"/>
<path d="M93.8915 98.2122C93.8915 98.2122 93.4849 98.9461 93.6337 99.1841C95.6468 102.358 95.27 106.215 94.1097 109.607C92.9098 113.137 91.1545 116.459 90.4206 120.129C90.4107 120.198 90.3115 120.635 90.4206 120.654C90.5297 120.674 90.6288 120.208 90.6288 120.168C91.452 116.083 93.6734 112.413 94.7146 108.387C95.5873 105.035 95.8154 101.267 93.8816 98.2122H93.8915Z" fill="#1D1D1B"/>
<path d="M51.4767 158.339C51.318 158.993 50.8618 159.767 50.0585 159.757C49.4833 159.747 49.1362 159.231 49.0767 158.726C49.0371 158.279 49.1164 157.794 49.2949 157.387C49.3544 157.258 49.4238 157.139 49.523 157.03C49.5627 156.96 49.5825 156.881 49.6321 156.822C49.8602 156.514 50.2172 156.336 50.604 156.415C50.9511 156.484 51.2585 156.732 51.4172 157.03C51.6353 157.436 51.5758 157.922 51.4767 158.339ZM51.2188 158.24C51.2188 158.24 51.2386 158.21 51.2486 158.2C51.2188 158.101 51.1692 157.992 51.1097 157.903C50.961 157.675 50.723 157.506 50.4453 157.436C50.2271 157.387 50.0089 157.427 49.8205 157.526C49.8205 157.536 49.8205 157.556 49.8205 157.565C49.8106 157.595 49.761 157.764 49.7114 157.784C49.6817 157.794 49.6618 157.823 49.6321 157.833C49.6123 157.942 49.5825 158.051 49.5627 158.151C49.5627 158.18 49.5329 158.22 49.523 158.25C49.6817 158.537 49.9594 158.736 50.3164 158.736C50.5643 158.736 50.7924 158.636 50.9808 158.498C51.08 158.418 51.1692 158.339 51.2386 158.24H51.2188Z" fill="#1D1D1B"/>
<path d="M76.497 140.469C76.4771 140.24 76.3284 140.588 76.3085 140.617C76.2193 140.826 76.1896 141.093 76.1995 141.321C76.7945 148.977 74.2359 156.643 69.2477 162.613C69.1088 162.772 69.0692 163.02 69.0394 163.218C69.0394 163.258 69.0295 163.684 69.0989 163.595C74.4938 157.139 77.1317 148.71 76.4871 140.459L76.497 140.469Z" fill="#1D1D1B"/>
<path d="M80.3251 145.645C80.1962 145.794 80.1764 146.171 80.1764 146.359C80.0574 152.478 77.7368 158.418 73.7799 163.188C73.651 163.347 73.6014 163.595 73.5717 163.793C73.5717 163.833 73.5617 164.259 73.6312 164.17C77.9748 158.934 80.345 152.349 80.4739 145.665C80.4739 145.437 80.4144 145.536 80.3251 145.635V145.645Z" fill="#1D1D1B"/>
<path d="M38.7233 160.917C36.0358 158.488 34.4391 155.017 34.4193 151.456C34.4193 151.248 34.3499 151.298 34.2705 151.427C34.1515 151.605 34.1218 151.933 34.1218 152.141C34.1416 155.83 35.7184 159.39 38.515 161.929C38.5745 161.978 38.7233 161.483 38.7233 161.443C38.753 161.314 38.8323 161.016 38.7233 160.917Z" fill="#1D1D1B"/>
<path d="M41.0638 161.711C39.2985 159.886 38.1383 157.565 37.7812 155.086C37.7515 154.868 37.6127 155.195 37.5928 155.235C37.5135 155.443 37.454 155.711 37.4837 155.939C37.8506 158.458 39.001 160.818 40.796 162.673C40.8952 162.772 40.9844 162.395 41.0043 162.345C41.034 162.226 41.1629 161.82 41.0538 161.711H41.0638Z" fill="#1D1D1B"/>
<path d="M48.4618 163.079C47.2023 160.64 46.6668 157.813 47.1528 155.116C47.1627 155.046 47.2718 154.61 47.1528 154.59C47.0437 154.57 46.9445 155.036 46.9445 155.076C46.3991 158.131 46.7759 161.254 48.2139 164.051C48.2734 164.17 48.4122 163.744 48.4221 163.724C48.4717 163.555 48.561 163.258 48.4717 163.089L48.4618 163.079Z" fill="#1D1D1B"/>
<path d="M76.4277 53.6353C76.3781 56.4418 75.5351 59.2186 73.8691 61.5789C73.7203 62.4714 73.155 63.1854 72.3022 63.5623C71.6179 63.8697 70.8245 63.8994 70.1403 63.5821C70.2493 64.1573 70.3684 64.7324 70.4874 65.3076C70.4675 65.2581 70.4279 65.2085 70.408 65.1589C69.8626 64.0879 69.0196 63.0069 67.8197 62.5805C67.7503 62.5408 67.6808 62.5309 67.6015 62.5011C67.6015 62.4119 67.6114 62.3325 67.6214 62.2433C67.2247 62.0251 66.8181 61.8367 66.3817 61.6979C66.3322 61.678 66.3222 61.5888 66.3123 61.5392C66.2925 61.4202 66.3024 61.2913 66.3123 61.1723C66.3123 61.1227 66.3619 60.6367 66.4611 60.6665C66.8974 60.8053 67.304 60.9937 67.7106 61.2119C67.7404 60.8053 67.7701 60.3987 67.7899 59.9921C67.4726 59.7839 67.1057 59.645 66.7189 59.6153C66.6693 59.6153 66.6594 59.4963 66.6495 59.4566C66.6297 59.3376 66.6396 59.2087 66.6495 59.0897C66.6495 58.9707 66.6693 58.8418 66.709 58.7228C66.709 58.7029 66.7487 58.574 66.7982 58.574C67.1751 58.5938 67.5321 58.7426 67.8395 58.9409C67.8891 57.2352 67.8792 55.5196 67.78 53.8238C67.78 53.7841 67.8098 53.3577 67.8693 53.2387C67.899 53.199 67.9189 53.199 67.9387 53.2684L68.7717 55.2121C68.8511 55.7675 68.9304 56.303 69.0197 56.8584C69.2973 58.7128 69.6048 60.5673 69.9419 62.402C70.6163 62.8383 71.4791 62.8681 72.2228 62.5904C72.4708 62.5011 72.7088 62.3524 72.927 62.1838C72.927 62.1342 72.927 62.0945 72.927 62.0449C72.927 61.9854 72.9269 61.9359 72.9468 61.8764C72.9468 61.8367 72.9567 61.797 72.9765 61.7474C73.1154 61.4499 73.2542 61.1524 73.4129 60.8549C73.4129 60.8252 73.4327 60.8053 73.4625 60.7954C73.4724 60.7954 73.4823 60.7954 73.4922 60.8053C73.522 60.8351 73.5319 60.8847 73.5418 60.9243C73.5418 60.9442 73.5418 60.964 73.5616 60.9937C75.5649 58.336 76.5764 55.0634 76.15 51.88C75.9219 50.2636 75.4062 48.4289 74.3153 47.11C73.8195 46.5249 73.1055 45.9894 72.2427 45.9894C71.9253 45.9894 71.3501 46.1183 70.9336 46.3662C70.9138 46.3959 70.9039 46.4059 70.894 46.386C70.6262 46.5546 70.4279 46.7728 70.4279 47.0306C70.4279 47.0703 70.4378 47.5166 70.3188 47.5166C70.2395 47.5166 70.2295 47.348 70.2196 47.2091C69.3469 49.1132 68.4643 51.0173 67.5916 52.9312C67.5817 52.961 67.552 52.9907 67.5321 52.9907C67.5123 52.9907 67.4924 52.9808 67.4825 52.9312C67.3338 52.4552 67.1652 51.9792 66.9966 51.5032C66.9966 51.5329 66.9966 51.5627 66.9867 51.5924C66.9668 51.6519 66.8974 51.9693 66.828 51.771L66.7982 51.6718C66.7982 51.8007 66.6396 52.5941 66.5801 52.1478C66.4511 51.2652 66.2627 50.4024 66.0148 49.5595C65.8661 49.1529 65.7173 48.7364 65.5586 48.3298L63.5752 44.482C63.1488 44.0258 62.6629 43.6192 62.1571 43.2622C61.3042 42.8258 60.4514 42.3895 59.5985 41.9531C59.4795 41.8936 59.4993 41.5069 59.5589 41.2292C59.4101 41.1697 59.2713 41.1102 59.1225 41.0507C58.9737 41.0011 59.0233 40.5747 59.0928 40.2871C58.8151 40.2276 58.5374 40.1681 58.2597 40.1086C58.1606 40.0887 58.1506 39.8111 58.1804 39.5433C57.7341 39.5235 57.2879 39.5235 56.8416 39.5532C56.7226 39.5532 56.7127 38.5318 56.911 38.5219C57.9721 38.4425 59.0233 38.5218 60.0448 38.74C59.6679 38.6409 59.301 38.5417 58.9241 38.4425C58.825 38.4128 58.8151 38.1252 58.8448 37.8574C58.5473 37.8177 58.2498 37.788 57.9424 37.7682L56.6433 37.9268C56.6433 37.9268 56.5837 37.8376 56.5738 37.7087C55.7904 37.7087 54.997 37.7384 54.2136 37.8376C54.1144 37.8475 54.0748 36.836 54.283 36.8062C54.9375 36.717 55.602 36.6872 56.2565 36.6773C56.2862 36.5484 56.3259 36.4393 56.3854 36.4294C56.7523 36.3699 57.1193 36.3104 57.4961 36.2509C57.2383 36.0724 56.9804 35.8839 56.7623 35.6459C56.7523 35.636 56.7424 35.6063 56.7325 35.5765C55.7011 35.5864 54.6698 35.636 53.6384 35.7649C53.5392 35.7748 53.4996 34.7633 53.7078 34.7336C54.2434 34.6641 54.7789 34.6344 55.3243 34.5947C55.3243 34.4063 55.354 34.2377 55.4334 34.1881C55.473 34.1584 55.5226 34.1485 55.5722 34.1187C54.4119 34.2873 53.2516 34.5352 52.1211 34.8823C52.1013 34.8823 52.0814 34.7534 52.0616 34.5749C51.8434 34.6641 51.6352 34.7534 51.417 34.8427C51.3278 34.8823 51.3773 33.9799 51.4269 33.8807C51.655 33.4444 51.9327 33.0378 52.2302 32.6609C51.3377 33.0576 50.4848 33.5534 49.7311 34.1881C49.7212 34.198 49.6914 34.0791 49.6617 33.9204C48.908 34.3468 48.1642 34.803 47.4403 35.279C47.3709 35.3187 47.2618 34.4261 47.4502 34.2774C47.5097 34.2377 47.5692 34.1881 47.6188 34.1485L47.589 34.1683C47.5097 34.2179 47.4205 33.3154 47.599 33.1667C48.6303 32.3138 49.6617 31.461 50.6931 30.618C50.6633 30.618 50.6435 30.5982 50.6137 30.5982C50.5542 30.618 50.4947 30.6478 50.4352 30.6676C48.6898 31.6196 46.9544 32.5717 45.209 33.5237C45.1098 33.5733 45.09 32.9584 45.1594 32.6708C44.5545 33.1964 43.9594 33.732 43.3545 34.2576C43.3148 34.2873 43.1958 33.4444 43.3644 33.2559C44.4156 32.1353 45.566 31.1238 46.8056 30.2213C46.8849 30.1519 46.9742 30.0726 47.0535 30.0032C47.0238 30.0032 46.9841 30.0032 46.9544 29.9932C46.8949 29.9932 46.875 29.8643 46.8651 29.7057C46.5378 29.8148 46.2106 29.9437 45.8833 30.0627C44.8619 30.7866 43.9099 31.6097 43.0768 32.532C42.4025 33.4444 41.7281 34.3468 41.0538 35.2493C40.9843 35.3385 40.9447 34.922 40.9447 34.8823C40.9447 34.6741 40.9546 34.4361 41.0637 34.2476C41.6389 33.2658 42.3231 32.3634 43.0867 31.5205C43.4338 31.0544 43.771 30.5982 44.1181 30.1321C44.1181 29.9635 44.1578 29.8147 44.247 29.7652C44.3164 29.7255 44.3958 29.6957 44.4652 29.666L45.6651 28.0495C43.4437 29.7354 41.7182 31.9766 40.7265 34.5451C40.6571 34.7137 40.6174 34.5055 40.5976 34.4559C40.5282 34.2972 40.5976 33.9898 40.6273 33.8311C40.6967 33.4741 40.7761 33.127 40.8753 32.7799C40.6075 33.1468 40.3397 33.5039 40.072 33.8708C40.0026 33.96 39.9629 33.5931 39.9629 33.5634C39.953 33.3551 39.9728 33.1171 40.0521 32.9188C40.3397 32.1452 40.6967 31.4015 41.0736 30.6577C40.6571 31.1436 40.2306 31.6296 39.8141 32.1155C39.7943 32.1452 39.7745 32.1155 39.7546 32.0857C39.3679 32.7998 38.991 33.5237 38.6043 34.2377C38.4952 34.4361 38.4753 33.5634 38.5249 33.4146C39.0208 31.9469 39.5166 30.4792 40.0125 29.0115C39.0902 30.7866 38.158 32.5618 37.2357 34.3369C37.1663 34.4658 37.1365 34.1385 37.1365 33.8609C37.0969 33.6526 37.0572 33.4344 37.0275 33.2163C37.0175 33.2956 36.9878 33.3749 36.9779 33.4543C36.9779 33.4642 36.9085 33.7716 36.839 33.6824C36.7299 33.5435 36.6308 33.4047 36.5415 33.2659C36.5713 33.5039 36.6109 33.7419 36.6407 33.9799C36.6704 34.1782 36.6704 34.4162 36.6109 34.6046C36.6109 34.5947 36.5217 34.9517 36.4721 34.8327C36.2837 34.3964 36.0953 33.97 35.9068 33.5336C35.9068 33.6427 35.9267 33.7617 35.9267 33.8708C35.9267 33.9204 35.8275 34.6046 35.7482 34.4956C34.9548 33.4047 34.4391 32.1948 34.1912 30.9155C33.7747 30.5486 33.2987 30.2511 32.783 30.0329C32.783 30.0527 32.7929 30.0726 32.8028 30.0924C33.6656 30.618 34.2904 31.4213 34.4887 32.4328C34.8656 33.008 35.173 33.6129 35.411 34.2675C35.411 34.2873 35.4308 34.3071 35.4308 34.3171C35.4804 34.446 35.3713 35.3484 35.2821 35.2592C35.054 35.0311 34.8655 34.7732 34.6573 34.5253C34.6275 34.5253 34.6077 34.5055 34.5978 34.4559C34.5581 34.4063 34.5185 34.3567 34.4788 34.3071C34.5383 34.684 34.568 35.0608 34.5482 35.4476C34.5482 35.4476 34.4887 36.0029 34.3995 35.9534C33.8441 35.6558 33.3383 35.2988 32.8722 34.9022C32.8722 35.041 32.8722 35.1798 32.8623 35.2988C32.8623 35.2988 32.8623 35.2988 32.8623 35.3088C32.8623 35.5765 32.8127 36.241 32.7036 36.1517C32.6541 36.112 32.6144 36.0525 32.5648 36.0129C32.5351 36.1418 32.4756 36.3798 32.4161 36.2905C32.2871 36.112 32.1384 35.9534 31.9896 35.7947C32.0491 36.0724 31.9896 36.707 31.8607 36.6971C31.6624 36.6872 31.4839 36.6376 31.3054 36.588C31.3252 36.6079 31.345 36.6277 31.3649 36.6575C31.464 36.8062 31.4739 37.5996 31.2657 37.669C31.0475 37.7483 30.8194 37.7781 30.5913 37.7979C30.5616 37.9169 30.5219 38.0458 30.4624 37.9863C30.4624 37.9863 30.4525 37.9863 30.4426 37.9665C30.4227 38.0954 30.393 38.2045 30.3533 38.2343C30.1451 38.383 29.9269 38.4921 29.6988 38.5814C29.7285 38.8888 29.6592 39.3846 29.5401 39.3846C29.2426 39.3648 28.955 39.3846 28.6674 39.4144C28.6674 39.5036 28.6674 39.6028 28.6674 39.7119C28.7369 39.6722 28.8162 39.6226 28.8856 39.583C29.0145 39.5136 28.9749 40.4061 28.9054 40.535C28.9054 40.5548 28.8856 40.5648 28.8757 40.5747C28.4989 41.1994 27.9038 41.6358 27.2195 41.8341C27.16 41.8837 27.1005 41.9333 27.041 41.973C26.9815 42.0821 26.922 42.1812 26.8526 42.2903C26.803 42.4589 26.7634 42.6275 26.7237 42.7961C26.8526 42.6572 26.9716 42.5184 27.1005 42.3895C27.1799 42.3002 27.2096 42.7167 27.2096 42.7564C27.2096 42.9547 27.2097 43.2126 27.0907 43.3911C27.0311 43.4803 26.9716 43.5696 26.922 43.6589C26.932 43.7382 26.9419 43.8175 26.9419 43.8374C26.9419 43.8473 26.9419 43.8671 26.9419 43.877C27.16 43.639 27.3881 43.401 27.6063 43.163C27.6857 43.0738 27.7154 43.4903 27.7154 43.5299C27.7154 43.7184 27.7154 43.996 27.5964 44.1646C27.3286 44.5117 27.0609 44.8687 26.803 45.2158C26.8427 45.3051 26.8625 45.5233 26.8625 45.553C26.8625 45.7513 26.8626 46.0092 26.7435 46.1877C26.6245 46.3761 26.5154 46.5745 26.4163 46.7629C26.4361 47.0406 26.4559 47.3182 26.4857 47.5959C26.5849 47.1794 26.7039 46.7629 26.8625 46.3662C26.9419 46.1579 26.9915 46.505 27.0014 46.5645C27.0311 46.7926 27.0014 47.0604 26.9121 47.2686C26.7634 47.6455 26.6642 48.0223 26.5849 48.3992C26.8625 50.2338 27.3683 52.0685 27.884 53.8139C29.0542 57.7906 30.2046 61.8069 29.7186 65.9423C29.9765 66.5968 30.2442 67.2415 30.512 67.8861C30.4327 69.5719 30.7004 71.2777 31.1764 72.8941C31.6921 74.6395 32.4656 76.375 33.7152 77.7535C33.9433 78.0014 34.1813 77.0196 34.1714 76.9105C34.1119 76.2163 34.0821 75.5221 34.0623 74.8279C34.092 74.58 34.1019 74.3321 34.1019 74.0842C34.2606 73.4297 34.3796 72.7652 34.4986 72.1008C34.5185 71.952 34.5086 71.8429 34.3995 71.8429C34.578 71.2182 34.806 70.6132 35.1531 70.0975C35.4903 69.5918 36.0556 69.1554 36.7101 69.1455C37.1068 69.9686 37.7514 70.6529 38.6142 71.0397C39.1695 71.2876 39.7744 71.3867 40.3893 71.3967C40.429 71.4264 40.4786 71.4463 40.5182 71.476C43.4933 70.8116 44.8817 67.5786 47.6287 66.4481C48.8386 65.9522 50.1179 66.0316 51.3674 66.3291C51.4368 66.2795 51.5162 66.2398 51.5955 66.1902C52.131 66.2993 52.6764 66.3688 53.2219 66.4283C53.8268 66.577 54.4417 66.7059 55.0565 66.7753C56.6234 67.7869 58.1506 68.8778 59.4497 70.1769C60.1439 71.0397 60.7985 71.9223 61.4629 72.7255C61.5224 72.795 61.6017 72.7255 61.691 72.6065C62.1075 73.1421 62.5339 73.6677 63 74.1536C63.0992 74.2627 63.2281 74.0643 63.2777 73.9949C63.3273 73.9057 63.3571 73.8164 63.4066 73.7272C63.486 73.8561 63.5653 73.985 63.6446 74.104C63.6546 74.104 63.6645 74.104 63.6744 74.0842C63.7934 74.2428 63.9422 74.3916 64.0612 74.5403C64.2 74.7189 64.676 73.8561 64.4975 73.6379C64.4678 73.6081 64.4479 73.5784 64.4182 73.5387C64.8644 73.1421 65.2314 72.6462 65.5289 72.1107C65.6578 72.2099 65.7966 72.3289 65.9255 72.438C66.7784 73.2412 67.304 74.342 67.6412 75.4031C67.9585 76.3948 68.1767 77.5055 68.1767 78.6162C67.9486 78.9534 67.7305 79.2906 67.5024 79.6278C66.5801 81.0459 65.628 82.4442 64.5768 83.7731C64.5372 83.1086 64.3884 82.4541 64.1603 81.8194C64.0909 81.6211 63.9223 81.8492 63.8727 81.9384C63.7835 82.107 63.6744 82.4045 63.7438 82.6029C63.9422 83.1483 64.0909 83.7433 64.1306 84.3284C63.3075 85.3102 62.4447 86.2622 61.4926 87.125C61.8298 86.0639 61.9984 84.9433 61.8794 83.8127C61.8596 83.6243 61.7505 83.5946 61.6315 83.7532C61.4927 83.9218 61.4034 84.2094 61.4331 84.4177C61.5521 85.5284 61.3439 86.5796 60.9472 87.601C60.6001 87.8985 60.2233 88.196 59.8465 88.4737C59.063 89.0489 58.2101 89.5547 57.3573 89.991C58.0812 88.5134 58.5473 86.9366 58.3688 85.3399C58.349 85.1614 58.2399 85.1515 58.1209 85.2904C57.982 85.449 57.8928 85.7565 57.9226 85.9548C58.1011 87.4622 57.5259 88.92 56.792 90.2687C54.6202 91.2802 52.2401 91.8951 49.8204 92.0934C49.86 91.9347 49.8898 91.7265 49.8005 91.6571C49.1659 91.191 48.5708 90.6654 48.1246 90.0406C47.7378 89.4852 47.4403 88.8109 47.589 88.1365C47.6089 88.0473 47.6585 87.72 47.47 87.7597C47.3015 87.7795 47.2023 88.196 47.1725 88.3051C46.8552 89.8522 47.7279 91.1513 48.9179 92.143C48.5609 92.1529 48.2039 92.1628 47.837 92.1628C47.6287 92.1628 47.4106 92.143 47.2023 92.1232C47.2023 92.0438 47.1626 91.9942 47.113 91.9645C44.6239 90.824 43.0074 88.5332 42.8587 85.9846C42.8587 85.7961 42.7297 85.7961 42.6107 85.925C42.462 86.1035 42.3925 86.3911 42.4124 86.5895C42.4917 87.9283 42.9479 89.2076 43.7016 90.2885H43.7115C44.0388 90.7645 44.4255 91.2108 44.8619 91.5976C44.0288 91.3 43.2553 90.8835 42.5215 90.4174C42.105 89.9811 41.6686 89.5547 41.2224 89.1183C40.2802 88.196 39.2786 87.2936 38.2968 86.3713C38.2968 86.3515 38.2968 86.3416 38.277 86.3316C38.1382 86.2226 38.0092 86.0837 37.8803 85.9746C37.8803 85.9746 37.8704 85.9746 37.8704 85.9548C36.0854 84.2887 34.5284 82.4739 33.2491 80.4509C32.3764 79.0724 31.6425 77.6245 31.0178 76.1271C30.9483 75.8196 30.8888 75.5221 30.8194 75.2147C30.7797 75.0263 30.75 74.8478 30.7103 74.6792C30.7103 74.6494 30.7103 74.6296 30.6905 74.5998C30.6112 74.2329 30.5418 73.8561 30.4624 73.4792C30.4624 73.4991 30.4822 73.509 30.4822 73.5288C30.1649 71.8429 29.8674 70.1471 29.5996 68.4513C29.6294 68.5802 29.6591 68.7092 29.6889 68.8381C29.7286 68.6397 29.798 68.3819 29.8376 68.4315C29.8376 68.3819 29.8376 68.3323 29.8376 68.2827C29.8277 68.2331 29.8079 68.1736 29.798 68.1241C29.7583 67.9555 29.7583 67.7571 29.7881 67.5786C29.7187 67.3704 29.6591 67.1621 29.5996 66.9539C29.5302 67.1919 29.4806 66.8349 29.4707 66.5473C29.4707 66.5473 29.4707 66.5473 29.4707 66.5373C29.4509 66.7754 29.4509 67.0233 29.441 67.2613C29.3914 66.9043 29.3319 66.5373 29.2823 66.1803C29.2823 66.1506 29.2823 66.1208 29.2823 66.0911C29.2724 66.0613 29.2625 66.0415 29.2525 66.0117C29.203 65.6547 29.1534 65.3076 29.1038 64.9506C29.1038 64.9407 29.1038 64.9209 29.1038 64.911C29.1236 64.8515 29.193 64.5341 29.2624 64.7324C29.3219 64.8911 29.3914 65.0399 29.4509 65.1985C29.4707 65.1787 29.4905 65.1985 29.5104 65.258C29.5302 65.3374 29.56 65.4167 29.5798 65.4961C30.1054 60.8053 27.9832 56.184 26.9121 51.6916C26.7435 50.9875 26.6047 50.2735 26.4857 49.5495C26.4758 50.3727 26.6146 51.1958 26.9022 52.009C26.9617 52.1875 26.7832 52.9907 26.7534 52.9511C26.4659 52.485 26.2179 51.999 25.9998 51.5032C25.97 51.6024 25.9204 51.6916 25.8709 51.5627C25.8312 51.4437 25.8014 51.3247 25.7617 51.2156C25.7617 51.3743 25.7419 51.5329 25.7022 51.6718C25.6427 51.8404 25.5832 51.8404 25.5436 51.6718C25.4345 51.0668 25.3849 50.4421 25.4048 49.8272C25.4048 49.7776 25.3849 49.738 25.375 49.6884C25.3552 49.5991 25.3254 49.5099 25.3056 49.4107C25.3056 49.4107 25.2957 49.3909 25.2858 49.381C25.2858 49.4801 25.2858 49.5694 25.2858 49.6685C25.2957 49.8272 25.3155 50.2338 25.1965 50.3727C25.0676 50.5115 25.0676 50.2834 25.0577 50.1743C25.0378 49.8074 25.0378 49.4405 25.0477 49.0735C24.8494 48.8157 24.6709 48.5479 24.5023 48.2702C24.4428 48.3496 24.3833 48.4289 24.3238 48.4983C24.2841 48.5479 24.2444 48.4587 24.2444 48.4388C24.175 48.1116 24.1255 47.7843 24.0858 47.4471C23.8775 46.991 23.709 46.5149 23.59 46.029C23.3222 46.4753 23.0445 46.9116 22.7371 47.3281C22.6776 47.4075 22.6379 47.1992 22.6379 47.1893C22.3701 44.353 22.7172 41.487 23.6891 38.8194C23.6197 38.6607 23.6891 38.2938 23.7189 38.1649C23.9271 37.2624 24.1552 36.3104 24.4428 35.3881C23.6891 36.0823 23.1437 36.9748 22.9453 37.9665C22.9255 38.0756 22.8858 38.3037 22.7867 38.145C22.6776 37.9764 22.7569 37.6194 22.7867 37.4409C23.0445 36.0823 23.818 34.8526 24.9287 34.0195C25.5733 32.4824 26.5055 31.104 28.0228 30.2015C28.479 29.9338 28.9649 29.7255 29.4608 29.6065C29.4608 29.3883 29.4707 29.1701 29.5699 29.1106C29.8377 28.9321 30.1153 28.7834 30.4128 28.6644C30.2244 28.6842 30.036 28.7239 29.8476 28.7735C29.1633 29.0313 28.4989 29.3486 27.884 29.7453C27.8741 29.7453 27.8542 29.7255 27.8443 29.6759C27.1105 30.2114 26.5154 30.9354 26.1683 31.7783C26.089 31.9766 26.0394 31.6395 26.0295 31.58C26.0097 31.3519 26.0295 31.094 26.1188 30.8759C26.684 29.4676 27.9237 28.3768 29.3815 27.8809C29.4013 27.7917 29.4211 27.7024 29.4608 27.6429C29.5005 27.5933 29.5501 27.5437 29.5897 27.4942C29.5897 27.3355 29.6096 27.1669 29.679 27.0479C31.1963 24.4695 34.4986 23.2596 37.4241 23.8348C40.0521 21.1473 43.7908 19.4912 47.6882 19.5903C47.6882 19.5903 47.6882 19.5903 47.6981 19.5903C50.6732 18.8565 53.8467 19.0449 56.7127 20.1358C58.23 20.2349 59.6977 20.6019 61.0761 21.177C61.7406 21.2366 62.3951 21.3357 63.0496 21.4944C66.5503 22.3373 69.6047 24.4794 71.4196 27.4942C73.0856 30.2511 73.6311 33.4741 73.1947 36.6079C73.1749 37.3616 73.0856 38.1252 72.927 38.8689C72.917 38.9284 72.9071 38.9582 72.8972 38.9879C72.9368 39.3747 72.9765 39.7516 72.9964 40.1482C72.9964 40.178 72.9964 40.2177 72.9964 40.2573C73.1352 41.8341 73.0658 43.4209 72.7881 44.9977C72.9269 45.0274 73.0658 45.0671 73.1947 45.1266C74.6525 45.8108 75.3467 47.5364 75.783 48.8851C76.2789 50.3826 76.4971 51.9495 76.4673 53.5163L76.4277 53.6353ZM45.8139 81.9582C45.6552 82.1665 45.4866 82.3648 45.2883 82.5533C45.2585 82.6921 45.209 82.8309 45.1891 82.9797C44.9908 84.0606 44.971 85.1614 45.199 86.2523C45.2486 86.4606 45.447 86.2126 45.4866 86.1333C45.5858 85.9449 45.6652 85.687 45.6156 85.4788C45.3974 84.4871 45.447 83.4557 45.6751 82.464C45.7048 82.2954 45.7742 82.1268 45.8139 81.9682V81.9582ZM46.8849 80.7484C46.8849 80.7484 46.8155 80.7385 46.7758 80.7286C46.7461 80.8277 46.7263 80.9368 46.6866 81.036C46.6866 81.0756 46.6569 81.1351 46.637 81.1748C46.5379 81.4327 46.4189 81.6806 46.2701 81.9285C46.1313 83.3367 46.4486 84.7648 46.756 86.1432C46.8056 86.3515 47.004 86.1036 47.0436 86.0242C47.1428 85.8358 47.2221 85.578 47.1725 85.3598C46.8453 83.8921 46.3891 82.2458 46.875 80.7484H46.8849ZM49.3344 84.8639C48.4518 83.5946 47.8171 82.0475 48.0056 80.5104C47.9659 80.4112 47.9163 80.3021 47.8766 80.203C47.8568 80.4509 47.8271 80.6988 47.8072 80.9368C47.8072 81.036 47.6585 81.7103 47.599 81.2938C47.5891 81.2145 47.5791 81.1351 47.5593 81.0558C47.4403 82.7318 47.9957 84.3483 48.9675 85.7664C49.0766 85.9151 49.265 85.5383 49.2848 85.4788C49.3443 85.3201 49.4435 85.0325 49.3344 84.8738V84.8639ZM51.417 85.0028C51.3079 84.1003 51.1195 83.1384 50.7228 82.2756C50.6236 82.0574 50.5046 81.8492 50.3757 81.6508C50.1774 81.6112 49.989 81.5715 49.8005 81.5021C49.4733 81.4426 49.1559 81.3632 48.8287 81.2641C50.2666 82.2558 50.8022 84.0408 50.9509 85.6077C50.9707 85.7961 51.0897 85.816 51.2087 85.6672C51.3476 85.4986 51.4269 85.211 51.4071 85.0028H51.417ZM47.9361 71.8132C48.2932 72.2495 48.7592 72.5768 49.4138 72.6958C49.6022 72.7355 49.8005 72.7454 49.989 72.7454C49.9493 72.6958 49.9295 72.6065 49.9295 72.4974C49.8105 72.557 49.6815 72.6065 49.5625 72.6561C49.1361 72.2594 48.6601 71.9223 48.1345 71.6644C48.0849 71.6347 48.0056 71.714 47.9461 71.8231L47.9361 71.8132ZM45.3775 71.0297C45.4569 71.8033 45.7941 72.4677 46.3197 72.9735C46.7759 72.9338 47.2221 72.8346 47.6585 72.6561C46.6073 72.2099 45.9726 71.3669 45.8536 70.2463C45.8337 70.0182 45.6057 70.2661 45.5561 70.3455C45.4272 70.5438 45.3478 70.8016 45.3775 71.0297ZM44.485 72.7355C44.0784 72.5966 43.7016 72.4181 43.3346 72.1999C44.1974 72.795 45.2585 73.0627 46.3097 72.9735C45.318 72.5173 44.5247 71.7537 44.5644 70.6033C44.5644 70.5537 44.5644 70.4446 44.4949 70.4149C44.4255 70.395 44.3561 70.4843 44.3263 70.5141C44.1776 70.7025 44.0784 70.9702 44.0784 71.2082C44.0586 71.7735 44.2173 72.2793 44.4949 72.7355H44.485ZM35.649 76.3353C35.768 76.5237 35.9168 76.6824 36.0754 76.8411C36.0655 76.8907 36.0457 76.9403 36.0358 76.9799C36.0358 77.0394 36.0358 77.1088 36.0358 77.1683C36.0358 77.1683 36.0358 77.1882 36.0358 77.1981C36.0159 77.7237 36.0953 78.2493 36.2837 78.7253C36.2837 78.7253 36.2837 78.7352 36.2837 78.7452C36.3531 78.9534 36.4622 79.1517 36.5911 79.3303C36.7597 79.6178 36.958 79.8955 37.196 80.1434C37.7613 80.7385 38.4952 81.2145 39.3084 81.4128C39.3084 81.4525 39.3084 81.4822 39.3084 81.512C40.2802 81.4723 41.262 81.393 42.1545 81.0062C42.7793 80.7385 43.5231 80.2129 43.8503 79.5484C42.7496 79.3104 41.7182 78.7947 40.8951 78.041C40.7067 77.8625 40.9744 77.0097 41.024 77.0493C42.4818 78.3981 44.6338 78.9832 46.5973 78.5071C47.1031 78.3881 47.5791 78.1997 48.0155 77.9518C48.0452 77.8427 48.1147 77.7039 48.1543 77.8625C49.3245 77.1783 50.2567 76.1172 50.7129 74.8577C50.7922 74.6494 50.8418 74.9965 50.8517 75.056C50.8716 75.2841 50.8517 75.542 50.7625 75.7601C50.346 76.8907 49.5526 77.8625 48.5609 78.5766C49.1659 79.1914 50.2468 79.3302 51.1096 79.2608C52.25 79.1716 53.3409 78.7551 54.2533 78.0906C55.1855 77.4064 55.9193 76.4742 56.2862 75.3932C56.3953 75.056 56.4548 74.7188 56.4747 74.3817C56.4647 74.3222 56.4548 74.2527 56.4449 74.1932C56.4449 74.104 56.4548 74.0148 56.4648 73.9255C56.3953 73.7073 56.2962 73.4991 56.1871 73.3007C56.1871 73.2908 56.1871 73.271 56.1871 73.2611C55.959 73.3801 55.721 73.4792 55.4731 73.5685C54.1343 74.0346 52.6467 73.9949 51.3377 73.4891C50.6236 73.7272 49.8898 73.8462 49.1361 73.6577C48.8187 73.5784 48.551 73.4495 48.313 73.2908C46.2304 74.58 43.5429 74.0742 42.1248 72.1503C42.095 72.2099 42.0851 72.2495 42.0752 72.2793C42.0455 72.3685 42.0355 72.4479 42.0157 72.5173C42.0157 72.5173 41.9959 72.547 41.986 72.547C41.986 72.547 41.976 72.5569 41.9661 72.5669C41.3909 74.1932 39.8736 75.4329 37.9795 75.3238C37.8208 75.3238 37.8902 74.2825 38.0489 74.2924C38.8919 74.342 39.7745 74.0544 40.4984 73.5685C40.1811 73.7371 39.8538 73.8858 39.5166 74.0147C39.4075 74.0544 39.2885 74.0941 39.1695 74.1139C39.1398 74.1139 39.0604 74.1338 39.1001 74.1238C39.1001 74.1238 39.1001 74.1238 39.0902 74.1238C39.0902 74.0742 39.11 74.0247 39.11 73.9652C39.11 73.9255 39.1299 73.866 39.11 73.9354C39.11 73.9057 39.1199 73.8759 39.1299 73.8462C39.1497 73.7767 39.1596 73.7073 39.1794 73.6379C39.1794 73.6081 39.1993 73.5784 39.1993 73.5586C39.2191 73.4991 39.239 73.4396 39.2687 73.3801C39.2687 73.3701 39.2687 73.3801 39.2687 73.3701C39.2786 73.3503 39.2885 73.3206 39.2985 73.3007C39.3183 73.271 39.3282 73.2412 39.348 73.2015C39.3679 73.1619 39.3679 73.1619 39.348 73.2015C39.3877 73.142 39.4175 73.0826 39.4571 73.023C39.4571 73.023 39.4571 73.0131 39.467 73.0032C39.4869 72.9735 39.5067 72.9437 39.5365 72.9239C39.6158 72.8247 39.6951 72.7454 39.7844 72.666C39.9629 72.5173 40.0621 72.2396 40.0918 72.0214C40.1017 71.9223 40.0918 71.6148 39.9232 71.7636C39.229 72.3685 38.872 73.2016 38.6836 74.0742C38.1282 74.0346 37.7315 74.3321 37.444 74.7684C37.4142 74.6891 37.3845 74.6197 37.3746 74.5304C37.3646 74.4709 37.3646 74.4213 37.3547 74.3718C37.3547 74.3321 37.3547 74.2924 37.3547 74.2528C37.3547 74.1833 37.3547 74.2528 37.3547 74.2131C37.3547 74.1734 37.3547 74.1437 37.3646 74.1139C37.3646 74.1139 37.3646 74.0742 37.3746 74.0544C37.3746 74.0346 37.3944 73.985 37.3944 73.9949C37.3944 73.9949 37.4142 73.9354 37.4142 73.9255C37.4142 73.9057 37.4341 73.8858 37.4341 73.8858C37.4341 73.8858 37.4539 73.8362 37.4638 73.8164C37.4737 73.7966 37.4836 73.7668 37.4836 73.7668C37.5035 73.7371 37.5134 73.6974 37.5332 73.6676C37.5332 73.6676 37.5332 73.6677 37.5431 73.6478C37.563 73.6181 37.5828 73.5883 37.6026 73.5586C37.6225 73.5288 37.6423 73.4991 37.6621 73.4693C37.6324 73.5189 37.6721 73.4495 37.682 73.4396C37.7613 73.3404 37.8605 73.2115 37.9398 73.142C38.1084 72.9735 38.2076 72.7255 38.2473 72.4974C38.2572 72.4082 38.2472 72.071 38.0787 72.2396C37.2456 73.0627 36.5217 74.6296 37.0275 75.7502C36.968 75.9486 36.9283 76.1271 36.8886 76.3056C36.6605 76.1469 36.4424 75.9684 36.2639 75.7601C36.006 75.4626 35.8077 75.1056 35.7581 74.7189C35.7581 74.6395 35.7482 74.5602 35.7581 74.4908C35.7581 74.4709 35.7779 74.3718 35.768 74.3916C35.768 74.4114 35.768 74.3718 35.7779 74.3519C35.8275 74.2131 35.9763 74.0048 36.1052 73.8561C36.2639 73.6776 36.3531 73.3999 36.3531 73.1619C36.3531 72.9635 36.244 72.9338 36.1151 73.0825C35.3316 73.9751 34.9449 75.294 35.6093 76.3552L35.649 76.3353ZM22.7966 43.9266C22.7371 44.72 22.7272 45.5232 22.7966 46.3265C22.8759 46.2075 22.9552 46.0984 23.0346 45.9794C22.8957 45.3051 22.8164 44.6208 22.8065 43.9266H22.7966ZM23.2924 44.0357C23.2924 44.0357 23.2329 44.115 23.1933 44.1448C23.0941 44.244 23.0842 43.6588 23.0842 43.639C23.2032 42.3895 23.4114 41.1499 23.6891 39.9201C23.0147 41.6854 22.8263 43.6093 23.2825 45.4836C23.2825 45.5133 23.2825 45.553 23.2924 45.5828C23.3321 45.5232 23.3718 45.4538 23.4114 45.3943C23.342 44.9481 23.3023 44.482 23.2924 44.0258V44.0357ZM24.8593 45.9199C24.7998 45.9794 24.7403 46.0488 24.6907 46.1084C24.6709 46.1282 24.6411 45.91 24.6312 45.672L24.1751 46.3563C24.1751 46.4455 24.175 46.5249 24.185 46.6042C24.2345 46.7331 24.2841 46.8521 24.3536 46.981C24.3734 46.862 24.3932 46.743 24.4527 46.6439C24.5916 46.4257 24.7205 46.2174 24.8593 45.9993C24.8593 45.9695 24.8593 45.9398 24.8593 45.9199ZM26.1585 47.3777C25.8808 48.0322 25.7023 48.7066 25.6427 49.4107C25.8014 49.9462 25.9899 50.4817 26.2477 50.9974C26.1584 50.2041 26.1783 49.4107 26.2873 48.6173C26.2378 48.2108 26.1882 47.7942 26.1585 47.3777ZM26.1188 46.1877L25.6924 46.743C25.5535 47.1298 25.4444 47.5265 25.3651 47.9232C25.3849 48.1413 25.4048 48.3595 25.4444 48.5777C25.4543 48.5876 25.4643 48.6074 25.4742 48.6173C25.5932 47.8736 25.8113 47.1397 26.1188 46.4455C26.1188 46.3563 26.1188 46.267 26.1188 46.1877ZM25.4246 40.7333C25.1568 41.2193 24.8891 41.6953 24.6114 42.1812C24.542 42.3201 24.4626 42.449 24.3833 42.5878C24.2345 42.8556 24.0858 43.1134 23.937 43.3713C23.8974 43.4407 23.8676 43.4308 23.8478 43.3812C23.7684 43.4803 23.6792 43.5795 23.59 43.6787C23.59 44.0952 23.6098 44.5216 23.6792 44.9381C23.8478 44.6406 24.0164 44.3431 24.1651 44.0357C24.3238 43.2225 24.5816 42.4292 24.9287 41.6655C25.018 41.487 25.0477 41.7647 25.0676 41.9135C25.1965 41.5267 25.3155 41.1399 25.4147 40.7433L25.4246 40.7333ZM25.3155 34.8327C25.3155 34.8327 25.3651 34.8129 25.3849 34.803C25.3849 34.803 25.3849 34.7831 25.3948 34.7732C25.2362 34.8625 25.0874 34.9617 24.9387 35.0608C24.5618 35.9831 24.2841 36.955 24.056 37.9169C24.2246 37.5202 24.4031 37.1335 24.6015 36.7566C24.78 36.2509 24.9684 35.755 25.1766 35.2691C25.1965 35.0608 25.2362 34.8724 25.3155 34.8327ZM25.4643 36.9649C25.7717 36.7467 26.1188 36.588 26.4857 36.4591C26.4559 36.36 26.4361 36.1715 26.4361 36.1418C26.4361 36.0327 26.446 35.9236 26.4659 35.8145C26.1089 36.1517 25.7617 36.5087 25.4543 36.8955C25.4543 36.9252 25.4543 36.945 25.4543 36.9748L25.4643 36.9649ZM27.1501 40.2871C27.0807 40.2276 27.0014 40.1879 26.922 40.1383C26.6741 40.3069 26.4361 40.4953 26.2278 40.7135L26.1088 41.011C26.1683 41.011 26.2378 41.0209 26.2973 41.0309C26.327 40.9515 26.3568 40.8722 26.3865 40.8028C26.446 40.6738 26.4857 40.773 26.5055 40.8722C26.7138 40.6738 26.9221 40.4854 27.1501 40.297V40.2871ZM29.1732 37.5599C29.0344 37.4806 28.8955 37.3913 28.7666 37.2822C28.5881 37.2525 28.3997 37.2227 28.2112 37.2128L27.6361 37.7483C27.7452 37.7781 27.8443 37.8078 27.9534 37.8277C28.36 37.7384 28.7567 37.6492 29.1633 37.5599H29.1732ZM28.7666 32.9386C28.1617 32.8593 27.5468 32.8692 26.9419 33.0179C26.9121 33.0179 26.8625 32.7403 26.8625 32.4626C26.8427 32.3634 26.8328 32.2543 26.8328 32.2345C26.8328 32.2146 26.8328 32.1948 26.8328 32.175C26.3667 32.6212 25.97 33.1072 25.6329 33.6526C25.7519 33.5931 25.8709 33.5336 25.9998 33.484C26.1386 33.2064 26.2774 32.9287 26.4262 32.651C26.5155 32.4923 26.5353 32.9882 26.5254 33.2857C26.5849 33.2658 26.6444 33.246 26.7039 33.2262C27.3386 33.0576 27.9931 33.0378 28.6377 33.1171L28.7468 32.9386H28.7666ZM28.6575 31.2527C28.2807 31.4213 27.9435 31.6395 27.6261 31.8973C27.9336 31.8676 28.2311 31.8576 28.5385 31.8775C28.5385 31.8081 28.5385 31.7386 28.5385 31.7287C28.5385 31.6296 28.5484 31.332 28.6575 31.2428V31.2527ZM71.9055 32.0758C71.9055 32.2147 71.9253 32.3436 71.9055 32.4824C71.9055 32.5221 71.8757 32.9981 71.7567 32.9882C71.6377 32.9882 71.6774 32.532 71.6873 32.4626C71.7072 32.1651 71.6873 31.8676 71.6477 31.57C71.3105 30.9453 70.9039 30.3403 70.4477 29.785C70.9336 30.8461 71.2906 31.9469 71.489 33.0873C72.1038 34.7435 72.5402 36.469 72.7782 38.2243C73.1649 36.1418 72.8079 33.9898 71.8956 32.0758H71.9055ZM70.3882 27.3157C71.0526 28.2875 71.5286 29.3685 71.7567 30.5288C72.4708 31.8378 72.9071 33.2659 73.0955 34.7336C73.0559 32.0758 72.0542 29.4478 70.3882 27.3157ZM66.8875 25.2232C67.5718 25.7686 68.1965 26.3736 68.7519 27.038C69.5155 27.6231 70.2196 28.2974 70.8146 29.0611C69.9122 27.4743 68.4345 26.1256 66.8875 25.2232ZM71.3601 37.7087C71.3601 37.7087 71.3601 37.7087 71.37 37.6888C71.3601 37.5797 71.3601 37.4508 71.37 37.3517C71.3799 37.2723 71.3898 37.1831 71.3997 37.1037C71.3402 36.6178 71.2609 36.1418 71.1518 35.6658C71.0229 36.4591 70.9237 37.2624 70.8543 38.0657C71.0526 38.6309 71.2311 39.1962 71.3898 39.7714C71.4196 39.6028 71.4493 39.4342 71.4791 39.2656C71.4295 38.988 71.3799 38.7103 71.3303 38.4326C71.3006 38.2541 71.2807 37.8574 71.3799 37.6988L71.3601 37.7087ZM71.6576 40.3168C71.6377 40.5648 71.6179 40.8028 71.5782 41.0507C71.5782 41.0804 71.4592 41.5961 71.3997 41.3482C71.3997 41.3184 71.3799 41.2788 71.37 41.249L71.0229 43.2919C71.2609 43.3217 71.5088 43.3415 71.7567 43.3613C71.7567 43.3316 71.7567 43.3118 71.7567 43.282C71.7666 42.5283 71.7766 41.7746 71.7865 41.0309C71.7468 40.8028 71.6972 40.5647 71.6576 40.3367V40.3168ZM70.8741 35.3286C70.6956 35.1203 70.4973 34.922 70.2989 34.7237C70.2791 35.2889 70.2394 35.8443 70.1899 36.3798C70.2791 36.588 70.3585 36.7963 70.4477 37.0145C70.5865 36.4492 70.7353 35.8839 70.8741 35.3286ZM63.0298 24.6579C63.7835 24.767 64.5273 24.9554 65.2413 25.1934C64.5372 24.7868 63.8132 24.4298 63.0496 24.1621C63.0893 24.291 63.0695 24.4794 63.0298 24.6579ZM56.911 23.3786C57.149 23.4679 57.387 23.5373 57.6151 23.6365C59.1027 23.7455 60.5704 24.0331 61.9885 24.4992C61.3439 24.1125 60.6795 23.7555 60.0051 23.4282C58.9737 23.2993 57.9424 23.2795 56.911 23.3786ZM46.0519 24.2315C47.2221 23.567 48.5014 23.1009 49.8204 22.8233C49.8104 22.7638 49.8005 22.6943 49.7906 22.615C48.4419 22.9026 47.123 23.3489 45.8932 23.9439C45.9131 23.9439 45.9329 23.9439 45.9527 23.9439C46.0122 23.9439 46.042 24.0728 46.042 24.2315H46.0519ZM47.7477 24.4397C49.6518 24.1521 51.6451 23.8546 53.6384 23.7753C53.7971 23.7555 53.9458 23.7158 54.1045 23.7059C53.2021 23.577 52.2897 23.5274 51.3773 23.5968C50.1278 23.696 48.908 23.9935 47.7576 24.4397H47.7477ZM52.5773 24.9356C52.6467 24.9356 52.7062 24.9257 52.7756 24.9158C55.3243 24.8067 57.863 25.2728 60.2034 26.2248C59.7671 25.8975 59.301 25.6 58.8151 25.3223C57.0102 24.8463 55.1458 24.7372 53.2715 24.8265C53.0434 24.8562 52.8054 24.886 52.5773 24.9356ZM54.9871 22.3274C53.7673 22.1985 52.5376 22.2084 51.3277 22.3572C51.3277 22.4365 51.3079 22.5158 51.2881 22.5853C51.3377 22.5853 51.3972 22.5654 51.4468 22.5654C52.5575 22.4861 53.6781 22.5654 54.759 22.7638C54.7789 22.734 54.7987 22.7043 54.8285 22.7043C55.4235 22.5456 56.0284 22.4563 56.6433 22.3869C56.6234 22.3076 56.6234 22.2084 56.6333 22.0894C56.1474 21.9407 55.6516 21.8018 55.1557 21.7026C55.1557 22.0002 55.0764 22.3373 54.997 22.3274H54.9871ZM45.5263 21.4448C46.1412 21.3456 46.756 21.2762 47.3709 21.2663C48.6303 20.7506 49.9989 20.4432 51.3873 20.3638C51.8534 20.3341 52.3095 20.344 52.7756 20.3638C50.3162 20.1159 47.7973 20.4829 45.5164 21.4448H45.5263ZM38.2175 24.1521C38.5249 24.2513 38.8323 24.3604 39.1299 24.5092C40.0025 23.7257 40.9942 23.0613 42.0653 22.5555C42.7198 22.0101 43.4338 21.5241 44.1776 21.1076C41.976 21.6332 39.9133 22.7043 38.2175 24.1621V24.1521ZM42.0058 23.567C41.3909 24.0827 40.8356 24.6579 40.3199 25.2628C40.3298 25.2628 40.3397 25.2827 40.3596 25.2926C40.3695 25.2926 40.3794 25.3224 40.3794 25.3323C41.2819 24.7273 42.3132 24.3009 43.3941 24.0926C43.89 23.5075 44.4553 22.9919 45.08 22.5456C44.0189 22.7539 42.9876 23.1109 42.0157 23.577L42.0058 23.567ZM39.0604 25.5405C38.7431 25.8281 38.4555 26.1355 38.1778 26.4529C38.3167 26.552 38.4555 26.6512 38.5943 26.7603C38.7332 26.4926 38.8819 26.2248 39.0406 25.967C39.11 25.8579 39.1894 25.7488 39.2588 25.6397C39.1894 25.6 39.12 25.5604 39.0505 25.5306L39.0604 25.5405ZM37.3448 24.9753C37.1068 25.2133 36.8886 25.4612 36.6704 25.719C37.0076 25.8281 37.3349 25.957 37.6522 26.1256C37.8803 25.8182 38.1183 25.5207 38.3762 25.243C38.039 25.124 37.6919 25.0447 37.3448 24.9753ZM37.8803 28.1685C37.9795 27.9702 38.0886 27.7619 38.2076 27.5735C38.2076 27.5735 38.2076 27.5537 38.2175 27.5537C38.0291 27.4148 37.8307 27.2958 37.6225 27.1768C37.5035 27.3355 37.3745 27.4843 37.2655 27.6528C37.434 27.7123 37.6126 27.752 37.7812 27.8115C37.8704 27.8413 37.8803 27.9999 37.8704 28.1685H37.8803ZM36.0159 26.5818C35.8573 26.8 35.7085 27.0281 35.5697 27.2562C35.9763 27.3157 36.3829 27.3851 36.7795 27.4942C36.8787 27.2958 37.0076 27.1173 37.1266 26.9289C36.7696 26.7702 36.3928 26.6711 36.0159 26.5818ZM32.1483 25.7984C33.3879 25.3422 34.7763 25.2629 36.0655 25.5504C36.2341 25.3124 36.4126 25.0943 36.5911 24.8662C35.0639 24.7372 33.4772 25.0546 32.1483 25.7984ZM32.2078 29.8643C32.2078 29.8643 32.188 29.5867 32.2078 29.3586C31.8508 29.3784 31.5037 29.4379 31.1665 29.5172C31.2558 29.5668 31.3351 29.6164 31.4144 29.6561C31.6326 29.6957 31.8508 29.7552 32.059 29.8346C32.1185 29.8544 32.1681 29.8842 32.2276 29.904C32.2276 29.8842 32.2177 29.8742 32.2177 29.8544L32.2078 29.8643ZM33.2193 34.1881C32.8822 33.5634 32.3665 33.0576 31.7417 32.7105C32.1681 33.2559 32.6739 33.7518 33.2193 34.1881ZM32.7731 32.3932C33.0507 32.6808 33.2987 33.008 33.4673 33.3749C33.5565 33.5634 33.5268 33.8113 33.497 34.0195C33.497 34.0295 33.4474 34.2179 33.4078 34.327C33.6854 34.5253 33.9631 34.7137 34.2606 34.8922C34.1019 33.9501 33.5168 33.0477 32.7731 32.4031V32.3932ZM35.0738 27.1768C35.2027 26.9289 35.3416 26.7008 35.4804 26.4628C33.8144 26.2248 32.0392 26.6116 30.6806 27.5735C32.0987 27.1471 33.5962 27.0182 35.0738 27.1768ZM34.6176 28.1685C34.1317 28.1388 33.6458 28.1289 33.1598 28.1487C33.3483 28.2379 33.5367 28.3371 33.7152 28.4462C33.8243 28.476 33.9334 28.5156 34.0325 28.5553C34.0722 28.3966 34.1218 28.2578 34.1317 28.2974C34.1813 28.4065 34.2309 28.5255 34.2805 28.6346C34.33 28.6545 34.3697 28.6644 34.4193 28.6842C34.4788 28.5057 34.5383 28.3371 34.6077 28.1586L34.6176 28.1685ZM36.9184 32.4824C36.7696 32.0262 36.5217 31.5899 36.2242 31.2031C36.244 31.3618 36.2639 31.5304 36.2936 31.6891C36.4523 32.0362 36.6506 32.3634 36.8787 32.6609C36.8886 32.6014 36.9084 32.5419 36.9184 32.4824ZM36.968 31.3221C37.0473 30.4494 37.2655 29.5966 37.6026 28.7834C37.315 28.6842 37.0275 28.5949 36.7399 28.5156C36.7399 28.5156 36.7399 28.5156 36.73 28.5156C36.1845 28.3669 35.6292 28.2677 35.0639 28.2082C34.9548 28.4264 34.8556 28.6346 34.7565 28.8627C34.9052 28.9321 35.044 29.0015 35.1829 29.0908C35.4308 29.2594 35.6589 29.4478 35.8573 29.6561C35.9068 29.5073 35.9763 29.3685 36.0159 29.6164C36.0259 29.6957 36.0358 29.7751 36.0457 29.8544C36.4424 30.2908 36.7597 30.7866 36.968 31.332V31.3221ZM37.3349 33.008C37.9795 31.1039 38.6241 29.1999 39.2687 27.2958C39.1795 27.3851 39.0803 27.4644 38.991 27.5636C38.991 27.6033 38.9811 27.6528 38.9712 27.6727C38.9712 27.7123 38.9117 28.1189 38.8125 28.0198C38.8026 28.0098 38.7927 27.9999 38.7729 27.99C38.0886 29.3586 37.5729 30.7866 37.2258 32.2742C37.2754 32.5122 37.3051 32.7601 37.325 33.008H37.3349ZM40.4786 27.1471C40.6273 26.8496 40.786 26.562 40.9348 26.2645C40.9843 26.1653 41.0141 26.324 41.024 26.5223C41.3612 26.1653 41.6983 25.8281 42.0653 25.5009C41.2223 25.8182 40.4488 26.2744 39.7745 26.8297C39.4968 27.6628 39.2092 28.4958 38.9315 29.3189C39.3778 28.5454 39.9034 27.8214 40.4786 27.1372V27.1471ZM41.867 26.6611C41.4901 27.0082 41.1331 27.3752 40.7959 27.7619C40.3596 29.0511 39.9232 30.3403 39.4869 31.6295C40.1612 30.3701 40.8356 29.1106 41.5099 27.8512C41.6091 27.4446 41.7182 27.0479 41.867 26.6611ZM44.971 24.9257C44.6536 24.9257 44.3462 24.9554 44.0388 24.9951C43.5925 25.2827 43.1561 25.5901 42.7495 25.9174C42.5909 26.1554 42.452 26.3934 42.3231 26.6413C42.3231 26.6909 42.3429 26.7405 42.3429 26.7603C42.3628 26.9686 42.3529 27.276 42.2537 27.4644C42.2339 27.514 42.2041 27.5537 42.1843 27.6033C42.9677 26.5818 43.9099 25.6794 44.971 24.9257ZM46.5279 26.1455C46.9841 25.8777 47.4601 25.6496 47.9361 25.4215C47.7576 25.4513 47.589 25.4711 47.4105 25.5009C47.3312 25.5108 47.2816 24.8265 47.3907 24.5687C46.2503 25.0447 45.1891 25.6893 44.2371 26.4529C44.2371 26.4826 44.2371 26.5124 44.2371 26.5223C44.2371 26.7008 44.2371 27.0082 44.1181 27.157C43.8008 27.514 43.5132 27.9008 43.2156 28.2776C43.2752 28.2379 43.3247 28.1884 43.3843 28.1487C43.6322 27.871 43.8999 27.5933 44.1776 27.3355C44.1974 27.3157 44.2173 27.4446 44.2272 27.6132C44.5049 27.4446 44.7627 27.2661 45.0503 27.1074C45.5164 26.7702 46.0023 26.443 46.5081 26.1455H46.5279ZM54.5508 32.1452C54.4615 32.0956 54.3623 32.0461 54.2731 31.9965C54.1342 32.0262 54.0053 32.0758 53.8764 32.1155C53.3111 32.5022 52.7955 32.9584 52.3591 33.484C52.5872 33.3849 52.8153 33.2956 53.0335 33.1964C53.0533 33.0477 53.083 32.9287 53.1624 32.8989C53.1822 32.8989 53.2021 32.889 53.212 32.8791C53.2318 32.7105 53.2814 32.5717 53.3508 32.5419L54.5409 32.1353L54.5508 32.1452ZM55.0466 30.4296C54.7392 30.3304 54.4417 30.2313 54.1243 30.142C53.9161 30.3007 53.6979 30.4693 53.4897 30.6279C53.6582 30.6974 53.8268 30.7767 53.9954 30.856C54.283 30.737 54.5706 30.6279 54.8582 30.5188C54.9177 30.4891 54.9772 30.4494 55.0466 30.4197V30.4296ZM63.5851 42.5977C63.5554 42.4688 63.5256 42.3498 63.4959 42.2209C62.7025 41.6259 61.8298 41.1399 60.8977 40.7829C61.8596 41.2887 62.762 41.8936 63.5851 42.5878V42.5977ZM62.1075 36.8062C62.286 36.8558 62.4546 36.9252 62.6331 36.9748C62.4943 36.6773 62.3554 36.3798 62.2166 36.0823C62.0678 36.0525 61.929 36.0426 61.7802 36.0129C61.7802 36.0426 61.7802 36.0823 61.7802 36.112C61.8893 36.3401 61.9984 36.5682 62.0976 36.8062H62.1075ZM64.3091 35.2691C64.1008 34.9021 63.8727 34.5452 63.6248 34.1981C63.6149 34.4261 63.5554 34.6443 63.4661 34.6542C63.3471 34.6741 63.2182 34.6939 63.0992 34.7137L63.129 34.8228C63.1786 34.8823 63.2182 34.9517 63.2678 35.0112C63.6149 35.1501 63.9521 35.3187 64.2793 35.4972C64.2793 35.4178 64.2992 35.3385 64.2992 35.2592L64.3091 35.2691ZM63.7636 30.9453C62.6629 30.0032 61.4133 29.2197 60.0448 28.6743C58.5076 28.0694 56.8813 27.7917 55.245 27.7818C55.3144 27.8413 55.3838 27.9008 55.4631 27.9702C56.4747 28.109 57.4664 28.3272 58.4382 28.6545C59.2613 28.9321 60.0646 29.2693 60.8282 29.6561C61.6712 29.9833 62.4744 30.4098 63.238 30.8957C63.4166 30.8957 63.5851 30.9354 63.7636 30.9453ZM64.2892 30.3404C63.8231 29.7057 63.3075 29.1106 62.7521 28.5454C58.0019 25.6397 52.131 25.2133 47.0634 27.1768C46.5676 27.8512 46.0618 28.5156 45.566 29.19C45.6949 29.1404 45.8238 29.0908 45.9428 29.0412C47.4601 27.9801 49.1361 27.1371 50.941 26.5917C51.0104 26.5719 51.0203 27.0975 50.9707 27.4049C54.0549 26.4231 57.4862 26.5025 60.4811 27.7917C61.9092 28.4065 63.1885 29.2891 64.2892 30.3404ZM65.8065 37.5401C65.628 37.4112 65.4594 37.2723 65.2809 37.1533C65.2413 37.4806 65.2016 37.8078 65.1719 38.1351C65.1818 38.1649 65.2016 38.1946 65.2115 38.2144C65.3999 38.3433 65.5884 38.4524 65.7669 38.5913C65.7768 38.2442 65.7966 37.8872 65.8065 37.5401ZM67.5817 41.487C67.6412 40.773 67.661 40.059 67.6214 39.345C67.6114 39.2458 67.5916 39.1466 67.5817 39.0375C67.5123 38.9681 67.4429 38.9086 67.3734 38.8392C67.3536 38.9483 67.3238 39.0574 67.304 39.1665C67.3338 39.9003 67.3536 40.6342 67.3536 41.3779C67.4032 41.487 67.4528 41.5862 67.4924 41.6953C67.5222 41.6259 67.5519 41.5565 67.5817 41.4771V41.487ZM68.256 43.4208L68.1767 42.8258C68.1172 42.8655 68.0875 42.8258 68.0775 42.7663C68.0676 42.7465 68.0577 42.7167 68.0478 42.6473C68.0081 42.33 67.9685 42.0126 67.9288 41.6953C67.8891 41.7845 67.8594 41.8639 67.8197 41.9531C67.7999 42.0126 67.78 42.0721 67.7602 42.1316C67.7602 42.2011 67.7602 42.2705 67.7404 42.33C67.8395 42.6969 67.9189 43.0638 67.9685 43.4407C68.0676 43.4407 68.1668 43.4208 68.266 43.4109L68.256 43.4208ZM66.3321 27.8809C66.8379 28.2677 67.2941 28.6941 67.7404 29.1305C68.2065 29.2792 68.6527 29.547 69.0197 29.9238C68.9007 29.7156 68.7916 29.5073 68.6726 29.309C68.2461 28.833 67.7701 28.3867 67.2643 28.0297C66.2528 27.3058 65.0727 26.8099 63.8331 26.6016C63.9223 26.6611 64.0116 26.7206 64.0909 26.7901C64.8446 27.3851 65.519 28.0495 66.1338 28.7536C66.0842 28.466 66.2627 27.8512 66.3222 27.8909L66.3321 27.8809ZM67.7205 32.9882C67.7205 32.9882 67.6313 32.9386 67.5817 32.9188C67.542 33.4543 67.4825 33.9799 67.423 34.5055L67.4726 34.9319C67.4726 34.9319 67.4726 34.9418 67.4726 34.9517C67.552 35.0112 67.6214 35.0807 67.7007 35.1402C67.7602 34.4757 67.7999 33.8014 67.7999 33.127C67.7701 33.0774 67.7404 33.0378 67.7106 32.9882H67.7205ZM68.7023 37.1732C68.5238 36.9748 68.3453 36.7765 68.147 36.598C68.1668 36.7467 68.147 36.9054 68.137 37.0244C68.137 37.0442 68.0478 37.4905 67.9784 37.3715C67.899 37.2327 67.8098 37.1037 67.7205 36.9748C67.7205 36.9946 67.7205 37.0145 67.7205 37.0343L67.7602 37.3616C67.8197 37.6392 67.8693 37.9169 67.9189 38.1946C68.0974 38.4128 68.266 38.6409 68.4246 38.8689C68.5139 38.5119 68.5932 38.1549 68.6726 37.788C68.6924 37.5797 68.7023 37.3715 68.7122 37.1632L68.7023 37.1732ZM68.9502 35.0311C68.6626 34.5055 68.3552 33.9898 68.0379 33.4741C68.018 34.089 67.9784 34.7038 67.9189 35.3088C68.2263 35.5666 68.5238 35.8443 68.8015 36.1418C68.8412 35.7649 68.9007 35.398 68.9502 35.0212V35.0311ZM68.6527 32.4031C68.861 32.5221 69.0494 32.6609 69.2477 32.7998C69.2874 32.5816 69.337 32.3634 69.3767 32.1353C68.9403 31.5601 68.4742 31.0048 67.9685 30.4792C67.9883 30.737 68.0081 31.0048 68.018 31.2626C68.2461 31.6296 68.4643 32.0064 68.6527 32.4031ZM70.1601 39.3053C70.1304 39.4342 70.1006 39.5631 70.0609 39.6821C70.0411 40.2375 70.0114 40.7928 69.9519 41.3482C70.0114 41.4771 70.0808 41.5961 70.1304 41.725C70.2097 40.9119 70.2097 40.1086 70.1502 39.3053H70.1601ZM70.4576 42.5977C70.4279 41.2788 70.4774 39.9697 70.5766 38.6508C70.527 38.5219 70.4774 38.3929 70.4279 38.264L70.3783 38.4822C70.4973 39.7218 70.4874 40.9714 70.3386 42.2209C70.3882 42.3498 70.4279 42.4787 70.4675 42.6077L70.4576 42.5977ZM70.7452 43.2225C70.7452 43.2225 70.7749 43.2225 70.7948 43.2225C70.9435 42.3696 71.0824 41.5267 71.2311 40.6738C71.0923 40.1681 70.9336 39.6722 70.765 39.1764C70.6857 40.5152 70.6758 41.8639 70.7452 43.2126V43.2225ZM72.6096 44.5911C72.8377 43.3118 72.8774 42.0126 72.7584 40.7333C72.6592 39.583 72.4212 38.4524 72.0642 37.3417C72.0642 37.9268 72.0443 38.5119 72.0344 39.0871C72.0344 38.978 72.0543 38.8689 72.0543 38.7599C72.0741 38.5417 72.2526 37.9665 72.2724 38.5119C72.3419 40.0392 72.4212 41.5763 72.4906 43.1035C72.4906 43.2126 72.3617 44.1745 72.2724 43.7184C72.2526 43.5993 72.2328 43.4804 72.203 43.3713C72.0939 43.401 71.9947 43.4308 71.8857 43.4506C71.8361 43.5795 71.7766 43.6192 71.7468 43.4903C71.7468 43.4903 71.727 43.4903 71.7171 43.4903C71.7171 43.639 71.7171 43.7878 71.6576 43.9068C71.4394 44.3729 71.2311 44.8291 71.013 45.3051C71.4989 45.0274 72.0443 44.9381 72.5799 45.0274C72.56 44.8588 72.56 44.6605 72.5799 44.5811L72.6096 44.5911Z" fill="#000100"/>
<path d="M44.961 82.1566C44.961 82.1566 44.961 82.1169 44.961 82.0971C44.9015 82.1665 44.8321 82.2459 44.7726 82.3153C44.842 82.2657 44.9015 82.2161 44.9709 82.1566H44.961Z" fill="#000100"/>
<path d="M51.7937 68.7786C51.883 68.7587 51.9723 68.729 52.0615 68.7091C52.0615 68.6794 52.0615 68.6596 52.0516 68.6298L51.7937 68.7786Z" fill="#000100"/>
<path d="M34.1116 79.0228C34.1116 79.0228 34.1116 79.0428 34.1116 79.0528C34.1316 79.0728 34.1416 79.0828 34.1616 79.1028C34.1516 79.0728 34.1316 79.0528 34.1216 79.0228H34.1116Z" fill="#000100"/>
<path d="M26.5156 45.672L26.3471 45.9001C26.3471 45.9001 26.3471 45.9695 26.3471 46.0092C26.4066 45.9001 26.4561 45.7811 26.5156 45.6819V45.672Z" fill="#000100"/>
<path d="M26.3469 43.2622C26.3172 43.3118 26.2874 43.3614 26.2576 43.4209C26.2874 43.3911 26.3072 43.3614 26.337 43.3316C26.337 43.3118 26.337 43.282 26.3469 43.2622Z" fill="#000100"/>
<path d="M70.1797 43.173H70.1897L70.1797 43.163V43.173Z" fill="#000100"/>
<path d="M67.5717 43.2622C67.5519 43.3515 67.542 43.4308 67.5321 43.52C67.5618 43.52 67.5916 43.52 67.6213 43.52C67.6015 43.4407 67.5916 43.3515 67.5717 43.2721V43.2622Z" fill="#000100"/>
<path d="M67.3439 43.2622C67.3439 43.2622 67.3141 43.3415 67.2943 43.3812C67.2943 43.4308 67.2943 43.4804 67.2943 43.53C67.3141 43.53 67.3339 43.53 67.3538 43.53C67.3538 43.4407 67.3538 43.3515 67.3538 43.2721L67.3439 43.2622Z" fill="#000100"/>
<path d="M48.3428 73.4991C45.9231 75.3437 42.7695 76.1172 39.725 75.6412C39.596 75.6213 39.4671 76.6428 39.6555 76.6725C42.7199 77.1585 45.8933 76.3552 48.3329 74.5007C48.4717 74.4016 48.4519 74.0148 48.4519 73.866C48.4519 73.8165 48.4519 73.4198 48.3428 73.4991Z" fill="#000100"/>
<path d="M69.8825 66.5175C69.7536 66.4877 69.8131 66.1307 69.9321 65.863C69.4263 64.9407 68.7123 64.0482 67.7405 63.6217C67.671 63.5821 67.5917 63.5523 67.5223 63.5225C67.5124 63.6316 67.4925 63.7407 67.4826 63.8399C67.0264 63.3738 66.5207 62.9672 65.9554 62.6201C65.886 62.5804 65.8166 63.0961 65.8066 63.1259C65.8066 63.2449 65.7471 63.5721 65.8761 63.6515C66.4215 63.9787 66.9074 64.3754 67.3438 64.8217C67.2843 65.2679 67.2347 65.7142 67.1653 66.1605C66.7289 65.615 66.2827 65.0597 65.8463 64.5142C65.7571 64.4052 65.6876 64.8415 65.6876 64.8613C65.6678 65.02 65.6083 65.3572 65.7174 65.5059L67.0264 67.1323C67.0066 67.2612 66.9868 67.3902 66.957 67.529C66.5702 67.0232 66.1141 66.5472 65.5885 66.1506C65.4794 66.0613 65.4397 66.4481 65.4298 66.4976C65.41 66.6166 65.3405 67.0431 65.4595 67.1423C65.9554 67.5191 66.3918 67.9654 66.7785 68.4513C66.7785 68.4612 66.7785 68.4711 66.7785 68.4909C66.8281 68.5306 66.8677 68.5802 66.9173 68.6199C67.6909 69.6512 68.2065 70.871 68.3156 72.1404C68.3156 72.2495 68.3256 72.4776 68.4545 72.3387C68.5735 72.2098 68.5537 71.7933 68.5437 71.6346C68.5239 71.3768 68.4842 71.1289 68.4446 70.8809C68.9801 72.1206 69.2974 73.4792 69.3371 74.818C69.3371 75.0262 69.2875 75.3238 69.1388 75.4824C69.0198 75.6014 68.9008 75.6312 68.8908 75.4229C68.8413 74.0544 68.514 72.6462 67.9289 71.3867C67.6611 70.8215 67.314 70.2264 66.838 69.7504C66.7587 69.6512 66.6694 69.562 66.5703 69.4826C66.5405 69.6116 66.4909 69.7405 66.4612 69.8793C66.1736 69.4331 65.8662 69.0066 65.5091 68.6C65.4199 68.4909 65.3505 68.9174 65.3505 68.9471C65.3306 69.0959 65.2711 69.4529 65.3802 69.5917C65.6777 69.9388 65.9554 70.3058 66.2033 70.6826C66.124 70.9107 66.0447 71.1487 65.9455 71.3768C66.0645 71.466 66.1736 71.5652 66.2827 71.6644C66.8281 72.19 67.2446 72.8445 67.562 73.5288C67.7702 74.2131 67.919 74.9172 67.9686 75.6411C67.9686 75.7601 67.9685 75.9684 68.1074 75.8394C68.1867 75.7601 68.2066 75.532 68.2066 75.3535C68.4347 76.2361 68.5933 77.1584 68.6032 78.0906C69.0792 77.3766 69.5255 76.6526 69.8726 75.889C70.3685 74.8081 70.6957 73.6478 70.9536 72.5073C71.142 71.6743 71.2907 70.8016 71.3403 69.9289C71.1222 68.8381 70.8147 67.7373 70.3585 66.7059C70.2197 66.6365 70.0709 66.5671 69.9024 66.5274L69.8825 66.5175Z" fill="#000100"/>
<path d="M53.1228 74.5999H53.1029C53.0633 74.6594 53.0137 74.699 52.974 74.7486C53.0137 74.7486 53.0732 74.7486 53.1228 74.7288V74.6098V74.5999Z" fill="#000100"/>
<path d="M53.2706 76.1971C53.2706 76.1971 53.3106 76.1971 53.3406 76.1971C53.3406 76.1971 53.3473 76.1971 53.3606 76.1971C53.3606 76.1971 53.3406 76.1571 53.3306 76.1271C53.3006 76.1571 53.2906 76.1671 53.2706 76.1971Z" fill="#000100"/>
<path d="M49.6122 63.7506C49.7808 62.7391 49.6717 61.4797 48.6998 60.8251C48.1345 60.4384 47.4304 60.3293 46.7462 60.4285C46.7858 60.3095 46.7858 60.1409 46.7958 60.0715C46.7958 60.0318 46.7957 59.5161 46.7263 59.5459C45.5165 60.002 44.5644 60.9739 44.1479 62.154C44.0983 62.3028 44.0785 62.4614 44.0686 62.63C43.7909 63.354 43.6917 64.1573 43.7017 64.9109C43.7017 64.9704 43.7017 65.3969 43.8207 65.3969H43.8306C43.9297 65.377 43.9298 64.9506 43.9198 64.9109C43.8802 62.9077 45.8933 60.607 48.2734 61.5788C48.7891 61.797 49.2353 62.2036 49.3841 62.7094C49.6022 63.4432 49.1064 64.2167 48.6304 64.7919C47.8569 65.734 46.7957 66.4977 45.8437 67.291C45.3776 67.6976 44.9016 68.0844 44.4256 68.491C44.4157 68.4711 44.3958 68.4711 44.3859 68.4612C44.3661 68.4612 44.3562 68.5108 44.3363 68.5703C43.7413 69.0761 43.1463 69.5818 42.5314 70.0578C41.5893 70.8115 40.4191 71.4363 39.1795 70.9206C37.8903 70.3752 37.2853 69.0463 37.3548 67.7968C37.4341 66.3886 37.811 64.9605 38.0589 63.5721C38.6142 60.5772 39.1498 57.5922 39.6952 54.6072C39.6952 54.627 39.6952 54.6469 39.7051 54.6667V54.6865C39.7051 54.7559 39.7646 55.0435 39.8638 54.865C39.953 54.6766 39.9233 54.389 39.8935 54.1907C39.7745 53.3081 39.1696 52.6436 38.2572 52.3263C37.5928 52.0982 35.3714 52.4651 34.1516 52.9114C34.2111 52.8023 34.2508 52.485 34.2508 52.4453C34.2508 52.3263 34.2607 52.1974 34.2508 52.0784C34.2508 52.0288 34.2408 51.9395 34.1813 51.9197C33.5962 51.7015 33.0012 51.4933 32.4161 51.2751C32.3269 51.2453 32.2773 51.7412 32.2674 51.7809C32.2674 51.8899 32.2674 52.0089 32.2674 52.118C31.6624 52.2668 31.0575 52.4255 30.4526 52.5742C30.403 52.5841 30.3732 52.6833 30.3633 52.723C30.3336 52.842 30.3137 52.9709 30.3038 53.0899C30.3038 53.1296 30.284 53.6353 30.3732 53.6155C31.1468 53.4171 31.9103 53.2287 32.6839 53.0304C32.7335 53.0205 32.7632 52.9213 32.7731 52.8816C32.8029 52.7626 32.8227 52.6337 32.8326 52.5147C32.8326 52.5147 32.8326 52.4949 32.8326 52.4849C33.2392 52.6337 33.6558 52.7825 34.0623 52.9312C33.7847 53.0403 33.5566 53.1494 33.4276 53.2585C33.3781 53.2982 33.3681 53.437 33.3681 53.4866C33.3384 53.6155 33.3483 53.7444 33.3582 53.8634C33.3582 53.8932 33.9532 53.8634 34.5383 53.8039C34.816 53.2981 35.9763 52.604 38.1382 53.2585C38.525 53.3676 38.882 53.556 39.1795 53.8138C39.2985 53.9229 39.3977 54.0518 39.4869 54.1808C38.9713 57.017 38.4556 59.8632 37.93 62.6994C37.93 62.6796 37.9299 62.6598 37.9101 62.6598C36.7399 63.2052 35.9962 64.2267 35.6986 65.3671C35.3912 66.577 35.4904 67.9852 36.2342 69.0364C36.3036 69.1455 36.3631 68.7091 36.3631 68.6893C36.3631 68.5108 36.3928 68.2431 36.2837 68.0844C35.7681 67.3505 35.649 66.577 35.9565 65.7539C36.2738 64.9109 36.9085 64.1771 37.7515 63.7308C37.7118 63.9093 37.682 64.0977 37.6424 64.2762C37.3449 65.9125 36.7399 68.2827 37.4143 70.0281C37.4341 70.0281 37.454 70.0281 37.4738 70.0479C38.2176 70.6826 39.0308 71.3371 40.0125 71.5851C40.5183 71.714 41.0538 71.7239 41.5695 71.6446C42.1546 71.5553 42.7298 71.3371 43.2157 71.0495C43.8008 70.6826 44.2868 70.1868 44.7529 69.681C44.9611 69.4728 45.1495 69.2546 45.3578 69.0463C45.2586 68.9967 45.1594 68.967 45.0801 68.9174C45.814 68.3125 46.5379 67.7075 47.2619 67.0927C48.3726 66.1605 49.4138 65.1489 49.632 63.7407L49.6122 63.7506Z" fill="#000100"/>
<path d="M38.0884 76.2361C38.0884 76.2361 38.0684 76.2561 38.0784 76.2661C38.0784 76.2561 38.0984 76.2561 38.1084 76.2361H38.0984H38.0884Z" fill="#000100"/>
<path d="M29.421 71.6446C29.4507 71.714 29.4706 71.8033 29.4805 71.8727C29.421 71.5553 29.3615 71.2182 29.3119 70.9008C29.3516 71.1487 29.3813 71.3967 29.4111 71.6446H29.421Z" fill="#000100"/>
<path d="M73.8294 48.4785C73.879 48.2306 73.9286 47.9926 73.9782 47.7447C73.9981 47.6653 73.9782 46.8125 73.8889 46.8621C70.1998 48.6174 68.6924 53.0999 69.9222 56.7691C69.9916 56.9774 70.061 56.6303 70.0709 56.5807C70.1007 56.3526 70.1007 56.0948 70.0213 55.8766C69.5156 54.3692 69.7437 52.7528 70.4379 51.3445C70.4379 51.4437 70.4378 51.5429 70.4577 51.6421C70.4577 51.7016 70.5469 52.0288 70.6064 51.8305C70.8048 51.2255 71.4791 50.9677 72.094 50.9875C72.8377 51.0074 73.4328 51.414 73.7601 52.0487C74.1468 52.8123 73.9881 53.6056 73.7799 54.399C73.5518 55.2915 73.3039 56.1642 73.2543 57.0865C73.2543 57.2055 73.2146 57.6518 73.3435 57.7212C73.4625 57.7807 73.4724 57.4038 73.4724 57.3542C73.532 56.303 73.9683 55.3113 74.1369 54.28C74.2955 53.3081 74.3253 52.1875 73.9187 51.2553C73.6014 50.5214 72.9766 49.9859 72.1337 49.9462C71.8064 49.9264 71.4791 50.0057 71.2015 50.1446C71.856 49.2818 72.689 48.548 73.641 48.0422C73.641 48.1909 73.641 48.3496 73.6807 48.4785C73.7303 48.6372 73.7997 48.6769 73.8394 48.4785H73.8294Z" fill="#000100"/>
<path d="M72.3023 53.8535C72.3023 53.8535 72.3023 53.8932 72.3023 53.9031C72.2725 54.2006 72.1733 54.5279 72.0246 54.8155C71.6973 55.4601 71.1519 55.9956 70.4676 56.2733C70.3387 56.3229 70.3585 56.6799 70.3684 56.789C70.3684 56.8286 70.4081 57.3344 70.4874 57.3046C71.3304 56.9576 71.9551 56.2634 72.2626 55.4403C72.6295 54.4982 72.6394 53.318 72.2626 52.3759C72.1832 52.1776 72.1237 52.5048 72.1138 52.5643C72.0841 52.7825 72.0741 53.0602 72.1634 53.2684C72.213 53.3974 72.2725 53.5759 72.2923 53.685C72.2923 53.685 72.3122 53.8337 72.3023 53.7544C72.3023 53.7544 72.3023 53.804 72.3023 53.8238C72.3023 53.7841 72.3023 53.8436 72.3023 53.8436V53.8535Z" fill="#000100"/>
<path d="M37.6324 58.2368C38.3861 57.4038 38.5646 56.0551 37.6522 55.2816C36.7101 54.4783 35.3317 55.0634 34.568 55.8072C34.0028 56.3625 33.5962 57.0468 33.2094 57.7212C33.1797 57.7707 33.1499 57.8402 33.1202 57.8997C32.7433 57.7112 32.3566 57.5625 31.94 57.4633C31.8905 57.4534 31.821 57.5526 31.8111 57.5724C31.7417 57.6716 31.6822 57.7906 31.6426 57.8997C31.6227 57.9492 31.4442 58.3955 31.5434 58.4153C32.2574 58.5839 32.9218 58.8913 33.5168 59.3178C33.5962 59.3773 33.8045 58.9211 33.8144 58.8814C33.864 58.7724 33.9036 58.6533 33.9234 58.5343C33.9234 58.4848 33.9532 58.3955 33.9135 58.3658C33.735 58.2368 33.5268 58.1377 33.3383 58.0286C33.7152 57.4038 34.1714 56.7493 34.7763 56.3229C34.7664 56.3526 34.7466 56.3824 34.7366 56.422C34.6474 56.6898 34.5879 56.9575 34.5482 57.2352C34.5482 57.2551 34.5383 57.2848 34.5284 57.3046C34.4887 57.5228 34.4887 57.7509 34.5284 57.9592C34.5482 58.2368 34.5978 58.5244 34.7069 58.7922C34.7069 58.7922 34.7168 58.812 34.7267 58.8219C35.53 58.6633 35.9465 57.8401 36.0953 57.136C36.1944 56.6997 36.0754 56.2435 35.768 55.9262C35.8771 55.9063 35.9763 55.8865 36.0853 55.8766C36.6407 55.8568 37.1365 56.065 37.4836 56.4914C37.6423 56.6898 37.7514 56.9179 37.8109 57.1658C37.8308 57.265 37.8308 57.3641 37.8407 57.4633C37.7217 57.6319 37.6324 57.8402 37.5828 58.0286C37.563 58.0881 37.5035 58.4153 37.6522 58.2567L37.6324 58.2368Z" fill="#000100"/>
<path d="M49.9691 54.5378C49.9493 54.6568 49.9592 54.7857 49.9691 54.9047C49.9691 54.9444 50.0485 55.4502 50.1278 55.4105C50.9608 54.9841 51.8038 54.5676 52.6368 54.1411C52.6864 54.1114 52.6963 54.0321 52.6963 53.9825C52.7161 53.8635 52.7062 53.7345 52.6963 53.6155C52.6963 53.5759 52.617 53.0701 52.5376 53.1098C52.0319 53.3676 51.5162 53.6254 51.0104 53.8833C50.9906 53.7742 50.9708 53.6651 50.9311 53.566C50.2964 52.2073 48.4717 51.4536 47.0535 52.1776C45.5462 52.9511 45.209 54.8155 45.685 56.2832C45.7445 56.4518 45.8139 56.4419 45.8437 56.2733C45.8833 56.0452 45.8437 55.7675 45.7743 55.5494C45.7544 55.4899 45.7346 55.4303 45.7247 55.3708V55.3213C45.7346 55.1923 45.7544 55.0634 45.7842 54.9444C45.8635 54.6469 45.9825 54.3692 46.1511 54.1213C46.2106 54.0321 46.28 53.9626 46.3395 53.8833C46.3395 54.1213 46.3594 54.3593 46.4089 54.5874C46.4189 54.8948 46.4883 55.2618 46.6965 55.4899L46.7858 55.9659C46.7858 55.9659 46.8453 56.4121 46.9544 56.3129C47.004 56.2733 46.994 56.1245 46.994 56.075C46.994 55.9758 46.9941 55.8766 46.9742 55.7774C47.2519 56.065 47.6089 56.2733 48.0254 56.2931C48.0552 56.2733 48.075 56.2535 48.075 56.2138C48.1642 55.7378 48.1246 55.1527 47.9163 54.6469C47.9163 54.3692 47.8965 54.0717 47.8172 53.8139C47.7279 53.5362 47.5395 53.3081 47.3015 53.1594C47.4106 53.1098 47.5197 53.0701 47.6287 53.0404C48.7295 52.7528 49.9791 53.199 50.6336 54.0816C50.4253 54.1907 50.2171 54.2899 50.0088 54.399C49.9592 54.4287 49.9493 54.5081 49.9493 54.5577L49.9691 54.5378Z" fill="#000100"/>
<path d="M46.1312 47.9529C45.4172 48.4091 44.9412 49.143 44.8024 49.9562C44.7627 50.1843 44.8024 50.4421 44.8718 50.6603C44.8916 50.7198 44.9115 50.8487 44.971 50.8884C45.0206 50.9181 45.0404 50.8784 45.0503 50.8289C45.1098 50.4719 45.2586 50.1248 45.4668 49.8173C45.4668 49.8669 45.4668 49.9066 45.4668 49.9562C45.4867 50.0752 45.5065 50.1942 45.5561 50.3132C45.5561 50.333 45.6255 50.4818 45.6552 50.452C46.2602 49.976 46.875 49.5 47.48 49.024C47.5296 48.9843 47.5295 48.9149 47.5295 48.8653C47.5295 48.7463 47.5296 48.6174 47.5097 48.4984C47.4899 48.3794 47.4701 48.2604 47.4205 48.1414C47.4205 48.1215 47.351 47.9728 47.3213 48.0025C46.994 48.2604 46.6668 48.5182 46.3395 48.7761C46.3395 48.667 46.3395 48.5579 46.3197 48.4587C46.3197 48.419 46.2007 47.9133 46.1312 47.9629V47.9529Z" fill="#000100"/>
<path d="M47.5992 49.0339C47.5496 49.0537 47.5496 49.1529 47.5496 49.1926C47.5496 49.3116 47.5496 49.4405 47.5694 49.5595C47.5694 49.5892 47.619 49.7876 47.6686 49.9264C46.7166 50.0256 45.7844 50.452 45.1596 51.166C45.0704 51.2652 45.2389 51.5528 45.2786 51.652C45.2985 51.6916 45.5464 52.0982 45.5959 52.0487C46.786 50.6801 49.0967 50.3628 50.5743 51.3743C50.6834 51.4437 50.5346 51.0272 50.5346 51.0173C50.4652 50.8388 50.366 50.6206 50.1974 50.5115C49.5925 50.095 48.8388 49.9066 48.0851 49.9165C48.6504 49.6587 49.2057 49.4008 49.771 49.143C49.8206 49.1231 49.8206 49.024 49.8206 48.9843C49.8206 48.8653 49.8206 48.7364 49.8008 48.6174C49.8008 48.5777 49.7016 48.0819 49.6123 48.1215L47.5992 49.0438V49.0339Z" fill="#000100"/>
<path d="M50.5245 49.7876C51.0303 49.5694 51.5459 49.3611 52.0517 49.143C52.1013 49.1231 52.1013 49.014 52.1013 48.9843C52.1013 48.8653 52.1013 48.7364 52.0815 48.6174C52.0815 48.5777 51.9823 48.0819 51.893 48.1215L50.3658 48.7661C50.3163 48.786 50.3162 48.895 50.3162 48.9248C50.3162 49.0438 50.3162 49.1727 50.3361 49.2917C50.3361 49.3314 50.4352 49.8272 50.5245 49.7876Z" fill="#000100"/>
<path d="M34.5086 51.057C34.5086 51.176 34.4987 51.3049 34.5086 51.4239C34.5086 51.4636 34.5185 51.5727 34.578 51.5826C35.4209 51.771 36.2639 51.9594 37.1068 52.1478C37.2159 52.1677 37.2457 51.6917 37.2556 51.6421C37.2556 51.5231 37.2655 51.3942 37.2556 51.2752C37.2556 51.2355 37.2457 51.1264 37.1862 51.1165L34.6573 50.5512C34.5482 50.5314 34.5185 51.0074 34.5086 51.057Z" fill="#000100"/>
<path d="M37.6919 50.7098C37.6919 50.5908 37.7018 50.4619 37.6919 50.3429C37.6919 50.2933 37.682 50.2041 37.6225 50.1842C36.958 49.9462 36.2837 49.7082 35.6192 49.4702C35.53 49.4405 35.4804 49.9363 35.4705 49.976C35.4705 50.095 35.4606 50.2239 35.4705 50.3429C35.4705 50.3925 35.4804 50.4817 35.5399 50.5016C36.2044 50.7396 36.8787 50.9776 37.5431 51.2156C37.6324 51.2454 37.682 50.7495 37.6919 50.7098Z" fill="#000100"/>
<path d="M28.1518 95.2073C28.4593 94.9793 28.8262 94.7611 29.2229 94.5627C21.1009 97.2007 19.6629 102.397 21.2397 112.096C21.1505 105.571 22.5686 99.2237 28.1518 95.2073Z" fill="black"/>
<path d="M82.2534 1.25382H82.1939C82.1741 1.07532 82.2435 0.519956 82.2931 0.00427246C82.2633 0.420786 82.2534 0.837309 82.2534 1.25382Z" fill="black"/>
<path d="M11.5063 274.973C11.5063 274.973 11.5263 274.963 11.5363 274.953C11.5063 274.963 11.4763 274.973 11.4363 274.973H11.5063Z" fill="black"/>
</svg>
