<svg width="94" height="67" viewBox="0 0 94 67" fill="none" xmlns="http://www.w3.org/2000/svg">
<path d="M32.258 18.2565C32.139 19.6151 32.0299 20.9936 31.9109 22.3522C32.3969 22.4613 32.8729 22.6497 33.3192 22.8679C33.3092 22.9373 33.3191 22.9968 33.3588 23.0266C33.6861 23.215 34.0332 23.334 34.3902 23.4332C38.1586 25.5257 42.2246 28.8677 46.717 27.5983C47.0244 25.5752 47.5996 23.6018 48.4624 21.7473C48.4822 21.7076 48.5021 21.6779 48.5219 21.6382C48.4227 21.7671 48.3136 21.8564 48.2343 21.8365H48.2045C48.2839 21.668 48.3731 21.5093 48.4525 21.3506C48.512 21.2316 48.5814 21.1027 48.6508 20.9837C48.7004 20.9936 48.7599 21.0134 48.8095 21.0333C49.1665 20.3292 49.5532 19.635 50.0193 19.0003C50.5053 18.3259 51.1301 17.6218 51.9631 17.4235C52.1416 17.3838 52.3102 17.364 52.4688 17.364C54.244 17.364 54.4522 20.0614 54.5018 21.42C54.5316 22.0051 54.5217 22.6101 54.5018 23.215C54.5316 23.1654 54.5613 23.1257 54.601 23.0762C54.5812 23.2943 54.5712 23.5125 54.5613 23.7208C54.5415 23.7208 54.5117 23.7109 54.4919 23.7009C54.4027 26.6562 54.1845 29.7999 55.7811 32.2692C55.9398 32.0411 56.1381 31.8527 56.3464 31.7535C56.6439 31.6048 56.9116 31.6544 57.1199 31.8031C57.1497 31.7833 57.1794 31.7734 57.1993 31.7932C59.0438 32.8345 60.4421 34.5303 61.1561 36.5236C61.1859 36.5038 61.2156 36.4839 61.2354 36.4839C61.285 36.4542 61.3247 36.4343 61.3445 36.4443C62.1082 36.9599 62.9015 37.3963 63.7048 37.793C63.7246 37.7632 63.7544 37.7434 63.7841 37.7335C66.6005 37.2277 69.417 36.7219 72.2433 36.2063C72.1045 32.9237 71.9656 29.6412 71.8367 26.3587C71.7772 26.3686 71.7078 26.3785 71.6483 26.3884C71.6086 25.1885 71.5789 23.9885 71.5491 22.7787C71.5392 22.6993 71.5293 22.62 71.5293 22.5406H71.5392C71.4896 20.4382 71.4301 18.3359 71.3706 16.2334H71.3607C71.2417 16.2533 58.8752 17.1061 52.9349 17.1557L52.4589 17.1855L32.2679 18.2664C32.2679 18.2664 32.258 18.2664 32.258 18.2565ZM92.6326 43.525C93.7433 44.715 94.0012 46.391 93.9218 47.9678C93.902 48.424 93.7731 49.6636 93.7334 49.7132C93.545 51.0024 93.2475 52.2916 92.9103 53.5312C92.3847 55.4749 91.6608 57.379 90.679 59.1442C89.4096 61.4251 85.1751 65.749 84.9966 65.7886C84.5999 65.8878 83.3801 66.2448 83.152 66.344C83.0925 66.3638 78.3324 66.7109 75.8928 66.5522C65.0238 65.868 55.1762 59.3922 50.2078 49.7033C50.0888 49.8619 49.9599 49.9908 49.8904 49.9611C48.5913 49.3165 47.6194 48.1761 47.1434 46.8174C47.1236 46.7579 47.2128 46.6488 47.2327 46.5993C47.2525 46.5695 47.2723 46.5397 47.2922 46.5199C45.3683 45.1811 42.889 46.4902 40.8461 46.9364C36.9983 47.7893 32.7539 46.8075 29.2532 45.1514C28.7672 44.9134 27.0119 42.9101 26.7045 42.206C26.6748 42.1267 26.6351 42.0374 26.6153 41.9581C26.764 42.0077 26.9227 42.0474 27.0714 42.0969C26.9326 41.6804 26.8235 41.254 26.7442 40.8177C26.7144 40.8077 26.6748 40.7978 26.645 40.7879C26.7243 40.6491 26.8037 40.5598 26.8433 40.5896V40.6094C27.1607 40.0045 27.7061 39.4293 28.3309 39.1615C27.7061 38.7648 27.1012 38.3483 26.5359 37.8723C25.4054 36.9302 23.7195 35.5319 24.1856 33.8559C24.4534 32.894 25.2467 31.9419 26.2087 31.5949C25.326 30.3255 25.217 28.8479 26.1888 27.4793C26.9624 26.3785 28.1821 25.7438 29.4119 25.9521C29.0449 25.2083 28.8664 24.3852 29.273 23.6117C29.63 22.9472 30.2151 22.3621 30.9986 22.2828C31.2068 22.263 31.425 22.2729 31.6333 22.2927C31.7423 20.944 31.8614 19.5854 31.9704 18.2367C31.9804 18.1474 32.0002 18.0483 32.02 17.9491C21.6865 14.855 12.6125 12.9509 2.64591 10.3626C2.15997 18.6333 1.84263 24.3059 1.35669 32.5865C1.35669 32.6262 1.3567 32.6857 1.34678 32.7452C9.53821 35.5616 17.8288 37.8723 26.645 40.7879C26.5756 40.9267 26.5062 41.0953 26.4764 41.2342C26.5359 41.1647 26.6153 41.0854 26.6748 40.9961C26.6748 41.016 26.6549 41.0358 26.6549 41.0557C26.5756 41.3036 26.5458 41.5416 26.5458 41.7796C26.5657 41.8391 26.5855 41.8986 26.6153 41.9581C17.6503 39.34 9.29028 36.593 0.969933 33.727C0.88068 33.6973 0.94018 33.3601 1.02943 33.0725C1.5352 24.5538 1.86247 18.6234 2.35832 10.0948C2.35832 10.0651 2.36823 10.0155 2.36823 9.97582C2.35831 9.73781 2.49716 9.03371 2.66574 9.05355C5.42267 9.2618 36.7108 8.28002 39.8842 8.35936C39.9437 8.18085 43.7617 8.72628 45.6063 9.0833C45.6063 9.12296 45.6162 9.17255 45.6162 9.21222C44.0592 9.09322 42.1552 8.50811 40.5982 8.52795C41.223 8.68662 41.5899 8.7362 42.2345 8.69653C42.3436 8.69653 42.7899 8.87504 42.6808 9.16263C43.6526 9.18247 46.0526 9.39072 47.0244 9.47006C47.0839 9.47997 47.0343 9.41056 46.9252 9.30147C47.1434 9.34114 47.3715 9.38081 47.3715 9.41056C48.383 9.61882 51.3482 10.3229 54.8787 11.1758C55.0969 11.4336 55.2952 11.7014 55.4836 11.9791C55.4935 11.9791 55.5034 11.9691 55.5134 11.9691C55.8406 11.9493 56.158 11.9691 56.4753 12.0187C56.396 11.8402 56.3067 11.6716 56.2076 11.503C63.1098 13.179 71.4004 15.2219 71.5789 15.2219C71.6285 15.1327 71.7375 16.2136 71.7475 16.7392C71.8268 18.673 71.9061 20.6167 71.9855 22.5605C73.6218 22.6101 75.2581 22.5605 76.8845 22.3919C78.61 22.2233 80.3356 21.9555 82.081 22.025C83.6776 22.0845 85.3238 22.4514 86.6527 23.3836C87.8229 24.2067 88.5766 25.4265 88.9634 26.7851C89.7666 29.5916 89.122 32.7452 87.8923 35.3336C86.8014 37.6244 85.175 39.6772 83.152 41.2243C84.5899 41.3036 86.0279 41.3928 87.456 41.5515C89.2807 41.7399 91.3236 42.1267 92.6326 43.525ZM93.307 48.5232C93.307 48.5232 93.2574 48.5529 93.2376 48.5529L92.6425 48.6521C92.6425 48.6521 92.6426 48.6322 92.6525 48.6124C88.5964 49.0091 84.5205 49.1082 80.4447 48.8901C80.3554 48.8901 80.762 48.0868 80.9802 48.0967C85.0957 48.3149 89.2113 48.2157 93.3169 47.7992C93.2871 46.986 93.1483 46.1827 92.8012 45.4489C92.0475 43.8622 90.4707 43.049 88.8245 42.6622C86.9601 42.2259 84.9866 42.1664 83.0826 42.0573C75.5556 41.6308 67.4732 41.6804 60.9479 37.3665C60.2041 39.3004 59.2025 41.1251 57.9728 42.7812L57.8042 42.6622C58.9744 41.0656 59.9165 39.2805 60.5809 37.3765C60.0058 35.6906 58.9149 34.2228 57.4868 33.1716C57.3282 33.9055 56.8621 34.6493 56.5447 35.284C56.0885 36.1963 55.6224 37.1087 55.1167 38.0111C53.3415 41.1846 51.011 43.9812 48.1748 46.2323C48.1153 46.3315 48.0459 46.4207 47.9665 46.5199C48.4425 47.5612 49.2359 48.4438 50.2375 49.0091H50.2474C52.3003 47.9975 54.1547 46.6588 55.7514 45.0621L55.8902 45.2109C55.434 45.677 54.9679 46.1331 54.4721 46.5596C58.2207 51.4982 63.4172 55.2072 69.298 57.141C69.3475 57.1608 68.9112 58.0137 68.703 57.9344C62.8123 56.0006 57.6059 52.2718 53.8572 47.3331C53.8076 47.2637 53.8771 47.1348 53.9762 46.9959C53.0143 47.7794 51.9928 48.4934 50.9218 49.1083C52.2804 51.7263 53.9961 54.1362 56.039 56.2584C63.2784 63.825 74.0284 67.1968 84.2726 65.2432C88.1006 63.3589 90.5104 59.7194 91.8393 55.7328C92.4244 53.9576 92.8607 52.1131 93.1285 50.2686C90.074 52.5197 86.3056 53.7097 82.4975 53.6006C82.4181 53.6006 82.8049 52.7974 83.033 52.7974C86.6527 52.9065 90.2327 51.8354 93.1979 49.7727C93.2475 49.3661 93.2872 48.9496 93.307 48.5232ZM88.6758 30.0181C88.6758 30.0181 88.5964 30.0676 88.5568 30.0875C86.2957 30.7717 83.9949 31.3172 81.6545 31.694C81.5455 31.7139 81.7438 31.3767 81.7636 31.337C81.8529 31.2081 82.0214 30.9205 82.19 30.8908C84.3718 30.5437 86.5337 30.0379 88.6559 29.4032C88.6361 29.0958 88.6063 28.7883 88.5667 28.4908C88.5369 28.4908 88.5171 28.5007 88.4973 28.4908C85.7304 27.5289 82.8049 27.1223 79.8794 27.3008C79.7604 27.3008 79.9587 26.9835 79.9885 26.9438C80.0678 26.8248 80.2562 26.5074 80.4149 26.4975C83.0925 26.3388 85.7701 26.6859 88.3386 27.4793C88.0708 26.5769 87.6444 25.7339 86.9998 25.0199C84.7784 22.5605 81.1686 22.6696 78.1538 22.9968C76.101 23.215 74.068 23.3538 72.0152 23.3439L72.521 35.6608C72.521 35.7798 72.5111 35.998 72.4615 36.1666C72.4912 36.1666 72.521 36.1567 72.5507 36.1567C72.5904 36.1567 72.5904 37.0789 72.3524 37.1285L65.0932 38.4376C66.1741 38.8838 67.2947 39.2706 68.4352 39.578C68.5641 39.578 72.7887 40.5003 74.792 40.7086C77.3803 40.9763 79.9984 41.0656 82.5966 41.1945C82.6165 41.1846 82.6363 41.1548 82.6561 41.1449C85.6213 39.2012 87.6642 36.1963 88.3981 32.7254C88.5865 31.8626 88.6758 30.9403 88.6758 30.0181ZM52.3598 16.1541C52.6077 16.1541 63.2486 15.8764 68.0187 15.5095C64.3593 14.4682 39.7553 9.38081 39.5867 9.38081C39.5668 11.7411 39.5569 14.0914 39.5371 16.4516C39.5371 16.6103 39.5073 16.769 39.4677 16.9177C40.9056 16.8483 49.1467 16.3624 52.3697 16.1839C52.3697 16.1739 52.3697 16.164 52.3598 16.1541ZM56.7034 34.4014C56.7034 34.4014 56.6538 34.4212 56.6439 34.4113C56.4852 34.3022 54.125 30.9899 53.9068 29.1553C53.6886 27.3306 53.8572 25.4959 53.9068 23.6613C53.9266 22.6993 53.9068 21.7275 53.7878 20.7655C53.6787 19.9622 53.4903 19.0201 52.8159 18.4846C51.8639 17.7408 50.654 18.3953 50.0788 19.278C49.4739 20.2201 48.988 21.2415 48.5715 22.2828C47.9169 23.9389 47.2823 27.6181 47.2426 27.6975C47.2128 27.9256 47.1732 28.1537 47.1533 28.3818C47.1434 28.5702 46.5286 29.2346 46.5385 29.1156C46.5583 28.8379 46.6079 28.5801 46.6377 28.3123C46.5782 28.352 42.3436 28.6198 40.4495 27.8958C38.2975 27.0727 36.4033 25.7339 34.4298 24.5835C33.5175 24.048 32.5655 23.4629 31.5341 23.1952C31.1077 23.0762 30.6217 23.0067 30.1854 23.1258C29.5804 23.2943 29.6003 23.8497 29.7193 24.3654C29.9573 25.4166 30.7407 26.319 31.425 27.1223C32.139 27.9454 32.9225 28.709 33.7555 29.4032C35.5009 30.8313 37.4843 31.932 39.6164 32.6758C39.666 32.6956 39.2297 33.5386 39.0214 33.4692C36.3438 32.537 33.8943 31.0197 31.8713 29.0264C31.2862 28.4512 30.6911 27.8165 30.1854 27.1421C30.116 27.2116 28.4797 26.5769 27.6466 26.7851C26.5062 27.0628 25.9409 28.0942 26.1194 29.2346C26.3574 30.8213 27.7954 31.942 28.9953 32.8444C32.1787 35.2542 35.7885 37.069 39.6164 38.2194C39.666 38.2194 39.2495 39.0822 39.0214 39.0128C38.714 38.9235 38.4165 38.8243 38.109 38.7252C36.0562 38.0508 34.053 37.1682 32.1588 36.1071C30.235 35.0261 28.1623 33.7667 26.6549 32.1304C26.6351 32.1105 26.6153 32.0808 26.5954 32.061C26.5161 32.17 24.8104 32.6857 24.7409 33.5485C24.6814 34.2229 25.0087 34.8575 25.4153 35.3831C26.3277 36.5534 27.607 37.5351 28.8565 38.3384C31.3754 39.9648 34.291 40.9267 37.276 41.1251L37.871 41.1548C37.9603 41.1548 37.5636 41.9581 37.3454 41.9482C34.6381 41.8689 31.9704 41.1449 29.5904 39.8855C29.4813 40.0144 28.4995 39.7466 28.0433 39.8755C27.4086 40.0441 27.1607 40.421 27.1706 41.0656C27.1805 41.849 27.5574 42.563 28.083 43.1283C28.1326 43.1481 30.0465 44.6853 30.4631 44.7745C30.6515 44.8142 30.8399 44.844 31.0283 44.8737C31.7324 45.1415 32.4564 45.3795 33.1406 45.5778C34.8464 46.0935 36.6116 46.4307 38.3966 46.4406C40.1817 46.4604 41.8081 46.0439 43.5039 45.5381C45.0212 45.0919 46.7864 44.834 48.1054 45.8952C50.3565 44.1894 52.3201 42.1267 53.8374 39.7367C54.6704 38.4277 55.3844 37.0393 56.0687 35.6509C56.2571 35.2641 56.515 34.8377 56.7133 34.4014H56.7034ZM39.2495 9.59898C39.2495 9.51965 39.2594 9.4403 39.2693 9.37088C36.7901 9.31138 12.553 10.5014 4.2822 9.89648C12.9596 12.346 23.3625 14.2104 32.4266 16.9871C32.496 17.007 32.4861 17.1359 32.4663 17.2846C32.4861 17.2648 32.5159 17.245 32.5357 17.245C34.7571 17.1359 36.9785 17.0367 39.1999 16.9276C39.2197 14.4881 39.2297 12.0386 39.2495 9.59898Z" fill="#1D1D1B"/>
<path d="M71.8369 26.3587C71.9658 29.6412 72.1046 32.9237 72.2435 36.2063C69.4171 36.722 66.6007 37.2277 63.7843 37.7335C63.7545 37.7434 63.7248 37.7632 63.705 37.793C62.9017 37.3963 62.1083 36.9599 61.3447 36.4443C61.3249 36.4343 61.2852 36.4542 61.2356 36.4839C61.2158 36.4839 61.186 36.5038 61.1563 36.5236C60.4423 34.5303 59.044 32.8345 57.1994 31.7932C57.1796 31.7734 57.1498 31.7833 57.1201 31.8031C56.9118 31.6544 56.644 31.6048 56.3465 31.7535C56.1383 31.8527 55.9399 32.0411 55.7813 32.2692C54.1846 29.7999 54.4028 26.6562 54.4921 23.7009C54.5119 23.7109 54.5417 23.7208 54.5615 23.7208C54.5615 23.5125 54.5813 23.2943 54.6012 23.0762C54.5615 23.1258 54.5317 23.1654 54.502 23.215C54.5218 22.6101 54.5317 22.0051 54.502 21.42C54.4524 20.0614 54.2441 17.364 52.469 17.364V17.1855L52.9351 17.1557C58.8754 17.1061 71.2419 16.2533 71.3609 16.2335H71.3708C71.4303 18.3359 71.4898 20.4382 71.5394 22.5406H71.5294C71.5294 22.62 71.5394 22.6993 71.5493 22.7787C71.579 23.9885 71.6088 25.1885 71.6484 26.3884C71.7079 26.3785 71.7774 26.3686 71.8369 26.3587Z" fill="#1D1D1B"/>
<path d="M63.3181 45.8654C63.3181 45.8654 62.9512 46.7183 62.7231 46.6588C60.7001 46.1332 58.8456 45.1018 57.3283 43.6539C57.3184 43.644 57.3184 43.6143 57.3184 43.5944L57.1895 43.4853C57.3977 43.2176 57.606 42.9399 57.8043 42.6622L57.9729 42.7812C57.9729 42.7812 57.9332 42.8308 57.9134 42.8606H57.9233C59.4406 44.3085 61.2951 45.3398 63.3181 45.8654Z" fill="#1D1D1B"/>
<path d="M62.5543 48.8703C62.5543 48.8703 62.1874 49.7231 61.9593 49.6636C59.48 48.9496 57.3181 47.3629 55.8901 45.2109L55.7512 45.0622C56.257 44.5663 56.733 44.0308 57.1892 43.4854L57.3181 43.5945C57.0702 43.9019 56.8223 44.2192 56.5545 44.5167C57.9826 46.6191 60.1147 48.1662 62.5543 48.8703Z" fill="#1D1D1B"/>
<path d="M56.2075 11.503C56.3067 11.6716 56.3959 11.8402 56.4753 12.0187C56.1579 11.9691 55.8406 11.9493 55.5133 11.9691C55.5034 11.9691 55.4935 11.9791 55.4836 11.9791C55.2952 11.7014 55.0968 11.4336 54.8787 11.1758C55.315 11.275 55.7613 11.384 56.2075 11.503Z" fill="#1D1D1B"/>
<path d="M56.2076 11.5031C55.7614 11.3841 55.3151 11.275 54.8788 11.1758C54.5713 10.789 54.2242 10.4221 53.8672 10.0651C52.9251 9.1329 51.9136 8.24036 51.14 7.15941C50.7929 6.6834 50.4954 6.1578 50.2971 5.59253C50.0492 4.8785 50.0294 4.13474 49.9798 3.38104C49.9302 2.54802 49.7517 1.61583 48.998 1.11006C48.0658 0.485291 47.1633 1.24889 46.6972 2.06208C45.6361 3.93639 45.775 6.38589 46.0427 8.44862C46.0625 8.56763 46.6576 9.04364 46.9253 9.30149C46.7567 9.28165 46.608 9.26181 46.5782 9.26181C46.5088 9.25189 45.6361 9.23207 45.6163 9.08331H45.6064C45.4378 7.00074 45.4576 4.13474 46.37 2.25051C46.7171 1.5464 47.1435 0.753048 47.8079 0.28695C48.5517 -0.238651 49.4046 -0.0105673 49.9203 0.713373C50.4955 1.51665 50.426 2.52819 50.4954 3.46038C50.5748 4.31324 50.8326 5.1066 51.2789 5.84045C52.5979 7.96269 54.9779 9.35107 56.2076 11.5031Z" fill="#1D1D1B"/>
<path d="M52.4589 17.1855V17.364C52.3101 17.364 52.1416 17.3838 51.963 17.4235C51.13 17.6218 50.5052 18.3259 50.0193 19.0003C49.5532 19.635 49.1664 20.3292 48.8094 21.0333C48.7598 21.0134 48.7004 20.9936 48.6508 20.9837C48.5814 21.1027 48.5119 21.2316 48.4524 21.3506C48.3731 21.5093 48.2838 21.668 48.2045 21.8266H48.2343C48.3136 21.8564 48.4227 21.7671 48.5219 21.6382C48.502 21.6779 48.4822 21.7076 48.4624 21.7473C47.5996 23.6018 47.0244 25.5753 46.717 27.5983C42.2246 28.8677 38.1586 25.5257 34.3901 23.4332C34.0331 23.334 33.686 23.215 33.3588 23.0266C33.3191 22.9968 33.3092 22.9373 33.3191 22.8679C32.8728 22.6497 32.3968 22.4613 31.9109 22.3522C32.0299 20.9936 32.139 19.6151 32.258 18.2565C32.258 18.2664 32.2679 18.2664 32.2679 18.2664L52.4589 17.1855Z" fill="#1D1D1B"/>
<path d="M46.9254 9.30148C47.0345 9.41057 47.0841 9.47999 47.0246 9.47007C46.0527 9.39073 43.6528 9.18248 42.6809 9.16264C42.79 8.87505 42.3438 8.69655 42.2347 8.69655C41.5901 8.73621 41.2232 8.68663 40.5984 8.52796C42.1554 8.50812 44.0594 9.09323 45.6164 9.21223C45.6164 9.17256 45.6065 9.12298 45.6065 9.08331H45.6164C45.6362 9.23206 46.5089 9.25189 46.5783 9.26181C46.6081 9.26181 46.7568 9.28165 46.9254 9.30148Z" fill="#1D1D1B"/>
<path d="M27.0713 42.0969C26.9226 42.0473 26.7639 42.0076 26.6152 41.958C26.5854 41.8985 26.5656 41.839 26.5457 41.7795C26.5457 41.5415 26.5755 41.3035 26.6548 41.0556C26.6548 41.0358 26.6747 41.0159 26.6747 40.9961C26.6152 41.0853 26.5358 41.1647 26.4763 41.2341C26.5061 41.0953 26.5755 40.9267 26.6449 40.7878C26.6747 40.7978 26.7143 40.8077 26.7441 40.8176C26.8234 41.2539 26.9325 41.6804 27.0713 42.0969Z" fill="#1D1D1B"/>
</svg>
