<svg width="94" height="67" viewBox="0 0 94 67" fill="none" xmlns="http://www.w3.org/2000/svg">
<path d="M62.5226 18.2565C62.6416 19.6151 62.7506 20.9936 62.8696 22.3522C62.3837 22.4613 61.9077 22.6497 61.4614 22.8679C61.4713 22.9373 61.4615 22.9968 61.4218 23.0266C61.0945 23.215 60.7474 23.334 60.3904 23.4332C56.6219 25.5257 52.556 28.8677 48.0636 27.5983C47.7561 25.5752 47.181 23.6018 46.3182 21.7473C46.2983 21.7076 46.2785 21.6779 46.2587 21.6382C46.3578 21.7671 46.467 21.8564 46.5463 21.8365H46.576C46.4967 21.668 46.4074 21.5093 46.3281 21.3506C46.2686 21.2316 46.1992 21.1027 46.1297 20.9837C46.0802 20.9936 46.0207 21.0134 45.9711 21.0333C45.6141 20.3292 45.2273 19.635 44.7612 19.0003C44.2753 18.3259 43.6505 17.6218 42.8175 17.4235C42.639 17.3838 42.4704 17.364 42.3117 17.364C40.5366 17.364 40.3283 20.0614 40.2788 21.42C40.249 22.0051 40.2589 22.6101 40.2788 23.215C40.249 23.1654 40.2192 23.1257 40.1796 23.0762C40.1994 23.2943 40.2093 23.5125 40.2193 23.7208C40.2391 23.7208 40.2689 23.7109 40.2887 23.7009C40.3779 26.6562 40.5961 29.7999 38.9994 32.2692C38.8408 32.0411 38.6424 31.8527 38.4342 31.7535C38.1366 31.6048 37.8689 31.6544 37.6607 31.8031C37.6309 31.7833 37.6011 31.7734 37.5813 31.7932C35.7368 32.8345 34.3385 34.5303 33.6244 36.5236C33.5947 36.5038 33.5649 36.4839 33.5451 36.4839C33.4955 36.4542 33.4559 36.4343 33.436 36.4443C32.6724 36.9599 31.879 37.3963 31.0758 37.793C31.0559 37.7632 31.0262 37.7434 30.9964 37.7335C28.18 37.2277 25.3636 36.7219 22.5373 36.2063C22.6761 32.9237 22.8149 29.6412 22.9438 26.3587C23.0033 26.3686 23.0728 26.3785 23.1323 26.3884C23.1719 25.1885 23.2017 23.9885 23.2315 22.7787C23.2414 22.6993 23.2513 22.62 23.2513 22.5407H23.2414C23.291 20.4383 23.3505 18.3359 23.41 16.2334H23.4199C23.5389 16.2533 35.9053 17.1061 41.8456 17.1557L42.3217 17.1855L62.5126 18.2664C62.5126 18.2664 62.5226 18.2664 62.5226 18.2565ZM2.14794 43.525C1.03724 44.715 0.77938 46.391 0.858716 47.9678C0.87855 48.424 1.00747 49.6636 1.04714 49.7132C1.23556 51.0024 1.53309 52.2916 1.87027 53.5312C2.39587 55.4749 3.11981 57.379 4.10159 59.1442C5.37096 61.4251 9.6055 65.749 9.784 65.7886C10.1807 65.8878 11.4005 66.2448 11.6286 66.344C11.6881 66.3638 16.4482 66.7109 18.8878 66.5522C29.7568 65.868 39.6044 59.3922 44.5728 49.7033C44.6918 49.8619 44.8207 49.9909 44.8901 49.9611C46.1892 49.3165 47.1611 48.1761 47.6371 46.8174C47.657 46.7579 47.5677 46.6488 47.5479 46.5993C47.528 46.5695 47.5082 46.5398 47.4884 46.5199C49.4123 45.1811 51.8915 46.4902 53.9344 46.9364C57.7822 47.7893 62.0267 46.8075 65.5274 45.1514C66.0133 44.9134 67.7686 42.9101 68.076 42.206C68.1058 42.1267 68.1455 42.0374 68.1653 41.9581C68.0166 42.0077 67.8579 42.0474 67.7091 42.097C67.848 41.6804 67.9571 41.254 68.0364 40.8177C68.0661 40.8077 68.1058 40.7978 68.1355 40.7879C68.0562 40.6491 67.9769 40.5598 67.9372 40.5896V40.6094C67.6198 40.0045 67.0744 39.4293 66.4496 39.1615C67.0744 38.7648 67.6794 38.3483 68.2447 37.8723C69.3752 36.9302 71.0611 35.5319 70.595 33.8559C70.3272 32.894 69.5338 31.9419 68.5719 31.5949C69.4545 30.3255 69.5636 28.8479 68.5917 27.4793C67.8182 26.3785 66.5984 25.7438 65.3687 25.9521C65.7357 25.2083 65.9142 24.3852 65.5076 23.6117C65.1506 22.9473 64.5655 22.3621 63.782 22.2828C63.5738 22.263 63.3556 22.2729 63.1473 22.2927C63.0382 20.944 62.9192 19.5854 62.8101 18.2367C62.8002 18.1474 62.7804 18.0483 62.7606 17.9491C73.0941 14.855 82.1681 12.9509 92.1347 10.3626C92.6206 18.6334 92.9379 24.3059 93.4239 32.5865C93.4239 32.6262 93.4239 32.6857 93.4338 32.7452C85.2424 35.5616 76.9517 37.8723 68.1355 40.7879C68.205 40.9267 68.2744 41.0953 68.3042 41.2342C68.2447 41.1647 68.1653 41.0854 68.1058 40.9962C68.1058 41.016 68.1256 41.0358 68.1256 41.0557C68.205 41.3036 68.2347 41.5416 68.2347 41.7796C68.2149 41.8391 68.1951 41.8986 68.1653 41.9581C77.1303 39.34 85.4903 36.593 93.8106 33.727C93.8999 33.6973 93.8404 33.3601 93.7511 33.0725C93.2454 24.5538 92.9181 18.6234 92.4222 10.0948C92.4222 10.0651 92.4124 10.0155 92.4124 9.97583C92.4223 9.73783 92.2834 9.03371 92.1148 9.05355C89.3579 9.2618 58.0698 8.28002 54.8964 8.35936C54.8369 8.18085 51.0188 8.72628 49.1743 9.0833C49.1743 9.12296 49.1643 9.17255 49.1643 9.21222C50.7213 9.09322 52.6254 8.50811 54.1823 8.52795C53.5576 8.68662 53.1907 8.7362 52.5461 8.69653C52.437 8.69653 51.9907 8.87504 52.0998 9.16263C51.1279 9.18247 48.728 9.39072 47.7561 9.47006C47.6966 9.47997 47.7462 9.41056 47.8553 9.30147C47.6371 9.34114 47.4091 9.38081 47.4091 9.41056C46.3975 9.61882 43.4324 10.3229 39.9019 11.1758C39.6837 11.4336 39.4854 11.7014 39.297 11.9791C39.2871 11.9791 39.2771 11.9791 39.2672 11.9791C38.94 11.9592 38.6226 11.9791 38.3053 12.0286C38.3846 11.8501 38.4738 11.6815 38.573 11.513C31.6708 13.1889 23.3802 15.2318 23.2017 15.2318C23.1521 15.1426 23.043 16.2235 23.0331 16.7491C22.9538 18.6829 22.8744 20.6267 22.7951 22.5704C21.1588 22.62 19.5225 22.5704 17.8961 22.4018C16.1706 22.2332 14.445 21.9655 12.6996 22.0349C11.103 22.0944 9.45676 22.4613 8.12788 23.3935C6.95768 24.2166 6.20397 25.4364 5.81721 26.795C5.01393 29.6015 5.65855 32.7551 6.88826 35.3435C7.97913 37.6343 9.60551 39.6871 11.6286 41.2342C10.1906 41.3135 8.75266 41.4028 7.32461 41.5614C5.49988 41.7498 3.45698 42.1366 2.14794 43.5349V43.525ZM1.47359 48.5232C1.47359 48.5232 1.52316 48.5529 1.54299 48.5529L2.13802 48.6521C2.13802 48.6521 2.13801 48.6322 2.12809 48.6124C6.18414 49.0091 10.26 49.1082 14.3359 48.8901C14.4252 48.8901 14.0186 48.0868 13.8004 48.0967C9.68485 48.3149 5.5693 48.2157 1.46367 47.7992C1.49342 46.986 1.63225 46.1827 1.97934 45.4489C2.73303 43.8622 4.30984 43.049 5.95606 42.6622C7.82045 42.2259 9.79394 42.1664 11.698 42.0573C19.225 41.6308 27.3073 41.6804 33.8327 37.3665C34.5765 39.3004 35.5781 41.1251 36.8078 42.7812L36.9764 42.6622C35.8062 41.0656 34.8641 39.2805 34.1996 37.3765C34.7748 35.6906 35.8657 34.2229 37.2937 33.1717C37.4524 33.9055 37.9185 34.6493 38.2359 35.284C38.692 36.1963 39.1581 37.1087 39.6639 38.0111C41.4391 41.1846 43.7695 43.9812 46.6058 46.2323C46.6653 46.3315 46.7347 46.4207 46.814 46.5199C46.338 47.5612 45.5447 48.4438 44.5431 49.0091H44.5331C42.4803 47.9975 40.6258 46.6588 39.0292 45.0621L38.8904 45.2109C39.3465 45.677 39.8126 46.1332 40.3085 46.5596C36.5599 51.4983 31.3633 55.2072 25.4826 57.141C25.433 57.1608 25.8694 58.0137 26.0776 57.9344C31.9683 56.0006 37.1747 52.2718 40.9233 47.3331C40.9729 47.2637 40.9035 47.1348 40.8043 46.9959C41.7663 47.7794 42.7877 48.4934 43.8588 49.1083C42.5002 51.7263 40.7845 54.1362 38.7416 56.2584C31.5022 63.825 20.7522 67.1968 10.508 65.2432C6.68 63.3589 4.27016 59.7194 2.94129 55.7328C2.35619 53.9576 1.91985 52.1131 1.65209 50.2686C4.70652 52.5197 8.47498 53.7097 12.2831 53.6006C12.3624 53.6006 11.9757 52.7974 11.7476 52.7974C8.12788 52.9065 4.54785 51.8354 1.58267 49.7727C1.53308 49.3661 1.49343 48.9496 1.47359 48.5232ZM6.10481 30.0181C6.10481 30.0181 6.18414 30.0676 6.22381 30.0875C8.48488 30.7718 10.7856 31.3172 13.1261 31.694C13.2351 31.7139 13.0368 31.3767 13.0169 31.337C12.9277 31.2081 12.7591 30.9205 12.5905 30.8908C10.4088 30.5437 8.2469 30.0379 6.12466 29.4032C6.1445 29.0958 6.17424 28.7884 6.21391 28.4908C6.24366 28.4908 6.26347 28.4908 6.28331 28.4908C9.05015 27.5289 11.9757 27.1223 14.9012 27.3008C15.0202 27.3008 14.8218 26.9835 14.7921 26.9438C14.7128 26.8248 14.5243 26.5074 14.3657 26.4975C11.6881 26.3388 9.01048 26.6859 6.44198 27.4793C6.70974 26.5769 7.13618 25.7339 7.78078 25.0199C10.0022 22.5605 13.612 22.6696 16.6267 22.9968C18.6796 23.215 20.7125 23.3538 22.7653 23.3439L22.2596 35.6608C22.2596 35.7798 22.2695 35.998 22.3191 36.1666C22.2893 36.1666 22.2596 36.1567 22.2298 36.1567C22.1902 36.1468 22.1902 37.0789 22.4282 37.1285L29.6874 38.4376C28.6065 38.8838 27.4859 39.2706 26.3454 39.578C26.2165 39.578 21.9918 40.5003 19.9886 40.7086C17.4003 40.9763 14.7822 41.0656 12.1839 41.1945C12.1641 41.1846 12.1443 41.1548 12.1244 41.1449C9.15925 39.2012 7.11634 36.1963 6.38248 32.7254C6.19406 31.8626 6.10481 30.9403 6.10481 30.0181ZM42.4208 16.1541C42.1729 16.1541 31.532 15.8764 26.7619 15.5095C30.4213 14.4682 55.0253 9.38081 55.1939 9.38081C55.2137 11.7411 55.2236 14.0914 55.2435 16.4516C55.2435 16.6103 55.2732 16.769 55.3129 16.9177C53.8749 16.8483 45.6339 16.3624 42.4109 16.1839C42.4109 16.1739 42.4109 16.164 42.4208 16.1541ZM38.0772 34.4014C38.0772 34.4014 38.1267 34.4212 38.1367 34.4113C38.2953 34.3022 40.6556 30.9899 40.8738 29.1553C41.0919 27.3306 40.9233 25.4959 40.8738 23.6613C40.8539 22.6993 40.8738 21.7275 40.9928 20.7655C41.1018 19.9622 41.2903 19.0201 41.9647 18.4846C42.9167 17.7408 44.1265 18.3953 44.7017 19.278C45.3066 20.2201 45.7926 21.2415 46.2091 22.2828C46.8636 23.9389 47.4983 27.6181 47.538 27.6975C47.5678 27.9256 47.6074 28.1537 47.6272 28.3818C47.6371 28.5702 48.252 29.2346 48.2421 29.1156C48.2222 28.8379 48.1727 28.5801 48.1429 28.3123C48.2024 28.352 52.437 28.6198 54.3311 27.8958C56.4831 27.0727 58.3773 25.7339 60.3507 24.5835C61.2631 24.048 62.2151 23.4629 63.2465 23.1952C63.6729 23.0762 64.1588 23.0067 64.5952 23.1258C65.2001 23.2943 65.1803 23.8497 65.0613 24.3654C64.8233 25.4166 64.0398 26.319 63.3555 27.1223C62.6415 27.9454 61.8581 28.709 61.0251 29.4032C59.2797 30.8313 57.2963 31.932 55.1642 32.6758C55.1146 32.6956 55.5509 33.5386 55.7592 33.4692C58.4367 32.537 60.8863 31.0197 62.9093 29.0264C63.4944 28.4512 64.0894 27.8165 64.5952 27.1421C64.6646 27.2116 66.3009 26.5769 67.1339 26.7851C68.2744 27.0628 68.8397 28.0942 68.6612 29.2346C68.4232 30.8213 66.9852 31.942 65.7852 32.8444C62.6019 35.2542 58.9921 37.069 55.1642 38.2194C55.1146 38.2293 55.5311 39.0822 55.7592 39.0128C56.0666 38.9235 56.3641 38.8243 56.6715 38.7252C58.7243 38.0508 60.7276 37.1682 62.6217 36.1071C64.5456 35.0261 66.6182 33.7667 68.1256 32.1304C68.1454 32.1105 68.1653 32.0808 68.1851 32.061C68.2645 32.17 69.9702 32.6857 70.0396 33.5485C70.0991 34.2229 69.7718 34.8575 69.3652 35.3831C68.4529 36.5534 67.1736 37.5351 65.9241 38.3384C63.4052 39.9648 60.4896 40.9267 57.5046 41.1251L56.9095 41.1548C56.8203 41.1548 57.217 41.9581 57.4351 41.9482C60.1425 41.8689 62.8101 41.1449 65.1902 39.8855C65.2993 40.0144 66.2811 39.7466 66.7373 39.8755C67.372 40.0441 67.6199 40.421 67.61 41.0656C67.6001 41.849 67.2232 42.563 66.6976 43.1283C66.648 43.1481 64.734 44.6853 64.3175 44.7745C64.1291 44.8142 63.9407 44.8439 63.7523 44.8737C63.0481 45.1415 62.3242 45.3795 61.6399 45.5778C59.9342 46.0935 58.169 46.4307 56.3839 46.4406C54.5989 46.4604 52.9725 46.0439 51.2767 45.5381C49.7594 45.0919 47.9942 44.834 46.6752 45.8951C44.4241 44.1894 42.4605 42.1267 40.9432 39.7367C40.1102 38.4277 39.3961 37.0393 38.7119 35.6509C38.5234 35.2641 38.2656 34.8377 38.0672 34.4014H38.0772ZM55.5311 9.59898C55.5311 9.51965 55.5212 9.44032 55.5112 9.3709C57.9905 9.3114 82.2276 10.5014 90.4983 9.8965C81.821 12.346 71.4181 14.2104 62.354 16.9871C62.2846 17.007 62.2944 17.1359 62.3143 17.2846C62.2944 17.2648 62.2647 17.245 62.2448 17.245C60.0234 17.1359 57.8021 17.0367 55.5807 16.9276C55.5608 14.4881 55.5509 12.0386 55.5311 9.59898Z" fill="#1D1D1B"/>
<path d="M22.9437 26.3587C22.8148 29.6412 22.6759 32.9237 22.5371 36.2063C25.3635 36.722 28.1798 37.2277 30.9963 37.7335C31.026 37.7434 31.0558 37.7632 31.0756 37.793C31.8789 37.3963 32.6723 36.9599 33.4359 36.4443C33.4557 36.4343 33.4954 36.4542 33.5449 36.4839C33.5648 36.4839 33.5945 36.5038 33.6243 36.5236C34.3383 34.5303 35.7366 32.8345 37.5812 31.7932C37.601 31.7734 37.6308 31.7833 37.6605 31.8031C37.8688 31.6544 38.1365 31.6048 38.434 31.7535C38.6423 31.8527 38.8406 32.0411 38.9993 32.2692C40.5959 29.7999 40.3778 26.6562 40.2885 23.7009C40.2687 23.7109 40.2389 23.7208 40.2191 23.7208C40.2191 23.5125 40.1992 23.2943 40.1794 23.0762C40.2191 23.1258 40.2489 23.1654 40.2786 23.215C40.2588 22.6101 40.2489 22.0051 40.2786 21.42C40.3282 20.0614 40.5364 17.364 42.3116 17.364V17.1855L41.8455 17.1557C35.9052 17.1061 23.5387 16.2533 23.4197 16.2335H23.4098C23.3503 18.3359 23.2908 20.4383 23.2412 22.5407H23.2511C23.2511 22.62 23.2412 22.6993 23.2313 22.7787C23.2016 23.9885 23.1718 25.1885 23.1321 26.3884C23.0726 26.3785 23.0032 26.3686 22.9437 26.3587Z" fill="#1D1D1B"/>
<path d="M31.4624 45.8654C31.4624 45.8654 31.8293 46.7183 32.0574 46.6588C34.0805 46.1332 35.9349 45.1018 37.4522 43.6539C37.4622 43.644 37.4622 43.6143 37.4622 43.5944L37.5911 43.4853C37.3828 43.2176 37.1746 42.9399 36.9762 42.6622L36.8077 42.7812C36.8077 42.7812 36.8473 42.8308 36.8672 42.8606H36.8572C35.3399 44.3084 33.4855 45.3398 31.4624 45.8654Z" fill="#1D1D1B"/>
<path d="M32.2261 48.8703C32.2261 48.8703 32.593 49.7231 32.8211 49.6636C35.3003 48.9496 37.4622 47.3629 38.8903 45.2109L39.0291 45.0621C38.5233 44.5663 38.0473 44.0308 37.5911 43.4854L37.4622 43.5944C37.7101 43.9019 37.9581 44.2192 38.2258 44.5167C36.7978 46.6191 34.6657 48.1662 32.2261 48.8703Z" fill="#1D1D1B"/>
<path d="M38.5729 11.503C38.4737 11.6716 38.3845 11.8402 38.3052 12.0187C38.6225 11.9691 38.9398 11.9493 39.2671 11.9691C39.277 11.9691 39.287 11.9691 39.2969 11.9691C39.4853 11.6914 39.6836 11.4237 39.9018 11.1658C39.4654 11.265 39.0192 11.3741 38.5729 11.4931V11.503Z" fill="#1D1D1B"/>
<path d="M38.573 11.5031C39.0193 11.3841 39.4656 11.275 39.9019 11.1758C40.2093 10.789 40.5564 10.4221 40.9134 10.0651C41.8555 9.1329 42.867 8.24036 43.6406 7.15941C43.9877 6.6834 44.2852 6.1578 44.4835 5.59253C44.7315 4.8785 44.7513 4.13474 44.8009 3.38104C44.8505 2.54802 45.029 1.61583 45.7827 1.11006C46.7149 0.485291 47.6173 1.24889 48.0834 2.06208C49.1445 3.93639 49.0057 6.38589 48.7379 8.44862C48.7181 8.56763 48.123 9.04364 47.8553 9.30149C48.0239 9.28165 48.1727 9.26182 48.2024 9.26182C48.2718 9.25191 49.1445 9.23207 49.1643 9.08331H49.1743C49.3428 7.00074 49.3231 4.13474 48.4107 2.25051C48.0636 1.5464 47.6372 0.753048 46.9727 0.28695C46.2289 -0.238651 45.3761 -0.0105673 44.8604 0.713373C44.2852 1.51665 44.3546 2.52819 44.2852 3.46038C44.2059 4.31324 43.948 5.1066 43.5018 5.84045C42.1828 7.96269 39.8027 9.35107 38.573 11.5031Z" fill="#1D1D1B"/>
<path d="M42.3218 17.1855V17.364C42.4705 17.364 42.6391 17.3838 42.8176 17.4235C43.6507 17.6218 44.2754 18.3259 44.7613 19.0003C45.2274 19.635 45.6142 20.3292 45.9712 21.0333C46.0208 21.0134 46.0803 20.9936 46.1299 20.9837C46.1993 21.1027 46.2687 21.2316 46.3282 21.3506C46.4076 21.5093 46.4968 21.668 46.5761 21.8266H46.5464C46.4671 21.8564 46.358 21.7671 46.2588 21.6382C46.2786 21.6779 46.2985 21.7076 46.3183 21.7473C47.1811 23.6018 47.7563 25.5753 48.0637 27.5983C52.5561 28.8677 56.622 25.5257 60.3905 23.4332C60.7475 23.334 61.0946 23.215 61.4219 23.0266C61.4616 22.9968 61.4715 22.9373 61.4615 22.8679C61.9078 22.6498 62.3838 22.4613 62.8697 22.3522C62.7507 20.9936 62.6417 19.6151 62.5227 18.2565C62.5227 18.2664 62.5127 18.2664 62.5127 18.2664L42.3218 17.1855Z" fill="#1D1D1B"/>
<path d="M47.8551 9.30148C47.746 9.41057 47.6964 9.47999 47.7559 9.47007C48.7278 9.39073 51.1277 9.18248 52.0996 9.16264C51.9905 8.87505 52.4368 8.69655 52.5458 8.69655C53.1905 8.73621 53.5573 8.68663 54.1821 8.52796C52.6251 8.50812 50.7211 9.09323 49.1641 9.21223C49.1641 9.17256 49.1741 9.12298 49.1741 9.08331H49.1641C49.1443 9.23206 48.2716 9.2519 48.2022 9.26182C48.1725 9.26182 48.0237 9.28165 47.8551 9.30148Z" fill="#1D1D1B"/>
<path d="M67.709 42.0969C67.8577 42.0473 68.0164 42.0076 68.1652 41.9581C68.1949 41.8986 68.2148 41.839 68.2346 41.7795C68.2346 41.5415 68.2048 41.3035 68.1255 41.0556C68.1255 41.0358 68.1057 41.0159 68.1057 40.9961C68.1652 41.0854 68.2445 41.1647 68.304 41.2341C68.2743 41.0953 68.2048 40.9267 68.1354 40.7878C68.1057 40.7978 68.066 40.8077 68.0363 40.8176C67.9569 41.2539 67.8478 41.6804 67.709 42.0969Z" fill="#1D1D1B"/>
</svg>
