<svg width="93" height="78" viewBox="0 0 93 78" fill="none" xmlns="http://www.w3.org/2000/svg">
<path d="M23.8564 43.2684C24.9473 44.1015 26.0283 44.9444 27.1191 45.7874C27.4662 45.4303 27.8827 45.1428 28.3092 44.8948C28.3687 44.9345 28.4183 44.9642 28.4678 44.9444C28.7951 44.7659 29.0926 44.5477 29.3604 44.3097C33.1685 42.2867 38.1766 40.6702 39.555 36.2175C38.0278 34.8688 36.689 33.3118 35.5882 31.5763C35.5783 31.5465 35.5486 31.5168 35.5188 31.4772C35.5684 31.6259 35.5982 31.7647 35.5387 31.8143L35.5188 31.8342C35.4296 31.6854 35.3502 31.5267 35.261 31.3681C35.1816 31.249 35.1221 31.1201 35.0428 31.0011C35.0924 30.9615 35.132 30.9317 35.1717 30.8821C34.7651 30.2078 34.3982 29.4937 34.1205 28.7698C33.823 27.9963 33.5751 27.0938 33.8627 26.2707C33.9222 26.1021 34.0015 25.9435 34.0809 25.8245C35.0527 24.327 37.4328 25.636 38.603 26.3203C39.1088 26.6178 39.5947 26.955 40.1104 27.2922C40.0806 27.2426 40.0608 27.193 40.041 27.1434C40.2095 27.2624 40.3881 27.3913 40.5666 27.5203C40.5467 27.5401 40.5269 27.55 40.5071 27.5599C42.9466 29.2557 45.4556 31.1301 48.401 31.14C48.3018 30.8921 48.2522 30.6144 48.272 30.3863C48.3117 30.059 48.4902 29.8706 48.7282 29.7714C48.7282 29.7318 48.7481 29.7119 48.7679 29.702C50.662 28.7202 52.8339 28.4624 54.8966 28.9483C54.8966 28.9086 54.8966 28.8789 54.9164 28.869C54.9065 28.8095 54.9164 28.7599 54.9462 28.7599C55.7792 28.4029 56.5825 27.9765 57.3659 27.5104C57.356 27.4806 57.3461 27.4409 57.3659 27.4112C58.4667 24.7633 59.5675 22.1254 60.6782 19.4875C57.8519 17.8116 55.0156 16.1356 52.1893 14.4596C52.1694 14.529 52.1397 14.5885 52.1099 14.648C51.0786 14.0133 50.0571 13.3886 49.0257 12.7737C48.9563 12.734 48.8869 12.6944 48.8175 12.6646V12.6448C47.0324 11.5539 45.2276 10.4531 43.4326 9.35236C43.4326 9.35236 43.4326 9.36227 43.4326 9.37218C43.383 9.47135 37.3733 20.3304 34.1999 25.3286L33.9618 25.755L23.8862 43.2883H23.8763L23.8564 43.2684ZM77.8941 6.33759C79.5007 6.04008 81.0378 6.73426 82.3171 7.65654C82.6939 7.93421 83.6559 8.70773 83.6757 8.76723C84.6674 9.63001 85.5698 10.5821 86.4326 11.544C87.7813 13.0415 88.9813 14.6678 89.9234 16.4529C91.1432 18.7536 92.482 24.6741 92.4225 24.8427C92.2836 25.2195 91.9167 26.4591 91.877 26.6872C91.877 26.7567 89.5664 30.9317 88.1086 32.9052C81.6328 41.652 70.8332 46.3824 60.0138 45.2915C60.0832 45.4799 60.113 45.6684 60.0435 45.6981C58.8039 46.432 57.3164 46.6402 55.9181 46.2832C55.8685 46.2733 55.809 46.1444 55.7792 46.0849C55.7693 46.0551 55.7594 46.0254 55.7495 45.9956C53.5876 46.8981 53.3297 49.6748 52.5959 51.6483C51.2174 55.3275 48.0836 58.372 44.7912 60.3951C44.335 60.6827 41.6971 61.0595 40.9335 60.9306C40.8541 60.9107 40.7649 60.9008 40.6756 60.881C40.7947 60.7818 40.9136 60.6727 41.0426 60.5637C40.6161 60.4645 40.1996 60.3158 39.7831 60.1472L39.7137 60.2067C39.6443 60.0678 39.6145 59.9587 39.6542 59.9488C39.6542 59.9488 39.6641 59.9488 39.674 59.9488C39.3269 59.3439 39.1385 58.5902 39.2674 57.9158C38.5931 58.2233 37.9088 58.5009 37.1948 58.729C35.7866 59.1654 33.704 59.8199 32.5536 58.5108C31.8991 57.7671 31.5223 56.587 31.7603 55.5853C30.2132 55.6448 28.9141 54.9209 28.2893 53.3639C27.7935 52.1243 27.9224 50.7558 28.7554 49.8335C27.9422 49.7442 27.139 49.4368 26.7324 48.6732C26.3654 48.0088 26.1869 47.1956 26.5439 46.5014C26.6431 46.303 26.772 46.1345 26.9109 45.9758C25.8299 45.1428 24.7589 44.3196 23.6779 43.4866C23.6085 43.4271 23.5292 43.3676 23.4697 43.2982C15.2584 50.2797 8.72312 56.8547 1.1267 63.8264C7.81075 68.7353 12.4023 72.0773 19.0864 76.9862C19.1161 77.006 19.1657 77.0457 19.2054 77.0854C26.0283 71.75 32.4743 66.0279 39.7137 60.2166C39.7831 60.3554 39.8922 60.5042 39.9914 60.6133C39.9715 60.5141 39.9418 60.4149 39.9021 60.3058C39.912 60.3256 39.9319 60.3455 39.9418 60.3653C40.1104 60.5637 40.2889 60.7223 40.4773 60.8413C40.5467 60.8413 40.6062 60.8612 40.6657 60.881C33.5949 66.97 26.7423 72.5037 19.8202 77.9184C19.7508 77.9779 19.493 77.7399 19.3145 77.5217C12.4222 72.474 7.62233 68.9733 0.739943 63.9057C0.710192 63.8858 0.680445 63.866 0.650694 63.8363C0.43252 63.7173 -0.073251 63.2214 0.0259189 63.0826C1.71181 60.8909 17.8963 34.0952 19.6715 31.4772C19.5525 31.3284 22.1011 28.4029 23.4003 27.0641C23.4399 27.0938 23.4796 27.1037 23.5093 27.1236C22.5573 28.3731 21.0301 29.6425 20.1971 30.9714C20.6632 30.5251 20.9012 30.2474 21.2384 29.6822C21.288 29.5929 21.6747 29.3152 21.8631 29.5533C22.3986 28.7599 23.8862 26.8459 24.4911 26.0823C24.5209 26.0327 24.4415 26.0327 24.2928 26.0823C24.4316 25.9236 24.5903 25.7451 24.63 25.765C25.3638 25.0212 27.5654 22.9188 30.1835 20.4197C30.5207 20.38 30.8578 20.3602 31.195 20.3503C31.2049 20.3305 31.195 20.3106 31.195 20.3106C31.3537 20.023 31.5421 19.7652 31.7702 19.5371C31.5818 19.5073 31.3735 19.4974 31.1752 19.4875C36.332 14.6084 42.5599 8.75734 42.6491 8.60859C42.6095 8.50942 43.5714 9.01518 44.0177 9.28293L49.0456 12.258C49.9678 10.9192 50.8108 9.51101 51.5645 8.06313C52.3579 6.526 53.0719 4.91944 54.0735 3.50132C54.9958 2.20219 56.2056 1.01216 57.7031 0.407221C59.032 -0.128296 60.46 -0.108468 61.8088 0.308045C64.6053 1.16091 66.8962 3.43192 68.4035 5.85167C69.7423 8.01357 70.5754 10.5027 70.7836 13.0415C71.6365 11.8812 72.4794 10.7308 73.3819 9.61018C74.5421 8.18214 75.9702 6.67478 77.8644 6.34752L77.8941 6.33759ZM83.4476 9.25318C83.1203 8.98543 82.7931 8.72757 82.4559 8.48956C82.4559 8.50939 82.4559 8.53915 82.4559 8.55898L82.208 9.10444C82.208 9.10444 82.1981 9.10442 82.1782 9.08458C80.3138 12.7142 78.1817 16.1852 75.7917 19.4776C75.7322 19.547 75.276 18.7735 75.4049 18.595C77.8346 15.2629 79.9866 11.7424 81.8609 8.08299C81.1667 7.66647 80.4229 7.34913 79.6097 7.24004C77.8743 7.00203 76.3371 7.88463 75.1173 9.05483C73.7389 10.3837 72.6182 12.0101 71.4877 13.5472C67.035 19.6363 62.6814 26.4492 55.5115 29.583C56.7511 31.2788 57.7527 33.1531 58.4766 35.1266L58.2783 35.1861C57.5742 33.3019 56.5726 31.5168 55.3131 29.8904C53.5876 29.4541 51.7529 29.583 50.1067 30.1979C50.6323 30.7334 50.9992 31.5366 51.3662 32.1416C51.8918 33.0242 52.4075 33.9167 52.8835 34.8192C54.5793 38.0422 55.6602 41.5131 56.0172 45.1328C56.0668 45.2221 56.1065 45.3312 56.1461 45.4502C57.2866 45.6188 58.4568 45.4402 59.4783 44.9047C59.8353 41.8999 59.5278 38.8951 58.6155 36.0687L58.7742 36.0191C58.8932 36.396 59.032 36.7629 59.1411 37.1497C61.6798 37.0902 64.1293 36.158 66.0532 34.482C66.083 34.4522 66.5788 35.2555 66.4003 35.4142C64.4566 37.11 61.9476 38.062 59.3692 38.0918C59.508 38.7265 59.6468 39.3711 59.7262 40.0157C65.8945 39.5595 71.8348 37.2092 76.6644 33.3316C76.704 33.3019 77.1801 34.1151 77.0115 34.2638C72.1819 38.1513 66.2218 40.5016 60.0435 40.9479C59.9642 40.9479 59.8849 40.8289 59.8154 40.6702C59.9642 41.8999 60.0039 43.1494 59.9344 44.3891C62.8699 44.6568 65.8251 44.5279 68.7209 43.9825C79.0147 42.009 87.6722 34.8291 91.6093 25.1699C92.1051 20.9255 90.3697 16.919 87.7317 13.6464C86.5715 12.1886 85.2525 10.83 83.8542 9.59036C84.0823 13.3886 83.041 17.1967 80.8692 20.3205C80.8295 20.39 80.3634 19.6263 80.4924 19.4379C82.5452 16.4628 83.5864 12.8629 83.4773 9.26308L83.4476 9.25318ZM66.5292 4.01702C65.9045 3.40217 65.1805 2.81706 64.3971 2.3113C64.3971 2.36088 64.407 2.40053 64.3971 2.45012C63.7525 4.72111 62.9492 6.95245 61.9972 9.10444C61.9476 9.21352 61.7691 8.86643 61.7691 8.82676C61.6997 8.68792 61.5509 8.38048 61.6302 8.22181C62.5128 6.19874 63.2665 4.10625 63.8913 1.98402C63.6235 1.83526 63.3459 1.68653 63.0682 1.56752C63.0682 1.58736 63.0682 1.60719 63.0484 1.62702C60.7278 3.422 58.794 5.6533 57.356 8.21188C57.2965 8.32097 57.1379 7.97388 57.1279 7.93421C57.0684 7.80529 56.9097 7.46814 56.9792 7.33921C58.2981 4.98889 60.0435 2.93606 62.1063 1.22042C61.2038 0.952662 60.2716 0.843574 59.3196 1.00225C56.047 1.52785 54.1826 4.62195 52.814 7.32929C51.8918 9.17385 50.9001 10.9688 49.7695 12.6745C53.3099 14.767 56.8403 16.8595 60.3807 18.9421C60.4799 19.0115 60.6584 19.1503 60.7774 19.2693C60.7774 19.2396 60.7972 19.2098 60.8071 19.19C60.817 19.1503 61.6203 19.6561 61.5212 19.8743C60.5691 22.1453 59.627 24.4063 58.675 26.6773C59.6468 26.0228 60.5691 25.2889 61.4418 24.4956C61.4914 24.4163 64.5855 21.3519 65.8549 19.785C67.4813 17.7421 68.9787 15.6 70.5059 13.4877L70.4861 13.4084C70.4762 9.86804 69.0482 6.52602 66.5491 4.01702H66.5292ZM33.0197 25.2493C33.1586 25.041 38.7022 15.9571 40.993 11.7721C38.127 14.2613 20.4946 32.1515 20.3855 32.3002C22.359 33.5895 24.3325 34.8886 26.3059 36.1778C26.4349 36.2571 26.5439 36.3662 26.653 36.4951C27.377 35.2456 31.4429 28.0558 33.0495 25.2493C33.0495 25.2493 33.0296 25.2493 33.0197 25.2493ZM50.6918 31.5267C50.6918 31.5267 50.6918 31.5763 50.6819 31.5763C50.5034 31.6457 46.4374 31.8242 44.7714 31.0111C43.1251 30.1979 41.6773 29.0673 40.16 28.0459C39.3567 27.5004 38.5336 26.9847 37.6609 26.5682C36.9369 26.2112 36.0444 25.8641 35.2312 26.1418C34.0908 26.5385 33.9718 27.907 34.3982 28.869C34.8643 29.8904 35.4593 30.8623 36.1039 31.7647C37.1353 33.2225 39.8823 35.7613 39.922 35.8307C40.1005 35.9794 40.269 36.1282 40.4575 36.267C40.6062 36.386 40.8442 37.2588 40.7351 37.1794C40.517 37.0207 40.3186 36.8323 40.1104 36.6637C40.1104 36.7431 38.0377 40.452 36.4014 41.6421C34.537 43.0007 32.3751 43.8535 30.3422 44.8849C29.41 45.3609 28.3885 45.8369 27.6051 46.551C27.2679 46.8485 26.9605 47.2154 26.8117 47.6617C26.6233 48.2468 27.0993 48.5443 27.5951 48.7228C28.6166 49.0897 29.7967 48.931 30.8479 48.7823C31.9189 48.6434 32.99 48.3955 34.0214 48.0584C36.1733 47.3741 38.1766 46.313 39.9517 44.9246C40.0013 44.8849 40.4773 45.7179 40.2988 45.8568C38.0576 47.6022 35.4593 48.8319 32.6925 49.4368C31.8793 49.6153 31.0363 49.774 30.1934 49.8236C30.1934 49.9227 28.7753 50.9541 28.5075 51.7574C28.1207 52.878 28.686 53.9193 29.7273 54.3755C31.2049 55.0399 32.9107 54.4449 34.3288 53.9292C38.0873 52.5606 41.5682 50.5078 44.6127 47.9195C44.6524 47.8997 45.1284 48.7029 44.9598 48.8517C44.7218 49.06 44.4739 49.2583 44.2259 49.4567C42.54 50.8252 40.7153 52.0152 38.7914 53.0267C36.8378 54.0581 34.656 55.1192 32.4545 55.4961C32.4247 55.4961 32.4049 55.4961 32.3652 55.4961C32.4049 55.6349 31.909 57.3406 32.6032 57.8662C33.1487 58.2927 33.8428 58.3522 34.5073 58.2927C35.9948 58.1637 37.5221 57.6183 38.8708 57.0134C41.5979 55.7738 43.9978 53.8499 45.7829 51.4499L46.13 50.964C46.1697 50.8946 46.6358 51.6582 46.5168 51.8466C44.9697 54.068 42.9268 55.9126 40.5666 57.2316C40.6161 57.3902 39.8525 58.0745 39.7137 58.5208C39.5154 59.1356 39.6939 59.5521 40.2393 59.8992C40.9037 60.3158 41.707 60.3852 42.4706 60.2562C42.5103 60.2265 44.8507 59.4431 45.1581 59.1555C45.287 59.0265 45.416 58.8877 45.535 58.7389C46.1597 58.2927 46.7448 57.8067 47.2803 57.3506C48.6291 56.1903 49.8786 54.8911 50.8604 53.4036C51.8422 51.9061 52.3777 50.3194 52.8835 48.6236C53.3297 47.1063 54.0735 45.47 55.68 44.9444C55.4718 42.128 54.8074 39.3611 53.6272 36.7827C52.9826 35.3745 52.1992 34.0258 51.4157 32.687C51.1976 32.3201 50.9794 31.8738 50.7116 31.4772L50.6918 31.5267ZM20.207 32.5482C18.8087 34.601 6.63064 55.5853 1.63248 62.2099C8.40578 56.2597 15.6253 48.5244 22.8846 42.4354C22.9342 42.3957 23.0433 42.4652 23.1424 42.5643C23.1424 42.5247 23.1424 42.5048 23.1424 42.4751C24.263 40.5611 25.3837 38.6372 26.5043 36.7133C24.4515 35.3745 22.4185 34.0258 20.3657 32.687C20.3062 32.6474 20.2467 32.5878 20.1872 32.5382L20.207 32.5482Z" fill="#1D1D1B"/>
<path d="M52.1793 14.4398C55.0056 16.1157 57.8419 17.7917 60.6682 19.4677C59.5575 22.1056 58.4567 24.7435 57.3559 27.3914C57.3361 27.4211 57.3559 27.4608 57.3559 27.4905C56.5725 27.9566 55.7791 28.3831 54.9362 28.7401C54.9064 28.7401 54.8965 28.7996 54.9065 28.8491C54.8965 28.869 54.8866 28.8988 54.8866 28.9285C52.8239 28.4426 50.6521 28.7004 48.7579 29.6822C48.7381 29.6921 48.7183 29.7218 48.7183 29.7516C48.4803 29.8409 48.3018 30.0392 48.2621 30.3665C48.2423 30.6045 48.2918 30.8722 48.391 31.1201C45.4457 31.1201 42.9367 29.2359 40.4971 27.5401C40.5169 27.5302 40.5368 27.5203 40.5566 27.5005C40.3781 27.3715 40.1996 27.2426 40.031 27.1236C40.0508 27.1732 40.0706 27.2228 40.1004 27.2724C39.5946 26.9253 39.0988 26.598 38.593 26.3005C37.4228 25.6162 35.0427 24.3072 34.0709 25.8047L33.9221 25.7253L34.1601 25.2989C37.3435 20.2908 43.3433 9.44162 43.3928 9.34245C43.3928 9.34245 43.3928 9.33255 43.3928 9.32263C45.1878 10.4234 46.9927 11.5242 48.7877 12.615V12.6349C48.8472 12.6746 48.9166 12.7043 48.986 12.744C50.0174 13.3588 51.0388 13.9935 52.0702 14.6183C52.1 14.5588 52.1198 14.4993 52.1495 14.4299L52.1793 14.4398Z" fill="#1D1D1B"/>
<path d="M63.921 32.2012C63.921 32.2012 64.4367 32.9747 64.2681 33.1334C62.7111 34.5515 60.8368 35.5432 58.8137 36.0291C58.784 36.0291 58.7741 36.0291 58.7443 36.0093L58.5857 36.0589C58.4766 35.7614 58.3873 35.4738 58.2683 35.1763L58.4666 35.1168C58.4666 35.1168 58.4666 35.1069 58.4766 35.0969C60.4996 34.611 62.3839 33.6094 63.9309 32.2012H63.921Z" fill="#1D1D1B"/>
<path d="M31.2048 19.4974C31.4032 19.4974 31.6015 19.5173 31.7999 19.547C31.5817 19.7851 31.3833 20.033 31.2247 20.3206C31.2247 20.3206 31.2247 20.3503 31.2247 20.3602C30.8875 20.3602 30.5503 20.3801 30.2131 20.4296C30.5404 20.1222 30.8776 19.8049 31.2148 19.4875L31.2048 19.4974Z" fill="#1D1D1B"/>
<path d="M31.2048 19.4974C30.8677 19.8148 30.5404 20.1321 30.2032 20.4395C29.7074 20.4891 29.2215 20.5685 28.7355 20.6775C27.4364 20.9552 26.1373 21.3222 24.8084 21.3916C24.2134 21.4213 23.6084 21.3916 23.0432 21.2428C22.2994 21.0643 21.6746 20.6776 21.0102 20.3106C20.2664 19.904 19.4036 19.547 18.5706 19.904C17.5293 20.3503 17.688 21.5304 18.1144 22.3535C19.1061 24.2675 21.2383 25.4774 23.1126 26.3798C23.2217 26.4294 23.9456 26.1914 24.3125 26.1021C24.1935 26.2311 24.0844 26.3699 24.0944 26.3699C24.0448 26.4195 23.5489 27.1434 23.42 27.0839C21.5755 26.1021 19.1855 24.5154 18.1045 22.7304C17.688 22.056 17.2616 21.2626 17.2219 20.4594C17.1822 19.547 17.8467 18.9619 18.7293 18.9123C19.721 18.8627 20.5243 19.4875 21.3573 19.9238C22.111 20.3304 22.9242 20.5387 23.777 20.5585C26.2761 20.6181 28.7256 19.3784 31.2048 19.5074V19.4974Z" fill="#1D1D1B"/>
<path d="M33.9421 25.7353L34.0909 25.8146C34.0115 25.9435 33.9322 26.0923 33.8727 26.2609C33.5851 27.084 33.833 27.9864 34.1305 28.7599C34.4181 29.4839 34.7851 30.1979 35.1817 30.8723C35.1421 30.9119 35.1024 30.9516 35.0528 30.9913C35.1321 31.1103 35.1917 31.2392 35.271 31.3582C35.3602 31.507 35.4396 31.6656 35.5288 31.8243L35.5487 31.8045C35.6181 31.7549 35.5883 31.616 35.5288 31.4673C35.5487 31.507 35.5784 31.5367 35.5983 31.5665C36.699 33.3019 38.0378 34.8589 39.565 36.2076C38.1866 40.6702 33.1785 42.2768 29.3704 44.2999C29.1026 44.5379 28.8051 44.756 28.4778 44.9345C28.4283 44.9643 28.3787 44.9346 28.3192 44.885C27.8828 45.1329 27.4762 45.4205 27.1291 45.7775C26.0383 44.9445 24.9573 44.1015 23.8665 43.2586H23.8764L33.952 25.7253L33.9421 25.7353Z" fill="#1D1D1B"/>
<path d="M24.3225 26.0922C24.4713 26.0427 24.5605 26.0427 24.5209 26.0922C23.9159 26.8559 22.4284 28.7698 21.8929 29.5632C21.7044 29.3252 21.3177 29.6029 21.2681 29.6921C20.9408 30.2574 20.6929 30.5351 20.2268 30.9813C21.0499 29.6525 22.587 28.3831 23.5391 27.1335C23.5093 27.1137 23.4697 27.0939 23.43 27.074C23.5589 27.1335 24.0448 26.4096 24.1044 26.36C24.1044 26.36 24.2035 26.2212 24.3225 26.0922Z" fill="#1D1D1B"/>
<path d="M41.0526 60.5736C40.9237 60.6827 40.8047 60.7918 40.6857 60.8909C40.6262 60.8711 40.5667 60.8612 40.4973 60.8513C40.3088 60.7223 40.1204 60.5736 39.9617 60.3752C39.9518 60.3554 39.932 60.3356 39.9221 60.3157C39.9617 60.4248 39.9915 60.524 40.0113 60.6232C39.9121 60.524 39.8031 60.3653 39.7336 60.2265L39.8031 60.167C40.2196 60.3257 40.6262 60.4744 41.0625 60.5835L41.0526 60.5736Z" fill="#1D1D1B"/>
</svg>
