<svg width="93" height="78" viewBox="0 0 93 78" fill="none" xmlns="http://www.w3.org/2000/svg">
<path d="M68.568 43.2684C67.4771 44.1015 66.3962 44.9444 65.3053 45.7873C64.9582 45.4303 64.5417 45.1427 64.1153 44.8948C64.0557 44.9345 64.0061 44.9642 63.9565 44.9444C63.6293 44.7659 63.3318 44.5477 63.0641 44.3097C59.2559 42.2866 54.2478 40.6702 52.8694 36.2174C54.3966 34.8687 55.7354 33.3118 56.8362 31.5763C56.8461 31.5465 56.8758 31.5168 56.9056 31.4771C56.856 31.6259 56.8262 31.7647 56.8857 31.8143L56.9056 31.8342C56.9948 31.6854 57.0742 31.5267 57.1634 31.3681C57.2428 31.249 57.3022 31.1201 57.3816 31.0011C57.332 30.9614 57.2923 30.9317 57.2527 30.8821C57.6592 30.2077 58.0262 29.4937 58.3039 28.7698C58.6014 27.9963 58.8493 27.0938 58.5617 26.2707C58.5022 26.1021 58.4229 25.9434 58.3436 25.8244C57.3717 24.327 54.9916 25.636 53.8214 26.3203C53.3156 26.6178 52.8297 26.955 52.314 27.2922C52.3438 27.2426 52.3636 27.193 52.3834 27.1434C52.2149 27.2624 52.0363 27.3913 51.8578 27.5203C51.8776 27.5401 51.8975 27.55 51.9174 27.5599C49.4778 29.2557 46.9688 31.13 44.0234 31.1399C44.1226 30.892 44.1722 30.6143 44.1524 30.3862C44.1127 30.059 43.9342 29.8706 43.6962 29.7714C43.6962 29.7317 43.6763 29.7119 43.6565 29.702C41.7624 28.7202 39.5905 28.4624 37.5278 28.9483C37.5278 28.9086 37.5278 28.8789 37.508 28.869C37.5179 28.8094 37.5079 28.7599 37.4782 28.7599C36.6452 28.4029 35.8419 27.9764 35.0585 27.5103C35.0684 27.4806 35.0783 27.4409 35.0585 27.4112C33.9577 24.7633 32.8569 22.1254 31.7462 19.4875C34.5725 17.8115 37.4088 16.1355 40.2351 14.4596C40.255 14.529 40.2847 14.5885 40.3145 14.648C41.3459 14.0133 42.3673 13.3886 43.3987 12.7737C43.4681 12.734 43.5375 12.6944 43.6069 12.6646V12.6448C45.392 11.5539 47.1969 10.4531 48.9918 9.35233C48.9918 9.35233 48.9918 9.36224 48.9918 9.37215C49.0414 9.47132 55.0511 20.3304 58.2246 25.3286L58.4626 25.755L68.5382 43.2883H68.5481L68.568 43.2684ZM14.5303 6.33756C12.9237 6.04005 11.3866 6.73426 10.1073 7.65654C9.73048 7.93421 8.76854 8.70773 8.7487 8.76723C7.757 9.63001 6.85456 10.582 5.99178 11.544C4.64307 13.0414 3.44313 14.6678 2.50101 16.4529C1.28122 18.7536 -0.0575881 24.6741 0.00191384 24.8427C0.140752 25.2195 0.507698 26.4591 0.547366 26.6872C0.547366 26.7567 2.85801 30.9317 4.31581 32.9052C10.7916 41.652 21.5912 46.3823 32.4106 45.2915C32.3412 45.4799 32.3114 45.6683 32.3809 45.6981C33.6205 46.4319 35.108 46.6402 36.5063 46.2832C36.5559 46.2733 36.6154 46.1444 36.6452 46.0849C36.6551 46.0551 36.665 46.0254 36.6749 45.9956C38.8368 46.8981 39.0947 49.6748 39.8286 51.6483C41.207 55.3275 44.3408 58.372 47.6332 60.3951C48.0894 60.6826 50.7273 61.0595 51.4909 60.9306C51.5702 60.9107 51.6595 60.9008 51.7487 60.881C51.6297 60.7818 51.5107 60.6727 51.3818 60.5637C51.8082 60.4645 52.2248 60.3157 52.6413 60.1471L52.7107 60.2066C52.7801 60.0678 52.8099 59.9587 52.7702 59.9488C52.7702 59.9488 52.7603 59.9488 52.7504 59.9488C53.0975 59.3438 53.2859 58.5902 53.157 57.9158C53.8313 58.2232 54.5156 58.5009 55.2296 58.729C56.6378 59.1654 58.7204 59.8199 59.8708 58.5108C60.5253 57.7671 60.9021 56.5869 60.6641 55.5853C62.2111 55.6448 63.5103 54.9209 64.135 53.3639C64.6309 52.1243 64.502 50.7558 63.669 49.8335C64.4822 49.7442 65.2854 49.4368 65.692 48.6732C66.0589 48.0087 66.2375 47.1955 65.8804 46.5014C65.7813 46.303 65.6524 46.1344 65.5135 45.9758C66.5945 45.1427 67.6655 44.3196 68.7465 43.4866C68.8159 43.4271 68.8952 43.3676 68.9547 43.2982C77.166 50.2797 83.7013 56.8547 91.2977 63.8263C84.6136 68.7352 80.0221 72.0773 73.338 76.9862C73.3083 77.006 73.2587 77.0457 73.219 77.0853C66.3961 71.75 59.9501 66.0279 52.7107 60.2166C52.6413 60.3554 52.5322 60.5041 52.433 60.6132C52.4528 60.5141 52.4826 60.4149 52.5223 60.3058C52.5124 60.3256 52.4925 60.3455 52.4826 60.3653C52.314 60.5636 52.1355 60.7223 51.9471 60.8413C51.8777 60.8413 51.8182 60.8611 51.7587 60.881C58.8295 66.97 65.6821 72.5037 72.6042 77.9184C72.6736 77.9779 72.9315 77.7399 73.11 77.5217C80.0023 72.4739 84.8021 68.9733 91.6845 63.9057C91.7142 63.8858 91.7439 63.866 91.7737 63.8363C91.9919 63.7172 92.4976 63.2214 92.3985 63.0826C90.7126 60.8909 74.528 34.0952 72.7529 31.4771C72.8719 31.3284 70.3233 28.4028 69.0242 27.0641C68.9845 27.0938 68.9448 27.1037 68.915 27.1236C69.8671 28.3731 71.3943 29.6425 72.2273 30.9713C71.7612 30.5251 71.5232 30.2474 71.1861 29.6822C71.1365 29.5929 70.7497 29.3152 70.5613 29.5532C70.0258 28.7599 68.5382 26.8459 67.9333 26.0823C67.9035 26.0327 67.9829 26.0327 68.1316 26.0823C67.9928 25.9236 67.8341 25.7451 67.7944 25.7649C67.0606 25.0212 64.859 22.9188 62.2409 20.4197C61.9037 20.38 61.5666 20.3602 61.2294 20.3503C61.2195 20.3304 61.2294 20.3106 61.2294 20.3106C61.0707 20.023 60.8823 19.7652 60.6542 19.5371C60.8427 19.5073 61.0509 19.4974 61.2492 19.4875C56.0924 14.6083 49.8645 8.75731 49.7753 8.60856C49.8149 8.50939 48.853 9.01515 48.4067 9.2829L43.3788 12.258C42.4565 10.9192 41.6136 9.51101 40.8599 8.06313C40.0665 6.526 39.3525 4.91944 38.3509 3.50132C37.4286 2.20219 36.2188 1.01216 34.7213 0.407221C33.3924 -0.128296 31.9644 -0.108468 30.6156 0.308045C27.8191 1.16091 25.5282 3.43189 24.0209 5.85164C22.6821 8.01354 21.849 10.5027 21.6408 13.0415C20.7879 11.8812 19.945 10.7308 19.0425 9.61018C17.8823 8.18214 16.4542 6.67475 14.56 6.34749L14.5303 6.33756ZM8.9768 9.25315C9.30406 8.9854 9.63133 8.72757 9.9685 8.48956C9.9685 8.50939 9.9685 8.53915 9.9685 8.55898L10.2164 9.10441C10.2164 9.10441 10.2263 9.10442 10.2462 9.08458C12.1106 12.7142 14.2427 16.1851 16.6327 19.4776C16.6922 19.547 17.1484 18.7735 17.0195 18.595C14.5898 15.2629 12.4378 11.7423 10.5635 8.08296C11.2577 7.66644 12.0015 7.3491 12.8147 7.24001C14.5501 7.002 16.0873 7.88463 17.3071 9.05483C18.6855 10.3837 19.8062 12.0101 20.9367 13.5472C25.3894 19.6363 29.743 26.4492 36.913 29.583C35.6733 31.2788 34.6717 33.1531 33.9478 35.1266L34.1461 35.1861C34.8502 33.3018 35.8518 31.5168 37.1113 29.8904C38.8368 29.4541 40.6715 29.583 42.3177 30.1978C41.7921 30.7333 41.4252 31.5366 41.0583 32.1416C40.5327 33.0242 40.0169 33.9167 39.5409 34.8191C37.8451 38.0422 36.7642 41.5131 36.4072 45.1328C36.3576 45.2221 36.3179 45.3311 36.2783 45.4502C35.1378 45.6187 33.9676 45.4402 32.9461 44.9047C32.5891 41.8999 32.8966 38.895 33.8089 36.0687L33.6502 36.0191C33.5312 36.396 33.3924 36.7629 33.2833 37.1496C30.7446 37.0901 28.2951 36.1579 26.3712 34.482C26.3414 34.4522 25.8456 35.2555 26.0241 35.4142C27.9678 37.11 30.4768 38.062 33.0552 38.0918C32.9164 38.7265 32.7776 39.3711 32.6982 40.0157C26.5299 39.5595 20.5896 37.2091 15.76 33.3316C15.7204 33.3018 15.2443 34.115 15.4129 34.2638C20.2425 38.1513 26.2026 40.5016 32.3809 40.9478C32.4602 40.9478 32.5395 40.8288 32.609 40.6702C32.4602 41.8999 32.4205 43.1494 32.49 44.389C29.5545 44.6568 26.5993 44.5279 23.7035 43.9825C13.4097 42.009 4.75216 34.8291 0.815114 25.1699C0.319265 20.9255 2.05474 16.919 4.69266 13.6464C5.85295 12.1886 7.17191 10.83 8.5702 9.59033C8.34211 13.3885 9.38338 17.1967 11.5552 20.3205C11.5949 20.3899 12.061 19.6263 11.932 19.4379C9.87923 16.4628 8.83797 12.8629 8.94705 9.26308L8.9768 9.25315ZM25.8952 4.01699C26.5199 3.40213 27.2439 2.81703 28.0273 2.31127C28.0273 2.36085 28.0174 2.40053 28.0273 2.45012C28.6719 4.72111 29.4752 6.95242 30.4272 9.10441C30.4768 9.21349 30.6553 8.8664 30.6553 8.82673C30.7247 8.68789 30.8735 8.38045 30.7942 8.22178C29.9116 6.19871 29.1579 4.10625 28.5331 1.98402C28.8009 1.83526 29.0785 1.6865 29.3562 1.56749C29.3562 1.58733 29.3562 1.60716 29.376 1.62699C31.6966 3.42197 33.6304 5.6533 35.0684 8.21188C35.1279 8.32097 35.2866 7.97388 35.2965 7.93421C35.356 7.80529 35.5146 7.46811 35.4452 7.33918C34.1263 4.98886 32.3809 2.93603 30.3181 1.22039C31.2206 0.952632 32.1528 0.843544 33.1048 1.00222C36.3774 1.52782 38.2418 4.62192 39.6104 7.32926C40.5326 9.17382 41.5243 10.9688 42.6549 12.6745L32.0437 18.9421C31.9445 19.0115 31.766 19.1503 31.647 19.2693C31.647 19.2396 31.6272 19.2098 31.6173 19.19C31.6074 19.1503 30.8041 19.6561 30.9032 19.8742C31.8553 22.1452 32.7974 24.4063 33.7494 26.6773C32.7776 26.0228 31.8553 25.2889 30.9826 24.4956C30.933 24.4162 27.8389 21.3519 26.5695 19.785C24.9431 17.7421 23.4457 15.6 21.9185 13.4877L21.9383 13.4084C21.9482 9.86801 23.3762 6.52599 25.8753 4.01699H25.8952ZM59.4047 25.2493C59.2658 25.041 53.7222 15.957 51.4314 11.7721C54.2974 14.2612 71.9298 32.1515 72.0389 32.3002C70.0654 33.5895 68.0919 34.8886 66.1184 36.1778C65.9895 36.2571 65.8805 36.3662 65.7714 36.4951C65.0474 35.2456 60.9815 28.0558 59.3749 25.2493C59.3749 25.2493 59.3948 25.2493 59.4047 25.2493ZM41.7326 31.5267C41.7326 31.5267 41.7326 31.5763 41.7425 31.5763C41.921 31.6457 45.987 31.8242 47.653 31.011C49.2992 30.1978 50.7471 29.0673 52.2644 28.0459C53.0677 27.5004 53.8908 26.9847 54.7635 26.5682C55.4875 26.2112 56.38 25.8641 57.1932 26.1418C58.3336 26.5385 58.4526 27.907 58.0262 28.869C57.5601 29.8904 56.9651 30.8623 56.3205 31.7647C55.2891 33.2225 52.5421 35.7613 52.5024 35.8307C52.3239 35.9794 52.1554 36.1282 51.9669 36.267C51.8182 36.386 51.5802 37.2587 51.6892 37.1794C51.9074 37.0207 52.1058 36.8323 52.314 36.6637C52.314 36.7431 54.3867 40.452 56.023 41.642C57.8873 43.0007 60.0493 43.8535 62.0823 44.8849C63.0145 45.3609 64.0359 45.8369 64.8193 46.551C65.1565 46.8485 65.464 47.2154 65.6127 47.6617C65.8011 48.2468 65.3251 48.5443 64.8292 48.7228C63.8078 49.0897 62.6277 48.931 61.5765 48.7823C60.5055 48.6434 59.4344 48.3955 58.4031 48.0583C56.2511 47.3741 54.2479 46.3129 52.4727 44.9246C52.4231 44.8849 51.9471 45.7179 52.1256 45.8568C54.3668 47.6021 56.9651 48.8319 59.7319 49.4368C60.5451 49.6153 61.3881 49.774 62.231 49.8235C62.231 49.9227 63.6491 50.9541 63.9169 51.7574C64.3037 52.878 63.7384 53.9193 62.6971 54.3754C61.2195 55.0399 59.5138 54.4449 58.0956 53.9292C54.3371 52.5606 50.8562 50.5078 47.8117 47.9195C47.7721 47.8997 47.296 48.7029 47.4646 48.8517C47.7026 49.0599 47.9506 49.2583 48.1985 49.4566C49.8844 50.8252 51.7091 52.0152 53.633 53.0267C55.5866 54.0581 57.7684 55.1192 59.97 55.4961C59.9997 55.4961 60.0195 55.4961 60.0592 55.4961C60.0195 55.6349 60.5154 57.3406 59.8212 57.8662C59.2757 58.2927 58.5816 58.3522 57.9171 58.2927C56.4296 58.1637 54.9023 57.6183 53.5536 57.0134C50.8265 55.7737 48.4266 53.8499 46.6415 51.4499L46.2944 50.964C46.2547 50.8946 45.7886 51.6582 45.9076 51.8466C47.4547 54.068 49.4976 55.9126 51.8578 57.2315C51.8082 57.3902 52.5719 58.0745 52.7107 58.5207C52.9091 59.1356 52.7305 59.5521 52.1851 59.8992C51.5206 60.3157 50.7174 60.3851 49.9538 60.2562C49.9141 60.2265 47.5737 59.443 47.2663 59.1554C47.1374 59.0265 47.0085 58.8877 46.8895 58.7389C46.2647 58.2926 45.6796 57.8067 45.1441 57.3505C43.7953 56.1902 42.5458 54.8911 41.564 53.4036C40.5823 51.9061 40.0467 50.3194 39.5409 48.6236C39.0947 47.1063 38.3509 45.47 36.7443 44.9444C36.9526 42.128 37.617 39.3611 38.7972 36.7827C39.4418 35.3745 40.2252 34.0258 41.0087 32.687C41.2269 32.3201 41.445 31.8738 41.7128 31.4771L41.7326 31.5267ZM72.2174 32.5482C73.6157 34.601 85.7937 55.5853 90.7919 62.2099C84.0186 56.2597 76.799 48.5244 69.5398 42.4354C69.4902 42.3957 69.3811 42.4651 69.282 42.5643C69.282 42.5246 69.282 42.5048 69.282 42.4751C68.1613 40.5611 67.0408 38.6372 65.9201 36.7133C67.973 35.3745 70.0059 34.0258 72.0588 32.687C72.1183 32.6473 72.1778 32.5878 72.2373 32.5382L72.2174 32.5482Z" fill="#1D1D1B"/>
<path d="M40.245 14.4497C37.4187 16.1257 34.5824 17.8016 31.7561 19.4776C32.8668 22.1155 33.9676 24.7534 35.0683 27.4013C35.0882 27.431 35.0683 27.4707 35.0683 27.5004C35.8518 27.9665 36.6451 28.393 37.4881 28.75C37.5178 28.75 37.5278 28.8095 37.5179 28.8591C37.5278 28.8789 37.5377 28.9086 37.5377 28.9384C39.6005 28.4525 41.7723 28.7103 43.6664 29.6921C43.6862 29.702 43.7061 29.7317 43.7061 29.7615C43.9441 29.8507 44.1226 30.0491 44.1623 30.3764C44.1821 30.6144 44.1325 30.8821 44.0333 31.13C46.9787 31.13 49.4876 29.2458 51.9272 27.55C51.9074 27.5401 51.8876 27.5302 51.8677 27.5103C52.0462 27.3814 52.2248 27.2525 52.3933 27.1335C52.3735 27.1831 52.3537 27.2327 52.3239 27.2822C52.8297 26.9351 53.3256 26.6079 53.8313 26.3104C55.0015 25.6261 57.3816 24.3171 58.3535 25.8145L58.5022 25.7352L58.2642 25.3088C55.0808 20.3007 49.0811 9.45151 49.0315 9.35234C49.0315 9.35234 49.0315 9.34244 49.0315 9.33252C47.2365 10.4333 45.4316 11.5341 43.6366 12.6249V12.6448C43.5771 12.6845 43.5077 12.7142 43.4383 12.7539C42.4069 13.3687 41.3855 14.0034 40.3541 14.6282C40.3244 14.5687 40.3045 14.5092 40.2748 14.4398L40.245 14.4497Z" fill="#1D1D1B"/>
<path d="M28.4933 32.201C28.4933 32.201 27.9776 32.9746 28.1462 33.1332C29.7031 34.5514 31.5774 35.5431 33.6005 36.029C33.6303 36.029 33.6402 36.029 33.6699 36.0092L33.8286 36.0587C33.9377 35.7612 34.0269 35.4737 34.1459 35.1761L33.9476 35.1166C33.9476 35.1166 33.9476 35.1067 33.9377 35.0968C31.9146 34.6109 30.0304 33.6093 28.4833 32.201H28.4933Z" fill="#1D1D1B"/>
<path d="M61.2093 19.4975C61.011 19.4975 60.8126 19.5173 60.6143 19.547C60.8324 19.7851 61.0308 20.033 61.1895 20.3206C61.1895 20.3206 61.1895 20.3503 61.1895 20.3602C61.5266 20.3602 61.8638 20.3801 62.201 20.4297C61.8738 20.1222 61.5366 19.8049 61.1994 19.4875L61.2093 19.4975Z" fill="#1D1D1B"/>
<path d="M61.2095 19.4974C61.5467 19.8148 61.8739 20.1321 62.211 20.4395C62.7069 20.4891 63.1929 20.5685 63.6788 20.6775C64.9779 20.9552 66.277 21.3222 67.6059 21.3916C68.2009 21.4213 68.8059 21.3915 69.3711 21.2428C70.1149 21.0643 70.7397 20.6775 71.4041 20.3106C72.1479 19.904 73.0107 19.547 73.8437 19.904C74.885 20.3503 74.7263 21.5304 74.2998 22.3535C73.3081 24.2675 71.176 25.4774 69.3017 26.3798C69.1926 26.4294 68.4687 26.1914 68.1017 26.1021C68.2207 26.2311 68.3299 26.3699 68.3199 26.3699C68.3695 26.4195 68.8654 27.1434 68.9943 27.0839C70.8388 26.1021 73.2288 24.5154 74.3098 22.7303C74.7263 22.056 75.1527 21.2626 75.1924 20.4594C75.2321 19.547 74.5676 18.9619 73.685 18.9123C72.6933 18.8627 71.8901 19.4875 71.057 19.9238C70.3033 20.3304 69.4901 20.5387 68.6373 20.5585C66.1382 20.618 63.6887 19.3784 61.2095 19.5073V19.4974Z" fill="#1D1D1B"/>
<path d="M58.4726 25.7352L58.3238 25.8146C58.4031 25.9435 58.4825 26.0922 58.542 26.2608C58.8296 27.0839 58.5817 27.9864 58.2842 28.7599C57.9966 29.4839 57.6296 30.1979 57.233 30.8723C57.2726 30.9119 57.3123 30.9516 57.3619 30.9913C57.2826 31.1103 57.223 31.2392 57.1437 31.3582C57.0544 31.5069 56.9751 31.6656 56.8858 31.8243L56.866 31.8045C56.7966 31.7549 56.8263 31.616 56.8858 31.4673C56.866 31.5069 56.8362 31.5367 56.8164 31.5664C55.7156 33.3019 54.3768 34.8589 52.8496 36.2076C54.2281 40.6702 59.2362 42.2768 63.0443 44.2998C63.3121 44.5378 63.6096 44.756 63.9369 44.9345C63.9864 44.9643 64.036 44.9345 64.0955 44.8849C64.5318 45.1329 64.9385 45.4205 65.2855 45.7775C66.3764 44.9445 67.4573 44.1015 68.5482 43.2586H68.5383L58.4627 25.7253L58.4726 25.7352Z" fill="#1D1D1B"/>
<path d="M68.1018 26.0922C67.953 26.0427 67.8638 26.0427 67.9035 26.0922C68.5084 26.8559 69.9959 28.7698 70.5314 29.5632C70.7199 29.3252 71.1066 29.6029 71.1562 29.6921C71.4835 30.2574 71.7314 30.535 72.1975 30.9813C71.3744 29.6524 69.8373 28.3831 68.8852 27.1335C68.915 27.1137 68.9546 27.0938 68.9943 27.074C68.8654 27.1335 68.3795 26.4096 68.32 26.36C68.32 26.36 68.2208 26.2212 68.1018 26.0922Z" fill="#1D1D1B"/>
<path d="M51.372 60.5736C51.5009 60.6827 51.6199 60.7918 51.7389 60.8909C51.7984 60.8711 51.8579 60.8612 51.9273 60.8513C52.1158 60.7223 52.3042 60.5736 52.4629 60.3753C52.4728 60.3554 52.4926 60.3356 52.5025 60.3158C52.4629 60.4249 52.4332 60.524 52.4133 60.6232C52.5125 60.524 52.6215 60.3653 52.691 60.2265L52.6215 60.167C52.205 60.3257 51.7984 60.4744 51.3621 60.5835L51.372 60.5736Z" fill="#1D1D1B"/>
</svg>
