<svg width="47" height="40" viewBox="0 0 47 40" fill="none" xmlns="http://www.w3.org/2000/svg">
<path d="M24.7751 25.4666C24.8818 25.564 24.9839 25.6481 25.0728 25.7588C26.015 26.7815 26.3413 28.1291 26.8316 29.3921C27.041 29.9284 27.3125 30.429 27.615 30.9119C27.6771 30.8985 27.7214 30.8984 27.7791 30.8938C27.8094 30.4991 27.6266 29.9982 27.5596 29.7544C27.4212 29.2535 27.2207 28.7661 26.9892 28.2964C26.4861 27.3039 25.7925 26.4049 24.9883 25.6392C24.9217 25.5728 24.8506 25.5153 24.7751 25.4666ZM5.64368 12.0914C7.00242 10.6076 8.73059 9.82817 10.7036 9.53615C12.9382 9.20815 15.227 9.35016 17.4839 9.06647C19.7984 8.77823 22.0725 8.21509 24.2485 7.38161C24.2574 7.36386 25.1483 7.0872 25.2725 7.12688C25.3568 7.15777 25.4367 7.17534 25.3969 7.2109C25.3969 7.2109 26.1575 8.37587 25.9891 8.44715C24.4159 9.13756 22.8561 9.82352 21.2874 10.5051L18.8901 11.5607C18.314 11.8057 17.4541 12.0646 17.3978 12.8009C17.3978 12.8009 17.3934 12.8098 17.389 12.8187C17.9414 14.1126 18.8084 15.2419 19.8922 16.1136C20.5582 16.5336 21.2553 16.9359 21.9656 17.3115C21.9656 17.3115 21.9612 17.3204 21.9568 17.3293C22.1698 17.4131 22.3695 17.5015 22.5914 17.5676C24.6061 18.1935 26.7742 17.8435 28.7888 18.4694C30.95 19.135 32.0712 21.0222 32.7757 23.0343C34.497 27.9673 35.9361 38.4533 35.9762 38.5508C35.994 38.5597 35.3738 38.9378 35.294 38.9646C35.1745 39.0712 34.523 39.312 34.3941 39.1703C33.1723 38.0195 31.9637 36.8421 30.764 35.6691C29.6977 34.6289 28.5958 33.5932 27.6313 32.4597C26.76 31.428 26.1104 30.3071 25.6512 29.0263C25.183 27.7188 24.7415 26.4247 23.6354 25.5087C21.601 23.8095 18.8555 23.7172 16.3932 23.2562C11.6061 22.3472 3.28009 16.9079 3.26671 16.868C3.26671 16.868 3.25783 16.8636 3.24895 16.8592C2.87063 16.1503 3.29928 15.3335 3.70613 14.7162C4.29426 13.8015 4.91788 12.9044 5.64814 12.1047L5.64368 12.0914ZM9.66661 9.95057C8.51852 10.2543 7.54413 10.9436 6.72972 11.8011C6.00825 12.5609 5.39786 13.4313 4.83183 14.3016C4.45591 14.8567 3.98713 15.5539 4.07267 16.2279C4.2101 16.1966 4.34756 16.1874 4.44081 16.2449C6.82468 17.4423 9.19101 18.7417 11.7207 19.6239C15.8923 21.0795 20.4924 21.5852 24.2403 24.0706C25.9632 25.216 27.4831 26.8142 28.2629 28.7641C28.4813 29.3269 29.1359 30.7493 28.4804 31.2207C28.3741 31.3007 28.1703 31.3765 27.9486 31.4213C28.2599 31.8642 28.6022 32.2893 28.9666 32.6922C30.8244 34.7465 32.8947 36.6408 34.9118 38.5529C34.6312 35.5997 34.1777 32.6601 33.5424 29.7519C32.9966 27.2649 32.4418 24.6626 31.435 22.3007C30.985 21.246 30.3755 20.2227 29.4517 19.5193C28.6033 18.8645 27.5606 18.5782 26.5136 18.4338C24.4686 18.1583 22.411 18.2864 20.5066 17.372C19.9206 17.0804 19.3789 16.7221 18.8725 16.3151C16.0529 14.5464 13.534 12.3293 11.4225 9.7388C11.4225 9.7388 11.4845 9.70318 11.582 9.66308C10.939 9.70866 10.2872 9.77199 9.65774 9.94615L9.66661 9.95057ZM13.1475 9.61133C12.9168 9.60733 12.6995 9.62105 12.4645 9.62593C13.7981 11.2422 15.2733 12.7074 16.8945 14.0126C16.6765 13.6494 16.494 13.2816 16.3336 12.8916C16.3203 12.8739 16.3823 12.8383 16.462 12.7894C16.5986 12.3146 17.0593 12.0343 17.5024 11.8339C18.3266 11.4465 19.173 11.1034 20.0239 10.7292C21.6369 10.0254 23.2499 9.32162 24.8629 8.61783C24.8584 8.58236 24.8894 8.56455 24.916 8.55563C24.9337 8.54229 24.9648 8.54667 24.9825 8.53333C24.9647 8.52449 24.947 8.51566 24.9292 8.50682L24.9069 8.44033C24.822 8.12117 24.6308 7.8377 24.4174 7.57643C20.8142 8.89604 17.0101 9.48425 13.1652 9.598L13.1475 9.61133ZM9.00554 19.1589C7.79379 18.6335 6.57743 18.0282 5.39214 17.4273C7.32823 18.7009 9.29975 19.9478 11.3861 20.9639C13.6945 22.0904 16.0908 22.8177 18.6284 23.2164C20.6158 23.5187 22.7719 23.8605 24.3931 25.1214C21.6878 22.8558 18.107 21.9047 14.748 21.0196C12.8045 20.4955 10.8565 19.9581 8.99666 19.1545L9.00554 19.1589Z" fill="#1E1E1C"/>
<path d="M6.73869 11.8055C7.55311 10.948 8.52309 10.2676 9.6756 9.95495C10.305 9.78079 10.948 9.71304 11.5999 9.67188C11.5024 9.71198 11.4403 9.74759 11.4403 9.74759C13.5519 12.3381 16.0708 14.5552 18.8903 16.3239C19.3923 16.7398 19.9385 17.0891 20.5244 17.3807C22.4288 18.2952 24.4864 18.1671 26.5315 18.4426C27.5784 18.587 28.6123 18.8689 29.4695 19.5281C30.3933 20.2315 31.0118 21.2592 31.4528 22.3095C32.4552 24.6581 33.0189 27.2649 33.5603 29.7607C34.1956 32.6689 34.6402 35.604 34.9297 38.5617C32.9126 36.6496 30.8422 34.7553 28.9845 32.701C28.6201 32.2981 28.2822 31.8641 27.9665 31.4301C28.1793 31.3809 28.392 31.3095 28.4983 31.2295C29.1494 30.767 28.4991 29.3357 28.2808 28.7729C27.5009 26.823 25.99 25.2292 24.2581 24.0794C20.5014 21.5896 15.9013 21.0839 11.7385 19.6327C9.20888 18.7505 6.84255 17.4511 4.45867 16.2537C4.36101 16.2051 4.22354 16.2142 4.09054 16.2367C4.00499 15.5627 4.47377 14.8655 4.8497 14.3104C5.41573 13.4401 6.0261 12.5697 6.74757 11.8099L6.73869 11.8055Z" fill="#1E1E1C"/>
<path d="M12.469 9.63928C12.6952 9.62998 12.9213 9.62069 13.152 9.62469C16.988 9.50653 20.801 8.92273 24.4042 7.60312C24.622 7.85551 24.7999 8.14344 24.8937 8.46702L24.916 8.53351C24.916 8.53351 24.9471 8.56006 24.9693 8.56002C24.9515 8.57336 24.9205 8.56898 24.9028 8.58232C24.8762 8.59124 24.8541 8.61346 24.8497 8.64452C23.2367 9.34831 21.6236 10.0521 20.0106 10.7559C19.1687 11.1345 18.3267 11.4687 17.4892 11.8606C17.0461 12.061 16.5854 12.3413 16.4488 12.8161C16.3735 12.8561 16.3115 12.8917 16.3204 12.9183C16.4808 13.3083 16.6633 13.6761 16.8813 14.0393C15.2601 12.7341 13.7849 11.2689 12.4513 9.65263L12.469 9.63928Z" fill="#1E1E1C"/>
</svg>
